<svg width="2863" height="1423" xmlns="http://www.w3.org/2000/svg" xmlns:xlink="http://www.w3.org/1999/xlink" xml:space="preserve" overflow="hidden"><defs><clipPath id="clip0"><rect x="40" y="1140" width="2863" height="1423"/></clipPath></defs><g clip-path="url(#clip0)" transform="translate(-40 -1140)"><rect x="40.9999" y="1141" width="2860" height="1420" fill="#FFF0D1"/><g><path d="M289.5 2245.57 2549.5 2245.57M289.5 2128.57 2549.5 2128.57M289.5 2011.57 2549.5 2011.57M289.5 1895.56 2549.5 1895.56M289.5 1778.56 2549.5 1778.56M289.5 1661.55 2549.5 1661.55M289.5 1544.55 2549.5 1544.55M289.5 1427.55 2549.5 1427.55M289.5 1311.5 2549.5 1311.5" stroke="#D9D9D9" stroke-width="3.4375" stroke-linejoin="round" stroke-miterlimit="10" fill="none"/></g><g><path d="M289.5 2362.5 2549.5 2362.5" stroke="#D9D9D9" stroke-width="3.4375" stroke-linejoin="round" stroke-miterlimit="10" fill="none" fill-rule="evenodd"/></g><g><path d="M289.5 2362.5 289.5 2458.5M906.53 2362.5 906.53 2458.5M1522.55 2362.5 1522.55 2458.5M2138.57 2362.5 2138.57 2458.5M2549.5 2362.5 2549.5 2458.5" stroke="#D9D9D9" stroke-width="3.4375" stroke-linejoin="round" stroke-miterlimit="10" fill="none"/></g><g><path d="M289.5 2458.5 289.5 2538.5M906.53 2458.5 906.53 2538.5M1522.55 2458.5 1522.55 2538.5M2138.57 2458.5 2138.57 2538.5M2549.5 2458.5 2549.5 2538.5" stroke="#D9D9D9" stroke-width="3.4375" stroke-linejoin="round" stroke-miterlimit="10" fill="none"/></g><g><path d="M316 2144.07 367.012 2068.07 418.014 2099.07 470.015 2003.07 521.017 2299.08 572.019 2172.07 624.021 1959.06 675.022 1971.06 726.024 2153.07 778.026 2009.07 829.027 1997.07 880.029 2052.07 932.031 2307.08 983.032 1492.05 1034.03 2210.07 1086.04 2331.08 1137.04 2064.07 1188.04 1679.06 1240.04 1859.06 1291.04 2336 1343.04 2215.07 1394.05 1923.06 1445.05 1761.06 1497.05 2250.07 1548.05 2060.07 1599.05 1963.06 1651.05 1874.06 1702.06 2243.07 1753.06 2088.07 1805.06 1860.06 1856.06 2235.07 1907.06 2026.07 1959.06 1380 2010.07 2013.07 2061.07 1985.07 2113.07 1896.06 2164.07 2231.07 2215.07 2228.07 2267.07 2038.07 2318.08 2131.07 2369.08 2137.07 2421.08 2152.07 2472.08 2073.07 2524 2226.07" stroke="#A47E3B" stroke-width="10.3125" stroke-linecap="round" stroke-linejoin="round" stroke-miterlimit="10" fill="none"/></g><g><path d="M316 2005.07 367.012 2211.07 418.014 1954.06 470.015 1567 521.017 2265.07 572.019 1570.05 624.021 2042.07 675.022 2279.07 726.024 2168.07 778.026 2183.07 829.027 2288.07 880.029 1747.06 932.031 2285.07 983.032 1861.06 1034.03 2045.07 1086.04 1957.06 1137.04 1730.06 1188.04 1945.06 1240.04 2097.07 1291.04 2271.07 1343.04 2134.07 1394.05 1751.06 1445.05 2196.07 1497.05 1796.06 1548.05 2199.07 1599.05 2030.07 1651.05 1815.06 1702.06 2079.07 1753.06 2207.07 1805.06 2203.07 1856.06 1903.06 1907.06 2025.07 1959.06 1884.06 2010.07 2058.07 2061.07 1702.06 2113.07 2189.07 2164.07 2168.07 2215.07 2206.07 2267.07 2157.07 2318.08 2024.07 2369.08 2114.07 2421.08 1864.06 2472.08 2074.07 2524 2314" stroke="#61481C" stroke-width="10.3125" stroke-linecap="round" stroke-linejoin="round" stroke-miterlimit="10" fill="none"/></g><g><path d="M316 2113.07 367.012 1855.06 418.014 1987.07 470.015 1739.06 521.017 2136.07 572.019 2162.07 624.021 2147.07 675.022 2205.07 726.024 1849.06 778.026 2110.07 829.027 1952.06 880.029 2144.07 932.031 2041.07 983.032 2135.07 1034.03 2034.07 1086.04 2190.07 1137.04 2265.07 1188.04 1947.06 1240.04 2086.07 1291.04 2291.08 1343.04 2258.07 1394.05 1847.06 1445.05 1957.06 1497.05 2252.07 1548.05 2036.07 1599.05 2068.07 1651.05 1889.06 1702.06 1714.06 1753.06 2050.07 1805.06 2117.07 1856.06 2291.08 1907.06 2215.07 1959.06 2162.07 2010.07 1679.06 2061.07 1734.06 2113.07 1909.06 2164.07 1377 2215.07 2256.07 2267.07 1822.06 2318.08 2259.07 2369.08 2021.07 2421.08 2164.07 2472.08 2046.07 2524 2344" stroke="#C65D7B" stroke-width="10.3125" stroke-linecap="round" stroke-linejoin="round" stroke-miterlimit="10" fill="none"/></g><g><path d="M316 2218.07 367.012 2161.07 418.014 2215.07 470.015 2177.07 521.017 2283.07 572.019 1927.06 624.021 2127.07 675.022 2168.07 726.024 1787 778.026 2113.07 829.027 2250.07 880.029 2116.07 932.031 2153.07 983.032 1860.06 1034.03 2092.07 1086.04 2082.07 1137.04 2293.08 1188.04 2198.07 1240.04 1878.06 1291.04 2199.07 1343.04 2009.07 1394.05 2158.07 1445.05 2241.07 1497.05 2272.07 1548.05 2175.07 1599.05 2268.07 1651.05 2067.07 1702.06 2238.07 1753.06 2044.07 1805.06 2259.07 1856.06 2129.07 1907.06 1925.06 1959.06 2104.07 2010.07 2063.07 2061.07 2141.07 2113.07 2114.07 2164.07 2191.07 2215.07 2299 2267.07 1896.06 2318.08 2128.07 2369.08 2007.07 2421.08 1919.06 2472.08 2197.07 2524 2279.07" stroke="#E6B325" stroke-width="10.3125" stroke-linecap="round" stroke-linejoin="round" stroke-miterlimit="10" fill="none"/></g><g><text fill="#795757" font-family="Aptos Narrow,Aptos Narrow_MSFontService,sans-serif" font-weight="400" font-stretch="semi-condensed" font-size="41" transform="matrix(1 0 0 1 210.031 2374)">$0</text></g><g><text fill="#795757" font-family="Aptos Narrow,Aptos Narrow_MSFontService,sans-serif" font-weight="400" font-stretch="semi-condensed" font-size="41" transform="matrix(1 0 0 1 168.231 2257)">$100</text></g><g><text fill="#795757" font-family="Aptos Narrow,Aptos Narrow_MSFontService,sans-serif" font-weight="400" font-stretch="semi-condensed" font-size="41" transform="matrix(1 0 0 1 168.231 2140)">$200</text></g><g><text fill="#795757" font-family="Aptos Narrow,Aptos Narrow_MSFontService,sans-serif" font-weight="400" font-stretch="semi-condensed" font-size="41" transform="matrix(1 0 0 1 168.231 2023)">$300</text></g><g><text fill="#795757" font-family="Aptos Narrow,Aptos Narrow_MSFontService,sans-serif" font-weight="400" font-stretch="semi-condensed" font-size="41" transform="matrix(1 0 0 1 168.231 1907)">$400</text></g><g><text fill="#795757" font-family="Aptos Narrow,Aptos Narrow_MSFontService,sans-serif" font-weight="400" font-stretch="semi-condensed" font-size="41" transform="matrix(1 0 0 1 168.231 1790)">$500</text></g><g><text fill="#795757" font-family="Aptos Narrow,Aptos Narrow_MSFontService,sans-serif" font-weight="400" font-stretch="semi-condensed" font-size="41" transform="matrix(1 0 0 1 168.231 1673)">$600</text></g><g><text fill="#795757" font-family="Aptos Narrow,Aptos Narrow_MSFontService,sans-serif" font-weight="400" font-stretch="semi-condensed" font-size="41" transform="matrix(1 0 0 1 168.231 1556)">$700</text></g><g><text fill="#795757" font-family="Aptos Narrow,Aptos Narrow_MSFontService,sans-serif" font-weight="400" font-stretch="semi-condensed" font-size="41" transform="matrix(1 0 0 1 168.231 1440)">$800</text></g><g><text fill="#795757" font-family="Aptos Narrow,Aptos Narrow_MSFontService,sans-serif" font-weight="400" font-stretch="semi-condensed" font-size="41" transform="matrix(1 0 0 1 168.231 1323)">$900</text></g><g><text fill="#795757" font-family="Aptos Narrow,Aptos Narrow_MSFontService,sans-serif" font-weight="400" font-stretch="semi-condensed" font-size="41" transform="matrix(6.12323e-17 -1 1 6.12323e-17 329.416 2442)">Jan</text></g><g><text fill="#795757" font-family="Aptos Narrow,Aptos Narrow_MSFontService,sans-serif" font-weight="400" font-stretch="semi-condensed" font-size="41" transform="matrix(6.12323e-17 -1 1 6.12323e-17 380.765 2449)">Feb</text></g><g><text fill="#795757" font-family="Aptos Narrow,Aptos Narrow_MSFontService,sans-serif" font-weight="400" font-stretch="semi-condensed" font-size="41" transform="matrix(6.12323e-17 -1 1 6.12323e-17 432.115 2451)">Mar</text></g><g><text fill="#795757" font-family="Aptos Narrow,Aptos Narrow_MSFontService,sans-serif" font-weight="400" font-stretch="semi-condensed" font-size="41" transform="matrix(6.12323e-17 -1 1 6.12323e-17 483.464 2444)">Apr</text></g><g><text fill="#795757" font-family="Aptos Narrow,Aptos Narrow_MSFontService,sans-serif" font-weight="400" font-stretch="semi-condensed" font-size="41" transform="matrix(6.12323e-17 -1 1 6.12323e-17 534.814 2455)">May</text></g><g><text fill="#795757" font-family="Aptos Narrow,Aptos Narrow_MSFontService,sans-serif" font-weight="400" font-stretch="semi-condensed" font-size="41" transform="matrix(6.12323e-17 -1 1 6.12323e-17 586.164 2443)">Jun</text></g><g><text fill="#795757" font-family="Aptos Narrow,Aptos Narrow_MSFontService,sans-serif" font-weight="400" font-stretch="semi-condensed" font-size="41" transform="matrix(6.12323e-17 -1 1 6.12323e-17 637.513 2432)">Jul</text></g><g><text fill="#795757" font-family="Aptos Narrow,Aptos Narrow_MSFontService,sans-serif" font-weight="400" font-stretch="semi-condensed" font-size="41" transform="matrix(6.12323e-17 -1 1 6.12323e-17 688.863 2450)">Aug</text></g><g><text fill="#795757" font-family="Aptos Narrow,Aptos Narrow_MSFontService,sans-serif" font-weight="400" font-stretch="semi-condensed" font-size="41" transform="matrix(6.12323e-17 -1 1 6.12323e-17 740.212 2451)">Sep</text></g><g><text fill="#795757" font-family="Aptos Narrow,Aptos Narrow_MSFontService,sans-serif" font-weight="400" font-stretch="semi-condensed" font-size="41" transform="matrix(6.12323e-17 -1 1 6.12323e-17 791.562 2448)">Oct</text></g><g><text fill="#795757" font-family="Aptos Narrow,Aptos Narrow_MSFontService,sans-serif" font-weight="400" font-stretch="semi-condensed" font-size="41" transform="matrix(6.12323e-17 -1 1 6.12323e-17 842.911 2453)">Nov</text></g><g><text fill="#795757" font-family="Aptos Narrow,Aptos Narrow_MSFontService,sans-serif" font-weight="400" font-stretch="semi-condensed" font-size="41" transform="matrix(6.12323e-17 -1 1 6.12323e-17 894.261 2454)">Dec</text></g><g><text fill="#795757" font-family="Aptos Narrow,Aptos Narrow_MSFontService,sans-serif" font-weight="400" font-stretch="semi-condensed" font-size="41" transform="matrix(6.12323e-17 -1 1 6.12323e-17 945.61 2442)">Jan</text></g><g><text fill="#795757" font-family="Aptos Narrow,Aptos Narrow_MSFontService,sans-serif" font-weight="400" font-stretch="semi-condensed" font-size="41" transform="matrix(6.12323e-17 -1 1 6.12323e-17 996.96 2449)">Feb</text></g><g><text fill="#795757" font-family="Aptos Narrow,Aptos Narrow_MSFontService,sans-serif" font-weight="400" font-stretch="semi-condensed" font-size="41" transform="matrix(6.12323e-17 -1 1 6.12323e-17 1048.31 2451)">Mar</text></g><g><text fill="#795757" font-family="Aptos Narrow,Aptos Narrow_MSFontService,sans-serif" font-weight="400" font-stretch="semi-condensed" font-size="41" transform="matrix(6.12323e-17 -1 1 6.12323e-17 1099.66 2444)">Apr</text></g><g><text fill="#795757" font-family="Aptos Narrow,Aptos Narrow_MSFontService,sans-serif" font-weight="400" font-stretch="semi-condensed" font-size="41" transform="matrix(6.12323e-17 -1 1 6.12323e-17 1151.01 2455)">May</text></g><g><text fill="#795757" font-family="Aptos Narrow,Aptos Narrow_MSFontService,sans-serif" font-weight="400" font-stretch="semi-condensed" font-size="41" transform="matrix(6.12323e-17 -1 1 6.12323e-17 1202.36 2443)">Jun</text></g><g><text fill="#795757" font-family="Aptos Narrow,Aptos Narrow_MSFontService,sans-serif" font-weight="400" font-stretch="semi-condensed" font-size="41" transform="matrix(6.12323e-17 -1 1 6.12323e-17 1253.71 2432)">Jul</text></g><g><text fill="#795757" font-family="Aptos Narrow,Aptos Narrow_MSFontService,sans-serif" font-weight="400" font-stretch="semi-condensed" font-size="41" transform="matrix(6.12323e-17 -1 1 6.12323e-17 1305.06 2450)">Aug</text></g><g><text fill="#795757" font-family="Aptos Narrow,Aptos Narrow_MSFontService,sans-serif" font-weight="400" font-stretch="semi-condensed" font-size="41" transform="matrix(6.12323e-17 -1 1 6.12323e-17 1356.41 2451)">Sep</text></g><g><text fill="#795757" font-family="Aptos Narrow,Aptos Narrow_MSFontService,sans-serif" font-weight="400" font-stretch="semi-condensed" font-size="41" transform="matrix(6.12323e-17 -1 1 6.12323e-17 1407.76 2448)">Oct</text></g><g><text fill="#795757" font-family="Aptos Narrow,Aptos Narrow_MSFontService,sans-serif" font-weight="400" font-stretch="semi-condensed" font-size="41" transform="matrix(6.12323e-17 -1 1 6.12323e-17 1459.11 2453)">Nov</text></g><g><text fill="#795757" font-family="Aptos Narrow,Aptos Narrow_MSFontService,sans-serif" font-weight="400" font-stretch="semi-condensed" font-size="41" transform="matrix(6.12323e-17 -1 1 6.12323e-17 1510.46 2454)">Dec</text></g><g><text fill="#795757" font-family="Aptos Narrow,Aptos Narrow_MSFontService,sans-serif" font-weight="400" font-stretch="semi-condensed" font-size="41" transform="matrix(6.12323e-17 -1 1 6.12323e-17 1561.8 2442)">Jan</text></g><g><text fill="#795757" font-family="Aptos Narrow,Aptos Narrow_MSFontService,sans-serif" font-weight="400" font-stretch="semi-condensed" font-size="41" transform="matrix(6.12323e-17 -1 1 6.12323e-17 1613.15 2449)">Feb</text></g><g><text fill="#795757" font-family="Aptos Narrow,Aptos Narrow_MSFontService,sans-serif" font-weight="400" font-stretch="semi-condensed" font-size="41" transform="matrix(6.12323e-17 -1 1 6.12323e-17 1664.5 2451)">Mar</text></g><g><text fill="#795757" font-family="Aptos Narrow,Aptos Narrow_MSFontService,sans-serif" font-weight="400" font-stretch="semi-condensed" font-size="41" transform="matrix(6.12323e-17 -1 1 6.12323e-17 1715.85 2444)">Apr</text></g><g><text fill="#795757" font-family="Aptos Narrow,Aptos Narrow_MSFontService,sans-serif" font-weight="400" font-stretch="semi-condensed" font-size="41" transform="matrix(6.12323e-17 -1 1 6.12323e-17 1767.2 2455)">May</text></g><g><text fill="#795757" font-family="Aptos Narrow,Aptos Narrow_MSFontService,sans-serif" font-weight="400" font-stretch="semi-condensed" font-size="41" transform="matrix(6.12323e-17 -1 1 6.12323e-17 1818.55 2443)">Jun</text></g><g><text fill="#795757" font-family="Aptos Narrow,Aptos Narrow_MSFontService,sans-serif" font-weight="400" font-stretch="semi-condensed" font-size="41" transform="matrix(6.12323e-17 -1 1 6.12323e-17 1869.9 2432)">Jul</text></g><g><text fill="#795757" font-family="Aptos Narrow,Aptos Narrow_MSFontService,sans-serif" font-weight="400" font-stretch="semi-condensed" font-size="41" transform="matrix(6.12323e-17 -1 1 6.12323e-17 1921.25 2450)">Aug</text></g><g><text fill="#795757" font-family="Aptos Narrow,Aptos Narrow_MSFontService,sans-serif" font-weight="400" font-stretch="semi-condensed" font-size="41" transform="matrix(6.12323e-17 -1 1 6.12323e-17 1972.6 2451)">Sep</text></g><g><text fill="#795757" font-family="Aptos Narrow,Aptos Narrow_MSFontService,sans-serif" font-weight="400" font-stretch="semi-condensed" font-size="41" transform="matrix(6.12323e-17 -1 1 6.12323e-17 2023.95 2448)">Oct</text></g><g><text fill="#795757" font-family="Aptos Narrow,Aptos Narrow_MSFontService,sans-serif" font-weight="400" font-stretch="semi-condensed" font-size="41" transform="matrix(6.12323e-17 -1 1 6.12323e-17 2075.3 2453)">Nov</text></g><g><text fill="#795757" font-family="Aptos Narrow,Aptos Narrow_MSFontService,sans-serif" font-weight="400" font-stretch="semi-condensed" font-size="41" transform="matrix(6.12323e-17 -1 1 6.12323e-17 2126.65 2454)">Dec</text></g><g><text fill="#795757" font-family="Aptos Narrow,Aptos Narrow_MSFontService,sans-serif" font-weight="400" font-stretch="semi-condensed" font-size="41" transform="matrix(6.12323e-17 -1 1 6.12323e-17 2178 2442)">Jan</text></g><g><text fill="#795757" font-family="Aptos Narrow,Aptos Narrow_MSFontService,sans-serif" font-weight="400" font-stretch="semi-condensed" font-size="41" transform="matrix(6.12323e-17 -1 1 6.12323e-17 2229.35 2449)">Feb</text></g><g><text fill="#795757" font-family="Aptos Narrow,Aptos Narrow_MSFontService,sans-serif" font-weight="400" font-stretch="semi-condensed" font-size="41" transform="matrix(6.12323e-17 -1 1 6.12323e-17 2280.7 2451)">Mar</text></g><g><text fill="#795757" font-family="Aptos Narrow,Aptos Narrow_MSFontService,sans-serif" font-weight="400" font-stretch="semi-condensed" font-size="41" transform="matrix(6.12323e-17 -1 1 6.12323e-17 2332.05 2444)">Apr</text></g><g><text fill="#795757" font-family="Aptos Narrow,Aptos Narrow_MSFontService,sans-serif" font-weight="400" font-stretch="semi-condensed" font-size="41" transform="matrix(6.12323e-17 -1 1 6.12323e-17 2383.4 2455)">May</text></g><g><text fill="#795757" font-family="Aptos Narrow,Aptos Narrow_MSFontService,sans-serif" font-weight="400" font-stretch="semi-condensed" font-size="41" transform="matrix(6.12323e-17 -1 1 6.12323e-17 2434.75 2443)">Jun</text></g><g><text fill="#795757" font-family="Aptos Narrow,Aptos Narrow_MSFontService,sans-serif" font-weight="400" font-stretch="semi-condensed" font-size="41" transform="matrix(6.12323e-17 -1 1 6.12323e-17 2486.1 2432)">Jul</text></g><g><text fill="#795757" font-family="Aptos Narrow,Aptos Narrow_MSFontService,sans-serif" font-weight="400" font-stretch="semi-condensed" font-size="41" transform="matrix(6.12323e-17 -1 1 6.12323e-17 2537.45 2450)">Aug</text></g><g><text fill="#795757" font-family="Aptos Narrow,Aptos Narrow_MSFontService,sans-serif" font-weight="400" font-stretch="semi-condensed" font-size="41" transform="matrix(1 0 0 1 556.212 2523)">2019</text></g><g><text fill="#795757" font-family="Aptos Narrow,Aptos Narrow_MSFontService,sans-serif" font-weight="400" font-stretch="semi-condensed" font-size="41" transform="matrix(1 0 0 1 1172.41 2523)">2020</text></g><g><text fill="#795757" font-family="Aptos Narrow,Aptos Narrow_MSFontService,sans-serif" font-weight="400" font-stretch="semi-condensed" font-size="41" transform="matrix(1 0 0 1 1788.6 2523)">2021</text></g><g><text fill="#795757" font-family="Aptos Narrow,Aptos Narrow_MSFontService,sans-serif" font-weight="400" font-stretch="semi-condensed" font-size="41" transform="matrix(1 0 0 1 2302.1 2523)">2022</text></g><g><text fill="#795757" font-family="Aptos Narrow,Aptos Narrow_MSFontService,sans-serif" font-weight="400" font-stretch="semi-condensed" font-size="46" transform="matrix(6.12323e-17 -1 1 6.12323e-17 141.533 1877)">USD</text></g><g><text fill="#3B3030" font-family="Aptos Display,Aptos Display_MSFontService,sans-serif" font-weight="700" font-size="64" transform="matrix(1 0 0 1 1178.43 1236)">Total Sales Over Time</text></g><g><path d="M2621 1795 2709 1795" stroke="#A47E3B" stroke-width="10.3125" stroke-linecap="round" stroke-linejoin="round" stroke-miterlimit="10" fill="none" fill-rule="evenodd"/></g><g><text fill="#795757" font-family="Aptos Narrow,Aptos Narrow_MSFontService,sans-serif" font-weight="400" font-stretch="semi-condensed" font-size="41" transform="matrix(1 0 0 1 2718.3 1806)">Arabica</text></g><g><path d="M2621 1872 2709 1872" stroke="#61481C" stroke-width="10.3125" stroke-linecap="round" stroke-linejoin="round" stroke-miterlimit="10" fill="none" fill-rule="evenodd"/></g><g><text fill="#795757" font-family="Aptos Narrow,Aptos Narrow_MSFontService,sans-serif" font-weight="400" font-stretch="semi-condensed" font-size="41" transform="matrix(1 0 0 1 2718.3 1884)">Excelsa</text></g><g><path d="M2621 1950 2709 1950" stroke="#C65D7B" stroke-width="10.3125" stroke-linecap="round" stroke-linejoin="round" stroke-miterlimit="10" fill="none" fill-rule="evenodd"/></g><g><text fill="#795757" font-family="Aptos Narrow,Aptos Narrow_MSFontService,sans-serif" font-weight="400" font-stretch="semi-condensed" font-size="41" transform="matrix(1 0 0 1 2718.3 1961)">Liberica</text></g><g><path d="M2621 2027 2709 2027" stroke="#E6B325" stroke-width="10.3125" stroke-linecap="round" stroke-linejoin="round" stroke-miterlimit="10" fill="none" fill-rule="evenodd"/></g><g><text fill="#795757" font-family="Aptos Narrow,Aptos Narrow_MSFontService,sans-serif" font-weight="400" font-stretch="semi-condensed" font-size="41" transform="matrix(1 0 0 1 2718.3 2038)">Robusta</text></g><rect x="41.5001" y="1141.5" width="2860" height="1420" stroke="#D9D9D9" stroke-width="3.4375" stroke-linejoin="round" stroke-miterlimit="10" fill="none"/></g></svg>