<svg width="2065" height="691" xmlns="http://www.w3.org/2000/svg" xmlns:xlink="http://www.w3.org/1999/xlink" xml:space="preserve" overflow="hidden"><defs><clipPath id="clip0"><rect x="2942" y="1872" width="2065" height="691"/></clipPath></defs><g clip-path="url(#clip0)" transform="translate(-2942 -1872)"><rect x="2943" y="1873" width="2062" height="688" fill="#FFF0D1"/><g><path d="M3472.61 2043.5 3472.61 2454.5M3647.62 2043.5 3647.62 2454.5M3823.63 2043.5 3823.63 2454.5M3999.63 2043.5 3999.63 2454.5M4174.64 2043.5 4174.64 2454.5M4350.64 2043.5 4350.64 2454.5M4525.5 2043.5 4525.5 2454.5" stroke="#D9D9D9" stroke-width="3.4375" stroke-linejoin="round" stroke-miterlimit="10" fill="none"/></g><g><rect x="3297" y="2399" width="492" height="28.9998" fill="#E1ACAC"/></g><g><rect x="3297" y="2317" width="556" height="29.0002" fill="#DE7C7D"/></g><g><rect x="3297" y="2235" width="687" height="28.9998" fill="#CC2B52"/></g><g><rect x="3297" y="2152" width="1001" height="29.0002" fill="#AF1740"/></g><g><path d="M4474.15 2099.07 3297 2099.07 3297 2070.07 4474.15 2070.07Z" fill="#740938"/></g><g><path d="M0 0 0.000360892 411" stroke="#D9D9D9" stroke-width="3.4375" stroke-linejoin="round" stroke-miterlimit="10" fill="none" fill-rule="evenodd" transform="matrix(1 0 0 -1 3297.5 2454.5)"/></g><g><text fill="#3B3030" font-family="Aptos Narrow,Aptos Narrow_MSFontService,sans-serif" font-weight="400" font-stretch="semi-condensed" font-size="41" transform="matrix(1 0 0 1 3816.22 2428)">$278</text></g><g><text fill="#3B3030" font-family="Aptos Narrow,Aptos Narrow_MSFontService,sans-serif" font-weight="400" font-stretch="semi-condensed" font-size="41" transform="matrix(1 0 0 1 3880.55 2345)">$282</text></g><g><text fill="#3B3030" font-family="Aptos Narrow,Aptos Narrow_MSFontService,sans-serif" font-weight="400" font-stretch="semi-condensed" font-size="41" transform="matrix(1 0 0 1 4011.07 2263)">$289</text></g><g><text fill="#3B3030" font-family="Aptos Narrow,Aptos Narrow_MSFontService,sans-serif" font-weight="400" font-stretch="semi-condensed" font-size="41" transform="matrix(1 0 0 1 4325.91 2181)">$307</text></g><g><text fill="#3B3030" font-family="Aptos Narrow,Aptos Narrow_MSFontService,sans-serif" font-weight="400" font-stretch="semi-condensed" font-size="41" transform="matrix(1 0 0 1 4501.89 2098)">$317</text></g><g><text fill="#3B3030" font-family="Aptos Narrow,Aptos Narrow_MSFontService,sans-serif" font-weight="400" font-stretch="semi-condensed" font-size="41" transform="matrix(1 0 0 1 3255.22 2520)">$250</text></g><g><text fill="#3B3030" font-family="Aptos Narrow,Aptos Narrow_MSFontService,sans-serif" font-weight="400" font-stretch="semi-condensed" font-size="41" transform="matrix(1 0 0 1 3430.76 2520)">$260</text></g><g><text fill="#3B3030" font-family="Aptos Narrow,Aptos Narrow_MSFontService,sans-serif" font-weight="400" font-stretch="semi-condensed" font-size="41" transform="matrix(1 0 0 1 3606.31 2520)">$270</text></g><g><text fill="#3B3030" font-family="Aptos Narrow,Aptos Narrow_MSFontService,sans-serif" font-weight="400" font-stretch="semi-condensed" font-size="41" transform="matrix(1 0 0 1 3781.85 2520)">$280</text></g><g><text fill="#3B3030" font-family="Aptos Narrow,Aptos Narrow_MSFontService,sans-serif" font-weight="400" font-stretch="semi-condensed" font-size="41" transform="matrix(1 0 0 1 3957.39 2520)">$290</text></g><g><text fill="#3B3030" font-family="Aptos Narrow,Aptos Narrow_MSFontService,sans-serif" font-weight="400" font-stretch="semi-condensed" font-size="41" transform="matrix(1 0 0 1 4132.94 2520)">$300</text></g><g><text fill="#3B3030" font-family="Aptos Narrow,Aptos Narrow_MSFontService,sans-serif" font-weight="400" font-stretch="semi-condensed" font-size="41" transform="matrix(1 0 0 1 4308.48 2520)">$310</text></g><g><text fill="#3B3030" font-family="Aptos Narrow,Aptos Narrow_MSFontService,sans-serif" font-weight="400" font-stretch="semi-condensed" font-size="41" transform="matrix(1 0 0 1 4484.03 2520)">$320</text></g><g><text fill="#3B3030" font-family="Aptos Narrow,Aptos Narrow_MSFontService,sans-serif" font-weight="400" font-stretch="semi-condensed" font-size="41" transform="matrix(1 0 0 1 3079.24 2425)">Don Flintiff</text></g><g><text fill="#3B3030" font-family="Aptos Narrow,Aptos Narrow_MSFontService,sans-serif" font-weight="400" font-stretch="semi-condensed" font-size="41" transform="matrix(1 0 0 1 3000.13 2343)">Nealson Cuttler</text></g><g><text fill="#3B3030" font-family="Aptos Narrow,Aptos Narrow_MSFontService,sans-serif" font-weight="400" font-stretch="semi-condensed" font-size="41" transform="matrix(1 0 0 1 3092.99 2261)">Terri Farra</text></g><g><text fill="#3B3030" font-family="Aptos Narrow,Aptos Narrow_MSFontService,sans-serif" font-weight="400" font-stretch="semi-condensed" font-size="41" transform="matrix(1 0 0 1 2972.29 2178)">Brenn Dundredge</text></g><g><text fill="#3B3030" font-family="Aptos Narrow,Aptos Narrow_MSFontService,sans-serif" font-weight="400" font-stretch="semi-condensed" font-size="41" transform="matrix(1 0 0 1 3042.9 2096)">Allis Wilmore</text></g><g><text fill="#3B3030" font-family="Aptos Display,Aptos Display_MSFontService,sans-serif" font-weight="700" font-size="64" transform="matrix(1 0 0 1 3706.77 1968)">Top Five Customers</text></g><g><rect x="4640" y="2111" width="22" height="23" fill="#E1ACAC"/></g><g><text fill="#3B3030" font-family="Aptos Narrow,Aptos Narrow_MSFontService,sans-serif" font-weight="400" font-stretch="semi-condensed" font-size="41" transform="matrix(1 0 0 1 4671.95 2134)">Don Flintiff</text></g><g><rect x="4640" y="2188" width="22" height="23" fill="#DE7C7D"/></g><g><text fill="#3B3030" font-family="Aptos Narrow,Aptos Narrow_MSFontService,sans-serif" font-weight="400" font-stretch="semi-condensed" font-size="41" transform="matrix(1 0 0 1 4671.95 2211)">Nealson Cuttler</text></g><g><rect x="4640" y="2266" width="22" height="22" fill="#CC2B52"/></g><g><text fill="#3B3030" font-family="Aptos Narrow,Aptos Narrow_MSFontService,sans-serif" font-weight="400" font-stretch="semi-condensed" font-size="41" transform="matrix(1 0 0 1 4671.95 2289)">Terri Farra</text></g><g><rect x="4640" y="2343" width="22" height="23" fill="#AF1740"/></g><g><text fill="#3B3030" font-family="Aptos Narrow,Aptos Narrow_MSFontService,sans-serif" font-weight="400" font-stretch="semi-condensed" font-size="41" transform="matrix(1 0 0 1 4671.95 2366)">Brenn Dundredge</text></g><g><rect x="4640" y="2420" width="22" height="23" fill="#740938"/></g><g><text fill="#3B3030" font-family="Aptos Narrow,Aptos Narrow_MSFontService,sans-serif" font-weight="400" font-stretch="semi-condensed" font-size="41" transform="matrix(1 0 0 1 4671.95 2443)">Allis Wilmore</text></g><rect x="2943.5" y="1873.5" width="2062" height="688" stroke="#D9D9D9" stroke-width="3.4375" stroke-linejoin="round" stroke-miterlimit="10" fill="none"/></g></svg>