<?xml version="1.0" encoding="UTF-8"?>
<svg id="Layer_2" data-name="Layer 2" xmlns="http://www.w3.org/2000/svg" viewBox="0 0 272.79 208.39">
  <defs>
    <style>
      .cls-1 {
        fill: #eb9481;
      }

      .cls-1, .cls-2, .cls-3, .cls-4, .cls-5, .cls-6, .cls-7, .cls-8 {
        stroke-width: 0px;
      }

      .cls-2 {
        fill: #263238;
      }

      .cls-3 {
        fill: #455a64;
      }

      .cls-4 {
        fill: #ff9cbd;
      }

      .cls-5 {
        fill: #ffc727;
      }

      .cls-6 {
        fill: #c95f50;
      }

      .cls-7 {
        fill: #020100;
      }

      .cls-7, .cls-8 {
        opacity: .1;
      }

      .cls-8 {
        fill: #000;
      }
    </style>
  </defs>
  <g id="Gears">
    <g>
      <path class="cls-5" d="M203,47.34v-6.67l-7.94-.8c-.41-3.66-1.38-7.14-2.8-10.39l6.43-4.63-3.34-5.79-7.25,3.29c-2.15-2.9-4.73-5.47-7.64-7.6l3.27-7.23-5.79-3.34-4.65,6.46c-3.25-1.42-6.73-2.35-10.39-2.75l-.8-7.9h-6.67l-.8,7.92c-3.66.43-7.14,1.4-10.39,2.82l-4.63-6.43-5.79,3.34,3.27,7.25c-2.88,2.15-5.44,4.73-7.57,7.64l-7.23-3.27-3.36,5.79,6.48,4.63c-1.42,3.27-2.37,6.76-2.75,10.41l-7.9.8v6.67l7.92.8c.43,3.66,1.4,7.14,2.82,10.39l-6.46,4.63,3.36,5.79,7.25-3.27c2.15,2.88,4.73,5.44,7.62,7.57l-3.25,7.23,5.79,3.36,4.63-6.48c3.25,1.42,6.76,2.37,10.41,2.75l.8,7.9h6.67l.8-7.92c3.66-.43,7.14-1.4,10.39-2.82l4.63,6.43,5.79-3.34-3.29-7.25c2.9-2.15,5.47-4.73,7.6-7.64l7.23,3.27,3.34-5.79-6.46-4.63c1.4-3.25,2.35-6.76,2.75-10.41l7.9-.8ZM158.89,59.43c-8.46,0-15.32-6.86-15.32-15.32s6.86-15.32,15.32-15.32,15.32,6.86,15.32,15.32-6.86,15.32-15.32,15.32Z"/>
      <polygon class="cls-5" points="167.83 53.13 171.18 40.88 162.24 31.86 149.96 35.09 146.61 47.34 155.55 56.36 167.83 53.13"/>
      <circle class="cls-7" cx="158.89" cy="44.11" r="27.35" transform="translate(-4.92 63.05) rotate(-22.11)"/>
    </g>
  </g>
  <g id="Character_6" data-name="Character 6">
    <g>
      <g>
        <path class="cls-2" d="M254.78,99.21c-.16,4.68,2.22,6.34,2.28,8.85,0,0-10.83,4.67-28.9,4.05-18.06-.62-28.55-6.01-28.55-6.01.23-2.5,2.72-4,2.88-8.67.18-5.4-3.41-5.92-2.28-14.07.84-6.07,5.44-6.66,6.58-18.61,1.17-12.35,6.04-17.18,9.77-19.86,7.25-5.22,14.04-4.14,14.04-4.14,0,0,6.5-1.07,13.38,4.63,3.54,2.93,8.41,8.53,8.74,20.93.32,12,4.87,12.9,5.29,19.01.58,8.21-3.05,8.49-3.23,13.89Z"/>
        <path class="cls-2" d="M206.32,71.41c1.67-3.37,1.75-7.45,1.59-11.18,0-.18-.25-.2-.26,0-.16,3.57-.13,7.26-1.67,10.52-1.33,2.82-3.7,4.8-5.55,7.18-1.71,2.21-2.79,4.8-2.85,7.72-.03,1.46.19,2.93.65,4.3.49,1.46,1.36,2.6,2.04,3.93,2.07,4.03-.74,8.17-3.02,11.22-.02.03.03.08.05.05,1.87-2.29,3.89-4.83,4.17-8.03.14-1.58-.3-3-1.06-4.32-.85-1.47-1.6-2.87-1.93-4.6-.65-3.46.27-6.82,2.28-9.53,1.81-2.45,4.16-4.43,5.55-7.24Z"/>
        <path class="cls-2" d="M259.82,85.02c-.52-3.48-2.25-6.15-4.02-8.99-.86-1.38-1.67-2.81-2.2-4.39-.59-1.77-.85-3.65-1.07-5.52-.23-2.05-.43-4.1-.86-6.11-.44-2.03-1.1-3.95-1.86-5.86-.03-.09-.15-.02-.12.07,1.41,3.6,1.96,7.41,2.32,11.28.32,3.5.88,6.72,2.62,9.72,1.66,2.87,3.71,5.44,4.44,8.83.77,3.61.89,8.07-1.04,11.28-1.58,2.63-4.58,5.65-3.15,9.1.05.11.22.04.18-.08-1.15-3.92,2.31-6.58,3.83-9.63,1.44-2.87,1.38-6.56.91-9.7Z"/>
      </g>
      <g>
        <g>
          <path class="cls-6" d="M225.71,112.21c-19.75,15.51-41.67,24.03-48.52,24.61-8.67.74-45.73-17.9-47.48-19.03-4.32-2.82,13.94-31.92,18.69-29.1,7.23,4.29,31.43,20.22,34.01,19.91,2.69-.33,18.03-3.75,39.68-9.66,14.95-4.09,15.89,3.63,3.63,13.25Z"/>
          <g>
            <g>
              <path class="cls-6" d="M135.53,120.84c-3.71-1.11-20.25-7.72-24.44-10.59-4.19-2.87-15.66-12-13.79-15.43,1.87-3.43,5.44-1.03,5.44-1.03,0,0-4.23-4.62-2.03-7.91,2.2-3.28,7.63.64,7.63.64,0,0-4-5.06-1.57-8.18,2.43-3.12,7.23,1.74,7.23,1.74,0,0-3.87-4.46-.79-6.19,3.71-2.08,9.92,6.95,14.78,9.76,1.11.64,23.32,11.38,23.32,11.38l-15.77,25.8Z"/>
              <g>
                <path class="cls-2" d="M113.57,79.68c4.58,6.63,7.74,8.73,15.03,11.84.14.06.08.29-.07.24-7.42-2.39-11.76-4.46-15.3-11.87-.17-.36.11-.52.33-.21Z"/>
                <path class="cls-2" d="M107.98,86c5.36,6.47,8.76,8.78,16.16,12.6.1.05.02.24-.09.19-7.58-3.14-11.85-5.3-16.36-12.47-.2-.32.04-.62.28-.32Z"/>
                <path class="cls-2" d="M103.12,93.98c5.64,5.89,9.26,8.58,16.92,11.37.18.07.1.34-.09.29-8.09-2.08-12.63-5.41-17-11.46-.3-.41-.19-.56.16-.19Z"/>
              </g>
            </g>
            <g>
              <path class="cls-6" d="M157.19,96.63s-4.48-9.05-7.32-12.59c-2.84-3.54-18.3-12.84-20.5-9.61-2.84,4.16,5.03,11.29,9.34,14.27,0,0-6.57,9.62-2.03,15.96,4.54,6.33,20.52-8.03,20.52-8.03Z"/>
              <path class="cls-2" d="M128.96,75.83c.15,5.66,6.06,9.22,10.02,12.43.3.24.21.57-.02.77-2.48,4.22-4.76,10.89-2.61,15.59.06.14-.12.25-.21.12-2.99-4.72-1.29-11.46,1.73-15.91-4.12-3.23-9.88-7.05-8.97-12.99,0-.03.05-.04.05,0Z"/>
            </g>
          </g>
        </g>
        <g>
          <path class="cls-5" d="M154.86,90.35l-14.2,38.42s30.71,11.78,39.34,10.54c8.62-1.25,34.88-16.57,48.05-26.41,13.06-9.76,8.37-19.24-3.75-16.06-12.12,3.17-41.86,10.55-43,10.32-1.14-.24-26.44-16.8-26.44-16.8Z"/>
          <path class="cls-2" d="M153.3,116.98c1.56-4.29,3.1-8.59,4.82-12.83.98-2.4,1.95-4.82,2.95-7.21.04-.09.2-.04.17.06-1.4,4.37-2.81,8.75-4.41,13.05-1.59,4.28-3.15,8.58-4.79,12.84-.94,2.42-1.94,4.81-3.03,7.17-.02.05-.1.02-.09-.03,1.25-4.42,2.81-8.73,4.39-13.05Z"/>
          <path class="cls-8" d="M228.04,112.9c-9.96,7.44-27.39,18.02-39.03,23.26l38.31-39.88c9.78-.95,12.64,7.72.72,16.62Z"/>
        </g>
      </g>
      <g>
        <g>
          <path class="cls-5" d="M266.68,177.4l-69.96.82,6.27-25.17s-8.01-8.07-3.37-20.37c1.81-4.81,17.35-27.39,23.69-34.92,6.15-7.31,17.16-4.31,21.2-.06,14.25,15.02,16.75,40.88,22.17,79.7Z"/>
          <g>
            <path class="cls-2" d="M210.67,151.52c3.15-.56,6.48-.27,9.72.32,3.27.59,10.69,2.93,12.55,3.5.05.01.05.1,0,.1-3.27-.45-3.73-.6-6.98-1.41-3.25-.81-6.5-1.48-9.76-1.98-1.84-.28-3.66-.31-5.48-.28-.12,0-.17-.23-.04-.25Z"/>
            <path class="cls-2" d="M205.59,154.85c4.41-1.48,9.17-1.67,13.86-1,.06,0,.07.13.01.13-2.32.07-4.62.15-6.92.33-2.31.18-4.61.47-6.92.7-.08,0-.1-.14-.03-.17Z"/>
          </g>
        </g>
        <g>
          <g>
            <path class="cls-1" d="M249.57,107.09c15.24,24.25,27.5,60.43,20.63,67.62-7.65,8.01-28.76-24.93-28.24-26.5.39-1.19-.51-18.63-3.4-38.51-2.88-19.86,7.24-8.62,11.01-2.62Z"/>
            <g>
              <path class="cls-5" d="M242.4,152.85c-.18-2.86-4.25-33.6-5.45-44.89-1.2-11.29,4.18-13.79,12.76-1.69,8.58,12.1,21.79,38.06,22.98,56.22,1.15,17.49-7.5,17.12-17.19,6.9-7.94-8.37-13.1-16.54-13.1-16.54Z"/>
              <g>
                <path class="cls-2" d="M242.53,155.99c-.21-3.42-.51-6.87-.83-10.32-.32-3.45-.71-6.92-1.06-10.37l-1.26-10.42-.7-5.23c-.27-1.75-.5-3.49-.79-5.25.09,1.71.25,3.43.37,5.15l.46,5.17,1.06,10.38c.42,3.48.8,6.94,1.26,10.42.46,3.48.93,6.97,1.49,10.48Z"/>
                <path class="cls-2" d="M238.7,122.48c-.19-.94-.49-1.85-.81-2.74-.17-.45-.34-.89-.52-1.33-.18-.44-.39-.87-.59-1.31.1.96.41,1.87.72,2.77.33.89.7,1.77,1.19,2.61Z"/>
              </g>
            </g>
          </g>
          <g>
            <g>
              <path class="cls-6" d="M270.87,173.42c-4.78,7.01-16.59,8.74-49.52,15.57-4.56.95-20.89-29.94-16.08-31.2,6.06-1.59,29.94-6.43,31.73-6.56,15.1-1.13,37.11,17.44,33.86,22.19Z"/>
              <g>
                <path class="cls-6" d="M216.54,157.05s-12.7-.58-21.02-.56c-4.64,0-12.6.73-16.01,2.3-5.1,2.34-24.93,15.4-21.87,20.27,2.77,4.41,18.38-8.96,18.38-8.96,0,0-16.95,12.11-12.63,16.81,4.31,4.7,19.94-12.76,19.94-12.76,0,0-17.13,12.83-11.92,16.97,3.94,3.13,18.99-11.89,18.99-11.89,0,0-14.65,11.13-10.74,14.52,4.33,3.75,19.08-9.24,19.08-9.24,11.4,6.96,19.68,5.6,25.45,3.94,1.4-.4-7.66-31.4-7.66-31.4Z"/>
                <g>
                  <path class="cls-2" d="M181.62,165.53c-2.04,1.35-4.12,2.7-6.03,4.23-1.92,1.53-3.78,3.12-5.54,4.82-4.33,4.17-6.39,7.45-6.24,7.26,3.53-4.47,10.3-10.04,12.22-11.57,1.91-1.52,3.75-3.14,5.66-4.67.05-.04-.01-.1-.06-.07Z"/>
                  <path class="cls-2" d="M187.26,172.34c-2.53,1.84-5.11,3.57-7.57,5.52-2.44,1.94-4.59,3.99-6.89,6.1-.18.16-.03.2.15.05,2.38-2.01,4.74-3.68,7.15-5.66,2.4-1.97,4.74-4.06,7.2-5.94.04-.03,0-.08-.05-.06Z"/>
                  <path class="cls-2" d="M193.15,177.32c-4.01,2.61-7.54,5.96-10.93,9.32-.17.17.02.2.21.04,3.57-3.17,6.35-5.68,10.81-9.22.07-.06,0-.19-.09-.14Z"/>
                </g>
              </g>
            </g>
            <g>
              <path class="cls-5" d="M208.94,156.24l29.27,31.88s28.8-7.13,33.02-14.68c2.78-4.97-19.09-24.62-35.68-22.11l-26.61,4.91Z"/>
              <g>
                <path class="cls-2" d="M255.44,156.36c-2.7-1.91-10.3-6.36-19.91-5.04-.08.01-.09.15,0,.15,7.25-.28,17.09,3.4,19.84,5.02.07.04.13-.07.06-.12Z"/>
                <path class="cls-2" d="M246.06,182.65c-3.03-3.68-6.26-7.19-9.49-10.69-3.24-3.51-6.47-7.02-9.79-10.44-1.88-1.93-3.74-3.88-5.69-5.75-.05-.05-.15.02-.1.08,3.02,3.67,6.24,7.2,9.44,10.72,3.21,3.53,6.47,7.02,9.75,10.49,1.86,1.96,3.75,3.88,5.69,5.75.1.09.27-.04.19-.15Z"/>
                <path class="cls-2" d="M208.89,155.83c1.76-.6,3.58-.93,5.41-1.29,1.82-.36,3.65-.69,5.48-1.01,3.64-.62,11.28-2.36,18.01-2.42.07,0-.3.36-.38.36-3.21-.14-26.12,4.69-28.01,4.84.08.12.15.25.21.38.04.09-.05.21-.15.15-.24-.16-.41-.35-.63-.53-.18-.14-.16-.41.07-.48Z"/>
              </g>
            </g>
          </g>
        </g>
      </g>
      <g>
        <g>
          <path class="cls-6" d="M239.54,97.12c-.23,1.45-6.36,11.2-12.89,11.37-2.13.05-2.93-11.56-2.93-11.56l-3.82-12.65,15.39-11.43s4.34,23.65,4.26,24.27Z"/>
          <path class="cls-2" d="M237.47,84.87c-3.73,8.68-11.5,10.79-14,11.25l-3.57-11.83,15.39-11.43s1.11,5.98,2.18,12.01Z"/>
        </g>
        <g>
          <path class="cls-6" d="M204.57,64.92c-4.09,21.26,8.19,26.11,12.77,26.99,4.16.8,18.44,2.98,24.7-17.75,6.26-20.73-2.33-29.35-11.75-31.67-9.43-2.32-21.63,1.17-25.72,22.43Z"/>
          <g>
            <path class="cls-2" d="M208.8,60.69c.51.02.99-.04,1.49-.07.57-.03,1.03,0,1.51-.36.26-.19.31-.66.15-.93-.38-.62-1.1-.75-1.79-.74-.75.01-1.32.21-1.9.7-.55.47-.14,1.37.53,1.41Z"/>
            <path class="cls-2" d="M223.98,62.32c-.49-.13-.93-.34-1.4-.52-.54-.2-.98-.31-1.33-.8-.19-.26-.1-.73.14-.93.55-.48,1.27-.39,1.93-.17.71.24,1.2.6,1.6,1.24.39.61-.28,1.35-.93,1.18Z"/>
            <g>
              <g>
                <path class="cls-2" d="M219.24,68.16c.02-.05.1.09.09.15-.29,1.45-.38,3.15.85,3.86.04.02.02.09-.03.08-1.57-.5-1.42-2.76-.91-4.08Z"/>
                <path class="cls-2" d="M220.79,66.86c2.37.22,1.76,4.94-.44,4.74-2.16-.2-1.55-4.92.44-4.74Z"/>
              </g>
              <path class="cls-2" d="M221.69,67.23c.38.32.72.84,1.21.96.57.13,1.07-.31,1.5-.73.05-.04.08,0,.07.06-.1.91-.57,1.79-1.56,1.8-.9,0-1.43-.87-1.54-1.81-.02-.17.16-.4.31-.27Z"/>
            </g>
            <g>
              <g>
                <path class="cls-2" d="M210.75,66.47c0-.06-.12.05-.13.11-.16,1.47-.58,3.12-1.97,3.42-.04,0-.05.08,0,.08,1.64,0,2.19-2.2,2.1-3.62Z"/>
                <path class="cls-2" d="M209.66,64.77c-2.32-.5-3.16,4.18-1.01,4.65,2.12.46,2.96-4.23,1.01-4.65Z"/>
              </g>
              <path class="cls-2" d="M208.63,64.9c-.41.18-.86.57-1.31.52-.52-.06-.81-.63-1.05-1.18-.02-.06-.07-.02-.08.04-.18.89-.06,1.88.77,2.2.76.3,1.47-.37,1.84-1.22.07-.16-.01-.43-.18-.36Z"/>
            </g>
            <path class="cls-2" d="M217.98,79.68c-.37.33-.74.79-1.28.81-.51.02-1.1-.24-1.57-.44-.05-.02-.1.03-.07.07.36.58,1.15.97,1.83.88.67-.09,1.03-.65,1.22-1.25.03-.08-.08-.12-.14-.07Z"/>
            <path class="cls-2" d="M212.04,73.44s-.53,2.16-.63,3.19c0,.1.24.17.58.22.02,0,.02.01.04,0,1.79.47,3.7.03,4.96-1.35.08-.09-.04-.21-.14-.16-1.46.86-3,.96-4.62.83-.04-.29,1.03-3.67.86-3.7-.56-.11-1.71.16-2.4.29.97-4.53,2.65-8.87,3.55-13.39.03-.16-.2-.23-.26-.09-2.09,4.42-3.32,9.61-4.44,14.26-.15.58,2.06.02,2.49-.11Z"/>
            <g>
              <path class="cls-2" d="M212.24,76.88s.88,1.45,2.22,2.07c.49.23,1.03.35,1.62.25,1.21-.2,1.34-1.28,1.21-2.23-.1-.78-.4-1.47-.4-1.47,0,0-1.87,1.45-4.65,1.37Z"/>
              <path class="cls-4" d="M214.46,78.95c.49.23,1.03.35,1.62.25,1.21-.2,1.34-1.28,1.21-2.23-1.28.01-2.61.75-2.83,1.97Z"/>
            </g>
          </g>
          <path class="cls-2" d="M240.18,73.61c-4.95-.82-3.54-8.62-3.54-8.62,0,0-5.52-1.5-4.34-10.62,0,0-3.66,4.99-11.46,4.77-1.65-.05,4.48-3.27,4.48-3.27,0,0-7.49,4.71-19.1.38-.82-.31,3.21-12.64,13.38-15.3,10.17-2.66,18.22,1.28,23,8.24,0,0,5.3,4.39,4.92,11.06-.38,6.67-5.42,13.68-7.35,13.36Z"/>
          <g>
            <path class="cls-6" d="M237.66,74.6s5.4-6.23,8.27-4.24c2.88,1.99-1.67,11.37-5.39,12.33-3.72.96-4.68-2.46-4.68-2.46l1.79-5.63Z"/>
            <path class="cls-2" d="M244.57,73.01c.06,0,.06.08,0,.1-2.62.76-4.18,2.95-5.36,5.27.84-.85,1.91-1.26,3.07-.24.06.05-.01.15-.08.13-1.01-.33-1.77-.23-2.55.53-.55.53-.97,1.23-1.39,1.87-.14.21-.53.05-.42-.2,0-.02.02-.04.03-.06.27-3.21,3.22-7.43,6.69-7.4Z"/>
          </g>
        </g>
      </g>
    </g>
  </g>
  <g id="Character_5" data-name="Character 5">
    <g>
      <g>
        <path class="cls-1" d="M52.05,93.65c12.19,24.62,27.31,48.2,32.9,50.83,8.66,4.07,48.04.7,59.99-2.67,3.91-1.1-1.5-28.25-5.51-29.93-4.01-1.67-45.37,4.72-47.97,4.14-1.38-.31-17.57-16.96-29.36-27.79-10.96-10.06-13.75-2.05-10.05,5.42Z"/>
        <g>
          <path class="cls-5" d="M131.44,145.55l-6.38-34.42s-29.79,3.06-33.48,3.14c-1.56.03-21.7-20.48-30.96-29.06-6.09-5.64-14.57-5.28-9.09,9.79,3.2,8.83,24.43,48.22,33.3,51.66,7.06,2.73,46.61-1.1,46.61-1.1Z"/>
          <path class="cls-2" d="M124.56,144.48c-.84-2.39-2.65-12.68-3.07-15.25-.41-2.52-1.76-12.93-2.19-15.58-.02-.14.18-.22.2-.07.46,2.61,2.62,12.88,3.06,15.44.45,2.57,2.12,12.86,2.12,15.43,0,.09-.11.1-.13.03Z"/>
          <path class="cls-7" d="M112.12,147.12c-10.52.65-23.33,1.06-27.29-.47-8.87-3.43-30.1-42.83-33.3-51.65-3.52-9.69-1.28-13.3,2.39-13.13l58.2,65.26Z"/>
        </g>
      </g>
      <g>
        <path class="cls-5" d="M2.47,178.56c.18.21,78.66.65,79.4-.17.27-.3.13-6.64.13-6.64,0,0,5.19-6.34,2.46-16.51-5.78-21.53-19.86-66.74-24.13-71.22-3.74-3.92-13.84-5.84-20.13-2.22C27.03,89.4,6.01,144.87.76,158c-2.59,6.48,2.19,10.64,2.93,13.7,0,0-1.45,6.59-1.22,6.87Z"/>
        <path class="cls-2" d="M80.35,172.74c-2.45-.12-4.91.01-7.37-.02-2.34-.03-4.68-.16-7.03-.17-4.8-.02-9.61,0-14.41-.02-9.61-.04-19.22-.17-28.83-.26-2.68-.03-5.36-.06-8.05-.1-2.8-.04-5.6.09-8.39.07-.14,0-.15.2-.01.21,2.45.13,4.9.41,7.36.5,2.34.08,4.69.16,7.03.24,4.8.15,9.6.25,14.41.32,9.61.14,19.22.19,28.83.09,2.69-.03,5.37-.15,8.06-.28,2.79-.13,5.6-.04,8.39-.26.19-.01.22-.3.02-.31Z"/>
      </g>
      <g>
        <g>
          <path class="cls-1" d="M56.85,99.51c-5.03.15-12.7-9.69-14.74-16.29-.14-.45,1.37-4.62,2.95-9.77.95-3.13,1.93-6.64,2.6-9.9l19.46,9.16s-3.41,6.43-4.54,12.13c-.09.48-.13.93-.13,1.37,0,.06,0,.14-.02.23-.11,2.63-.72,12.93-5.58,13.08Z"/>
          <path class="cls-2" d="M62.44,86.21c0,.06,0,.13-.01.22-.66-.03-1.37-.14-2.13-.3-11.79-2.69-11.62-17.76-11.33-21.95l4.86,2.29,13.28,6.25s-3.41,6.43-4.53,12.13c-.09.47-.14.92-.14,1.37Z"/>
        </g>
        <g>
          <path class="cls-1" d="M47.11,41.55c-2.58,7.3.39,28.86,5.45,33.86,7.33,7.25,19.8,8.45,26.07-.47,6.08-8.65,1.7-36.67-3.99-41.26-8.38-6.76-23.72-2.92-27.54,7.87Z"/>
          <g>
            <g>
              <path class="cls-2" d="M67.57,56.35c-.02-.05-.1.08-.09.14.24,1.45.27,3.14-.98,3.8-.04.02-.03.09.02.08,1.57-.44,1.51-2.69,1.05-4.02Z"/>
              <path class="cls-2" d="M66.07,55c-2.36.13-1.92,4.84.27,4.72,2.15-.12,1.71-4.83-.27-4.72Z"/>
            </g>
            <g>
              <path class="cls-2" d="M75.82,55.3c0-.06.12.06.12.12.09,1.46.44,3.12,1.81,3.49.04.01.05.09,0,.08-1.63-.08-2.07-2.29-1.93-3.69Z"/>
              <path class="cls-2" d="M76.98,53.66c2.33-.4,2.95,4.29.8,4.66-2.12.36-2.75-4.33-.8-4.66Z"/>
            </g>
            <path class="cls-2" d="M63.32,52.76c.66.02,1.28-.08,1.94-.13.74-.06,1.34-.03,1.95-.51.33-.26.39-.87.17-1.21-.52-.79-1.45-.95-2.34-.91-.97.04-1.71.32-2.44.96-.71.62-.15,1.79.73,1.81Z"/>
            <path class="cls-2" d="M78.43,48.62c-.66-.05-1.27-.2-1.92-.31-.73-.13-1.33-.15-1.9-.69-.3-.29-.31-.9-.06-1.22.59-.74,1.53-.81,2.42-.69.97.13,1.68.47,2.35,1.18.65.69-.02,1.8-.89,1.74Z"/>
            <path class="cls-2" d="M66.87,69.52c.38.31.77.75,1.31.74.51,0,1.09-.29,1.53-.51.04-.02.1.02.07.07-.33.6-1.09,1.02-1.78.97-.67-.05-1.05-.59-1.27-1.18-.03-.08.08-.12.13-.08Z"/>
            <path class="cls-2" d="M68,65.01c.94,1.19,2.2,1.77,3.52,1.9.59.06,1.2.02,1.8-.09.12-.01.23-.04.34-.07.11-.02.2-.04.32-.08.17-.04.25-.19.26-.35h0c0-.06-.01-.11-.03-.16h0s-.01-.14-.01-.14c-.07-1.13-.34-2.82-.34-2.82.43.17,2.61.91,2.52.33-.74-4.83-1.57-10.21-3.33-14.86-.05-.16-.29-.1-.26.06.53,4.67,1.88,9.22,2.49,13.91-.69-.19-1.83-.56-2.41-.49-.16.06.58,3.27.57,3.78,0,0,0,.02,0,.05-1.87.42-3.34-.02-5.29-1.12-.12-.07-.22.04-.12.14Z"/>
          </g>
          <g>
            <path class="cls-2" d="M48.16,60.49c3.39-.18,3.44-7.97,3.44-7.97,0,0,8.6,1.82,8-9.51,0,0,10.14,2.63,16.07-1.11,5.06-3.19,7.27-12.31,3.05-17.35-2.38-2.84-8.65-5.17-17.2,4.25,0,0-12.41-7.38-15.88,7.23,0,0-6.09,1.16-6.42,7.17-.53,9.5,6.02,17.45,8.95,17.29Z"/>
            <path class="cls-2" d="M59.53,42.22c-.05-.11-.21-.06-.18.06.71,2.72,1.45,5.69-.58,8.06-1.98,2.3-5.03,3.17-7.84,1.92-.16-.07-.29.17-.13.25,2.66,1.17,5.78.63,7.9-1.39,2.54-2.42,2.13-5.94.82-8.89Z"/>
            <path class="cls-2" d="M48.3,58.73c-4.83-2.09-8.64-5.8-9.4-11.23-.36-2.58-.09-5.31,1.4-7.49,1.36-1.99,3.54-2.83,5.47-4.12.05-.04.01-.12-.05-.1-12.17,3.97-8.51,20.39,2.37,23.53.34.1.54-.45.21-.59Z"/>
            <path class="cls-2" d="M80.27,24.54c-5.67-6.99-15.56-1.35-19.09,4.84-.01.02.02.05.04.03,3.26-4.7,10.4-9.57,16.09-6.42,6.88,3.81,4.96,15.94-2.57,17.61-.23.05-.15.44.08.4,6.97-1.01,9.67-11.27,5.45-16.46Z"/>
          </g>
          <g>
            <path class="cls-5" d="M64.85,63.71c-2.75-.11-5.19-2.06-5.79-4.87-.71-3.33,1.42-6.61,4.74-7.32,3.33-.71,6.61,1.42,7.32,4.74h0c.71,3.33-1.42,6.61-4.74,7.32-.51.11-1.03.15-1.53.13ZM65.29,52.2c-.43-.02-.88.02-1.32.11-2.88.62-4.72,3.46-4.11,6.34.62,2.88,3.46,4.73,6.34,4.11,2.88-.62,4.72-3.46,4.11-6.34-.52-2.44-2.64-4.13-5.02-4.22Z"/>
            <path class="cls-5" d="M78.96,62.53c-2.36-.09-4.4-2.59-4.66-5.8-.13-1.62.21-3.18.96-4.4.77-1.26,1.89-2.01,3.13-2.11,1.25-.1,2.46.47,3.42,1.59.93,1.09,1.51,2.58,1.64,4.2.26,3.39-1.57,6.31-4.09,6.51-.14.01-.27.01-.4,0ZM78.77,51.04c-.1,0-.21,0-.31,0-.98.08-1.86.69-2.5,1.72-.66,1.07-.96,2.46-.84,3.91.23,2.94,2.1,5.2,4.17,5.03,2.07-.16,3.57-2.68,3.34-5.62-.11-1.45-.63-2.77-1.44-3.73-.7-.82-1.55-1.28-2.42-1.31Z"/>
            <path class="cls-5" d="M70.97,56.98l-.58-.59c.87-.86,2.95-2.08,4.57-.59l-.56.61c-1.46-1.34-3.36.49-3.44.57Z"/>
            <path class="cls-5" d="M43.7,60.71l-.76-.32c.15-.35,1.51-3.47,3.32-3.92,1.69-.41,12.79-.24,13.27-.23v.82c-3.2-.05-11.76-.11-13.07.21-1.2.29-2.4,2.58-2.76,3.44Z"/>
          </g>
          <g>
            <path class="cls-1" d="M50.92,59.18s-4.68-7.03-7.86-5.38c-3.18,1.65.22,11.77,3.88,13.23,3.65,1.46,5.07-1.9,5.07-1.9l-1.09-5.95Z"/>
            <path class="cls-2" d="M44.12,56.67c-.06,0-.07.08-.02.1,2.56,1.11,3.86,3.54,4.76,6.04-.75-.97-1.78-1.52-3.08-.64-.07.05,0,.15.07.14,1.06-.2,1.82,0,2.52.86.49.61.82,1.38,1.17,2.08.12.23.54.12.45-.15,0-.02-.01-.04-.02-.06.14-3.29-2.31-7.97-5.84-8.38Z"/>
          </g>
        </g>
      </g>
      <g>
        <g>
          <path class="cls-1" d="M34.25,100.21c.39,22.56,6.44,57.91,12.48,61.75,15.14,9.61,40.66,14.18,51.42,14.33,6.28.09,8.38-33.01,2.81-33.37-8.79-.56-33.83-5.47-36.96-6.27-1.67-.43-10.1-23.07-16.95-37.35-7.45-15.52-12.99-10.1-12.8.9Z"/>
          <g>
            <path class="cls-1" d="M120.59,150.06c-1.9-1.03-1.37-2.03,2.41-2.68,3.83-.66,19.33,0,19.1-5.44-.22-5.46-22.17-6.04-28.39-4.48-6.23,1.55-15.74,6.27-15.74,6.27,4.25.97,14.32,4.31,22.63,6.33Z"/>
            <g>
              <path class="cls-3" d="M133.01,50.73c2.4-8.79,9.54-15.01,17.9-16.66l-5.01,18.34,9.01,6.27,10.95-.82,5.01-18.35c6.37,5.69,9.34,14.67,6.95,23.46-3.38,12.37-16.14,19.67-28.52,16.29-12.37-3.38-19.66-16.16-16.29-28.52Z"/>
              <path class="cls-3" d="M142.66,191.73c-2.4,8.79-9.54,15.01-17.9,16.66l5.01-18.34-9.01-6.27-10.95.82-5.01,18.35c-6.37-5.69-9.34-14.67-6.95-23.46,3.38-12.37,16.14-19.67,28.52-16.29,12.37,3.38,19.66,16.16,16.29,28.52Z"/>
              <rect class="cls-3" x="128.19" y="62.19" width="20.69" height="112.96" transform="translate(240.92 269.64) rotate(-164.73)"/>
              <rect class="cls-2" x="134.28" y="95.41" width="8.52" height="46.52" transform="translate(240.92 269.64) rotate(-164.73)"/>
            </g>
            <path class="cls-1" d="M94.27,175.59c12.06,2.3,26.94,5.9,39.98,1.24,2.56-.91,3.57-2.72,3.57-2.72,5.88-1.99,6.71-5.36,6.71-5.36,4.91-3.53,5.29-7.1,5.29-7.1,0,0,6.88-2.41,6.12-6.81-.84-4.94-10.34-.59-17.03-1.39-15.32-1.84-36.58-8.75-40.95-9.72l-3.69,31.86Z"/>
            <g>
              <path class="cls-2" d="M121.5,162.8c4.52.45,8.95,1.01,13.5.85,5-.18,9.78-1.19,14.68-2.09.15-.03.21.18.06.23-8.6,3.04-19.41,3.35-28.26,1.21-.21-.05-.2-.23.02-.2Z"/>
              <path class="cls-2" d="M119.04,171.88c4.42.2,12.2.49,25.45-3.28.04-.01.08.06.03.08-8.28,3.59-16.62,4.56-25.5,3.41-.28-.04-.29-.22,0-.21Z"/>
              <path class="cls-2" d="M117.81,176.79c7.53.05,12.29-.88,19.97-2.71.04-.01.07.06.03.08-8.52,3-11.95,3.12-20.04,2.89-.28,0-.26-.26.04-.26Z"/>
            </g>
          </g>
        </g>
        <g>
          <path class="cls-5" d="M92.72,181.1l4.46-40.69-32.04-4.92c-4.98-12.04-14.93-36.1-19.62-43.91-5.5-9.16-12.22-5.93-12.74,4.94-1.18,24.87,6.4,64.48,10.28,69.34,5.56,6.97,49.66,15.23,49.66,15.23Z"/>
          <g>
            <path class="cls-2" d="M86.64,175.34c-.19-2.56.78-13.11,1.04-15.74.26-2.57,1.71-13.12,1.99-15.82.02-.15.23-.17.22-.02-.24,2.67-.85,13.3-1.1,15.92-.25,2.64-1.34,13.15-2.02,15.66-.02.09-.13.07-.14,0Z"/>
            <g>
              <path class="cls-2" d="M68.13,176.1c-3.46-.9-6.89-1.91-10.3-3-5-1.8-10.49-3.19-14.62-6.7-3.21-4.44-3.93-10.06-5.19-15.25-2.78-14.05-4.26-28.31-5.23-42.59,1.62,14.19,3.25,28.41,5.91,42.45,1.19,5.06,1.88,10.73,4.84,15.07,4.04,3.46,9.45,4.93,14.35,6.82,3.38,1.16,6.79,2.23,10.23,3.2h0Z"/>
              <path class="cls-2" d="M33.3,114.67c-.57-1.22-1.07-2.53-1.08-3.89.34,1.29.84,2.58,1.08,3.89h0Z"/>
            </g>
            <g>
              <path class="cls-2" d="M52.79,107c4.29,8.68,7.64,18.69,11.89,27.28,5.58,1.32,11.3,2.12,16.95,3.21,0,0,15.54,2.82,15.54,2.82h.03s0,.04,0,.04l-.13,1.09.06-1.1.03.04c-5.21-.74-10.42-1.53-15.62-2.36-5.53-.89-11.06-1.77-16.55-2.91-.25-.07-.6-.11-.81-.32-2.03-3.34-4.07-9.44-5.66-13.07-1.69-4.29-3.96-10.52-5.72-14.72h0Z"/>
              <path class="cls-2" d="M54.18,107.87c.45,1.38.82,2.83.7,4.29-.21-1.41-.59-2.86-.7-4.29h0Z"/>
            </g>
          </g>
        </g>
      </g>
      <g>
        <path class="cls-1" d="M131.09,142.84c-1.42-3.97,4.07-3.37,4.07-3.37,0,0-7.69-2.77-7.57-7.42.13-4.49,6.73-3.53,7.2-3.47-.41-.15-7.4-2.88-6.8-7.54.63-4.85,7.09-2.75,7.51-2.61-.34-.26-4.75-3.8-3.49-7.24,2.17-5.91,15.64,3.13,20.66,2.22l4.34-8.45c.14,1.83.07,3.66,2.01,6.89,1.81,3.02,3.04,5.03,3.2,7.23.24,3.62-2.82,4.73-2.82,4.73,0,0,3.88,2.21,3.52,5.9-.19,1.89-3.38,3.27-3.38,3.27,0,0,3.04,1.9,2.51,5.16-.41,2.6-3.55,3.58-3.55,3.58,0,0,2.07,3.18.79,5.7-2.57,5.1-25.14,3.89-28.18-4.6Z"/>
        <path class="cls-1" d="M153.96,111.63l2.98-6.48c.16-.21.33-.43.5-.63,5.89-6.97,17.57-6.69,14.97-.68-1.98,4.57-10.32,5.93-11.66,10.91h-.01s-6.77-3.11-6.77-3.11Z"/>
        <g>
          <path class="cls-2" d="M158.01,141.97c.08,0,.09.1.02.12-7.52,1.42-16.21.67-23.17-2.61-.23-.11-.15-.53.12-.46,7.82,2.01,14.92,3.17,23.03,2.95Z"/>
          <path class="cls-2" d="M159.64,133.05c.09,0,.09.14,0,.16-7.75,1.42-17.52.31-25.1-4.42-.26-.16-.33-.57-.02-.4,5.28,2.76,17.82,4.9,25.12,4.67Z"/>
          <path class="cls-2" d="M135.09,117.92c7.44,4.25,15.5,5.69,23.98,5.98.11,0,.09.16,0,.18-4.19.99-9.58.24-13.72-.7-3.97-.9-7.37-2.5-10.41-5.21-.12-.1-.01-.35.15-.26Z"/>
        </g>
      </g>
    </g>
  </g>
</svg>