<?xml version="1.0" encoding="UTF-8"?>
<svg id="Layer_2" data-name="Layer 2" xmlns="http://www.w3.org/2000/svg" viewBox="0 0 186.04 204.29">
  <defs>
    <style>
      .cls-1 {
        fill: #263238;
      }

      .cls-1, .cls-2, .cls-3, .cls-4, .cls-5, .cls-6, .cls-7, .cls-8, .cls-9, .cls-10 {
        stroke-width: 0px;
      }

      .cls-2 {
        fill: #a6a6a6;
      }

      .cls-3 {
        fill: #455a64;
      }

      .cls-4 {
        fill: #ff9cbd;
      }

      .cls-11 {
        opacity: .5;
      }

      .cls-5 {
        fill: #ffc727;
      }

      .cls-12 {
        opacity: .8;
      }

      .cls-13 {
        opacity: .3;
      }

      .cls-6 {
        fill: #ffc4c0;
      }

      .cls-7 {
        fill: #ebebeb;
      }

      .cls-8 {
        fill: #fff;
      }

      .cls-9 {
        fill: #000;
        opacity: .1;
      }

      .cls-10 {
        fill: #37474f;
      }
    </style>
  </defs>
  <g id="Character_4" data-name="Character 4">
    <g>
      <g>
        <path class="cls-1" d="M21.2,99.99c-.83,15.02-1.43,30.49.05,45.48,1.15,11.68,6.06,21.29,18.2,24.16,11.26,2.65,27.29,2.45,36.82-5.01,4.43-3.48,5.98-8.39,5.68-13.89-.41-7.65-6.47-49.54-8.28-62.61-1.09-7.96-2.15-16.02-4.65-23.71-5.24-16.13-13.29-16.43-14.4-16.76-.96-.61-7.01-2.91-15.73-.13-4.82,1.53-8.22,4.8-10.36,9.22-6.27,12.95-6.54,29.18-7.33,43.25Z"/>
        <path class="cls-1" d="M57.17,50.32c9.6,4.49,11.89,14.97,14.21,24.37,3.24,13.08,6.25,26.22,8.62,39.48,1.14,6.38,2.14,12.78,2.95,19.21.77,6.15,1.97,12.72,1.56,18.94-.69,10.28-10.09,14.95-19.2,16.42-.44.07-.57-.6-.13-.69,5.19-1.03,10.49-2.47,14.35-6.32,4.95-4.94,4.38-11.38,3.79-17.8-1-10.92-2.61-21.78-4.62-32.56-2.01-10.79-4.4-21.51-6.96-32.19-2.44-10.16-4.2-23.54-14.63-28.7-.1-.05-.04-.21.06-.16Z"/>
        <path class="cls-1" d="M24.11,67.72c1.82-7.85,5.9-15.51,14.18-17.79.02,0,.02.02,0,.02-10.69,3.41-13.29,15.09-14.72,24.85-1.5,10.27-2.6,20.59-3.35,30.94-.71,9.96-1.22,19.99-1.03,29.98.21,10.78,2.16,20.87,8.53,29.75.13.18-.12.41-.27.23-6.27-7.18-8.34-17.08-8.85-26.35-.66-12.2.13-24.61,1.08-36.78.91-11.56,1.79-23.54,4.42-34.85Z"/>
      </g>
      <g>
        <g>
          <path class="cls-6" d="M44.95,116.84c7.22,21.29,23.08,53.97,34.51,52.8,10.44-1.06,42.09-14.66,51.33-21.57,9.3-6.95-15.08-33.56-21.05-30.24-9.01,5.01-29.09,17.26-31.34,16.75-2.81-.64-6.86-7.07-24.16-25.55-7.08-7.56-12.36-1.26-9.29,7.81Z"/>
          <g>
            <g>
              <path class="cls-6" d="M130.03,148.37c3.85-1.39,20.92-9.29,25.18-12.55,4.26-3.26,15.83-13.54,13.67-17.06-2.17-3.52-5.8-.78-5.8-.78,0,0,4.2-5.11,1.7-8.45-2.5-3.34-8.01,1.11-8.01,1.11,0,0,3.93-5.57,1.19-8.72-2.74-3.15-7.52,2.24-7.52,2.24,0,0,3.83-4.92.48-6.57-4.03-1.98-10.06,7.89-15.04,11.14-1.13.74-23.95,13.33-23.95,13.33l18.1,26.31Z"/>
              <g>
                <path class="cls-1" d="M150.85,103.7c-4.46,7.25-7.66,9.65-15.18,13.34-.15.07-.07.31.09.25,7.69-2.94,12.15-5.38,15.46-13.39.16-.39-.15-.54-.36-.2Z"/>
                <path class="cls-1" d="M157.11,110.05c-5.29,7.12-8.74,9.76-16.33,14.2-.11.06-.01.25.1.2,7.81-3.74,12.2-6.27,16.55-14.08.2-.35-.08-.65-.32-.32Z"/>
                <path class="cls-1" d="M162.68,118.19c-5.62,6.53-9.28,9.58-17.2,12.95-.19.08-.09.36.11.3,8.41-2.65,13.01-6.42,17.28-13.06.29-.45.17-.6-.18-.19Z"/>
              </g>
            </g>
            <g>
              <path class="cls-6" d="M107.14,124.03s4.76-9.54,7.77-13.27c3.01-3.73,19.37-13.5,21.68-10.09,2.98,4.41-5.35,11.9-9.91,15.04,0,0,6.91,10.18,2.1,16.86-4.81,6.67-21.64-8.54-21.64-8.54Z"/>
              <path class="cls-1" d="M137.02,102.15c-.18,5.98-6.43,9.72-10.63,13.09-.32.26-.22.6.02.81,2.61,4.46,4.99,11.52,2.7,16.47-.07.14.13.26.22.12,3.18-4.98,1.4-12.1-1.77-16.81,4.36-3.4,10.46-7.42,9.51-13.69,0-.04-.06-.04-.06,0Z"/>
            </g>
          </g>
        </g>
        <g>
          <path class="cls-3" d="M105.66,119.19l21.88,33.79s-39.78,19.95-49.55,17.73c-9.78-2.22-26.5-28.27-34.48-51.7-7.98-23.43,7.51-15.53,13.85-8.62,6.34,6.91,20.19,22.95,20.85,22.67.66-.28,27.47-13.87,27.47-13.87Z"/>
          <path class="cls-9" d="M108.65,161.72c-11.69,5.05-25.46,10.17-30.67,8.99-9.78-2.22-26.51-28.26-34.49-51.7-3.92-11.5-2.18-15.46,1.36-15.67l63.79,58.38Z"/>
          <path class="cls-1" d="M115.83,149.27c-.68-1.17-1.38-2.33-2.07-3.49-1.4-2.32-9.77-16.07-13.07-20.24-.09-.11-.26.02-.2.14,2.32,4.81,10.99,18.31,12.44,20.54.74,1.14,1.48,2.27,2.23,3.4.76,1.14,1.64,2.18,2.4,3.32.07.11.26.02.19-.1-.69-1.16-1.23-2.4-1.91-3.57Z"/>
        </g>
      </g>
      <g>
        <path class="cls-3" d="M71.14,159.67l4.15,26.08s-.8.1-10.35.37l-2.88-7.49-3.78,7.79-58.27.3,5.55-17.98c5.91-16.57,11.09-45.91,22.21-58.42,8.83-9.95,19.43-9.41,26.29-2.69,1.74,1.7,19.32,26.31,21.67,36.55,1.68,7.32-4.58,15.5-4.58,15.5Z"/>
        <g>
          <path class="cls-1" d="M50.26,155.98c3.42.07,6.87.28,10.27.96,1.69.34,3.36.77,5.04,1.24.83.24,1.67.44,2.51.64.86.2,1.78.38,2.65.32.08,0,.09.14.01.15-.84.12-1.65.22-2.5.2-.81-.02-1.63-.14-2.44-.3-1.72-.32-3.43-.74-5.14-1.09-3.46-.7-6.92-1.39-10.41-1.78-.16-.02-.16-.35,0-.34Z"/>
          <path class="cls-1" d="M42.28,160.49c2.74-.63,5.55-1.11,8.34-1.36,1.41-.13,2.81-.15,4.23-.13.68,0,1.35.03,2.03.07.74.04,1.49.19,2.23.22.08,0,.09.15.01.15-.7,0-1.4.15-2.1.2-.7.05-1.4.1-2.1.15-1.4.1-2.8.23-4.21.32-2.81.18-5.61.39-8.41.68-.15.02-.17-.25-.03-.28Z"/>
        </g>
        <path class="cls-7" d="M35.11,104.51c2.04,6.15,7.71,18.07,11.78,23.71,5.59,7.77,13.89,14.59,13.89,14.59,0,0,1.87-5.54,1.87-11.18,0-6.03-3.94-12.73-6.95-21.95-.82-1.08-1.4-1.81-1.65-2.05-5.03-4.91-12.07-6.53-18.94-3.12Z"/>
        <g>
          <path class="cls-1" d="M60.77,142.81c1.78,5.06,3.05,11.58,1.19,16.42.1,6.47.16,12.94.1,19.41-.29-6.46-.45-12.93-.58-19.4,1.84-5.27.68-11.15-.7-16.43h0Z"/>
          <path class="cls-1" d="M57.06,148.48c.19,1.73,2.72,1.45,2.58-.22-.15-1.66-2.69-1.52-2.58.22h0ZM57.06,148.48c-.14-2,2.84-2.32,3.08-.26.11,2.07-2.88,2.26-3.08.26h0Z"/>
          <path class="cls-1" d="M57.06,159.47c.19,1.73,2.72,1.45,2.58-.22-.15-1.66-2.69-1.52-2.58.22h0ZM57.06,159.47c-.14-2,2.84-2.32,3.08-.26.11,2.07-2.88,2.26-3.08.26h0Z"/>
          <path class="cls-1" d="M57.06,170.46c.19,1.73,2.72,1.45,2.58-.22-.15-1.67-2.69-1.52-2.58.22h0ZM57.06,170.46c-.14-2,2.84-2.32,3.08-.26.11,2.07-2.88,2.26-3.08.26h0Z"/>
          <path class="cls-1" d="M57.06,181.44c.19,1.73,2.72,1.45,2.58-.22-.15-1.67-2.69-1.52-2.58.22h0ZM57.06,181.44c-.14-2,2.84-2.32,3.08-.26.11,2.07-2.88,2.26-3.08.26h0Z"/>
        </g>
      </g>
      <g>
        <g>
          <path class="cls-6" d="M37.82,105.98c.08,1.47,5.22,11.77,11.71,12.59,2.11.26,4.06-11.21,4.06-11.21l.34-.81,4.71-11.4-12.38-11.36-1.81-1.53s-1.08,3.2-2.39,7.21c-.06.19-.12.37-.19.57-.08.22-.16.44-.22.65-.2.6-.41,1.2-.6,1.82-.15.46-.29.92-.43,1.41-.15.49-.29.97-.44,1.46-1.38,4.88-2.39,10-2.36,10.62Z"/>
          <path class="cls-1" d="M42.05,89.45c1.76,10.03,8.63,15.19,11.87,17.09l4.71-11.4-12.38-11.36-1.81-1.53s-1.08,3.2-2.39,7.21Z"/>
        </g>
        <g>
          <path class="cls-6" d="M74.22,70.79c6.22,20.74-5.5,26.81-9.98,28.14-4.06,1.21-18.04,4.82-26.37-15.16-8.33-19.99-.65-29.43,8.49-32.7,9.14-3.26,21.64-1.02,27.86,19.72Z"/>
          <g>
            <path class="cls-1" d="M69.71,67.49c-.51.05-.99.02-1.5.02-.57,0-1.03.06-1.53-.27-.27-.18-.35-.64-.21-.92.35-.64,1.05-.82,1.74-.85.75-.03,1.34.13,1.94.58.58.43.23,1.36-.45,1.44Z"/>
            <path class="cls-1" d="M56.41,74.05c.5-.1.95-.28,1.43-.43.55-.17,1-.25,1.38-.72.2-.25.15-.72-.08-.94-.52-.51-1.25-.47-1.91-.29-.73.19-1.23.53-1.67,1.13-.43.59.19,1.37.85,1.24Z"/>
            <g>
              <g>
                <path class="cls-1" d="M59.76,75.73c-.02-.05-.09.1-.08.15.4,1.42.62,3.11-.55,3.91-.04.03-.01.1.03.08,1.52-.62,1.21-2.86.6-4.14Z"/>
                <path class="cls-1" d="M58.11,74.55c-2.34.4-1.37,5.06.8,4.69,2.14-.36,1.17-5.02-.8-4.69Z"/>
              </g>
              <path class="cls-1" d="M57.25,74.99c-.35.35-.65.9-1.13,1.05-.56.17-1.09-.22-1.56-.62-.05-.04-.08,0-.07.07.17.9.71,1.74,1.69,1.67.9-.06,1.36-.98,1.4-1.93,0-.17-.19-.39-.33-.25Z"/>
            </g>
            <g>
              <g>
                <path class="cls-1" d="M68.1,73.38c0-.06.13.05.14.11.24,1.45.77,3.08,2.17,3.3.04,0,.05.08,0,.08-1.64.1-2.32-2.07-2.31-3.49Z"/>
                <path class="cls-1" d="M69.09,71.62c2.29-.64,3.41,3.98,1.29,4.58-2.09.59-3.2-4.04-1.29-4.58Z"/>
              </g>
              <path class="cls-1" d="M70.13,71.69c.42.16.89.51,1.34.44.51-.09.77-.68.98-1.24.02-.06.07-.03.08.03.24.88.17,1.87-.64,2.24-.74.34-1.49-.28-1.91-1.11-.08-.15-.01-.43.16-.37Z"/>
            </g>
            <path class="cls-1" d="M61.9,86.85c.39.3.8.73,1.34.71.51-.02,1.08-.32,1.53-.56.04-.02.1.02.07.07-.31.61-1.07,1.06-1.76,1.02-.68-.03-1.07-.57-1.31-1.15-.03-.08.08-.13.13-.08Z"/>
            <path class="cls-1" d="M67.02,80.51s.69,2.11.88,3.13c.02.1-.22.19-.57.27-.02,0-.02.02-.04,0-1.75.61-3.68.31-5.05-.96-.09-.09.02-.22.13-.17,1.53.75,3.06.73,4.67.47.02-.3-1.31-3.58-1.15-3.62.55-.15,1.72.03,2.42.11-1.31-4.44-3.33-8.64-4.57-13.08-.04-.16.18-.25.25-.11,2.42,4.25,4.05,9.33,5.52,13.88.19.57-2.05.18-2.49.08Z"/>
            <g>
              <path class="cls-1" d="M67.12,83.55s-.71,1.56-1.97,2.34c-.46.29-.99.48-1.59.45-1.23-.05-1.49-1.12-1.48-2.08.01-.79.22-1.52.22-1.52,0,0,2.05,1.23,4.82.81Z"/>
              <path class="cls-4" d="M65.15,85.9c-.46.29-.99.48-1.59.45-1.23-.05-1.49-1.12-1.48-2.08,1.28-.14,2.7.44,3.07,1.63Z"/>
            </g>
          </g>
          <path class="cls-1" d="M37.17,83.08c3.64-.35,3.15-8.02,3.15-8.02,0,0,7.3-1.25,7.87-12.16,0,0,.7,4.91-1.71,9.24,0,0,12.62-3.61,16.16-15.32,0,0-1.2,5.86-2.89,8.16,0,0,5.13-2.45,7-7.29,0,0,3.34,5.82,5.37,7.23,0,0-4.46-22.41-24.89-16.37,0,0-12.9,3.15-15.78,14.3-2.88,11.15,5.73,20.23,5.73,20.23Z"/>
          <g>
            <path class="cls-6" d="M40.64,83.28s-6-5.66-8.66-3.38c-2.66,2.27,2.81,11.14,6.61,11.72,3.8.58,4.4-2.92,4.4-2.92l-2.35-5.42Z"/>
            <path class="cls-1" d="M33.61,82.4c-.06,0-.05.09,0,.1,2.68.49,4.46,2.51,5.86,4.7-.93-.76-2.03-1.06-3.07.07-.05.06.03.15.09.12.97-.43,1.73-.4,2.59.27.6.47,1.09,1.13,1.57,1.72.16.2.54,0,.4-.24,0-.02-.02-.04-.03-.05-.59-3.16-3.96-7.07-7.41-6.68Z"/>
          </g>
        </g>
      </g>
      <g>
        <g>
          <path class="cls-6" d="M26.19,128.29c4.09,23.98,24.22,68.83,37.33,73.05,15.18,4.89,67.89-11.96,78.23-19.54,4.12-3.01-17.83-29.57-22.95-27.69-21.46,7.9-40.49,11.95-43.25,10.07-4.24-2.88-21.56-27.69-32.81-43.08-14.14-19.33-18.39-3.58-16.55,7.18Z"/>
          <g>
            <path class="cls-6" d="M140.4,182.53c2.35-.84,18.49-12.55,23.25-18.05,3.04-3.51,8.26-9.58,12.41-19.24,4.79-11.15,5.56-14.26,5.97-18.07.29-2.75-5.24-6.86-12.96,8.67-5.45,10.95-12.34,11.65-17.56,11.55-21.41-.4-37.09,8.29-37.09,8.29,0,0,16.96,30.07,25.98,26.85Z"/>
            <path class="cls-6" d="M154.11,147.29c-5.39.08,12.14-10.86,12.4-17,.27-6.14-5.72-4.21-10.43-.74-16.37,12.03-28.72,11.44-37.03,22.94-8.3,11.5,35.05-5.2,35.05-5.2Z"/>
            <path class="cls-1" d="M118.25,153.87c4.49-8.47,13.92-11.99,22.1-15.87,2.09-.95,4.2-1.88,6.2-2.94,4.95-2.79,9.47-6.73,14.99-8.48,1.09-.31,2.36-.53,3.4.02-1.09-.45-2.27-.13-3.32.23-5.38,2.14-9.63,6.15-14.63,9.03-2.05,1.12-4.14,2.07-6.22,3.05-8.22,3.8-17.38,7.02-22.51,14.96h0Z"/>
          </g>
        </g>
        <g>
          <path class="cls-3" d="M76.71,162.71c4.19,1.14,33.41-6.88,33.41-6.88l16.42,39.7s-50.88,11.84-62.75,7.73c-11.88-4.11-30.37-44.46-36.35-67.91-5.62-22.04,1.87-36.43,17.61-13.59,0,0,29.47,40.35,31.66,40.95Z"/>
          <g>
            <path class="cls-1" d="M63.16,202.05c-9.95-5.1-22.23-31.77-24.59-37-1.51-3.35-2.89-6.76-4.25-10.17-2.71-6.84-5.21-13.76-7.59-20.72-.04-.12-.22-.07-.19.06,1.31,5.37,2.88,10.7,4.7,15.93-1.21-1.95-2.27-3.99-3.25-6.06-.05-.1-.22-.02-.18.08.96,2.49,2.27,4.82,3.78,7.01,1.87,5.26,3.98,10.44,6.33,15.48.68,1.46,14.87,34.13,25.99,37.16,3.87,1.06,17.1.1,19.91-.54.12-.03.15-.18.01-.18-3.82-.09-17.14.78-20.7-1.04Z"/>
            <path class="cls-1" d="M115.55,190.73c-.49-1.37-.99-2.74-1.5-4.1-1.02-2.73-7.14-18.97-9.8-24.04-.07-.14-.28-.03-.24.11,1.49,5.56,7.98,21.58,9.07,24.23.56,1.35,1.11,2.7,1.68,4.05.57,1.35,1.31,2.64,1.87,3.99.06.13.27.07.22-.07-.49-1.36-.82-2.79-1.31-4.16Z"/>
            <path class="cls-1" d="M110.13,155.9c-2.42.11-24.29,5.19-29.12,6.28-1.14.26-2.39.68-3.57.49-1.26-.2-2.08-1.24-2.87-2.14-1.57-1.8-18.66-24.4-19.91-25.51-.47-.42-.84-.5-.4.21.76,1.22,17.39,23.55,18.9,25.3,1.4,1.63,2.72,3.35,5.08,3.25,1.04-.04,30.53-6.66,31.98-7.26.31-.13.28-.63-.1-.62Z"/>
          </g>
        </g>
      </g>
    </g>
  </g>
  <g id="Lightbulb">
    <g>
      <g>
        <g class="cls-13">
          <path class="cls-5" d="M172.3,59.15c-2.06,25.78-23.54,33.55-23.54,33.55-1.58,3.92-3.64,13.89-3.64,13.89h-28.67s-2.06-9.97-3.64-13.89c0,0-21.48-7.77-23.54-33.55-1.43-17.91,11.33-44.39,41.35-44.4h.31c30.03,0,42.78,26.49,41.35,44.4Z"/>
        </g>
        <g class="cls-12">
          <path class="cls-5" d="M168.76,59.28c-1.88,23.58-21.53,30.69-21.53,30.69-1.44,3.58-3.33,16.62-3.33,16.62h-26.22s-1.88-13.04-3.33-16.62c0,0-19.65-7.11-21.53-30.69-1.31-16.38,10.36-40.6,37.82-40.61h.28c27.47,0,39.13,24.23,37.82,40.61Z"/>
        </g>
        <g>
          <rect class="cls-2" x="118.11" y="63.5" width="3" height="45.92" transform="translate(-13.84 23.42) rotate(-10.58)"/>
          <rect class="cls-2" x="119.02" y="84.96" width="45.92" height="3" transform="translate(31.01 210.23) rotate(-79.46)"/>
          <path class="cls-2" d="M130.8,79.03c-2.66,0-4.96-2.36-6.59-5.32-.73.77-1.55,1.24-2.41,1.24-4.37,0-6.09-8.87-6.16-9.25l.98-.19c.44,2.34,2.24,8.43,5.18,8.43.65,0,1.31-.45,1.92-1.18-1.33-2.74-2.1-5.81-2.1-7.99,0-2.54.97-4,2.68-4h0c1.96,0,3.08,1.55,3.08,4.24,0,2.46-.98,5.74-2.48,7.84,1.54,2.89,3.68,5.17,5.9,5.17,1.71,0,3.44-1.36,4.87-3.84.11-.18.21-.37.31-.57-1.64-1.86-2.57-4.8-2.57-7.61,0-3.24,1.24-5.25,3.23-5.25h0c.81,0,1.47.4,1.91,1.17,1.27,2.2.6,7.4-1.37,11.52.74.66,1.63,1.06,2.68,1.06h0c2.51,0,4.77-6.13,5.42-8.5l.96.27c-.26.94-2.67,9.23-6.39,9.23h0c-1.19,0-2.24-.44-3.14-1.18-.06.12-.13.23-.19.34-1.64,2.84-3.62,4.34-5.73,4.34ZM136.63,61.77c-1.65,0-2.23,2.29-2.23,4.25,0,2.12.66,4.86,2.04,6.65,1.66-3.72,2.29-8.4,1.24-10.23-.26-.46-.6-.67-1.04-.67ZM124.29,61.77h0c-1.38,0-1.68,1.63-1.68,3,0,2.06.68,4.68,1.77,7.05,1.15-1.86,1.99-4.61,1.99-6.81,0-1.48-.36-3.24-2.08-3.24Z"/>
        </g>
        <g>
          <rect class="cls-3" x="112.84" y="106.63" width="35.92" height="19.77"/>
          <g>
            <path class="cls-3" d="M144.68,126.39c-2.11,3.75-6.16,7.1-13.89,7.1s-11.77-3.35-13.89-7.1h27.77Z"/>
            <path class="cls-10" d="M144.68,126.39c-.6,1.07-1.36,2.11-2.33,3.04l-24.73-1.9c-.26-.38-.5-.75-.72-1.14h27.77Z"/>
          </g>
          <g>
            <polygon class="cls-10" points="149.8 110.4 111.79 113.91 111.79 112.19 149.8 108.67 149.8 110.4"/>
            <polygon class="cls-10" points="149.8 115.62 111.79 119.13 111.79 117.41 149.8 113.89 149.8 115.62"/>
            <polygon class="cls-10" points="149.8 120.83 111.79 124.35 111.79 122.63 149.8 119.11 149.8 120.83"/>
          </g>
        </g>
        <g class="cls-11">
          <path class="cls-8" d="M98.33,53.13c1.32.22,3.02-6.57,10.33-14.44,3.25-3.49,15.56-7.87,14.67-11.9-.89-4.03-11.87.11-17.4,6.52-8.89,10.3-8.81,19.62-7.6,19.82Z"/>
          <path class="cls-8" d="M163.13,54.55c2.42,0,2.43-3.76,0-3.76s-2.43,3.76,0,3.76Z"/>
          <path class="cls-8" d="M151.28,82.86c1.32,1.01,7.75-4.92,10.65-12,2.41-5.87,2.82-13.3,1.2-13.73-1.62-.43-2.67,9.76-4.61,13.51-2.45,4.74-8.66,11.14-7.24,12.22Z"/>
        </g>
      </g>
      <g>
        <path class="cls-2" d="M130.33,9.9c-.75-3.28-.81-6.6-.18-9.9.75,3.28.81,6.6.18,9.9h0Z"/>
        <path class="cls-2" d="M107.72,16.21c-2.29-2.47-4-5.31-5.11-8.48,2.29,2.47,4,5.31,5.11,8.48h0Z"/>
        <path class="cls-2" d="M91.29,32.98c-3.21-1-6.12-2.59-8.67-4.79,3.22.99,6.11,2.6,8.67,4.79h0Z"/>
        <path class="cls-2" d="M85.45,55.71c-3.28.75-6.6.81-9.9.18,3.28-.75,6.6-.81,9.9-.18h0Z"/>
        <path class="cls-2" d="M91.76,78.32c-2.47,2.29-5.31,4-8.48,5.11,2.47-2.29,5.31-4,8.48-5.11h0Z"/>
        <path class="cls-2" d="M170.3,77.51c3.21,1,6.12,2.59,8.67,4.79-3.22-.99-6.11-2.6-8.67-4.79h0Z"/>
        <path class="cls-2" d="M176.14,54.78c3.28-.75,6.6-.81,9.9-.18-3.28.75-6.6.81-9.9.18h0Z"/>
        <path class="cls-2" d="M169.83,32.17c2.47-2.29,5.31-4,8.48-5.11-2.47,2.29-5.31,4-8.48,5.11h0Z"/>
        <path class="cls-2" d="M153.06,15.74c1-3.21,2.59-6.12,4.79-8.67-.99,3.22-2.6,6.11-4.79,8.67h0Z"/>
      </g>
    </g>
  </g>
</svg>