<?xml version="1.0" encoding="UTF-8"?>
<svg id="Layer_2" data-name="Layer 2" xmlns="http://www.w3.org/2000/svg" viewBox="0 0 223.71 199.73">
  <defs>
    <style>
      .cls-1 {
        fill: #263238;
      }

      .cls-1, .cls-2, .cls-3, .cls-4, .cls-5, .cls-6, .cls-7, .cls-8, .cls-9, .cls-10 {
        stroke-width: 0px;
      }

      .cls-2 {
        fill: #dbdbdb;
      }

      .cls-3 {
        fill: #455a64;
      }

      .cls-4 {
        fill: #ff9cbd;
      }

      .cls-5 {
        fill: #ffc727;
      }

      .cls-6 {
        fill: #ad6359;
      }

      .cls-7 {
        fill: #f7a9a0;
      }

      .cls-8 {
        fill: #ebebeb;
      }

      .cls-9 {
        fill: #fff;
      }

      .cls-10 {
        fill: #000;
        opacity: .1;
      }
    </style>
  </defs>
  <g id="Speech_Bubbles" data-name="Speech Bubbles">
    <g>
      <g>
        <g>
          <polygon class="cls-9" points="110.39 .86 110.39 55.44 102.73 55.44 102.73 68.68 89.49 55.44 16.84 55.44 16.84 .86 110.39 .86"/>
          <path class="cls-1" d="M110.39.86c.1,16.44.57,38.94.6,55.17,0,0-.6,0-.6,0l-7.66.05.65-.65.09,13.24v1.79s-1.27-1.27-1.27-1.27l-13.32-13.16.6.25c-21.81,0-52.12.2-73.64.12,0,0,0-.98,0-.98l.13-54.58v-.86c23.77.16,70.66.55,94.41.86h0ZM110.39.86c-23.32.3-70.25.7-93.56.85,0,0,.85-.85.85-.85l.13,54.58-.98-.98c21.12-.03,51.58.09,73.01.13l.25.25,13.16,13.32-1.27.53.09-13.24v-.66s.65,0,.65,0l7.66.05-.6.6c.14-15.71.39-38.61.6-54.58h0Z"/>
        </g>
        <g>
          <path class="cls-1" d="M45.93,28.15c0,2.45-1.98,4.43-4.43,4.43s-4.43-1.98-4.43-4.43,1.98-4.43,4.43-4.43,4.43,1.98,4.43,4.43Z"/>
          <path class="cls-1" d="M68.05,28.15c0,2.45-1.98,4.43-4.43,4.43s-4.43-1.98-4.43-4.43,1.98-4.43,4.43-4.43,4.43,1.98,4.43,4.43Z"/>
          <path class="cls-1" d="M90.17,28.15c0,2.45-1.98,4.43-4.43,4.43s-4.43-1.98-4.43-4.43,1.98-4.43,4.43-4.43,4.43,1.98,4.43,4.43Z"/>
        </g>
      </g>
      <g>
        <g>
          <polygon class="cls-9" points="131.03 37.82 131.03 83.4 137.43 83.4 137.43 94.46 148.48 83.4 209.15 83.4 209.15 37.82 131.03 37.82"/>
          <path class="cls-1" d="M131.03,37.82c.23,13.41.47,32.41.6,45.58,0,0-.6-.6-.6-.6.25,0,7.08-.06,7.04-.06v.66s.1,11.06.1,11.06l-1.27-.53,10.98-11.13.25-.25c18-.05,43.27-.16,61.03-.13,0,0-.98.98-.98.98l.13-45.58.85.85c-21.75-.17-56.12-.52-78.13-.85h0ZM131.03,37.82c22.18-.25,56.19-.76,78.13-.85,0,0,.85,0,.85,0v.86s.13,45.58.13,45.58v.97s-.98,0-.98,0c-17.52.07-42.89-.12-60.67-.13,0,0,.6-.25.6-.25l-11.13,10.98-1.28,1.27v-1.79s.11-11.06.11-11.06l.65.65-6.4-.05h-.6c.03-13.55.46-32.48.6-46.18h0Z"/>
        </g>
        <g>
          <circle class="cls-1" cx="188.56" cy="60.61" r="3.7"/>
          <path class="cls-1" d="M166.39,60.61c0,2.04,1.66,3.7,3.7,3.7s3.7-1.66,3.7-3.7-1.66-3.7-3.7-3.7-3.7,1.66-3.7,3.7Z"/>
          <path class="cls-1" d="M147.92,60.61c0,2.04,1.66,3.7,3.7,3.7s3.7-1.66,3.7-3.7-1.66-3.7-3.7-3.7-3.7,1.66-3.7,3.7Z"/>
        </g>
      </g>
    </g>
  </g>
  <g id="Character_3" data-name="Character 3">
    <g>
      <path class="cls-3" d="M130.11,176.35l79.92.91c-4.02-20.89-8.26-64.38-28.71-87.88-5.71-6.56-19.09-6.79-25.04,1.5-12.57,17.48-21.89,63.01-26.17,85.47Z"/>
      <g>
        <g>
          <path class="cls-7" d="M189.03,96.9c12.99,18.09,40.94,59.4,32.7,68.95-13.56,15.69-46.66,29.44-57.03,32.54-4.48,1.34-20.5-31.18-16.28-33.86,5.06-3.21,37.49-15.95,37.65-17.52.17-1.72-5.9-23.97-7.89-41.53-2.48-21.79,5.43-16.13,10.85-8.59Z"/>
          <g>
            <path class="cls-7" d="M164.72,162.26s-13.64-4-22.68-6.19c-5.04-1.23-13.88-2.55-18-1.76-6.16,1.19-31.16,10.1-29.13,16.2,1.84,5.53,22.34-4.85,22.34-4.85,0,0-21.62,8.64-18.18,14.89,3.44,6.25,25.04-8.56,25.04-8.56,0,0-22.01,9.38-17.45,15.26,3.45,4.45,23.77-7.86,23.77-7.86,0,0-18.86,8.19-15.51,12.92,3.7,5.22,23.18-4.96,23.18-4.96,10.53,10.58,19.67,11.99,26.59,11.04,1.61-.22.03-36.13.03-36.13Z"/>
            <g>
              <path class="cls-1" d="M123.54,162.63c-16.41,5.15-22.88,12.71-22.66,12.54,5.02-3.92,13.85-8.17,16.34-9.32,2.48-1.15,3.89-1.98,6.37-3.13.06-.03.02-.11-.05-.09Z"/>
              <path class="cls-1" d="M128.86,171.09c-7.93,1.93-16.19,6.69-18.78,8.77-.21.17-.09.21.15.09,3.12-1.55,15.48-7.4,18.66-8.79.05-.02.01-.09-.04-.07Z"/>
              <path class="cls-1" d="M133.93,178.06c-6.96,2.26-9.85,3.98-14.34,7.22-.22.16-.03.22.21.1,4.72-2.49,8.41-4.48,14.19-7.14.09-.04.05-.21-.06-.18Z"/>
            </g>
          </g>
        </g>
        <g>
          <path class="cls-3" d="M158.39,159.5l18.25,38.93s43.52-23.45,46.8-34.48c3.29-11.03-26.31-59.49-35.3-69.37-8.99-9.89-11.91-5.83-11.65,5.45.26,11.28,9.12,46.44,8.9,47.1-.21.66-27.01,12.38-27.01,12.38Z"/>
          <path class="cls-1" d="M182.17,130.52c-.59-2.64-1.17-5.28-1.72-7.92-.29-1.37-.57-2.75-.88-4.12-.14-.63-.28-1.26-.42-1.89-.07-.31-.17-.63-.22-.94-.19-1.16-.02-.13-.32-1.25-.02-.07-.14-.06-.13.02.08.73-.07.44.07.99.11.41.15.83.21,1.25.09.64.2,1.28.3,1.91.21,1.31.45,2.61.69,3.91.03.17.07.34.1.51-.02-.05-.03-.09-.05-.14-.48-1.41-.98-2.81-1.48-4.22-.02-.06-.11-.03-.1.03.33,1.46.72,2.89,1.19,4.31.27.82.59,1.62.92,2.42.34,1.74.68,3.47,1.04,5.21,1.13,5.36,2.3,10.76,3.86,16.01-2.28,1.04-4.6,1.98-6.88,3.02-2.28,1.05-4.55,2.13-6.82,3.21-2.27,1.08-4.54,2.15-6.79,3.26-1.07.53-2.14,1.09-3.2,1.63-1.16.59-2.26,1.32-3.43,1.88-.12.06-.01.23.11.18,1.22-.56,2.52-.97,3.75-1.5,1.08-.47,2.17-.93,3.25-1.41,2.3-1.03,4.57-2.1,6.85-3.16,2.28-1.06,4.56-2.12,6.82-3.21,2.26-1.09,4.46-2.29,6.72-3.38.08-.04.12-.1.14-.17.09-.07.15-.16.12-.3-1.12-5.4-2.49-10.75-3.7-16.13Z"/>
          <path class="cls-1" d="M176.54,174.86c-1.36-2.82-6.87-14.06-8.46-16.75-.03-.04-.1-.02-.09.03,1.01,2.86,6.13,14.11,7.48,16.94,2.7,5.64,5.31,11.36,8.62,16.68.06.09.23.04.19-.08-2.2-5.77-5.07-11.27-7.75-16.83Z"/>
        </g>
      </g>
      <g>
        <g>
          <g>
            <path class="cls-7" d="M160.95,104.3c5.04.74,12.86-7.55,15.68-13.95.19-.44-.84-4.8-1.83-10.17-.59-3.26-1.18-6.9-1.47-10.26l-20.63,6.95s2.68,6.86,3.16,12.72c.03.49.03.95-.03,1.39,0,.06-.01.14-.01.23-.2,2.66.26,12.36,5.13,13.08Z"/>
            <path class="cls-1" d="M173.68,73.14c-3.13,12.08-14.14,15.19-17.87,15.92-.59-5.73-3.11-12.18-3.11-12.18l20.62-6.95c.09,1.05.22,2.13.35,3.21Z"/>
          </g>
          <g>
            <path class="cls-1" d="M147.62,36.9c-1.14-.09-7.02,7.67-7.45,11.61-.44,3.94.17,11.94,1.31,12.2,1.14.25,7.02-23.74,6.14-23.8Z"/>
            <path class="cls-7" d="M175.88,45.86c2.47,7.44-.98,29.2-6.19,34.16-7.56,7.19-20.21,8.16-26.38-.99-5.98-8.87-.99-37.14,4.86-41.67,8.62-6.67,24.07-2.48,27.71,8.51Z"/>
            <g>
              <g>
                <path class="cls-1" d="M156.16,58.67c.02-.05.1.09.09.15-.27,1.46-.34,3.18.92,3.87.04.02.02.09-.02.08-1.58-.48-1.47-2.75-.98-4.09Z"/>
                <path class="cls-1" d="M157.71,57.34c2.39.18,1.85,4.94-.36,4.77-2.18-.17-1.64-4.93.36-4.77Z"/>
              </g>
              <g>
                <path class="cls-1" d="M147.24,57.39c0-.06-.12.06-.13.12-.12,1.48-.51,3.15-1.9,3.49-.04.01-.05.09,0,.08,1.65-.04,2.14-2.27,2.02-3.69Z"/>
                <path class="cls-1" d="M146.1,55.7c-2.35-.45-3.08,4.28-.9,4.7,2.14.41,2.87-4.32.9-4.7Z"/>
              </g>
              <path class="cls-1" d="M159.83,55.38c-.63-.24-1.17-.56-1.77-.86-.67-.34-1.25-.54-1.64-1.22-.21-.37-.04-.96.3-1.2.79-.55,1.72-.34,2.54.03.9.4,1.49.95,1.93,1.83.43.85-.54,1.74-1.37,1.42Z"/>
              <path class="cls-1" d="M144.53,53.1c.67-.03,1.29-.17,1.95-.28.75-.11,1.35-.13,1.93-.66.31-.29.33-.91.08-1.23-.58-.76-1.53-.85-2.43-.75-.98.11-1.71.44-2.4,1.15-.67.68-.02,1.82.87,1.77Z"/>
              <path class="cls-1" d="M155.56,72.26c-.39.3-.8.74-1.34.72-.52-.02-1.09-.31-1.54-.55-.04-.02-.1.02-.07.07.32.61,1.08,1.06,1.78,1.01.68-.04,1.08-.58,1.31-1.17.03-.08-.08-.13-.13-.08Z"/>
              <path class="cls-1" d="M154.52,67.67c-.97,1.19-2.26,1.75-3.6,1.85-.6.05-1.22,0-1.82-.12-.12-.02-.24-.04-.34-.08-.11-.03-.2-.05-.32-.09-.17-.04-.25-.2-.26-.36h0c0-.06.01-.11.03-.16h0s.02-.14.02-.14c.1-1.14.4-2.85.4-2.85-.44.16-2.66.87-2.56.28.85-4.88,1.8-10.3,3.67-14.97.05-.16.3-.09.26.07-.63,4.72-2.09,9.29-2.8,14.02.7-.18,1.86-.53,2.45-.45.16.06-.65,3.3-.65,3.82,0,0,0,.02,0,.06,1.88.46,3.38.05,5.38-1.02.12-.07.22.04.12.15Z"/>
              <g>
                <path class="cls-1" d="M149.84,69.09s.92,1.43,2.27,2.02c.5.22,1.04.33,1.63.21,1.2-.23,1.31-1.31,1.15-2.26-.12-.78-.43-1.46-.43-1.46,0,0-1.84,1.5-4.62,1.48Z"/>
                <path class="cls-4" d="M152.11,71.11c.5.22,1.04.33,1.63.21,1.2-.23,1.31-1.31,1.15-2.26-1.28.04-2.59.82-2.78,2.04Z"/>
              </g>
            </g>
            <g>
              <path class="cls-1" d="M174.31,64.09c-3.91.02-5.47-4.45-6.3-10.61-.49-3.6,1.03-10.55,1.03-10.55,0,0-10.31,3.83-15.9,2.87-5.59-.96-10-6.21-9.37-10.6.53-3.77,7.33-8.17,15.77-7.83,5.88.24,15.39,5.76,19.24,12.42,0,0,7.09,4.14,5.53,9.62-1.56,5.48-5.55,14.66-10,14.68Z"/>
              <path class="cls-1" d="M174.07,63.63c-5.21.66-7.27-7.27-7.07-11.29.21-4.18,2.16-8.27,3.23-12.28,0-.02-.02-.03-.03-.01-2.14,4.79-4.53,10.89-3.27,16.19.79,3.34,2.73,8.91,7.19,7.67.15-.04.13-.31-.04-.28Z"/>
              <path class="cls-1" d="M185.57,47.82c-.44-3.49-4.07-7.2-7.28-8.28-.03,0-.05.04-.02.05,3.81,1.76,7.98,6.66,6.39,10.96-1.27,3.44-3.34,7.93-5.97,10.52-.07.07.03.16.1.1,2.04-1.73,3.07-4.12,4.26-6.47,1.04-2.04,2.82-4.48,2.51-6.89Z"/>
              <path class="cls-1" d="M179.48,40.37c-4.07-7.02-13.44-15.39-22.14-14.06-.03,0-.02.05,0,.04,9.17-.63,16.71,7.74,21.81,14.27.15.19.44-.06.33-.25Z"/>
            </g>
            <g>
              <path class="cls-7" d="M170.9,63.62s4.87-7.03,8.06-5.29c3.19,1.74-.46,11.91-4.19,13.31-3.73,1.4-5.09-2.02-5.09-2.02l1.22-6Z"/>
              <path class="cls-1" d="M177.84,61.22c.06,0,.07.08.02.1-2.61,1.07-3.98,3.5-4.94,6.02.77-.97,1.83-1.51,3.13-.58.07.05,0,.16-.07.14-1.07-.23-1.85-.04-2.57.82-.51.61-.86,1.38-1.22,2.08-.12.23-.54.11-.46-.16,0-.02.01-.04.02-.06-.08-3.34,2.5-8.02,6.08-8.37Z"/>
            </g>
          </g>
        </g>
        <g>
          <path class="cls-8" d="M155.79,90.76l7.02,11.54,12.75-18.06,5.15,4.29s-10.92,27.17-11.2,26.07l-6.8-9.78-6.12,8.57-2.43-18.62,1.62-4.02Z"/>
          <path class="cls-1" d="M154.88,104.26c-.3-3.09-.68-6.19-.84-9.29,0-.11.16-.19.2-.06,1.09,2.85,2.17,14.66,2.64,17.46,0-.01.02-.03.03-.04.25-.37,5.72-7.6,5.8-7.51,1.37,1.5,6.35,8.62,6.72,9.28,1.72-4.31,8.46-20.07,10.65-24.24.06-.12.24-.06.2.08-1.41,4.49-10.27,25.67-10.46,25.65-.11.12-6.29-8.64-7.13-10.35-.88,1.52-6.28,9.56-6.38,9.1-.65-3.04-1.14-7-1.44-10.09Z"/>
        </g>
      </g>
    </g>
  </g>
  <g id="Character_2" data-name="Character 2">
    <g>
      <g>
        <path class="cls-5" d="M122.27,189.54c-.03-.21-.07-.41-.11-.62.05.26.1.51.13.78,0-.05,0-.1-.02-.15Z"/>
        <path class="cls-5" d="M87.56,195.68c.11.07.23.13.36.19l.05-.09h.01c-.12-.04-.25-.06-.37-.09-.02,0-.03,0-.05-.01Z"/>
      </g>
      <g>
        <path class="cls-1" d="M46.16,111.5c1.69,1.08,3.93,1.2,5.67.14,1.71-1.05,2.64-3.05,2.48-5.02,1.89,1.03,4.19,1.13,5.87-.51,1.73-1.7,1.68-4.23.31-6.12,0-.01-.03,0-.03.02,1.05,1.85,1.07,4.27-.55,5.81-1.38,1.32-3.07,1.36-4.65.78,1.59,0,3.19-.5,4.3-1.69,1.21-1.31,1.59-3.29.83-4.9,1.85-.83,3.54-2.35,3.98-4.4.37-1.72-.26-3.6-1.71-4.61,1.64-1.16,2.55-3.29,2.09-5.28-.43-1.88-1.97-3.32-3.8-3.78,2.35-1.93,1.89-5.72-.9-7.04.72-.83.81-2.04.35-3.04-.53-1.16-1.68-1.84-2.85-2.27.13-1.12-.25-2.3-1.16-3.03-1.21-.98-2.87-.84-3.98.13-1.13-1.68-2.6-3.35-4.63-3.85-1.67-.42-3.61.03-4.64,1.45-2.43-2.73-6.67-2.74-9.12,0-1.28-.81-2.93-.81-4.28-.1-1.36.71-2.04,1.55-2.33,1.97-1.21-.64-2.72-.38-3.7.57-.97.94-1.21,2.18-1.14,3.44-.17.3-.38.55-.72.8-1.53,1.13-2.4,2.81-2.35,4.71-2.14.67-3.21,3.29-2.17,5.27-1.87,1.31-2.3,4.11-.93,5.93-1.35,1.18-2.17,2.9-2.15,4.71.01,1.39.63,2.93,1.96,3.44-.76.79-.46,2.12.27,2.89.27.29.6.54.93.76.4.27.97.5,1.25.9.29.41.23.99.32,1.46.06.34.17.67.3.99,1.02,2.39,3.77,3.82,6.29,3.25.35,1.81,2.09,2.84,3.8,3.23.56.13,1.12.16,1.7.18.53.02.99.08,1.44.4.27.2.5.45.77.65.92.67,2.02.61,3.08.43,1.13,4.81,7.16,4.99,9.8,1.31ZM23.61,67.48c.9-1.18,2.32-1.59,3.73-1.19-.06.09-.09.15-.09.15,0,0-.47,0-.69.01-.41.04-.82.15-1.2.32-.8.34-1.5.91-1.97,1.64-.21.33-.36.68-.49,1.05-.02.05-.03.09-.05.13.08-.75.28-1.47.77-2.11ZM56.25,67.69c-.93-.98-2.43-1.31-3.66-.75-.02-.03-.04-.06-.06-.09,1.18-.75,2.46-1.11,3.7-.07.87.73,1.07,1.69.95,2.67,0,0-.01,0-.02,0-.14-.65-.43-1.25-.91-1.76ZM36.58,110.16s.03,0,.05,0c1.58,2.9,5.08,3.83,7.81,2.46-2.91,1.73-6.43,1.54-7.86-2.45Z"/>
        <g>
          <g>
            <path class="cls-5" d="M113.46,153.98c-2.12,12.14-17.97,14.87-20.43,12.29-9.92-10.45-20.52-30.81-32.02-53.54-8.99-17.77-3.3-18.38,4.44-13.68,17.99,10.93,49.15,48.4,48.01,54.92Z"/>
            <path class="cls-10" d="M113.46,153.98c-2.12,12.13-17.97,14.87-20.42,12.29-9.92-10.45-20.52-30.81-32.02-53.54-4.35-8.61-5.44-14.01-3.77-15.62l55.97,54.46c.27.96.35,1.76.24,2.41Z"/>
          </g>
          <g>
            <g>
              <path class="cls-6" d="M96.48,163.34c-5.15-6.12-4.03-19.33-1.88-50.97.3-4.38,33.02-7.71,32.94-3.02-.1,5.91-3.81,29.57-5.02,33.1-5.92,17.32-22.55,25.03-26.04,20.88Z"/>
              <g>
                <path class="cls-6" d="M128.22,97.07c1.02,6.3-1.93,20.01-3.92,23.04-1.98,3.03-25.46-1.22-27.17-4.52-1.72-3.3-3.51-24.79-.3-30.46,3.21-5.67,30.33,5.4,31.39,11.93Z"/>
                <g>
                  <path class="cls-6" d="M93.65,94.85c3.17,1.18,3.97-1.48,3.97-1.48,0,0-1.16,6.46,2.13,8.24,3.17,1.71,5.15-3.27,5.3-3.62-.06.34-.97,6.31,2.52,7.76,3.63,1.51,4.76-3.83,4.83-4.18.05.34.73,4.83,3.64,5.33,4.98.86,3.54-10.67,6.19-13.8,0,0,5.81,3.88,6,3.96,0,0-1.15-11-5.56-14.34-2.33-1.76-4.42.06-4.42.06,0,0,.02-3.59-2.69-4.82-1.39-.63-3.64,1.04-3.64,1.04,0,0-.1-2.87-2.58-3.82-1.98-.76-3.92,1.03-3.92,1.03,0,0,2.43-14.46-1.29-15.54-6.41-1.86-9.87,29.37-12.44,30.8-1.28.71.59,2.85,1.97,3.36Z"/>
                  <g>
                    <path class="cls-1" d="M105.05,76.47c.03-.05-.03-.11-.08-.06-4,4.66-6.97,11.01-7.48,17.17-.02.2.44,1.03.47.8.82-5.63,3.67-12.36,7.08-17.91Z"/>
                    <path class="cls-1" d="M111.91,78.92c.04-.06-.06-.12-.11-.06-4.1,4.83-7.24,12.07-6.99,19.24,0,.25.26.46.27.17.2-4.78,3.74-14.36,6.83-19.35Z"/>
                    <path class="cls-1" d="M112.58,102.07c.03-6.88,2.26-13.06,5.46-19.08.04-.08-.07-.13-.13-.07-2.37,2.52-4.01,6.57-5.02,9.83-.97,3.12-1.22,6.13-.55,9.33.03.12.24.15.24,0Z"/>
                  </g>
                  <path class="cls-1" d="M97.52,93.43c-.02.24.61-.17.6.07-.11,2.64-.08,7.38,2.05,7.96,1.71.46,3.51-1.52,3.9-2.55l.99-2.59-.03,2.78c-.01,1.21.14,2.49.52,3.64.38,1.14,1.06,2.18,2.06,2.6,1.04.46,2.15.26,2.85-.61.73-.84,1.17-2.07,1.38-3.23l.61-3.23.48,3.24c.13.88.38,1.8.74,2.62.36.82.86,1.59,1.55,2.01.67.42,1.57.47,2.2.05.67-.43,1.12-1.28,1.48-2.12.7-1.73,1.04-3.63,1.47-5.5.21-.94.42-1.88.67-2.82.27-.92.54-1.89,1.18-2.63-.55.8-.71,1.77-.92,2.69-.18.94-.31,1.89-.45,2.84-.27,1.9-.57,3.82-1.21,5.7-.35.92-.76,1.9-1.69,2.6-.96.71-2.3.63-3.25.05-.97-.59-1.56-1.53-1.98-2.44-.42-.94-.69-1.88-.86-2.91h1.09c-.25,1.37-.65,2.69-1.6,3.84-.47.56-1.16,1.03-1.95,1.17-.79.14-1.54,0-2.23-.3-1.42-.63-2.21-2.01-2.61-3.29-.41-1.32-.55-2.64-.51-4.01l.96.19c-.55,1.29-2.32,3.72-5.06,3.34-3.49-1.03-2.66-7.91-2.42-9.15Z"/>
                </g>
                <g>
                  <path class="cls-6" d="M97.13,115.6s-11.4-13.49-11.23-19.46c.17-5.97,11.58-12.71,16.13-14.5,6.28-2.48,7.42,2.28,5.44,5.34-2.3,3.55-7.37,7.5-7.72,7.78,0,0,9.51,4.1,10.61,11.56,1.1,7.46-13.23,9.28-13.23,9.28Z"/>
                  <path class="cls-1" d="M93.67,86.32c3.26-2.36,6.61-4.81,10.62-5.72,2.31-.47,4.77,1.03,4.55,3.59-.12,2.16-1.54,3.96-2.8,5.53-1.77,2.07-3.76,3.91-6.06,5.41l-.09-.79c1.25.45,2.37,1.07,3.44,1.79,3.18,2.11,5.74,5.3,6.77,8.97-1.96-4.91-6.32-8.64-11.31-10.22,2.43-1.56,4.64-3.54,6.48-5.8.83-1.02,1.67-2.04,2.18-3.18,1.27-2.63-.07-4.88-3.07-4.53-3.84.72-7.33,3-10.71,4.95h0Z"/>
                </g>
              </g>
            </g>
            <g>
              <path class="cls-5" d="M129.32,124.41l-36.22-6.48s-6.37,41.77-.98,47.58c2.41,2.6,10.08,8.93,16.3,7.43,14.31-3.44,20.9-48.53,20.9-48.53Z"/>
              <g>
                <path class="cls-1" d="M93.46,126.42c4.05.88,8.14,1.55,12.23,2.2,4.09.66,8.19,1.32,12.3,1.87,2.32.31,4.64.64,6.97.87.06,0,.08-.09.02-.11-4.04-.88-8.14-1.57-12.22-2.25-4.09-.68-8.19-1.32-12.29-1.92-2.32-.34-4.64-.64-6.97-.87-.11-.01-.16.18-.04.2Z"/>
                <path class="cls-1" d="M93.49,117.77c-.37-.13-.89-.28-.91-.19-.45,2.27-.7,4.72-.95,7.02-.25,2.27-.45,4.54-.61,6.81-.09,1.22.08,9.38.06,10.6-.58,1.54-.91,3.15-.89,4.81,0,.08.14.09.15,0,.05-1.46.29-2.93.73-4.32-.04,2.99.19,5.96,1.05,8.87,0,.02.03,0,.03-.01-1.15-4.32-.7-15.92-.37-20.3.16-2.2.37-4.39.6-6.58.23-2.18.53-4.36.73-6.55,0,0,.39.08.47.08.08,0-.01-.22-.08-.24Z"/>
              </g>
            </g>
          </g>
        </g>
        <g>
          <path class="cls-5" d="M17.85,174.95l68.39,1.4-2.82-20.61s8.92-6.79,4.5-18.5c-1.73-4.58-17.81-30.94-23.84-38.11-5.85-6.96-16.34-4.1-20.18-.06-13.57,14.29-20.89,38.92-26.05,75.87Z"/>
          <g>
            <path class="cls-1" d="M74.8,153.13c-3.55-.13-7.14.57-10.6,1.54-3.48.97-11.23,4.14-13.17,4.91-.05.02-.03.1.02.09,3.5-.84,3.98-1.04,7.42-2.23,3.43-1.18,6.87-2.23,10.36-3.11,1.97-.5,3.96-.76,5.96-.96.13-.01.14-.24,0-.25Z"/>
            <path class="cls-1" d="M80.95,155.57c-3.66-.6-7.45-.29-11.08.6-.04.01-.04.1,0,.09,1.84-.17,3.67-.33,5.51-.42,1.85-.09,3.7-.11,5.56-.16.07,0,.07-.11,0-.12Z"/>
          </g>
        </g>
        <g>
          <g>
            <path class="cls-6" d="M48.7,96.89c.23,1.45,6.36,11.2,12.89,11.37,2.13.05,2.93-11.56,2.93-11.56l3.82-12.65-15.39-11.43s-4.34,23.65-4.26,24.27Z"/>
            <path class="cls-1" d="M50.78,84.64c3.73,8.68,11.5,10.79,14,11.25l3.57-11.83-15.39-11.43s-1.11,5.98-2.18,12.01Z"/>
          </g>
          <g>
            <path class="cls-6" d="M83.68,64.68c4.09,21.26-8.19,26.11-12.77,26.99-4.16.8-18.44,2.98-24.7-17.75-6.26-20.73,2.33-29.35,11.75-31.67,9.43-2.32,21.63,1.17,25.72,22.43Z"/>
            <g>
              <path class="cls-1" d="M79.45,60.45c-.51.02-.99-.04-1.49-.07-.57-.03-1.03,0-1.51-.36-.26-.19-.31-.66-.15-.93.38-.62,1.1-.75,1.79-.74.75.01,1.33.21,1.9.7.55.47.14,1.37-.53,1.41Z"/>
              <path class="cls-1" d="M64.27,62.09c.49-.13.93-.34,1.4-.52.54-.2.98-.31,1.33-.8.19-.26.1-.73-.14-.93-.55-.48-1.27-.39-1.93-.17-.71.24-1.2.6-1.6,1.24-.39.61.28,1.35.93,1.18Z"/>
              <g>
                <g>
                  <path class="cls-1" d="M69.01,67.92c-.02-.05-.1.09-.09.15.29,1.45.38,3.15-.85,3.86-.04.02-.02.09.03.08,1.57-.5,1.42-2.76.91-4.08Z"/>
                  <path class="cls-1" d="M67.46,66.62c-2.37.22-1.76,4.94.44,4.74,2.16-.2,1.55-4.92-.44-4.74Z"/>
                </g>
                <path class="cls-1" d="M66.56,66.99c-.38.32-.72.84-1.21.96-.57.13-1.07-.31-1.5-.73-.05-.04-.08,0-.07.06.1.91.57,1.79,1.56,1.8.9,0,1.43-.87,1.54-1.81.02-.17-.16-.4-.31-.27Z"/>
              </g>
              <g>
                <g>
                  <path class="cls-1" d="M77.5,66.24c0-.06.12.05.13.11.16,1.47.58,3.12,1.97,3.42.04,0,.05.08,0,.08-1.64,0-2.19-2.2-2.1-3.62Z"/>
                  <path class="cls-1" d="M78.59,64.53c2.32-.5,3.16,4.18,1.01,4.65-2.12.46-2.96-4.23-1.01-4.65Z"/>
                </g>
                <path class="cls-1" d="M79.62,64.67c.41.18.86.57,1.31.52.52-.06.81-.63,1.05-1.18.02-.06.07-.02.08.04.18.89.06,1.88-.77,2.2-.76.3-1.47-.37-1.84-1.22-.07-.16.01-.43.18-.36Z"/>
              </g>
              <path class="cls-1" d="M70.27,79.44c.37.33.74.79,1.28.81.51.02,1.1-.24,1.57-.44.05-.02.1.03.07.07-.36.58-1.15.97-1.83.88-.67-.09-1.03-.65-1.22-1.25-.03-.08.08-.12.14-.07Z"/>
              <path class="cls-1" d="M76.21,73.2s.53,2.16.63,3.19c0,.1-.24.17-.58.22-.02,0-.02.01-.04,0-1.79.47-3.7.03-4.96-1.35-.08-.09.04-.21.14-.16,1.46.86,3,.96,4.62.83.04-.29-1.03-3.67-.86-3.7.56-.11,1.71.16,2.4.29-.97-4.53-2.65-8.87-3.55-13.39-.03-.16.2-.23.26-.09,2.09,4.42,3.32,9.61,4.44,14.26.15.58-2.06.02-2.49-.11Z"/>
              <g>
                <path class="cls-1" d="M76.01,76.64s-.88,1.45-2.22,2.07c-.49.23-1.03.35-1.62.25-1.21-.2-1.34-1.28-1.21-2.23.1-.78.4-1.47.4-1.47,0,0,1.87,1.45,4.65,1.37Z"/>
                <path class="cls-4" d="M73.79,78.72c-.49.23-1.03.35-1.62.25-1.21-.2-1.34-1.28-1.21-2.23,1.28.01,2.61.75,2.83,1.97Z"/>
              </g>
            </g>
            <g>
              <path class="cls-1" d="M47.91,73.81c4.45-.72,3.07-11.07,3.07-11.07,0,0,7.32-2.56,9.64-8.2,0,0-1.4,4.79-4.07,7.08-.45.38,14.62-3.48,14.24-15.55,0,0,4.05,11.36,11.4,12.7.35.06-2.66-10.5-5.29-12.66-2.63-2.16-4.97-3.15-4.97-3.15,0,0-7.52-4.58-16.71-1.78-9.19,2.8-13.81,13.71-13.89,17.91-.16,8.27,4.46,15.06,6.57,14.72Z"/>
              <path class="cls-1" d="M57.08,61.81c8.29-1.63,14.11-8.01,13.48-16.73-.02-.22.31-.26.37-.06,2.48,8.57-5.9,16.39-13.9,16.95-.19.01-.14-.12.05-.16Z"/>
              <path class="cls-1" d="M47.85,73.33c4.16-3.03,4.17-7.73,3.8-12.44-.01-.14.22-.18.24-.04.77,4.56.81,10.29-3.82,12.84-.24.13-.44-.2-.22-.36Z"/>
              <path class="cls-1" d="M70.6,44.28c0-.05.07-.06.09-.01,1.76,4.68,3.22,12.8,9.53,13.09.17,0,.17.25,0,.26-6.08.26-9.5-8.25-9.63-13.34Z"/>
            </g>
            <g>
              <path class="cls-6" d="M50.58,74.37s-5.4-6.23-8.27-4.24c-2.88,1.99,1.67,11.37,5.39,12.33,3.72.96,4.68-2.46,4.68-2.46l-1.79-5.63Z"/>
              <path class="cls-1" d="M43.68,72.78c-.06,0-.06.08,0,.1,2.62.76,4.18,2.95,5.36,5.27-.84-.85-1.91-1.26-3.07-.24-.06.05.01.15.08.13,1.01-.33,1.77-.23,2.55.53.55.53.97,1.23,1.39,1.87.14.21.53.05.42-.2,0-.02-.02-.04-.03-.06-.27-3.21-3.22-7.43-6.69-7.4Z"/>
            </g>
          </g>
        </g>
        <g>
          <g>
            <path class="cls-6" d="M37.92,103.44c-12.62,12.09-44.24,58.87-35.55,68.21,8.76,9.4,60.32.28,75.02-5.74,4.37-1.79-10.34-29.24-15.31-30.14-4.14-.75-25.98,7.82-26.53,6.56-.62-1.42,3.33-11.46,9.48-29.69,7.09-21.01-1.54-14.54-7.11-9.2Z"/>
            <g>
              <path class="cls-6" d="M77.41,130.67c9.67-1.56,12.39-.48,19.85-6.14,4.89-3.71,9.36-2.18,6.65,3.61-4.43,9.46-16.49,14.1-21.13,14.5l-5.38-11.97Z"/>
              <path class="cls-6" d="M51.85,140.57s10.76-6.29,20.9-8.98c7.01-1.86,22.72-4.2,38.13,11.01,3.65,3.61,6.31,11.34-1.8,7.62-5.76-2.64-8.61-6.06-12.24-6.99,0,0,2.2,10.23-1.55,13.76-1.68,1.57-6.36,5.76-10.47,8.5,0,0-.84-.73-1.77-1.82,0,0-3.82,2.96-11.14,2.42l-20.05-25.52Z"/>
              <g>
                <path class="cls-6" d="M79.73,130.89c3.41,1.68,10.57,5.37,15.39,10.43,5.34,5.62,14.13,17.87,9.94,21.78-3.07,2.86-6.83-1.52-6.83-1.52,0,0,2.56,5.83-.78,7.81-3.04,1.8-5.75-1.76-5.75-1.76,0,0,.95,3.8-2.32,4.98-3.93,1.41-5.26-6.79-10.48-8.8-1.17-.45.83-32.9.83-32.9Z"/>
                <g>
                  <path class="cls-1" d="M88.24,145.97c2.95,2.11,8.41,8.61,10.03,15.44.04.15-.06.27-.12.13-3.38-7.14-7.89-13.1-9.96-15.52-.03-.03.02-.07.05-.05Z"/>
                  <path class="cls-1" d="M82.73,151.53c2.35,2.08,7.69,9.04,9.09,16.01.03.16-.07.26-.13.12-3.23-7.6-7.1-13.55-9.02-16.09-.03-.03.03-.07.06-.05Z"/>
                </g>
              </g>
              <path class="cls-1" d="M96.83,143.16c3.18.86,5.27,2.37,7.98,4.16,1.34.89,2.7,1.76,4.13,2.49,1.3.67,3.23,1.68,4.57.56.75-.62.71-1.73.53-2.59-.21-.97-1.22-2.76-1.82-3.56-.03-.04.04-.09.07-.05.55.71,1.64,2.32,1.97,3.16.3.76.54,1.65.34,2.46-.43,1.75-2.48,2.03-3.94,1.58-.88-.27-1.71-.71-2.51-1.15-.78-.42-1.53-.88-2.27-1.36-1.52-.98-2.99-2.05-4.5-3.05-1.66-1.1-2.81-1.63-4.58-2.53-.06-.03-.02-.12.05-.11Z"/>
              <path class="cls-1" d="M103.7,154.13c-.86-1.78-5.45-9.19-6.93-10.9-.04-.04.02-.1.06-.06,2.52,2.28,6.61,8.4,7.58,10.36.95,1.94,2.06,4.43,2.11,6.62.07,3.3-2.1,3.98-2.91,4.16-.96.21-1.94.03-2.82-.4-.98-.48-1.93-1.5-2.6-2.34-.04-.04.02-.11.06-.06,1.17,1.28,3.1,2.52,4.89,2.24.78-.12,1.56-.49,2.02-1.15.54-.77.56-1.77.47-2.67-.22-2.04-1.06-3.97-1.94-5.8Z"/>
            </g>
          </g>
          <g>
            <path class="cls-5" d="M55.67,136.8l14.41,35.22s-64.61,10.79-69.5-.62c-4.89-11.41,22.31-53.51,34.18-65.55,13.76-13.95,15.13-8.87,11.56,3.97-3.74,13.45-10.6,32.82-10.6,32.82l19.95-5.84Z"/>
            <g>
              <path class="cls-1" d="M15.82,150.71c3.06-1.9,6.31-3.51,9.61-4.95,3.27-1.43,6.68-2.49,10.12-3.42,1.97-.53,3.95-.96,5.93-1.41.06-.01.08.08.02.09-3.47.88-6.87,2.06-10.21,3.34-3.33,1.27-6.63,2.59-9.9,3.98-1.85.79-3.67,1.66-5.5,2.5-.09.04-.14-.08-.06-.13Z"/>
              <path class="cls-1" d="M55.5,136.69c-.33.07-18.1,4.86-18.68,5.09.09-.26,3.73-9.36,4.28-10.7.05-.13.1-.27.15-.4.35-.59.71-1.17,1.04-1.78.42-.77.84-1.55,1.25-2.32.01-.02-.02-.05-.04-.02-.45.75-.9,1.51-1.35,2.26-.21.35-.4.71-.59,1.06.36-.94.71-1.89,1.06-2.84.56-1.52,1.06-3.04,1.56-4.58.02-.05-.06-.07-.08-.02-1.08,2.66-2.24,5.27-3.32,7.93-1.08,2.65-5.23,12.41-5.2,12.4.03.03,19.6-5.72,19.98-5.85.15-.05.1-.27-.06-.24Z"/>
              <path class="cls-1" d="M55.44,159.15c-1.58-3.93-3.14-7.87-4.86-11.75-.98-2.2-1.95-4.41-2.96-6.6-.04-.08-.18-.03-.15.06,1.43,4.01,2.88,8.02,4.5,11.96,1.61,3.92,3.18,7.86,4.84,11.76.94,2.22,1.95,4.4,3.03,6.56.02.04.1.02.08-.03-1.3-4.06-2.88-8.01-4.47-11.97Z"/>
              <path class="cls-1" d="M70.87,172.61c-.58-1.09-1.3-2.66-1.93-3.73-.17-.28-.38-.24-.25.06.43.99.78,2.09,1.2,3.1-.91.13-1.81.24-2.72.38-1.05.16-2.09.32-3.14.48-2.05.31-4.1.59-6.16.85-4.16.53-8.34.98-12.52,1.33-8.38.71-16.82,1.12-25.23.96-2.35-.04-4.71-.13-7.06-.3-2.39-.17-4.96-.36-6.92-.72-.06-.01-.08.09-.02.11,2.02.53,3.92.9,5.99,1.12,2.12.22,4.25.39,6.38.48,4.24.19,8.5.15,12.74,0,8.42-.3,16.82-.97,25.19-1.98,2.34-.28,4.68-.59,7.02-.93,1.18-.17,2.36-.34,3.53-.53,1.18-.19,3.99-.5,3.89-.69Z"/>
            </g>
          </g>
        </g>
      </g>
      <g>
        <path class="cls-6" d="M87.61,195.69c.12.03.24.06.36.09h.01c-.12-.04-.25-.06-.37-.09Z"/>
        <g>
          <path class="cls-5" d="M122.16,188.92c.05.26.1.51.13.78,0-.05,0-.1-.02-.15-.03-.21-.07-.41-.11-.62Z"/>
          <path class="cls-5" d="M122.16,188.92c.05.26.1.51.13.78,0-.05,0-.1-.02-.15-.03-.21-.07-.41-.11-.62Z"/>
          <path class="cls-5" d="M85.97,199.46h0c.38.1.76.19,1.13.27-.37-.09-.76-.18-1.13-.27Z"/>
        </g>
      </g>
      <path class="cls-2" d="M122.16,188.92c.05.26.1.51.13.78,0-.05,0-.1-.02-.15-.03-.21-.07-.41-.11-.62Z"/>
    </g>
  </g>
</svg>