<?xml version="1.0" encoding="UTF-8"?>
<svg id="Layer_2" data-name="Layer 2" xmlns="http://www.w3.org/2000/svg" viewBox="0 0 211.86 156.17">
  <defs>
    <style>
      .cls-1 {
        fill: #263238;
      }

      .cls-1, .cls-2, .cls-3, .cls-4, .cls-5, .cls-6, .cls-7 {
        stroke-width: 0px;
      }

      .cls-2 {
        fill: #455a64;
      }

      .cls-8 {
        opacity: .6;
      }

      .cls-3 {
        fill: #ffc727;
      }

      .cls-4 {
        fill: #dd6a57;
      }

      .cls-5 {
        fill: #ff98b9;
      }

      .cls-6 {
        fill: #fff;
      }

      .cls-7 {
        fill: #37474f;
      }
    </style>
  </defs>
  <g id="Puzzle">
    <g>
      <path class="cls-7" d="M129.81,126.52c0,4.77,3.87,8.63,8.64,8.63,2.69,0,5.1-1.23,6.68-3.16.81-.99,1.99-1.61,3.27-1.61,1.14,0,2.18.46,2.93,1.21.75.75,1.21,1.78,1.21,2.93v21.65h21.66c2.29,0,4.14-1.85,4.14-4.14,0-.64-.15-1.26-.43-1.81s-.67-1.05-1.17-1.46c-1.93-1.58-3.17-3.99-3.17-6.68,0-4.78,3.87-8.65,8.63-8.65s8.63,3.87,8.63,8.65c0,2.69-1.23,5.09-3.16,6.68-.99.81-1.61,1.99-1.61,3.27,0,1.14.46,2.18,1.21,2.93.75.75,1.78,1.21,2.93,1.21h21.66v-59.31h-21.66c-2.29,0-4.14,1.85-4.14,4.14,0,.64.16,1.26.43,1.81.28.55.68,1.05,1.17,1.46,1.93,1.58,3.16,3.99,3.16,6.68,0,4.78-3.86,8.65-8.63,8.65s-8.63-3.87-8.63-8.65c0-2.69,1.24-5.09,3.17-6.68.99-.81,1.6-1.99,1.6-3.27,0-1.14-.46-2.18-1.21-2.93-.75-.75-1.78-1.21-2.93-1.21h-21.66v21.65c0,2.29-1.85,4.14-4.14,4.14-.64,0-1.25-.16-1.81-.43-.55-.28-1.05-.68-1.46-1.17-1.58-1.93-3.99-3.16-6.68-3.16-4.77,0-8.64,3.87-8.64,8.63Z"/>
      <path class="cls-3" d="M182.2,119.58c4.77,0,8.63-3.87,8.63-8.64,0-2.69-1.23-5.1-3.16-6.68-.99-.81-1.61-1.99-1.61-3.27,0-1.14.46-2.18,1.21-2.93.75-.75,1.78-1.21,2.93-1.21h21.65v-21.66c0-2.29-1.85-4.14-4.13-4.14-.64,0-1.26.15-1.81.43-.55.28-1.05.67-1.46,1.17-1.58,1.93-3.99,3.17-6.68,3.17-4.78,0-8.65-3.87-8.65-8.63s3.87-8.63,8.65-8.63c2.69,0,5.09,1.23,6.68,3.16.81.99,1.99,1.61,3.27,1.61,1.14,0,2.18-.46,2.93-1.22.75-.75,1.21-1.78,1.21-2.93v-21.66h-59.31v21.66c0,2.29,1.85,4.14,4.13,4.14.64,0,1.26-.16,1.81-.43.55-.28,1.05-.68,1.46-1.17,1.58-1.93,3.99-3.16,6.68-3.16,4.78,0,8.65,3.87,8.65,8.63s-3.87,8.63-8.65,8.63c-2.69,0-5.09-1.24-6.68-3.17-.81-.99-1.99-1.6-3.27-1.6-1.14,0-2.18.46-2.93,1.21s-1.21,1.78-1.21,2.93v21.66h21.65c2.29,0,4.14,1.85,4.14,4.14,0,.64-.16,1.25-.43,1.81-.28.55-.68,1.05-1.17,1.46-1.93,1.58-3.16,3.99-3.16,6.68,0,4.77,3.87,8.64,8.63,8.64Z"/>
      <g>
        <path class="cls-3" d="M115.95,126.51c0,4.77-3.87,8.63-8.64,8.63-2.69,0-5.1-1.23-6.68-3.16-.81-.98-1.99-1.6-3.27-1.6-1.14,0-2.18.46-2.93,1.22-.76.74-1.22,1.78-1.22,2.93v21.65h59.32v-21.65c0-2.29-1.85-4.14-4.13-4.14-.64,0-1.25.16-1.81.44-.55.28-1.05.68-1.46,1.17-1.59,1.94-3.99,3.16-6.69,3.16-4.78,0-8.64-3.87-8.64-8.63s3.87-8.63,8.64-8.63c2.69,0,5.1,1.23,6.69,3.16.81.99,1.98,1.6,3.27,1.6,1.14,0,2.17-.46,2.92-1.21s1.21-1.79,1.21-2.93v-21.64h-59.32v21.64c0,2.29,1.86,4.14,4.14,4.14.64,0,1.25-.15,1.81-.43.55-.28,1.05-.68,1.46-1.17,1.58-1.93,3.99-3.16,6.68-3.16,4.78,0,8.64,3.87,8.64,8.63Z"/>
        <path class="cls-3" d="M115.95,126.51c0,4.77-3.87,8.63-8.64,8.63-2.69,0-5.1-1.23-6.68-3.16-.81-.98-1.99-1.6-3.27-1.6-1.14,0-2.18.46-2.93,1.22-.76.74-1.22,1.78-1.22,2.93v21.65h59.32v-21.65c0-2.29-1.85-4.14-4.13-4.14-.64,0-1.25.16-1.81.44-.55.28-1.05.68-1.46,1.17-1.59,1.94-3.99,3.16-6.69,3.16-4.78,0-8.64-3.87-8.64-8.63s3.87-8.63,8.64-8.63c2.69,0,5.1,1.23,6.69,3.16.81.99,1.98,1.6,3.27,1.6,1.14,0,2.17-.46,2.92-1.21s1.21-1.79,1.21-2.93v-21.64h-59.32v21.64c0,2.29,1.86,4.14,4.14,4.14.64,0,1.25-.15,1.81-.43.55-.28,1.05-.68,1.46-1.17,1.58-1.93,3.99-3.16,6.68-3.16,4.78,0,8.64,3.87,8.64,8.63Z"/>
        <g class="cls-8">
          <path class="cls-6" d="M115.95,126.51c0,4.77-3.87,8.63-8.64,8.63-2.69,0-5.1-1.23-6.68-3.16-.81-.98-1.99-1.6-3.27-1.6-1.14,0-2.18.46-2.93,1.22-.76.74-1.22,1.78-1.22,2.93v21.65h59.32v-21.65c0-2.29-1.85-4.14-4.13-4.14-.64,0-1.25.16-1.81.44-.55.28-1.05.68-1.46,1.17-1.59,1.94-3.99,3.16-6.69,3.16-4.78,0-8.64-3.87-8.64-8.63s3.87-8.63,8.64-8.63c2.69,0,5.1,1.23,6.69,3.16.81.99,1.98,1.6,3.27,1.6,1.14,0,2.17-.46,2.92-1.21s1.21-1.79,1.21-2.93v-21.64h-59.32v21.64c0,2.29,1.86,4.14,4.14,4.14.64,0,1.25-.15,1.81-.43.55-.28,1.05-.68,1.46-1.17,1.58-1.93,3.99-3.16,6.68-3.16,4.78,0,8.64,3.87,8.64,8.63Z"/>
        </g>
      </g>
    </g>
  </g>
  <g id="Character_1" data-name="Character 1">
    <g>
      <path class="cls-3" d="M5.34,146.28c12.35,9.44,71.34,13.75,83.18,5.57-5.33-27.59-18.46-86.81-25.53-96.04-1.94-2.53-8.38-3.24-13.84-2.57-1.52.19-2.96.48-4.22.86-.02.01-.08.02-.14.03-1.27.41-2.35.93-3.09,1.52-11.37,9.07-27.66,62.28-36.36,90.62Z"/>
      <g>
        <g>
          <path class="cls-4" d="M34.66,64.23c-12.34,13.94-41.82,66.38-31.77,75.53,10.12,9.21,64.07-4.98,79.14-12.67,4.48-2.29-13.54-30.14-18.89-30.66-4.46-.43-26.9,10.57-27.6,9.28-.78-1.46,2.53-12.46,7.47-32.35,5.69-22.93-2.91-15.3-8.35-9.14Z"/>
          <g>
            <path class="cls-4" d="M74.52,87.91c10.56-3.58,13.82-2.88,21.13-10.63,4.79-5.09,10.1-4.21,8.15,2.79-3.19,11.46-15.85,18.94-20.98,20.27l-8.29-12.43Z"/>
            <path class="cls-2" d="M180,83.45c-.61-4.73-4.95-8.06-9.68-7.45-2.67.35-4.9,1.88-6.22,4-.68,1.08-1.77,1.85-3.03,2.01-1.13.15-2.22-.18-3.06-.83-.84-.64-1.43-1.61-1.58-2.75l-2.79-21.47-21.47,2.79c-2.27.29-3.86,2.36-3.57,4.63.08.63.31,1.23.66,1.74.35.51.8.96,1.35,1.29,2.12,1.32,3.66,3.55,4,6.21.62,4.74-2.72,9.07-7.45,9.69-4.73.61-9.06-2.72-9.68-7.46-.35-2.66.56-5.21,2.27-7.03.87-.93,1.34-2.18,1.17-3.45-.15-1.13-.74-2.1-1.58-2.75-.84-.64-1.92-.97-3.06-.82l-21.48,2.79,7.65,58.82,21.47-2.79c2.27-.29,3.87-2.37,3.57-4.63-.08-.63-.32-1.23-.66-1.74-.35-.51-.81-.95-1.35-1.29-2.12-1.32-3.65-3.55-4-6.22-.62-4.74,2.72-9.07,7.45-9.69,4.73-.61,9.06,2.72,9.68,7.46.35,2.66-.57,5.21-2.28,7.03-.87.93-1.33,2.18-1.16,3.45.15,1.13.74,2.1,1.58,2.75.84.64,1.92.97,3.06.82l21.48-2.79-2.79-21.47c-.29-2.27,1.3-4.35,3.57-4.64.63-.08,1.26,0,1.85.2.59.2,1.13.54,1.6.97,1.81,1.71,4.36,2.62,7.03,2.27,4.73-.62,8.07-4.95,7.45-9.67Z"/>
            <path class="cls-4" d="M47.7,103.86s10.9-9.09,21.77-14.02c7.52-3.41,24.71-9,44.88,5.16,4.78,3.36,9.22,11.54-.59,8.89-6.97-1.88-10.81-5.18-15.07-5.54,0,0,4.41,11.07.85,15.74-1.59,2.08-6.05,7.67-10.15,11.52,0,0-1.08-.67-2.33-1.71,0,0-3.73,4.04-12.05,4.82l-27.32-24.86Z"/>
            <g>
              <path class="cls-4" d="M77.17,87.72c4.14,1.25,12.88,4.03,19.24,8.8,7.06,5.3,19.23,17.4,15.27,22.57-2.91,3.79-7.96-.42-7.96-.42,0,0,3.98,6.06.6,8.91-3.07,2.6-6.79-.9-6.79-.9,0,0,1.78,4.09-1.66,6.02-4.14,2.32-7.19-6.63-13.42-7.91-1.4-.29-5.28-37.09-5.28-37.09Z"/>
              <g>
                <path class="cls-1" d="M89.57,103.05c3.71,1.81,11.07,8.08,14.17,15.44.07.17-.02.31-.11.17-5.14-7.37-11.33-13.22-14.11-15.55-.04-.03,0-.09.05-.07Z"/>
                <path class="cls-1" d="M84.43,110.33c3.04,1.89,10.33,8.7,13.23,16.26.06.17-.03.31-.12.16-5.06-7.93-10.53-13.87-13.16-16.36-.04-.03.01-.09.05-.06Z"/>
              </g>
            </g>
            <path class="cls-1" d="M98.69,98.28c3.73.37,6.36,1.66,9.74,3.16,1.67.74,3.36,1.46,5.1,2.02,1.59.5,3.94,1.28,5.24-.24.72-.84.48-2.07.1-3.01-.42-1.05-1.89-2.87-2.71-3.65-.04-.04.03-.11.07-.07.75.69,2.28,2.3,2.81,3.18.48.8.91,1.75.85,2.7-.15,2.05-2.4,2.74-4.13,2.52-1.03-.13-2.06-.48-3.04-.82-.95-.33-1.89-.7-2.81-1.1-1.9-.81-3.75-1.74-5.63-2.57-2.07-.92-3.46-1.3-5.62-1.98-.07-.02-.04-.14.03-.13Z"/>
            <path class="cls-1" d="M108.46,109.3c-1.3-1.84-7.86-9.29-9.83-10.93-.05-.04,0-.12.06-.08,3.25,2.09,9.01,8.18,10.46,10.2,1.44,2,3.15,4.59,3.62,7.03.71,3.69-1.61,4.86-2.48,5.21-1.04.42-2.18.4-3.24.09-1.19-.35-2.45-1.32-3.36-2.13-.05-.04,0-.12.06-.08,1.56,1.21,3.96,2.24,5.91,1.59.85-.28,1.66-.85,2.05-1.67.46-.97.3-2.09.02-3.09-.63-2.25-1.93-4.26-3.27-6.15Z"/>
          </g>
        </g>
        <g>
          <path class="cls-3" d="M54.03,98.35l20.77,35.89S7.16,151.36.96,139.67c-6.19-11.69,19-58.77,30.54-72.59,13.38-16.02,15.29-10.74,12.62,3.21-2.79,14.61-8.38,35.77-8.38,35.77l18.28-7.71Z"/>
          <g>
            <path class="cls-1" d="M16.17,117.09c2.98-2.42,6.19-4.56,9.49-6.53,3.26-1.95,6.72-3.53,10.23-4.98,2.01-.83,4.04-1.55,6.08-2.29.06-.02.09.07.03.1-3.55,1.4-6.98,3.11-10.34,4.9-3.35,1.79-6.65,3.63-9.93,5.54-1.85,1.08-3.66,2.25-5.47,3.39-.09.05-.16-.07-.09-.13Z"/>
            <path class="cls-1" d="M53.85,98.25c-.34.1-16.4,6.5-17,6.8.07-.28,3.14-10.27,3.6-11.73.05-.15.08-.29.13-.44.32-.66.65-1.31.94-1.98.38-.86.75-1.72,1.13-2.57.01-.03-.03-.05-.04-.02-.41.84-.83,1.68-1.23,2.52-.19.39-.36.78-.54,1.18.3-1.03.59-2.07.87-3.11.46-1.66.86-3.32,1.26-5,.01-.05-.07-.07-.08-.02-.91,2.91-1.91,5.8-2.83,8.71-.92,2.9-4.46,13.64-4.43,13.63.03.03,17.92-7.54,18.31-7.71.15-.07.08-.3-.08-.25Z"/>
            <path class="cls-1" d="M58.13,121.85c-2.02-4.03-4.02-8.09-6.19-12.04-1.24-2.25-2.46-4.51-3.72-6.74-.05-.08-.2-.02-.16.07,1.87,4.13,3.76,8.27,5.82,12.31,2.05,4.02,4.07,8.06,6.17,12.06,1.2,2.27,2.46,4.5,3.79,6.7.03.04.1,0,.08-.04-1.74-4.2-3.75-8.25-5.79-12.31Z"/>
            <path class="cls-1" d="M75.7,134.79c-.71-1.11-1.62-2.71-2.37-3.79-.2-.28-.42-.22-.26.08.55,1.01,1.01,2.15,1.55,3.18-.95.22-1.91.41-2.85.64-1.1.26-2.19.53-3.29.78-2.15.5-4.31.99-6.47,1.44-4.37.93-8.77,1.77-13.18,2.51-8.84,1.49-17.76,2.66-26.7,3.23-2.5.16-5.01.27-7.52.3-2.55.03-5.3.05-7.41-.16-.07,0-.08.11,0,.12,2.2.39,4.24.61,6.46.66,2.27.05,4.55.04,6.82-.05,4.52-.17,9.04-.59,13.53-1.12,8.91-1.06,17.78-2.51,26.57-4.31,2.46-.5,4.92-1.04,7.37-1.6,1.24-.28,2.47-.57,3.7-.87,1.23-.31,4.19-.88,4.07-1.07Z"/>
          </g>
        </g>
      </g>
      <g>
        <g>
          <g>
            <path class="cls-4" d="M61.04,69.73c-4.81,1.67-14.04-5.02-18.01-10.79-.27-.4-.07-4.88-.09-10.33-.02-3.31-.13-7-.47-10.35l21.56,2.99s-1.36,7.24-.73,13.09c.06.49.15.94.28,1.36.01.06.04.14.05.23.69,2.57,2.05,12.19-2.6,13.81Z"/>
            <path class="cls-1" d="M44,38.47c1.06,4.38,5.46,18.72,17.5,17.78.79-.06,1.51-.17,2.16-.33-.02-.09-.04-.15-.05-.22-.14-.43-.23-.88-.29-1.37-.63-5.84.73-13.09.73-13.09l-20.04-2.77Z"/>
          </g>
          <g>
            <path class="cls-4" d="M37.07,15.86c-1.13,7.89,6.23,29.05,12.34,33.08,8.86,5.83,21.69,4.53,26.23-5.74,4.39-9.96-5.69-37.36-12.36-40.84-9.83-5.13-24.54,1.84-26.21,13.51Z"/>
            <g>
              <g>
                <path class="cls-1" d="M57.84,26.36c-.03-.05-.09.11-.07.16.54,1.41.92,3.11-.2,4.04-.03.03,0,.1.04.08,1.5-.77.96-3.03.23-4.28Z"/>
                <path class="cls-1" d="M56.05,25.32c-2.35.62-.93,5.28,1.25,4.7,2.14-.57.72-5.23-1.25-4.7Z"/>
              </g>
              <g>
                <path class="cls-1" d="M66.18,23.94c0-.06.13.03.15.09.39,1.46,1.09,3.06,2.54,3.14.04,0,.06.08.01.08-1.66.26-2.57-1.87-2.71-3.32Z"/>
                <path class="cls-1" d="M67.01,22.04c2.27-.88,3.87,3.71,1.77,4.53-2.07.81-3.67-3.79-1.77-4.53Z"/>
              </g>
              <path class="cls-1" d="M53.14,22.88c.64-.24,1.19-.58,1.79-.88.68-.35,1.27-.55,1.66-1.25.21-.37.03-.98-.31-1.22-.8-.56-1.75-.34-2.59.05-.91.42-1.51.97-1.95,1.87-.43.87.56,1.76,1.4,1.44Z"/>
              <path class="cls-1" d="M68.11,17.99c-.68.09-1.32.06-2,.08-.77.02-1.38.12-2.05-.3-.36-.23-.5-.84-.31-1.22.44-.87,1.37-1.13,2.29-1.2,1-.07,1.79.13,2.61.7.79.56.35,1.81-.54,1.94Z"/>
              <path class="cls-1" d="M60.27,40.1c.45.23.94.59,1.47.48.52-.11,1.03-.52,1.44-.84.04-.03.1,0,.08.06-.21.67-.89,1.26-1.59,1.34-.69.09-1.18-.38-1.52-.93-.05-.08.05-.14.12-.11Z"/>
              <path class="cls-1" d="M60.47,35.32c1.19,1.01,2.59,1.33,3.95,1.19.61-.06,1.22-.22,1.79-.46.12-.04.23-.09.33-.14.1-.05.19-.09.3-.15.16-.08.21-.24.19-.41h0c-.02-.06-.03-.11-.06-.15h0s-.04-.14-.04-.14c-.31-1.12-.93-2.78-.93-2.78.47.08,2.82.38,2.61-.19-1.75-4.72-3.71-9.96-6.45-14.29-.08-.15-.31-.04-.25.12,1.51,4.6,3.81,8.91,5.4,13.5-.74-.05-1.96-.19-2.53,0-.14.09,1.26,3.18,1.36,3.7,0,0,0,.02,0,.06-1.79.81-3.37.67-5.57-.03-.13-.05-.22.08-.1.17Z"/>
              <g>
                <path class="cls-1" d="M65.38,35.68s-.58,1.63-1.78,2.52c-.44.33-.96.56-1.56.59-1.24.05-1.6-1-1.66-1.97-.06-.8.09-1.54.09-1.54,0,0,2.16,1.06,4.91.4Z"/>
                <path class="cls-5" d="M63.6,38.2c-.44.33-.96.56-1.56.59-1.24.05-1.6-1-1.66-1.97,1.27-.25,2.75.21,3.22,1.38Z"/>
              </g>
            </g>
            <path class="cls-1" d="M41.28,35.83c3.42-.28,4.46-5.88,4.54-8.11s-3.87-10.71-3.43-14.17c.44-3.46,3.08-6.26,5.91-6.45,2.83-.19,7.38,1.95,9.2,1.09,1.82-.87.77-5.12,2.08-5.6,2.89-1.07,8.18,4.75,9.87,7.73,0,0-3.51-13.61-18.83-9.55-13.97,3.71-14.88,14.65-14.55,19.16.62,8.63,5.21,15.92,5.21,15.92Z"/>
            <g>
              <path class="cls-4" d="M44.48,32.89s-6.14-6.16-9.02-3.85c-2.88,2.31,2.6,11.83,6.59,12.57,3.98.73,4.74-2.94,4.74-2.94l-2.3-5.78Z"/>
              <path class="cls-1" d="M37.1,31.73c-.06,0-.06.09,0,.1,2.81.6,4.62,2.79,6.03,5.14-.95-.83-2.11-1.18-3.24-.02-.06.06.02.16.1.13,1.03-.42,1.84-.37,2.72.36.62.52,1.11,1.23,1.6,1.87.16.21.57.01.43-.24-.01-.02-.02-.04-.03-.06-.52-3.35-3.94-7.57-7.59-7.28Z"/>
            </g>
          </g>
        </g>
        <g>
          <path class="cls-6" d="M63.59,55.46l-4.75,12.65-15.89-15.37-4.26,5.17s15.79,24.66,15.86,23.52l4.86-10.87,7.61,7.28-1.09-18.74-2.34-3.64Z"/>
          <path class="cls-1" d="M67,68.56c-.28-3.09-.48-6.21-.91-9.28-.01-.11-.19-.15-.21-.02-.54,3,.6,14.81.66,17.65-.01-.01-.02-.02-.03-.03-.32-.32-7.04-6.4-7.1-6.3-1.07,1.73-4.64,9.65-4.88,10.37-2.5-3.92-12.05-18.14-14.98-21.83-.08-.11-.25-.01-.18.11,2.22,4.15,14.87,23.31,15.06,23.25.13.09,4.56-9.66,5.08-11.49,1.15,1.33,7.95,8.22,7.96,7.76.07-3.11-.18-7.09-.46-10.18Z"/>
        </g>
      </g>
    </g>
  </g>
</svg>