<?xml version="1.0" encoding="UTF-8"?>
<svg id="Layer_2" data-name="Layer 2" xmlns="http://www.w3.org/2000/svg" viewBox="0 0 188.91 177.27">
  <defs>
    <style>
      .cls-1 {
        fill: #263238;
      }

      .cls-1, .cls-2, .cls-3, .cls-4, .cls-5, .cls-6, .cls-7, .cls-8, .cls-9 {
        stroke-width: 0px;
      }

      .cls-2 {
        fill: #455a64;
      }

      .cls-3 {
        fill: #ff9cbd;
      }

      .cls-4 {
        fill: #ffc727;
      }

      .cls-5 {
        fill: #d3766a;
      }

      .cls-6 {
        fill: #fff;
      }

      .cls-7 {
        opacity: .1;
      }

      .cls-7, .cls-9 {
        fill: #000;
      }

      .cls-8 {
        fill: #37474f;
      }

      .cls-9 {
        opacity: .2;
      }
    </style>
  </defs>
  <g id="Maze">
    <g>
      <g>
        <g>
          <g>
            <path class="cls-4" d="M88.47,14.31c.29.09.58.19.88.29,0,0,0,0-.01,0-.29-.09-.57-.19-.87-.28Z"/>
            <path class="cls-4" d="M92.19,15.61c-.93-.37-1.89-.7-2.85-1.01.96.31,1.91.64,2.85,1.01Z"/>
            <path class="cls-4" d="M82.84,12.88c.39.07.76.16,1.14.24-.27-.06-.54-.13-.81-.18-.1-.02-.22-.04-.32-.06Z"/>
            <path class="cls-4" d="M78.86,9.76c.15.01.28.03.43.06-.1-.02-.21-.04-.31-.05h-.11Z"/>
            <path class="cls-4" d="M78.46,12.15c-.24-.03-.47-.06-.7-.08.39.05.77.09,1.16.15-.16-.02-.3-.04-.46-.06Z"/>
            <path class="cls-4" d="M74.8,12.84c.23.01.45.03.68.05.05,0,.09,0,.13.01.07,0,.14,0,.2.01-.33-.03-.67-.06-1-.07Z"/>
          </g>
          <g>
            <path class="cls-4" d="M77.75,19.86c.91.11,1.79.26,2.69.43-.9-.18-1.79-.31-2.69-.43Z"/>
            <path class="cls-4" d="M109.75,78.37v.02s.07-.41.07-.41c-.02.13-.04.26-.07.39ZM54.77,20.88v.02c.56-.18,1.12-.34,1.67-.5l-1.67.48ZM77.75,19.86c.91.11,1.79.26,2.69.43-.9-.18-1.79-.31-2.69-.43ZM90.58,22.18c.09.04.2.08.29.13h0c-.09-.05-.2-.09-.29-.13Z"/>
          </g>
          <path class="cls-4" d="M109.75,78.37v.02s.07-.41.07-.41c-.02.13-.04.26-.07.39ZM50.28,117.04l.6-1.4h-.03s-.57,1.4-.57,1.4ZM49.54,118.84l1.61.66-1.6-.69v.03ZM77.75,19.86c.91.11,1.79.26,2.69.43-.9-.18-1.79-.31-2.69-.43Z"/>
          <path class="cls-4" d="M109.75,78.37v.02s.07-.41.07-.41c-.02.13-.04.26-.07.39Z"/>
          <path class="cls-4" d="M64.87,102.72l.65.17v-.04c-.21-.04-.43-.08-.65-.13Z"/>
          <g>
            <path class="cls-4" d="M.09,69.24c-.01.55-.02,1.09-.02,1.63,0,10.88,2.39,21.3,7.11,30.96l.9,1.79.66,1.3.04-.02c12.46,22.76,36.12,36.82,62.16,36.82,7.46,0,14.79-1.16,21.8-3.43l1.68-.56,1.61-.53v-.04s-.01-.01-.01-.01c15.93-6.02,29.13-17.54,37.28-32.6l.82-1.53-3.04-1.65-.82,1.53c-7.74,14.28-20.23,25.22-35.33,30.95l-1.81-5.49c11.36-4.39,21.41-12.26,28.41-22.31,1.34-1.91,2.59-3.93,3.7-6.02,3.7-6.86,6.06-14.44,6.94-22.23l5.77.52c-.33,3.02-.87,6.02-1.61,8.95l-.43,1.68,3.37.84.42-1.68c.78-3.1,1.34-6.28,1.69-9.48h.02l.16-1.73.16-1.72h-.03c.08-1.43.14-2.88.14-4.33C141.8,31.79,110.01,0,70.94,0c-14.04,0-27.62,4.1-39.24,11.85l-1.44.96,1.92,2.89,1.44-.96c11.06-7.38,23.97-11.28,37.32-11.28,37.16,0,67.39,30.23,67.39,67.4,0,1.34-.03,2.69-.11,4.01l-5.77-.52c.07-1.17.1-2.32.1-3.49,0-1.73-.08-3.5-.23-5.25l-.15-1.73-3.45.3.15,1.72c.14,1.65.21,3.33.21,4.96,0,9.61-2.39,19.13-6.92,27.53-1.04,1.96-2.22,3.87-3.48,5.66-6.89,9.88-16.87,17.54-28.15,21.57l-.18.06-1.62.53v.03s-.02.01-.02.01l.56,1.58,2.38,7.16c-6.66,2.16-13.62,3.24-20.72,3.24-12.02,0-23.53-3.16-33.53-8.88l2.98-4.99c9.27,5.31,19.8,8.1,30.55,8.1h1.73v-3.47h-1.73c-10.7,0-21.16-2.93-30.24-8.48-6.83-4.17-12.83-9.81-17.42-16.38l4.61-3.25c.56.79,1.14,1.57,1.73,2.34,2.48,3.17,5.35,6.06,8.5,8.59l1.36,1.08,2.17-2.71-1.36-1.08c-2.95-2.36-5.62-5.06-7.93-8.02-.56-.72-1.11-1.45-1.63-2.19l.03-.02-.96-1.37-.02-.03c-1.23-1.89-2.32-3.86-3.27-5.89-3.04-6.52-4.59-13.49-4.59-20.74,0-4.14.52-8.26,1.54-12.25h0s.01-.06.02-.09c.14-.52.28-1.04.43-1.55,4.19-14.15,14.63-25.69,28.13-31.34l.18-.07,1.43-.56h0c1.13-.44,2.28-.82,3.45-1.17.1-.03.2-.06.3-.09,4.38-1.25,8.93-1.9,13.55-1.9,6.44,0,12.68,1.22,18.56,3.64l1.97.85,1.18.53v-.02s.03.01.03.01l.51-1.19.27-.62.6-1.34h-.02s2.25-5.18,2.25-5.18c6.73,3.27,12.72,7.76,17.79,13.37,1.29,1.43,2.52,2.93,3.66,4.48l-4.5,3.41c-2.89-3.92-6.31-7.42-10.18-10.43l-1.38-1.06-2.12,2.74,1.37,1.05c3.63,2.83,6.84,6.11,9.54,9.79l-.04.03.99,1.3.05.07c5.56,8.14,8.49,17.69,8.49,27.59,0,2.29-.16,4.58-.47,6.8l-5.97-.88c.07-.51.14-1.03.19-1.55.08-.81.14-1.63.18-2.44,0-.06,0-.13.01-.19,0-.2.01-.4.01-.59.02-.39.02-.76.02-1.15,0-3.1-.33-6.2-.99-9.22l-.36-1.69-3.39.73.36,1.7c.62,2.77.92,5.63.92,8.48,0,1.8-.13,3.62-.36,5.41-.07.55-.17,1.11-.26,1.66v.05s-.07.41-.07.41v-.02c-.9,4.62-2.58,8.97-5.01,12.97l-5.03-3.39c1.2-2.02,2.18-4.16,2.93-6.39,1.17-3.44,1.75-7.04,1.75-10.7,0-2.45-.27-4.89-.79-7.26v-.04s-.05-.2-.05-.2l-.29-1.63-.13.02c-.79-2.86-1.97-5.59-3.5-8.13-4.5-7.46-11.87-12.98-20.27-15.16l-.23-.06-1.6-.48-.03.1c-3.77-.75-7.77-.84-11.61-.26l-1.71.25.51,3.43,1.72-.26c3.36-.5,6.81-.44,10.1.19l-1.52,5.19c-1.34-.23-2.7-.34-4.07-.34-11.19,0-20.98,7.55-23.82,18.35-.54,2.04-.81,4.16-.81,6.29,0,2.98.53,5.9,1.57,8.67l.6,1.63,3.25-1.22-.62-1.63c-.9-2.38-1.36-4.89-1.36-7.45,0-1.83.24-3.65.7-5.4,2.44-9.28,10.86-15.76,20.48-15.76,1.65,0,3.28.19,4.88.56l1.57.47v-.03c8.75,2.78,14.71,10.85,14.71,20.16,0,2.34-.38,4.63-1.12,6.82l-.56,1.65,3.28,1.11.55-1.64c.87-2.55,1.3-5.22,1.3-7.93,0-1.4-.11-2.77-.34-4.12l5.3-.97c.28,1.68.43,3.38.43,5.09,0,3.28-.53,6.51-1.56,9.59-.79,2.34-1.87,4.57-3.19,6.63l-.32.48-.04.05-.15.23c-1.74,2.53-3.86,4.8-6.31,6.69-3.5,2.73-7.59,4.66-11.91,5.61l-.03-.11-1.57.43c-1.62.27-3.27.41-4.92.41-1.26,0-2.52-.08-3.77-.24l1.31-5.25c.81.08,1.63.13,2.46.13,5.76,0,11.36-2.03,15.77-5.72l1.33-1.12-2.22-2.65-1.33,1.11c-3.79,3.17-8.61,4.91-13.55,4.91-1.16,0-2.29-.09-3.41-.27l-1.62-.41-.02.07c-2.06-.49-4.03-1.31-5.89-2.43l-1.49-.9-1.78,2.96,1.48.9c2.15,1.3,4.44,2.25,6.85,2.84l-1.31,5.21c-2.97-.73-5.82-1.91-8.44-3.51-3.03-1.87-5.69-4.22-7.9-7.02l-.05-.06-.93-1.34-.04.03c-3.58-5.06-5.45-10.99-5.45-17.23,0-11.61,6.8-22.29,17.32-27.2l1.57-.73-1.47-3.14-1.56.73c-2.87,1.33-5.47,3.05-7.8,5.08l-4.07-4.49c2.67-2.34,5.63-4.3,8.81-5.84,5.39-2.61,11.19-3.93,17.21-3.93,8.66,0,16.89,2.75,23.79,7.95,3.84,2.9,7.08,6.41,9.64,10.48l.92,1.46,2.93-1.85-.92-1.47c-2.79-4.41-6.32-8.24-10.49-11.38l-1.38-1.04-.02.03c-7.2-5-15.63-7.64-24.48-7.64-6.56,0-12.85,1.44-18.72,4.27-3.49,1.69-6.71,3.84-9.62,6.39l-1.31,1.2-1.25,1.14.05.06c-7.84,8.05-12.14,18.61-12.14,29.92,0,.55.01,1.12.03,1.67.03.57.06,1.15.1,1.71l.07.88c.03.29.06.58.09.87.9,7.6,3.82,14.78,8.47,20.89l.06.08c.33.44.68.88,1.03,1.3,2.11,2.54,4.49,4.83,7.13,6.84,2.59,1.97,5.39,3.63,8.34,4.96l-2.39,5.58-.6,1.4-.15.36-.58,1.41,1.6.69.15.05c.48.2.96.39,1.44.56,5.82,2.15,11.93,3.24,18.2,3.24,8.24,0,16.12-1.86,23.43-5.52,7.61-3.81,14.26-9.48,19.24-16.4,4.31-5.99,7.25-12.67,8.73-19.86h.07s.24-1.65.24-1.65v-.09s.08-.35.08-.35h-.01v-.02c.48-2.8.72-5.69.72-8.6,0-10.08-2.85-19.8-8.24-28.22l4.51-3.42c2.98,4.58,5.31,9.56,6.88,14.74l.5,1.66,3.32-1.01-.5-1.66c-1.69-5.58-4.21-10.94-7.42-15.84h.01s-.15-.2-.15-.2c-1.71-2.6-3.62-5.06-5.7-7.36-5.4-5.98-11.78-10.76-18.97-14.22l.02-.04-1.18-.5-.4-.18-1.23-.53-.38-.17h0c-1.01-.42-2.04-.81-3.08-1.18-.3-.1-.59-.21-.9-.3-.34-.11-.7-.23-1.04-.34-1.6-.5-3.2-.94-4.83-1.3-.33-.08-.68-.16-1.01-.22-.25-.05-.5-.1-.75-.16-.81-.17-1.64-.3-2.47-.44-.06-.01-.14-.02-.21-.03-.3-.04-.63-.09-.94-.13-.15-.03-.28-.05-.43-.06-.02,0-.04-.01-.06-.01-.34-.04-.69-.08-1.03-.13-.04,0-.07-.01-.11-.01-.09-.01-.2-.02-.29-.03-.07-.01-.16-.01-.23-.02-.18-.02-.35-.04-.53-.05-.16-.01-.3-.03-.46-.04-.96-.08-1.94-.14-2.91-.17-.19-.01-.44-.02-.7-.03-.53-.01-1.06-.02-1.6-.02-.84,0-1.61.02-2.34.05l-1.66.08h-.07c-6.16.41-12.18,1.73-17.85,3.9h-.01s-.85.33-.85.33l-2.37.93.03.07c-8.5,3.78-16.14,9.5-22.23,16.81-.91,1.08-1.77,2.2-2.59,3.34l-4.95-3.02c.98-1.38,2.02-2.72,3.12-4.03l1.11-1.32-2.65-2.22-1.12,1.32c-1.2,1.44-2.35,2.92-3.43,4.43l-.07-.04-.82,1.34-.03.05C4.88,42.01.76,54.41.15,67.55v.02l-.15,1.66h.09ZM99.73,62.4l-5.33.98c-2.37-7.54-8.27-13.56-16.02-15.99l1.52-5.16c6.94,2.18,12.99,6.91,16.76,13.2,1.32,2.19,2.35,4.52,3.07,6.97ZM37.46,70.86c0,.28,0,.57.02.85l-6.05.51c-.01-.46-.02-.92-.02-1.37,0-10.33,3.89-19.98,11-27.36l4.09,4.51c-5.69,6.11-9.04,14.24-9.04,22.84ZM43.53,90.07l-4.97,3.45c-3.73-5.31-6.07-11.41-6.85-17.83l6.03-.51c.69,5.37,2.65,10.43,5.8,14.89ZM65.53,102.85v.04s-.66-.17-.66-.17c.22.04.44.08.66.13ZM76.55,109.99c-1.86.26-3.74.4-5.61.4-5.09,0-10.05-.96-14.74-2.84l-1.55-.67c-2.69-1.22-5.24-2.75-7.61-4.55-2.35-1.78-4.48-3.82-6.36-6.07l4.99-3.46c2.26,2.61,4.89,4.83,7.83,6.63,3.42,2.1,7.18,3.54,11.1,4.3.56.1,1.14.21,1.71.29,1.53.21,3.08.31,4.63.31,1.34,0,2.69-.08,4.01-.24l1.6,5.89ZM77.46,113.36c.53-.08,1.06-.18,1.58-.27l.13-.03c5.5-1.06,10.67-3.17,15.35-6.25l4.1,4.5c-1.86,1.27-3.79,2.42-5.81,3.43-6.82,3.41-14.18,5.14-21.87,5.14-5.81,0-11.47-1-16.84-2.96l2.39-5.56c4.63,1.65,9.49,2.48,14.45,2.48,2.19,0,4.37-.17,6.53-.49ZM102.82,94.22c-2.21,3.02-4.82,5.7-7.81,7.99-.41.32-.81.63-1.23.92l-.05.04-.03.02c-4.18,2.95-8.79,5.01-13.74,6.16l-1.58-5.85c4.75-1.07,9.26-3.21,13.13-6.22,2.4-1.87,4.51-4.02,6.31-6.44l5.01,3.39ZM118.89,81.08c-1.4,6.63-4.13,12.8-8.11,18.34-2.66,3.69-5.82,7.01-9.36,9.83l-4.08-4.47c3.19-2.48,5.99-5.38,8.35-8.63.16-.2.3-.41.46-.62l.43-.64.3-.45c.26-.39.5-.78.75-1.18,2.48-4.06,4.25-8.43,5.28-13.07l5.98.89ZM19.05,37.63c-3.37,5.22-5.9,10.89-7.55,16.95l-.04.15c-.15.52-.27,1.05-.4,1.57-.82,3.37-1.36,6.81-1.58,10.27l-5.77-.5c.79-11.32,4.35-22.04,10.39-31.46l4.94,3.02ZM77.75,19.86c.9.11,1.79.25,2.69.43-.9-.17-1.78-.31-2.69-.43ZM50.28,16.5c5.83-2.22,12.03-3.49,18.38-3.74h.09c.18-.01.35-.01.53-.02.25-.01.51-.02.77-.02.28-.01.57-.01.88-.01.5,0,.99.01,1.49.02.79.02,1.58.05,2.38.11.33.01.67.04,1,.07.09,0,.19.01.28.02.21.01.42.03.62.06.03-.01.06,0,.08.01.17.01.32.02.49.04.06.01.13.01.19.02.09.01.2.02.29.03.18.02.38.04.56.07.24.03.48.06.72.09.09.01.19.03.28.04.2.03.4.05.58.09.2.02.4.05.58.09.31.04.62.09.92.16.52.08,1.03.19,1.54.3.02,0,.04,0,.06.01.25.05.49.1.73.17,1.92.42,3.79.95,5.65,1.56.6.2,1.21.42,1.8.64.65.25,1.29.5,1.93.76h0s-2.25,5.19-2.25,5.19h0c-.09-.03-.2-.07-.29-.11-.2-.08-.39-.16-.58-.23-2.1-.82-4.22-1.5-6.39-2.04-.41-.09-.82-.2-1.23-.28-.42-.09-.83-.18-1.25-.26-1.23-.25-2.48-.45-3.74-.6-.74-.08-1.49-.17-2.25-.22-.38-.03-.76-.06-1.15-.07-.16-.02-.31-.02-.47-.03-.85-.04-1.71-.06-2.58-.06-4.94,0-9.82.69-14.5,2.03-.55.16-1.11.32-1.66.5-.81.27-1.63.55-2.42.87l-2.07-5.26ZM20.62,55.86l-5.37-1.8c1.56-5.2,3.82-10.1,6.75-14.63l.06.04.96-1.58.02-.02c1-1.45,2.07-2.86,3.21-4.22,5.71-6.85,12.88-12.23,20.84-15.81l2.06,5.25c-13.68,6.26-24.21,18.22-28.54,32.77ZM21.36,101.25c-.72-1.15-1.39-2.32-2-3.51l-.04-.07c-.26-.51-.52-1.01-.77-1.52-3.83-7.9-5.77-16.4-5.77-25.28,0-4.55.52-9.06,1.57-13.45l5.38,1.8c-.85,3.82-1.29,7.73-1.29,11.65,0,7.76,1.66,15.22,4.91,22.2.79,1.69,1.67,3.34,2.64,4.93l-4.63,3.26ZM11.87,103.36l5.18-2.6c.47.84.96,1.68,1.46,2.49.28.45.56.89.84,1.32l.06.09c4.68,7.11,10.87,13.26,18.01,17.9l-2.98,4.99c-9.25-5.95-17.06-14.19-22.57-24.21ZM3.53,70.86c0-.43.01-.88.02-1.33l5.78.5c-.01.28-.01.55-.01.83,0,9.42,2.05,18.45,6.13,26.84l-5.17,2.59c-4.47-9.18-6.75-19.08-6.75-29.42Z"/>
            <path class="cls-4" d="M36.77,96.96l.94,1.37.09-.06c-.35-.43-.7-.87-1.03-1.3Z"/>
          </g>
          <path class="cls-4" d="M77.46,113.36l.04.16,1.54-.43c-.52.09-1.05.19-1.58.27Z"/>
          <g>
            <path class="cls-4" d="M51.29,119.55l1.42.62.02-.05c-.48-.18-.96-.36-1.44-.56Z"/>
            <polygon class="cls-4" points="49.53 118.8 49.55 118.81 50.14 117.4 49.53 118.8"/>
          </g>
          <path class="cls-4" d="M109.83,77.93c.09-.55.19-1.11.26-1.66h-.02l-.24,1.66Z"/>
          <path class="cls-4" d="M93.78,103.12c.42-.29.82-.59,1.23-.92l-.1-.11-1.13,1.03Z"/>
          <g>
            <path class="cls-4" d="M106.88,94.45l.77-1.16-.02-.02c-.25.4-.49.79-.75,1.18Z"/>
            <path class="cls-4" d="M105.7,96.15l.03.02.43-.64c-.16.21-.3.42-.46.62Z"/>
          </g>
          <g>
            <path class="cls-4" d="M28.15,75.12l.07.87h.02c-.03-.28-.06-.57-.09-.87Z"/>
            <path class="cls-4" d="M27.93,72.53l.15,1.71c-.04-.56-.07-1.14-.1-1.71h-.04Z"/>
          </g>
          <g>
            <path class="cls-4" d="M64.87,102.72l.65.17v-.04c-.21-.04-.43-.08-.65-.13Z"/>
            <path class="cls-4" d="M64.87,102.72l.65.17v-.04c-.21-.04-.43-.08-.65-.13Z"/>
            <path class="cls-4" d="M64.6,103.74l1.68.42.03-.13c-.57-.08-1.15-.19-1.71-.29Z"/>
          </g>
          <path class="cls-4" d="M18.55,96.15c.25.51.51,1.01.77,1.52l-.76-1.52h-.01Z"/>
          <g>
            <path class="cls-4" d="M23.45,58.6l.54-1.61-.09-.03c-.15.51-.29,1.03-.43,1.55-.01.03-.02.05-.02.08Z"/>
            <path class="cls-4" d="M10.94,56.26l.13.04c.13-.52.25-1.05.4-1.57l-.52,1.53Z"/>
          </g>
          <path class="cls-4" d="M18.45,103.3l.91,1.28c-.28-.44-.56-.88-.84-1.32l-.06.04Z"/>
        </g>
        <path class="cls-1" d="M70.24,125.93c4.66,0,9.83-.58,15.43-2.06,24.76-6.54,38.32-28.99,40.45-47.08.65-5.53-.19-12.25-.55-15.13-.08-.62-.14-1.11-.14-1.24.2-.24,2.3-.8,3.84-1.21,2.95-.79,4.16-1.15,4.29-1.65.76-2.85-6.61-30.96-34.49-44.51-11.21-5.45-23.49-7.68-35.49-6.45-13.12,1.35-25.63,6.9-36.18,16.07-.23.2-.52.27-.91.25-4.25-.31-15.33-13.09-15.44-13.22l-.17-.2-.39.34.17.2c.46.53,11.33,13.07,15.79,13.4.52.04.96-.09,1.29-.38,10.47-9.09,22.89-14.61,35.9-15.94,11.91-1.22,24.08.99,35.21,6.4,14.4,7,22.95,17.91,27.59,25.84,5.44,9.3,6.97,16.79,6.63,18.07-.2.29-2.44.89-3.93,1.28-3.32.89-4.22,1.2-4.22,1.71,0,.16.05.59.14,1.3.36,2.85,1.19,9.54.55,15-2.11,17.92-15.55,40.16-40.07,46.64-10.07,2.66-19.96,2.71-29.41.14-7.25-1.97-11.93-4.93-12.99-5.81-.58-.48.65-2.3,1.63-3.76,1.05-1.55,1.95-2.89,1.76-3.72-.06-.23-.2-.42-.41-.54-7.95-4.41-14.26-12.39-17.77-22.48-3.36-9.67-3.74-20.4-1.05-29.45,6.34-21.32,26.64-34,50.5-31.55,22.41,2.3,34.81,24.46,34.81,26.65-.04.31-1.19,1.09-6.41,3.01-.42.16-.74.27-.91.34-.16-.18-.5-.72-.87-1.28-2.12-3.33-7.75-12.18-18.69-17.23-10.02-4.63-20.18-3.99-23.4-2.62-.52.22-.82.46-.91.72-.21.62.1,2.06.46,3.72.44,2.02,1.04,4.79.3,5.16-.35.18-.74.37-1.18.58-4.42,2.13-13.61,6.55-16.99,18.45-3.64,12.79,4.08,24.18,6.59,25,2.38.79,8.7-6.11,9.41-6.89l.17-.19-.38-.35-.17.19c-1.87,2.07-7.12,7.32-8.87,6.75-1.89-.62-9.96-11.32-6.25-24.37,3.32-11.67,12.04-15.87,16.72-18.12.44-.21.84-.4,1.19-.58,1.09-.55.55-3.07-.03-5.73-.31-1.45-.64-2.96-.47-3.44.02-.06.18-.22.62-.41,3.05-1.3,13.23-1.89,22.98,2.61,10.8,4.99,16.37,13.74,18.47,17.04.87,1.36,1.07,1.68,1.41,1.52.11-.05.49-.19.99-.38,4.99-1.84,6.75-2.76,6.75-3.5,0-2.23-12.56-24.83-35.27-27.16-24.12-2.47-44.63,10.35-51.05,31.92-2.72,9.15-2.34,20,1.06,29.77,3.55,10.21,9.94,18.29,18.01,22.76.09.05.14.11.16.21.15.61-.82,2.04-1.68,3.31-1.28,1.89-2.48,3.67-1.53,4.45.12.1,10.43,7.84,27.44,7.84Z"/>
      </g>
      <path class="cls-1" d="M66.11,76.85c0-1.55.25-2.93.76-4.16.5-1.23,1.55-2.3,3.12-3.22.47-.28,1.06-.61,1.75-.97.69-.36,1.37-.8,2.03-1.3.66-.5,1.22-1.1,1.68-1.77.46-.68.69-1.46.69-2.34,0-.66-.13-1.25-.38-1.75-.25-.5-.58-.93-.99-1.28-.41-.35-.89-.61-1.44-.78-.55-.17-1.11-.26-1.68-.26-.69,0-1.33.12-1.89.35-.57.24-1.08.54-1.54.9-.46.36-.87.77-1.23,1.23-.36.46-.67.89-.92,1.3l-4.12-2.84c.41-.98.95-1.85,1.63-2.6.68-.76,1.45-1.4,2.32-1.92.87-.52,1.8-.91,2.82-1.18,1.01-.27,2.05-.4,3.12-.4,1.2,0,2.38.17,3.55.52,1.17.35,2.22.9,3.15,1.66.93.76,1.69,1.73,2.27,2.91.58,1.18.88,2.6.88,4.24,0,1.01-.12,1.9-.35,2.67-.24.77-.58,1.48-1.02,2.11-.44.63-.96,1.2-1.56,1.7-.6.5-1.28.99-2.03,1.47-.63.38-1.26.74-1.89,1.09-.63.35-1.21.73-1.73,1.16-.52.43-.95.92-1.28,1.47-.33.55-.5,1.22-.5,2.01h-5.2ZM66.21,87.87v-6.53h5.25v6.53h-5.25Z"/>
    </g>
  </g>
  <g id="Character_7" data-name="Character 7">
    <g>
      <path class="cls-1" d="M104.05,41.53c-.88,4.39-1.79,8.8-2.49,13.23-.43,2.71-.68,5.39-.84,8.1.77,1,1.72,2,2.89,2.97.03-.69.08-1.37.12-2.04.19-3.24.66-6.41,1.16-9.61.02-.11.17-.07.15.04-.4,3.3-.56,6.67-.69,10-.03.72-.03,1.45-.03,2.18.95.72,2.02,1.42,3.24,2.08,0-.8.03-1.59.05-2.37.05-1.84.13-3.68.27-5.51.27-3.62.77-7.21,1.44-10.77.03-.15.22-.08.21.06-.47,3.7-.81,7.42-1.02,11.14-.1,1.76-.18,3.53-.21,5.29-.02.85,0,1.7,0,2.55,1.83.94,3.97,1.82,6.47,2.61,6.36,2.01,13.36,1.79,19.91.75,5.6-.9,11.13-2.97,15.86-6.5-1.54-2.8-2.57-6.05-3.23-9.11-.02-.1.11-.14.15-.05.72,2.03,1.53,4.01,2.41,5.96.42.92.87,1.8,1.33,2.7.07-.06.14-.11.21-.17.45-.36.93-.75,1.41-1.17-.89-1.83-1.59-3.78-2.26-5.69-.97-2.73-1.76-5.5-2.24-8.38-.03-.19.2-.27.27-.09.91,2.67,1.75,5.36,2.7,8.02.67,1.87,1.45,3.7,2.17,5.55,1.37-1.34,2.54-2.96,2.56-5.04.02-1.71-.7-3.29-1.27-4.82-.65-1.72-1.2-3.48-1.67-5.27-.97-3.68-2.27-31.62-11.81-31.82-.03-.09-13.65-13.56-23.12-7.41-15.03,9.76-20.48,41.62-20.43,45.27.03,2.15.51,4.84,2.24,7.56.15-2.29.47-4.57.82-6.77.73-4.59,1.89-9.04,3.07-13.51.04-.14.24-.08.21.06Z"/>
      <g>
        <path class="cls-5" d="M112.56,71.91c-21.96,20.59-49.77,64.08-44.77,73,5.57,9.93,37.23-19.37,36.3-20.84-.79-1.24,10.61-27.57,18.89-46.82,8.27-19.23-5-10.44-10.43-5.35Z"/>
        <path class="cls-2" d="M112.56,71.91c-21.96,20.59-49.77,64.08-44.77,73,5.57,9.93,37.23-19.37,36.3-20.84-.79-1.24,10.61-27.57,18.89-46.82,8.27-19.23-5-10.44-10.43-5.35Z"/>
        <path class="cls-7" d="M81.02,143.63c10.75-6.13,23.67-18.61,23.07-19.55-.77-1.24,10.62-27.57,18.9-46.82.81-1.89,1.41-3.52,1.84-4.89l-43.81,71.26Z"/>
      </g>
      <g>
        <path class="cls-2" d="M106.62,118.55l-4.15,26.08,75.28.97-5.55-17.98c-5.91-16.57-11.09-45.91-22.21-58.42-8.83-9.95-19.43-9.41-26.29-2.69-1.74,1.7-19.32,26.31-21.67,36.55-1.68,7.32,4.58,15.5,4.58,15.5Z"/>
        <g>
          <path class="cls-1" d="M127.5,114.86c-3.42.07-6.87.28-10.27.96-1.69.34-3.36.77-5.04,1.24-.83.24-1.67.44-2.51.64-.86.2-1.78.38-2.65.32-.08,0-.09.14-.01.15.84.12,1.65.22,2.5.2.81-.02,1.63-.14,2.44-.3,1.72-.32,3.43-.74,5.14-1.09,3.46-.7,6.92-1.39,10.41-1.78.16-.02.16-.35,0-.34Z"/>
          <path class="cls-1" d="M135.47,119.37c-2.74-.63-5.55-1.11-8.34-1.36-1.41-.13-2.81-.15-4.23-.13-.68,0-1.35.03-2.03.07-.74.04-1.49.19-2.23.22-.08,0-.09.15-.01.15.7,0,1.4.15,2.1.2.7.05,1.4.1,2.1.15,1.4.1,2.8.23,4.21.32,2.81.18,5.61.39,8.41.68.15.02.17-.25.03-.28Z"/>
        </g>
      </g>
      <g>
        <g>
          <path class="cls-5" d="M139.94,64.85c-.08,1.47-5.22,11.77-11.71,12.59-2.11.26-4.06-11.21-4.06-11.21l-.34-.81-4.71-11.4,12.38-11.36,1.81-1.53s1.08,3.2,2.39,7.21c.06.19.12.37.19.57.08.22.16.44.22.65.2.6.41,1.2.6,1.82.15.46.29.92.43,1.41.15.49.29.97.44,1.46,1.38,4.88,2.39,10,2.36,10.62Z"/>
          <path class="cls-1" d="M135.71,48.33c-1.76,10.03-8.63,15.19-11.87,17.09l-4.71-11.4,12.38-11.36,1.81-1.53s1.08,3.2,2.39,7.21Z"/>
        </g>
        <g>
          <path class="cls-5" d="M103.54,29.67c-6.22,20.74,5.5,26.81,9.98,28.14,4.06,1.21,18.04,4.82,26.37-15.16,8.33-19.99.65-29.43-8.49-32.7-9.14-3.26-21.64-1.02-27.86,19.72Z"/>
          <g>
            <path class="cls-1" d="M108.05,26.37c.51.05.99.02,1.5.02.57,0,1.03.06,1.53-.27.27-.18.35-.64.21-.92-.35-.64-1.05-.82-1.74-.85-.75-.03-1.34.13-1.94.58-.58.43-.23,1.36.45,1.44Z"/>
            <path class="cls-1" d="M121.35,32.92c-.5-.1-.95-.28-1.43-.43-.55-.17-1-.25-1.38-.72-.2-.25-.15-.72.08-.94.52-.51,1.25-.47,1.91-.29.73.19,1.23.53,1.67,1.13.43.59-.19,1.37-.85,1.24Z"/>
            <g>
              <g>
                <path class="cls-1" d="M118,34.6c.02-.05.09.1.08.15-.4,1.42-.62,3.11.55,3.91.04.02.01.1-.03.08-1.52-.62-1.21-2.86-.6-4.14Z"/>
                <path class="cls-1" d="M119.65,33.43c2.34.4,1.37,5.06-.8,4.69-2.14-.36-1.17-5.02.8-4.69Z"/>
              </g>
              <path class="cls-1" d="M120.51,33.86c.35.35.65.9,1.13,1.05.56.17,1.09-.22,1.56-.62.05-.04.08,0,.07.07-.17.9-.71,1.74-1.69,1.67-.9-.06-1.36-.98-1.4-1.93,0-.17.19-.39.33-.25Z"/>
            </g>
            <g>
              <g>
                <path class="cls-1" d="M109.65,32.26c0-.06-.13.05-.14.11-.24,1.45-.77,3.08-2.17,3.3-.04,0-.05.08,0,.08,1.64.1,2.32-2.07,2.31-3.49Z"/>
                <path class="cls-1" d="M108.67,30.49c-2.29-.64-3.41,3.98-1.29,4.58,2.09.59,3.2-4.04,1.29-4.58Z"/>
              </g>
              <path class="cls-1" d="M107.63,30.56c-.42.16-.89.51-1.34.44-.51-.09-.77-.68-.98-1.24-.02-.06-.07-.03-.08.03-.24.88-.17,1.87.64,2.24.74.34,1.49-.28,1.91-1.11.08-.15.01-.43-.16-.37Z"/>
            </g>
            <path class="cls-1" d="M115.85,45.73c-.39.3-.8.73-1.34.71-.51-.02-1.08-.32-1.53-.56-.04-.02-.1.02-.07.07.31.61,1.07,1.06,1.76,1.02.68-.03,1.07-.57,1.31-1.15.03-.08-.08-.13-.13-.08Z"/>
            <path class="cls-1" d="M110.74,39.38s-.69,2.11-.88,3.13c-.02.1.22.19.57.27.02,0,.02.02.04,0,1.75.61,3.68.31,5.05-.96.09-.09-.02-.22-.13-.17-1.53.75-3.06.73-4.67.47-.02-.3,1.31-3.58,1.15-3.62-.55-.15-1.72.03-2.42.11,1.31-4.44,3.33-8.64,4.57-13.08.04-.16-.18-.25-.25-.11-2.42,4.25-4.05,9.33-5.52,13.88-.19.57,2.05.18,2.49.08Z"/>
            <g>
              <path class="cls-1" d="M110.64,42.43s.71,1.56,1.97,2.34c.46.29.99.48,1.59.45,1.23-.05,1.49-1.12,1.48-2.08-.01-.79-.22-1.52-.22-1.52,0,0-2.05,1.23-4.82.81Z"/>
              <path class="cls-3" d="M112.61,44.77c.46.29.99.48,1.59.45,1.23-.05,1.49-1.12,1.48-2.08-1.28-.14-2.7.44-3.07,1.63Z"/>
            </g>
          </g>
          <g>
            <path class="cls-1" d="M137.41,44.2c-2.19-.95-5.77-9.24-2-20.12,0,0-2.71,10.01-2.5,11.69.21,1.69-1.99-4.66.92-13.48,0,0-6.1,1.72-10.64,1.37-4.54-.35-7.05-1.31-7.23-1.71-.19-.41,6.57-.1,8.9-1.39,0,0-12.82,1.09-18.01-.36-.6-.17,3.29-10.62,12.96-12.87,9.67-2.25,19.83,5.95,21.98,10.38,0,0,3.7,1.98,5.84,9.31,2.14,7.33-7.86,18.21-10.22,17.18Z"/>
            <path class="cls-1" d="M134.01,21.09c.13-.22.5-.08.38.17-1.88,3.98-2.46,7.82-2.64,12.19,0,.06-.1.06-.11,0-.23-4.41.11-8.47,2.37-12.36Z"/>
            <path class="cls-1" d="M117.28,23.18c6.12,1.45,11.85,1.44,17.45-1.7.12-.07.24.09.13.17-5.06,3.83-11.85,3.67-17.64,1.75-.12-.04-.06-.25.06-.22Z"/>
          </g>
          <g>
            <path class="cls-5" d="M135.2,41.65s6.42-5.18,8.9-2.7c2.48,2.47-3.66,10.89-7.5,11.18-3.83.28-4.16-3.26-4.16-3.26l2.76-5.22Z"/>
            <path class="cls-1" d="M142.28,41.32c.06.01.05.09,0,.1-2.71.28-4.64,2.16-6.21,4.23.98-.69,2.11-.9,3.06.31.05.06-.04.14-.1.11-.93-.5-1.7-.54-2.6.06-.64.43-1.17,1.04-1.7,1.6-.18.18-.53-.05-.38-.27.01-.02.02-.03.04-.05.83-3.11,4.49-6.74,7.9-6.09Z"/>
          </g>
        </g>
      </g>
      <g>
        <g>
          <path class="cls-5" d="M67.82,144.94c5.42,6.6,18.81,6.89,52.44,10.8,4.65.54,17.3-31.28,12.36-32.11-6.22-1.05-30.6-3.77-32.4-3.74-15.25.22-36.08,20.58-32.4,25.05Z"/>
          <g>
            <path class="cls-5" d="M125.46,122.66s14.2,1.03,21.49,3.88c9.77,3.81,16.63,11.13,19.32,14.37,5.62,6.76,14.52,26.99,9.14,30.57-4.87,3.24-12.92-17.89-12.92-17.89,0,0,11.77,20.19,5.19,23.02-6.58,2.82-14.54-22.24-14.54-22.24,0,0,11.63,21.02,4.38,22.86-5.48,1.39-13.96-20.91-13.96-20.91,0,0,9.87,18.14,4.3,19.81-6.15,1.85-15.28-18.24-15.28-18.24-14.87,1.87-22.72-3.33-27.86-7.69-1.24-1.06,20.74-27.52,20.74-27.52Z"/>
            <g>
              <path class="cls-1" d="M159.27,146.31c1.47,2.32,2.97,4.66,4.23,7.11,1.26,2.44,2.43,4.94,3.45,7.49,2.51,6.26,3.1,10.57,3.04,10.3-1.55-6.2-5.92-15.02-7.17-17.47-1.25-2.44-2.39-4.94-3.64-7.38-.03-.06.06-.1.09-.04Z"/>
              <path class="cls-1" d="M150.37,150.68c1.75,3.05,3.59,6.01,5.2,9.13,1.6,3.11,2.85,6.2,4.24,9.41.11.25-.06.22-.18-.02-1.51-3.15-3.16-5.95-4.71-9.09-1.55-3.12-2.98-6.33-4.64-9.4-.03-.05.05-.08.08-.04Z"/>
              <path class="cls-1" d="M142.04,153.07c2.91,4.52,4.98,9.57,6.89,14.57.1.25-.12.19-.23-.05-2.2-4.89-3.89-8.74-6.82-14.41-.05-.09.1-.2.16-.1Z"/>
            </g>
          </g>
        </g>
        <g>
          <path class="cls-2" d="M130.04,122.38l-25.79,34.6s-33.86-5.03-36.82-12.53c-2.96-7.5,19.36-25.3,32.73-24.62,13.37.69,29.87,2.54,29.87,2.54Z"/>
          <path class="cls-1" d="M86.41,123.34c2.25-1.36,8.59-4.52,14.74-3.48.07.01.07.11,0,.11-5.08-.13-12.4,2.33-14.68,3.47-.06.03-.1-.06-.05-.09Z"/>
          <path class="cls-1" d="M98.2,151.06c3.72-4.36,18.3-22.75,21.18-26.93.2-.29.06-.49-.18-.21-11.46,12.79-17.73,22.53-21.16,26.99-.09.11.07.26.17.15Z"/>
        </g>
      </g>
      <g>
        <g>
          <path class="cls-5" d="M156.69,75.19c13.4,16.61,27.98,41.26,30.61,61.4,1.28,9.84-14.75,20.71-21.29,18.42-15.38-5.39-37.51-19.27-46.7-29.02-3.24-3.44,24.11-32.13,26.82-27.86,2.65,4.16,4.39,6.76,6.81,8.25,1.18.72-5.02-9.41-10.34-27.64-7.26-24.89,9.23-9.56,14.08-3.54Z"/>
          <g>
            <path class="cls-3" d="M117.38,57.44s4.07-6.39-.51-8.81c-4.58-2.42-7.57,4.53-7.57,4.53l8.08,4.28Z"/>
            <rect class="cls-4" x="96.45" y="51.94" width="9.14" height="53.26" transform="translate(153.53 195.28) rotate(-152.1)"/>
            <rect class="cls-9" x="96.45" y="51.94" width="9.14" height="53.26" transform="translate(153.53 195.28) rotate(-152.1)"/>
            <rect class="cls-8" x="107.78" y="54.66" width="10.67" height="2.12" transform="translate(187.02 157.9) rotate(-152.1)"/>
            <rect class="cls-8" x="106.69" y="56.73" width="10.67" height="2.12" transform="translate(183.99 161.28) rotate(-152.1)"/>
            <g>
              <path class="cls-6" d="M84.52,99.97l-.04,7.42-.02,2.45,2.03-1.38,6.11-4.2-.2-1.61s-1.39.74-1.42.75l-.2-1.61s-1.39.74-1.42.75l-.18-1.6s-1.41.73-1.44.74l-.18-1.6s-1.41.73-1.44.74l-.18-1.6s-1.41.73-1.44.74Z"/>
              <polygon class="cls-8" points="84.48 107.39 84.46 109.83 86.49 108.45 84.48 107.39"/>
            </g>
          </g>
          <g>
            <path class="cls-5" d="M96.57,66.91c-2.28,4.03,8.13,8.8,8.13,8.8,0,0-3.19.14-5.3,2.37-2.41,2.56.54,7.46.54,7.46,0,0-3.2.81-5.19,3.39-2.06,2.68.21,8.06.21,8.06,0,0-2.57,2.39-2.69,5.86-.2,5.92,7.71,10.47,12.05,14.25,4.65,4.05,13.26,7.44,16.78,10.37l26.27-27.11s-11.91-22.49-20.76-27.92c-4.91-3.01-26.55-11.67-30.03-5.51Z"/>
            <g>
              <path class="cls-1" d="M104.84,75.64c6.14,1.41,11.92,4.29,17.47,7.13.12.06.02.26-.1.19-5.49-2.89-11.88-4.38-17.47-7.04-.15-.07-.06-.32.1-.28Z"/>
              <path class="cls-1" d="M100.31,85.21c1.38.36,2.63,1.18,3.86,1.88,1.32.76,2.62,1.54,3.91,2.34,2.59,1.61,5.14,3.27,7.64,5.01.11.08.02.27-.1.19-2.58-1.6-5.19-3.15-7.83-4.64-1.32-.74-2.66-1.48-3.99-2.2-1.24-.67-2.61-1.28-3.68-2.22-.16-.14-.02-.42.19-.37Z"/>
              <path class="cls-1" d="M95.06,97.05c1.21.27,2.36,1.21,3.38,1.88,1.16.76,2.33,1.51,3.5,2.25,2.34,1.49,4.69,2.97,7.08,4.38.12.07.02.26-.1.19-2.44-1.41-4.9-2.79-7.33-4.23-1.19-.7-2.38-1.42-3.56-2.13-1.01-.61-2.33-1.26-3.06-2.22-.04-.05.02-.13.08-.11Z"/>
            </g>
            <path class="cls-1" d="M128.35,73.67c-1.46-1.41-3.88-3.59-9.29-4.75-.15-.03-.14.05,0,.11.81.32,5.01,1.74,9.24,4.7.04.03.08-.02.05-.06Z"/>
          </g>
        </g>
        <g>
          <path class="cls-2" d="M118.47,131.46l28-34.54,5.79,8.17s-7.65-16.15-10.67-26.53c-3.02-10.38-4.1-22.8,11.09-8.46,14.88,14.05,35.81,54.42,36.22,66.12.41,11.7-13.57,20.39-21.15,19.89-7.58-.5-49.28-24.65-49.28-24.65Z"/>
          <g>
            <path class="cls-1" d="M127.07,133.88c3.93-4.67,19.31-24.34,22.35-28.82.21-.31.07-.52-.2-.22-12.11,13.7-18.71,24.11-22.33,28.88-.09.12.08.28.18.16Z"/>
            <path class="cls-1" d="M178.31,133.96c-2.03-2.75-4.32-5.35-6.53-7.99-2.21-2.64-4.42-5.28-6.74-7.85-2.32-2.57-4.76-5.05-7.19-7.54-1.21-1.25-3.58-3.68-4.8-4.93-1.2-1.22-1.29-.9-.12.46,1.12,1.3,3.4,3.8,4.52,5.11,2.2,2.58,4.37,5.18,6.64,7.71,2.27,2.54,4.61,5.02,6.93,7.53,2.35,2.54,4.62,5.17,7.09,7.62.1.1.29-.01.2-.13Z"/>
            <path class="cls-1" d="M148.57,95.75c-1.46-3.08-3.13-6.11-4.35-9.29-.05-.13-.25-.05-.2.08.88,2.09,1.62,4.23,2.43,6.35-.06-.08-.13-.17-.19-.25-.59-.79-1.17-1.59-1.73-2.39-.08-.11-.24,0-.17.12.53.83,1.06,1.67,1.56,2.52.39.67.78,1.38,1.31,1.96.19.46.37.92.57,1.37,1.37,3.06,2.89,6.17,4.68,9.01.11.18.4.02.32-.17-1.29-3.14-2.79-6.23-4.24-9.3Z"/>
            <path class="cls-1" d="M146.7,96.71c-.12-.16-.81.74-1.13,1.21-.05.08.04.1.12.02.23-.22.5-.36.72-.6.9,1.39,5.77,7.87,6.1,8.14.15.12.26-.01.17-.19-.33-.74-4.91-7.18-5.99-8.59Z"/>
            <path class="cls-1" d="M156.82,151.87c-9.83-5.61-19.81-10.99-29.96-16-2.78-1.37-5.44-2.89-8.18-4.33.26-.22,2.52-3.22,2.58-3.33.04-.06-.03-.12-.08-.07-.26.27-3.23,3.29-3.43,3.62-.12.2,10.25,5.7,15.18,8.4,4.96,2.72,10.03,5.23,15.1,7.74,2.88,1.42,5.78,2.81,8.7,4.15.12.05.19-.12.08-.18Z"/>
          </g>
        </g>
      </g>
    </g>
  </g>
</svg>