<?xml version="1.0" encoding="UTF-8"?>
<svg id="Layer_2" data-name="Layer 2" xmlns="http://www.w3.org/2000/svg" viewBox="0 0 408.49 370.75">
  <defs>
    <style>
      .cls-1 {
        fill: #eb9481;
      }

      .cls-1, .cls-2, .cls-3, .cls-4, .cls-5, .cls-6, .cls-7, .cls-8, .cls-9, .cls-10, .cls-11 {
        stroke-width: 0px;
      }

      .cls-2 {
        fill: #263238;
      }

      .cls-3 {
        fill: #455a64;
      }

      .cls-4 {
        opacity: .6;
      }

      .cls-4, .cls-10 {
        fill: #fff;
      }

      .cls-5 {
        fill: #ffc727;
      }

      .cls-6 {
        fill: #dd6a57;
      }

      .cls-12, .cls-13 {
        fill: none;
        stroke: #fff;
        stroke-miterlimit: 10;
      }

      .cls-7 {
        fill: #ff98b9;
      }

      .cls-8 {
        fill: #263238;
      }

      .cls-13 {
        stroke-width: .5px;
      }

      .cls-9 {
        fill: #ebebeb;
      }

      .cls-11 {
        fill: #37474f;
      }
    </style>
  </defs>
  <g id="Plant">
    <g>
      <g>
        <g>
          <path class="cls-5" d="M403.72,270c-13.7,18.56-27.99,40.09-31.47,63.36-.04.35.52.47.6.12,1.59-6.38,3.6-12.58,6.06-18.63,9.01-2.48,17.85-4.52,22.58-13.46,4.82-9.19,4.21-21.17,3.29-31.19-.06-.54-.79-.56-1.07-.21Z"/>
          <g>
            <path class="cls-2" d="M379.05,314.68c6.16-13.81,14.06-27.68,24.1-39.04.07-.08.17.03.11.11-6.58,8.09-11.57,16.9-16.45,25.86,4.54-4.61,9.51-8.73,13.81-13.62.08-.1.22.04.14.14-4.27,5.12-8.93,10.68-14.49,14.47-1.49,2.75-3,5.51-4.52,8.27.37-.21.76-.39,1.14-.58.07-.03.13.07.06.1-.42.21-.84.44-1.28.63-.72,1.31-1.44,2.61-2.18,3.91-.17.29-.57.04-.44-.26Z"/>
            <path class="cls-2" d="M383.63,309.86c3.67-2.11,7.21-4.37,10.52-7.02.09-.07.22.05.13.13-3.25,2.75-6.71,5.21-10.5,7.15-.17.09-.32-.16-.15-.26Z"/>
          </g>
        </g>
        <g>
          <path class="cls-5" d="M370.67,329.91c.03.28.51.28.5-.02.07-7.66,0-15.36.12-23.06,1.96-3.96,6.18-6.15,9.11-9.33,2.11-2.29,3.92-4.88,5.47-7.61,3.62-6.48,5.59-13.77,6.34-21.14.81-8.2-2.3-35.25-5.76-34.31-1.79.49-7.59,13.88-9.13,18.31-2.52,7.29-4.29,14.84-5.45,22.46-2.8,18.03-2.57,36.55-1.2,54.7Z"/>
          <g>
            <path class="cls-2" d="M370.61,296.85s.02-.02.03-.03c.42-9.7,2.6-19.49,4.65-28.89,2.2-10.13,4.78-19.67,9.99-28.71.1-.17.35-.02.26.15-3.55,6.99-6.08,14.41-8.03,22.04.35-.55.77-1.06,1.14-1.58.14-.2.48-.01.34.2-.51.76-.97,1.65-1.63,2.3-.02.02-.04.02-.07.03-1.79,7.24-3.08,14.65-4.19,22.04.08-.09.16-.19.25-.29.06-.06.15.02.11.09-.14.25-.29.49-.44.73-.56,3.75-1.07,7.49-1.59,11.2,6.68-5.71,12.38-12.43,15.6-20.72.01-.04.08-.02.06.02-3.15,8.6-8.12,16.24-15.77,21.46-.14,1-.28,2-.42,2.99-.03.21-.36.15-.36-.05,0-.88.05-1.77.08-2.65-.09-.08-.14-.23-.02-.32Z"/>
            <path class="cls-2" d="M373.76,282.8c5.1-7.62,9.87-15.01,13.6-23.43.04-.09.2-.03.17.07-3.15,8.36-7.55,16.84-13.51,23.56-.12.14-.36-.04-.26-.2Z"/>
            <path class="cls-2" d="M380.54,257.49c2.11-3.74,4.34-7.38,6.33-11.19.06-.11.2-.01.16.09-1.67,3.9-3.66,7.86-6.16,11.29-.14.19-.45.03-.33-.19Z"/>
            <path class="cls-2" d="M379.72,259.11s.04.07,0,.07-.04-.07,0-.07Z"/>
          </g>
        </g>
        <g>
          <path class="cls-5" d="M365.48,307.74c-.13,5.08-.68,10.16-1.79,15.1.08.55.16,1.09.24,1.65,1.6-5.5,2.44-11.14,2.7-16.83.09-.16.12-.33.02-.52v-.02c.29-7.6-.42-15.28-1.69-22.8-2.37-14.08-7.56-27.6-17.38-38.16-.31-.33-.93-.16-1.08.22-3.96,10.08-2.58,22.1.8,32.16,1.84,5.42,4.46,10.62,7.79,15.27,3.37,4.74,7.67,8.75,10.4,13.92Z"/>
          <g>
            <path class="cls-2" d="M348.74,250.89c9.31,15.11,15.79,33.02,16.58,50.87.01.32-.52.4-.56.08-.22-1.6-.47-3.19-.72-4.77,0,0-.01,0-.02,0-3.85-3.69-7.8-7.58-10.56-12.19-.05-.08.07-.18.13-.1,3.35,3.83,6.48,7.75,10.26,11.17-.67-3.95-1.46-7.83-2.39-11.65-.25-.29-.49-.58-.74-.87-.16-.19.11-.47.28-.28.07.08.15.17.22.25-1.32-5.25-2.93-10.4-4.87-15.45-2.37-2.83-5.02-5.27-6.75-8.67-.04-.08.07-.15.12-.07,1.39,1.95,2.73,3.91,4.3,5.71.63.72,1.32,1.39,1.97,2.1-2.12-5.4-4.63-10.69-7.62-15.89-.13-.23.22-.44.36-.21Z"/>
            <path class="cls-2" d="M350.62,269.52c3.01,4.05,6.44,7.91,9.23,12.1.08.12-.09.24-.19.15-3.59-3.37-6.64-7.98-9.24-12.13-.08-.13.11-.24.2-.12Z"/>
            <path class="cls-2" d="M360.28,282.56l.13.13c.09.09-.05.23-.14.14l-.13-.13c-.09-.09.05-.23.14-.14Z"/>
          </g>
        </g>
        <g>
          <path class="cls-5" d="M334.16,279.93c.75,7.77,4.84,17.06,9.82,23.05,2.21,2.65,4.89,4.68,7.97,6.22,3.45,1.71,7.06,3.67,10.63,5.07,1.67,4.26,2.94,8.72,3.76,13.37.12-.39.23-.79.34-1.18-2.29-19.68-15.02-36.5-31.31-47.3-.59-.39-1.28.11-1.21.77Z"/>
          <g>
            <path class="cls-2" d="M339.79,285.74c-.11-.1.04-.31.17-.21,8.63,6.39,16.41,15.72,20.75,25.58.12.27-.25.51-.4.24-.76-1.33-1.53-2.62-2.31-3.88,0,0,0,0-.01,0-3.72-.7-7.24-3.32-10-5.8-.07-.07.04-.18.11-.11,1.44,1.27,2.99,2.43,4.7,3.3,1.52.77,3.15,1.25,4.72,1.87-1.38-2.19-2.81-4.28-4.31-6.32-4-1.36-7.81-3.82-11.17-6.28-.11-.08-.01-.25.1-.18,3.43,2.06,6.81,3.88,10.38,5.55-2.25-2.99-4.69-5.81-7.33-8.55-1.26-.67-2.54-1.34-3.77-2.05-.1-.06-.03-.23.08-.19.98.32,1.97.84,2.89,1.42-1.47-1.49-2.98-2.95-4.61-4.39Z"/>
            <path class="cls-2" d="M340.13,292.54c.22.14.43.27.63.45.06.05-.02.13-.08.1-.24-.1-.43-.23-.65-.37-.11-.07,0-.25.11-.18Z"/>
          </g>
        </g>
      </g>
      <g>
        <g>
          <polygon class="cls-3" points="392.11 370.25 347.47 370.25 351.08 329.61 351.87 320.64 387.71 320.64 388.5 329.61 392.11 370.25"/>
          <polygon class="cls-2" points="388.5 329.61 351.08 329.61 351.87 320.64 387.71 320.64 388.5 329.61"/>
        </g>
        <rect class="cls-3" x="349.73" y="314.37" width="40.12" height="8.87"/>
      </g>
    </g>
  </g>
  <g id="Table">
    <polygon class="cls-8" points="0 370.25 51.06 370.01 102.12 369.92 204.25 369.75 306.37 369.92 357.43 370.01 408.49 370.25 357.43 370.5 306.37 370.58 204.25 370.75 102.12 370.58 51.06 370.49 0 370.25"/>
  </g>
  <g id="Light_Bulb" data-name="Light Bulb">
    <g>
      <g>
        <g>
          <path class="cls-5" d="M330.05,127.51c-6.61,56.6-42.97,67.01-49.06,82.11-3.25,8.17-7.56,28.95-7.56,28.95h-59.14s-4.28-20.76-7.57-28.93c-6.06-15.1-42.45-25.49-49.05-82.09-4.36-37.19,23.59-95.92,86.17-95.93,62.58,0,90.51,58.71,86.2,95.9Z"/>
          <path class="cls-4" d="M330.05,127.51c-6.61,56.6-42.97,67.01-49.06,82.11-3.25,8.17-7.56,28.95-7.56,28.95h-59.14s-4.28-20.76-7.57-28.93c-6.06-15.1-42.45-25.49-49.05-82.09-4.36-37.19,23.59-95.92,86.17-95.93,62.58,0,90.51,58.71,86.2,95.9Z"/>
        </g>
        <g>
          <line class="cls-12" x1="229.34" y1="242.43" x2="211.78" y2="148.36"/>
          <line class="cls-12" x1="258.42" y1="242.43" x2="275.95" y2="148.35"/>
          <path class="cls-13" d="M213.28,151.96s3.48,18.42,11.82,18.42c8.34,0,16.16-27.46,5.21-27.46-10.95,0-.34,35.97,13.56,35.97,13.9,0,21.89-35.97,12.16-35.97-9.73,0-6.65,28.67,6.73,28.67,7.18,0,12.31-18.47,12.31-18.47"/>
        </g>
        <g>
          <rect class="cls-3" x="207.4" y="236.03" width="72.96" height="14.26"/>
          <rect class="cls-3" x="207.4" y="252.6" width="72.96" height="14.26"/>
          <rect class="cls-3" x="207.4" y="269.17" width="72.96" height="14.26"/>
        </g>
      </g>
      <g>
        <path class="cls-2" d="M242.85,21.46c-.46-3.57-.62-7.14-.7-10.72-.05-3.58-.03-7.16.3-10.74.46,3.57.62,7.14.7,10.72.05,3.58.03,7.16-.3,10.74Z"/>
        <path class="cls-2" d="M193.85,35.13c-2.18-2.86-4.11-5.88-5.96-8.94-1.83-3.07-3.6-6.18-5.11-9.45,2.18,2.86,4.11,5.88,5.96,8.94,1.83,3.07,3.6,6.18,5.11,9.45Z"/>
        <path class="cls-2" d="M158.25,71.47c-3.32-1.39-6.49-3.04-9.63-4.76-3.12-1.74-6.21-3.55-9.15-5.63,3.32,1.39,6.5,3.04,9.63,4.76,3.12,1.75,6.21,3.56,9.15,5.63Z"/>
        <path class="cls-2" d="M145.59,120.74c-3.57.46-7.14.62-10.72.7-3.58.05-7.16.03-10.74-.3,3.57-.46,7.14-.62,10.72-.7,3.58-.05,7.16-.03,10.74.3Z"/>
        <path class="cls-2" d="M159.27,169.74c-2.86,2.18-5.88,4.11-8.94,5.96-3.07,1.83-6.18,3.6-9.45,5.11,2.86-2.18,5.88-4.11,8.94-5.96,3.07-1.83,6.18-3.6,9.45-5.11Z"/>
        <path class="cls-2" d="M329.47,167.99c3.32,1.39,6.49,3.04,9.63,4.76,3.12,1.74,6.21,3.55,9.15,5.63-3.32-1.39-6.5-3.04-9.63-4.76-3.12-1.75-6.21-3.56-9.15-5.63Z"/>
        <path class="cls-2" d="M342.13,118.72c3.57-.46,7.14-.62,10.72-.7,3.58-.05,7.16-.03,10.74.3-3.57.46-7.14.62-10.72.7-3.58.05-7.16.03-10.74-.3Z"/>
        <path class="cls-2" d="M328.46,69.72c2.86-2.18,5.88-4.11,8.94-5.96,3.07-1.83,6.18-3.6,9.45-5.11-2.86,2.18-5.88,4.11-8.94,5.96-3.07,1.83-6.18,3.6-9.45,5.11Z"/>
        <path class="cls-2" d="M292.12,34.12c1.39-3.32,3.04-6.49,4.76-9.63,1.74-3.12,3.55-6.21,5.63-9.15-1.39,3.32-3.04,6.5-4.76,9.63-1.75,3.12-3.56,6.21-5.63,9.15Z"/>
      </g>
    </g>
  </g>
  <g id="Stars">
    <g>
      <polygon class="cls-5" points="298.18 220.95 292.2 222.05 290.86 228.35 289.53 222.05 283.55 220.95 289.5 219.49 290.86 213.55 292.22 219.49 298.18 220.95"/>
      <polygon class="cls-5" points="154.98 152.33 149 153.44 147.66 159.73 146.33 153.44 140.35 152.33 146.3 150.88 147.66 144.93 149.02 150.88 154.98 152.33"/>
      <polygon class="cls-5" points="276.62 24.33 270.65 25.44 269.31 31.73 267.97 25.44 262 24.33 267.95 22.88 269.31 16.93 270.67 22.88 276.62 24.33"/>
      <polygon class="cls-5" points="154.57 104.11 151.23 104.73 150.48 108.25 149.74 104.73 146.4 104.11 149.72 103.3 150.48 99.98 151.25 103.3 154.57 104.11"/>
      <polygon class="cls-5" points="175.01 213.14 171.66 213.76 170.92 217.28 170.17 213.76 166.83 213.14 170.16 212.33 170.92 209 171.68 212.33 175.01 213.14"/>
      <polygon class="cls-5" points="343.68 148.66 340.34 149.27 339.59 152.79 338.84 149.27 335.5 148.65 338.83 147.84 339.59 144.52 340.35 147.84 343.68 148.66"/>
      <polygon class="cls-5" points="306.35 209.41 303.01 210.03 302.26 213.55 301.52 210.03 298.18 209.41 301.5 208.6 302.26 205.27 303.02 208.6 306.35 209.41"/>
      <polygon class="cls-5" points="164.41 166.77 161.07 167.39 160.32 170.91 159.57 167.39 156.23 166.77 159.56 165.96 160.32 162.63 161.08 165.96 164.41 166.77"/>
      <polygon class="cls-5" points="258.29 13.15 254.95 13.77 254.2 17.29 253.45 13.77 250.11 13.15 253.44 12.34 254.2 9.02 254.96 12.34 258.29 13.15"/>
      <polygon class="cls-5" points="174.88 50.98 171.54 51.6 170.79 55.12 170.05 51.6 166.7 50.98 170.03 50.17 170.79 46.84 171.55 50.17 174.88 50.98"/>
      <path class="cls-5" d="M310.69,222.65c-1.25,0-1.25,1.94,0,1.94s1.25-1.94,0-1.94Z"/>
      <path class="cls-5" d="M179.39,38.19c-1.25,0-1.25,1.94,0,1.94s1.25-1.94,0-1.94Z"/>
      <path class="cls-5" d="M318.01,66.13c-1.25,0-1.25,1.94,0,1.94s1.25-1.94,0-1.94Z"/>
      <path class="cls-5" d="M359.18,141.96c-1.25,0-1.25,1.94,0,1.94s1.25-1.94,0-1.94Z"/>
      <path class="cls-5" d="M185.81,214.9c-1.25,0-1.25,1.94,0,1.94s1.25-1.94,0-1.94Z"/>
      <path class="cls-5" d="M346.16,136.32c-.88,0-.88,1.37,0,1.37s.88-1.37,0-1.37Z"/>
      <path class="cls-5" d="M181.58,228.09c-.88,0-.88,1.37,0,1.37s.88-1.37,0-1.37Z"/>
      <path class="cls-5" d="M139.8,91.83c-.88,0-.88,1.37,0,1.37s.88-1.37,0-1.37Z"/>
      <path class="cls-5" d="M318.01,55.72c-2.39,0-2.39,3.71,0,3.71s2.39-3.71,0-3.71Z"/>
      <path class="cls-5" d="M132.49,106.41c-2.39,0-2.39,3.71,0,3.71s2.39-3.71,0-3.71Z"/>
    </g>
  </g>
  <g id="Character">
    <g>
      <g>
        <g>
          <path class="cls-1" d="M95.66,256c7.53,33.9,23.33,74.58,30.14,81.21,8.62,8.39,65.98,24.07,68.85,24.4,7.09.77,21.68-50.23,14.13-51.37-11.5-1.75-53.32-4.32-55.81-6.92-2.58-2.71-20.08-25.1-38.06-50.4-12.41-17.48-23.93-17.96-19.26,3.07Z"/>
          <g>
            <path class="cls-1" d="M188.98,358.82c.84.43,12.81,6.56,20.22,8.77,5.53,1.65,21.57,5.96,23.98.05,1.65-4.03-7.48-7.67-13.88-10.39-3.37-1.43-7.52-5-6.5-7.17,1.77-3.79,10.45.09,16.15,3.46,11.03,6.51,25.69,18.2,32.5,12.63,2.57-2.11-.37-5.99-4.69-9.82,7.02,4.47,14.51,8.15,17.45,5.92,1.69-1.27,1.78-3.02.86-5.04,2.17.72,4.1.6,5.45-.81,2.31-2.38,1.22-5.93-1.26-9.57.8-.08,1.53-.48,2.09-1.35,4.9-7.36-19.22-28.77-27.61-30.82-24.66-6.05-50.7-5.15-50.7-5.15-9.76,7.68-14.08,49.27-14.06,49.29Z"/>
            <g>
              <path class="cls-2" d="M225.47,336.33c5.81.95,11.52,3.17,16.43,6.46,6.23,4.18,10.35,9.05,15.57,13.96.14.13-.06.35-.2.22-2.49-2.33-12.8-11.12-15.47-13.12-4.89-3.66-10.36-6.25-16.37-7.42-.06-.01-.04-.11.02-.1Z"/>
              <path class="cls-2" d="M230.15,325.88c6.48,1.82,13.12,3.66,19.13,6.78,6.57,3.41,11.69,8.93,16.73,14.23,3.02,3.19,5.98,6.44,8.86,9.76.12.14-.07.36-.2.22-5.11-5.48-10.38-10.82-15.82-15.98-5.11-4.86-10.83-8.59-17.41-11.15-3.71-1.44-7.51-2.6-11.32-3.75-.07-.02-.05-.14.03-.11Z"/>
              <path class="cls-2" d="M237.15,316.77c6.3,1.34,11.8,2.49,17.36,5.91,7.36,4.53,14.45,12.12,16.93,14.81,2.75,2.97,5.39,6.03,7.99,9.14.11.13-.11.31-.22.19-5.94-6.79-12.34-13.24-19.11-19.2-3.23-2.85-6.75-5.34-10.71-7.07-3.91-1.72-8.11-2.71-12.25-3.73-.03,0-.02-.05,0-.04Z"/>
            </g>
          </g>
        </g>
        <g>
          <path class="cls-5" d="M199.07,307.41l-18.08,55.86s-47.75-14-56.43-23.5c-8.68-9.49-24.46-58.31-29.04-81.94-4.58-23.64,7.35-22.97,18.21-8.01,10.86,14.96,37.91,51.22,39.43,52.02,1.52.79,45.91,5.57,45.91,5.57Z"/>
          <path class="cls-10" d="M100.14,266.62c-.4-.05-.7-.15-.98-.33-.54-.37-.86-.95-.85-1.59,0-.98-.66-1.9-1.55-2.21-.09-.03-.18-.06-.27-.08.06.32.14.64.21.97h.01c.39.34.63.83.63,1.34-.02.94.6,1.92,1.48,2.25.42.19.93.2,1.32.13.39-.08.78-.13,1.18-.24-.4-.11-.79-.16-1.18-.24ZM186.16,316.25c-.4-.05-.69-.15-.97-.33-.55-.37-.86-.94-.85-1.59-.01-.98-.67-1.9-1.56-2.21-.42-.18-.94-.16-1.31-.09-.39.08-.79.13-1.18.24.39.11.79.16,1.18.24.42.04.71.13,1,.3.55.34.9.93.9,1.54-.02.94.59,1.92,1.47,2.25.43.19.94.2,1.32.13.4-.08.79-.13,1.19-.24-.4-.11-.79-.16-1.19-.24ZM109.06,300.22c-.4-.04-.69-.14-.97-.33-.55-.36-.86-.94-.85-1.58-.01-.91-.57-1.78-1.37-2.14.44,1.37.89,2.74,1.35,4.1.16.13.33.23.52.3.43.19.94.2,1.32.13.4-.08.79-.13,1.19-.24-.4-.11-.79-.16-1.19-.24ZM163.36,352.85c-.39-.05-.69-.15-.97-.33-.54-.37-.86-.95-.85-1.59,0-.98-.66-1.9-1.55-2.21-.43-.18-.95-.16-1.32-.09-.39.08-.78.13-1.18.24.4.11.79.16,1.18.24.42.04.71.12,1,.3.55.33.9.93.9,1.54-.02.94.59,1.91,1.48,2.25.42.19.93.2,1.31.13.4-.09.79-.13,1.19-.24-.4-.11-.79-.16-1.19-.24ZM141.81,320.72c-.4-.04-.69-.14-.98-.33-.54-.36-.86-.94-.84-1.58-.01-.98-.67-1.91-1.56-2.22-.42-.17-.95-.16-1.31-.08-.4.08-.79.12-1.19.23.4.11.79.16,1.19.24.42.05.7.13.99.3.56.34.91.93.9,1.54-.01.94.6,1.92,1.48,2.25.42.19.93.2,1.32.13.39-.08.79-.13,1.18-.24-.39-.11-.79-.16-1.18-.24ZM136.93,295.91c-.32.26-.59.41-.91.49-.63.15-1.3-.02-1.73-.46-.65-.67-1.78-.93-2.64-.54-.43.16-.8.52-1.02.84-.22.34-.46.65-.67,1.01.36-.2.67-.45,1.01-.67.32-.25.6-.39.92-.46.65-.12,1.28.06,1.72.53.7.68,1.82.87,2.67.46.42-.17.78-.56.99-.87.22-.33.47-.64.67-1-.36.2-.67.45-1.01.67ZM184.59,339.06c-.08-.39-.13-.79-.24-1.18-.11.39-.15.79-.24,1.18-.04.42-.12.71-.3,1-.33.55-.93.9-1.54.9-.94-.02-1.91.59-2.25,1.47-.19.43-.2.94-.13,1.32.09.4.13.79.24,1.19.11-.4.16-.79.24-1.19.05-.4.15-.69.33-.97.37-.55.95-.86,1.59-.85.98-.01,1.9-.67,2.21-1.56.18-.42.16-.94.09-1.31ZM156.89,302.51c-.22.21-.39.46-.49.73-.19.42-.2.93-.13,1.32.08.4.13.79.24,1.18.11-.39.16-.78.24-1.18.05-.4.15-.69.33-.97.34-.53.9-.84,1.52-.85-.61-.08-1.19-.16-1.71-.23ZM122.62,275.86c-.08-.4-.12-.79-.23-1.19-.11.4-.16.79-.24,1.19-.05.42-.13.7-.3.99-.34.56-.93.91-1.54.9-.95-.01-1.92.6-2.26,1.48-.19.42-.2.93-.12,1.32s.13.79.24,1.18c.11-.39.16-.79.24-1.18.04-.4.14-.7.32-.98.37-.54.95-.86,1.59-.84.98,0,1.91-.67,2.22-1.56.17-.42.16-.95.08-1.31ZM115.87,252.74h-.01c-.41-.04-.83.03-1.2.21-.42.17-.78.55-.99.86-.22.34-.46.65-.66,1.01.35-.2.66-.45,1-.67.33-.26.59-.41.92-.49.63-.16,1.3.02,1.72.45.15.15.31.27.49.37-.44-.6-.87-1.18-1.27-1.74ZM117.62,320.63c-.32.25-.6.38-.92.45-.65.13-1.28-.06-1.72-.52-.16-.16-.33-.29-.53-.39.21.55.43,1.09.66,1.63.59.24,1.27.26,1.83,0,.43-.17.8-.52,1.02-.85s.46-.64.67-1c-.36.2-.67.44-1.01.67ZM168.11,326.54c-.32.25-.6.38-.93.45-.64.13-1.27-.06-1.72-.52-.7-.69-1.81-.88-2.66-.47-.43.18-.78.56-.99.87-.23.34-.47.65-.67,1.01.36-.2.67-.45,1-.67.33-.26.59-.41.92-.49.63-.16,1.3.02,1.72.45.66.68,1.78.94,2.64.55.43-.17.8-.52,1.02-.84.23-.34.47-.65.67-1.01-.36.2-.67.45-1,.67ZM146.43,338.26c-.31.25-.59.39-.92.46-.64.12-1.28-.06-1.72-.53-.7-.68-1.82-.87-2.67-.46-.42.17-.78.55-.99.86-.22.34-.47.65-.67,1.01.36-.2.67-.45,1.01-.67.33-.26.59-.41.91-.49.64-.15,1.3.02,1.73.45.65.68,1.78.94,2.64.55.43-.16.8-.52,1.02-.84.22-.34.47-.65.67-1.01-.36.2-.67.45-1.01.67Z"/>
          <path class="cls-2" d="M175.74,337.69c2.05-6.24,4.14-12.46,5.96-18.77,1.03-3.59,2.08-7.17,3.08-10.77.04-.14-.19-.22-.24-.09-2.3,6.18-4.6,12.38-6.62,18.66-2.01,6.25-4.07,12.49-6,18.77-1.1,3.57-2.08,7.16-2.96,10.8-.02.07.1.12.13.05,2.51-6.1,4.59-12.36,6.65-18.64Z"/>
          <path class="cls-2" d="M156.92,355.4c-.71-.25-1.41-.51-2.12-.76-3.98-1.45-8.03-3.01-11.85-4.6-.49-.2-.98-.4-1.45-.61-.77-.32-1.53-.66-2.27-.99-.38-.16-.74-.33-1.11-.49-.13-.06-.26-.12-.4-.18-.39-.18-.77-.36-1.14-.54-1.52-.71-2.95-1.42-4.29-2.13-.31-.16-.63-.33-.92-.5-2.44-1.34-4.46-2.67-5.88-3.92-.17-.15-.33-.3-.48-.45-.17-.15-.31-.3-.44-.45-8.68-9.49-24.47-58.3-29.04-81.94-.05-.27-.1-.55-.15-.81,0-.06-.02-.12-.03-.18-.31-1.8-.57-4.02-.78-6.42v-.03c-.58-11.75,4.99-13.63,11.82-8.42,16.92,36.89,42.71,97.78,50.53,113.43Z"/>
        </g>
      </g>
      <g>
        <path class="cls-5" d="M135.4,370.42l-117.58-.19c.28-2.32,33.43-112.15,55.96-130.88,9.6-7.98,27.26-2.13,29.51-.29,21.79,17.79,33.75,130.01,32.11,131.36Z"/>
        <path class="cls-10" d="M49.8,283.4c-.32.25-.59.39-.92.46-.25.05-.5.05-.74,0-.12.28-.24.56-.36.85.45.09.93.06,1.34-.13.43-.16.8-.51,1.02-.84.22-.34.47-.65.67-1.01-.36.21-.67.45-1.01.67ZM53.37,356.71c-.32.25-.6.38-.92.45-.65.13-1.28-.06-1.72-.52-.7-.69-1.82-.88-2.67-.47-.42.18-.78.56-.99.87-.22.34-.47.65-.67,1.01.36-.2.67-.45,1.01-.67.32-.26.59-.41.91-.49.63-.16,1.3.02,1.73.45.65.68,1.78.94,2.64.55.43-.17.8-.52,1.02-.84.22-.34.46-.65.67-1.01-.36.2-.67.45-1.01.67ZM97.97,351.64c-.32.25-.6.39-.92.46-.65.13-1.28-.06-1.73-.52-.69-.69-1.81-.88-2.66-.47-.43.18-.78.56-.99.87-.22.34-.47.65-.67,1,.36-.2.67-.44,1-.66.33-.27.59-.41.92-.5.63-.15,1.3.02,1.73.46.65.68,1.77.93,2.63.55.44-.17.8-.52,1.03-.85.22-.33.46-.65.66-1-.35.2-.67.44-1,.66ZM117.62,320.63c-.32.25-.6.38-.92.45-.65.13-1.28-.06-1.72-.52-.7-.69-1.82-.88-2.67-.47-.42.18-.78.56-.99.87-.22.34-.47.65-.67,1.01.36-.21.67-.45,1.01-.67.32-.27.59-.41.91-.49.63-.16,1.3.01,1.73.45.65.68,1.78.93,2.64.55.43-.17.8-.52,1.02-.85s.46-.64.67-1c-.36.2-.67.44-1.01.67ZM75.76,369.28c-.31.25-.59.39-.92.46-.64.12-1.28-.06-1.72-.53-.7-.68-1.82-.87-2.67-.46-.42.17-.78.55-.99.86-.15.24-.32.46-.47.7h.27c.18-.11.36-.24.54-.36.33-.26.59-.41.92-.49.63-.15,1.29.02,1.72.45.16.16.34.3.54.41h2.38c.31-.18.57-.45.74-.7.22-.34.47-.65.67-1.01-.36.2-.67.45-1.01.67ZM66.41,325.01c-.31.25-.59.38-.92.45-.64.13-1.28-.06-1.72-.52-.7-.69-1.82-.88-2.67-.47-.42.18-.78.56-.99.87-.22.34-.47.65-.67,1.01.36-.21.67-.45,1.01-.67.33-.27.59-.41.92-.49.63-.16,1.29.02,1.72.45.65.68,1.78.93,2.64.55.43-.17.8-.52,1.02-.85s.47-.64.67-1c-.36.2-.67.44-1.01.67ZM92.03,283.4c-.32.25-.6.39-.92.46-.65.13-1.28-.06-1.72-.53-.7-.68-1.82-.87-2.67-.46-.42.17-.78.56-.99.87-.22.33-.47.65-.67,1,.36-.2.67-.44,1.01-.67.32-.26.58-.4.91-.49.63-.15,1.3.02,1.73.46.65.67,1.78.93,2.64.54.43-.16.8-.51,1.02-.84.22-.34.46-.65.66-1.01-.35.21-.67.45-1,.67ZM113.2,254.52c-.07.1-.13.2-.19.3.09-.05.17-.1.25-.16-.02-.05-.04-.09-.06-.14ZM26.96,342.86c-.08-.39-.13-.79-.24-1.18-.11.39-.16.79-.24,1.18-.04.42-.12.7-.3,1-.09.15-.21.29-.34.42h-.01c-.14.45-.28.89-.43,1.32.67-.24,1.24-.77,1.47-1.43.18-.42.16-.94.09-1.31ZM72.03,346.11c-.08-.4-.12-.79-.23-1.19-.11.4-.16.79-.24,1.19-.05.41-.13.7-.3.99-.34.56-.93.91-1.54.9-.95-.01-1.92.6-2.26,1.48-.19.42-.2.93-.12,1.32s.13.79.24,1.18c.11-.39.16-.79.24-1.18.04-.4.14-.7.32-.98.37-.54.95-.86,1.59-.84.98,0,1.91-.67,2.22-1.56.17-.42.16-.95.08-1.31ZM120.87,277.66c-.18.06-.37.09-.56.09-.95-.01-1.92.6-2.26,1.48-.19.42-.2.93-.12,1.32s.13.79.24,1.18c.11-.39.16-.79.24-1.18.04-.4.14-.7.32-.98.37-.54.95-.86,1.59-.84.27,0,.54-.06.79-.15-.08-.31-.16-.61-.24-.92ZM67.89,267.45c-.08-.4-.13-.79-.24-1.18-.11.39-.16.78-.24,1.18-.05.42-.13.7-.3.99-.34.56-.93.91-1.54.9-.94-.01-1.92.6-2.25,1.48-.19.42-.2.93-.13,1.32.08.39.13.79.24,1.18.11-.39.16-.79.24-1.18.05-.4.15-.69.33-.98.36-.54.94-.86,1.59-.84.98-.01,1.9-.67,2.21-1.56.18-.42.16-.95.09-1.31ZM49.17,307.6c-.08-.39-.13-.79-.24-1.18-.11.39-.16.79-.24,1.18-.05.42-.13.71-.3,1-.34.55-.93.9-1.54.89-.94-.01-1.92.6-2.25,1.48-.19.42-.2.93-.13,1.32.08.4.13.79.24,1.18.11-.39.16-.78.24-1.18.05-.4.15-.69.33-.97.36-.55.94-.86,1.59-.85.97-.01,1.9-.67,2.21-1.56.18-.42.16-.94.09-1.31ZM134.83,358.41c-.26.14-.55.22-.85.22-.94-.01-1.92.6-2.25,1.48-.19.42-.2.93-.13,1.32.08.39.13.79.24,1.18.11-.39.16-.79.24-1.18.05-.4.15-.7.33-.98.37-.54.95-.86,1.59-.84.32,0,.63-.08.92-.2-.03-.33-.06-.66-.09-1ZM87.41,305.12c-.08-.4-.13-.79-.24-1.18-.11.39-.16.78-.24,1.18-.04.42-.13.7-.3.99-.34.56-.93.91-1.54.9-.94-.01-1.92.6-2.25,1.48-.19.42-.2.93-.13,1.32.08.39.13.79.24,1.18.11-.39.16-.79.24-1.18.05-.4.15-.69.33-.98.37-.54.95-.86,1.59-.84.98-.01,1.9-.67,2.21-1.56.18-.42.16-.95.09-1.31ZM96.19,236.4c-.04.12-.1.23-.16.34-.34.55-.93.91-1.54.9-.94-.02-1.92.6-2.25,1.48-.19.42-.2.93-.13,1.32.08.39.13.79.24,1.18.11-.39.16-.79.24-1.18.05-.4.15-.7.33-.98.36-.54.94-.86,1.59-.84.98-.01,1.9-.67,2.21-1.56.07-.16.1-.33.12-.5-.21-.05-.43-.11-.65-.16ZM78.77,250.55c-.33.27-.59.41-.92.5-.63.15-1.3-.02-1.72-.46-.66-.68-1.78-.93-2.64-.55-.43.17-.8.52-1.02.85s-.47.65-.67,1c.36-.2.67-.44,1.01-.66.31-.25.59-.39.92-.46.64-.13,1.27.06,1.72.52.7.69,1.82.88,2.67.47.42-.18.78-.56.99-.87.22-.34.46-.65.66-1-.35.2-.66.44-1,.66ZM109.06,300.22c-.4-.04-.69-.14-.97-.33-.55-.36-.86-.94-.85-1.58-.01-.98-.66-1.91-1.56-2.22-.42-.17-.94-.16-1.31-.08-.39.08-.79.12-1.18.23.39.11.79.16,1.18.24.42.05.71.13,1,.3.55.34.9.93.9,1.54-.02.95.59,1.92,1.47,2.25.43.19.94.2,1.32.13.4-.08.79-.13,1.19-.24-.4-.11-.79-.16-1.19-.24ZM47.06,339.36c-.4-.05-.7-.15-.98-.33-.54-.36-.86-.94-.85-1.59,0-.98-.66-1.9-1.55-2.21-.43-.18-.95-.16-1.32-.09-.39.08-.78.13-1.18.24.4.11.79.16,1.18.24.42.04.71.13,1,.3.55.34.9.93.9,1.54-.02.94.59,1.92,1.48,2.25.42.19.93.2,1.32.13.39-.08.78-.13,1.18-.24-.4-.11-.79-.16-1.18-.24ZM89.52,332.38c-.4-.05-.7-.15-.98-.33-.54-.37-.86-.95-.84-1.59-.01-.98-.67-1.91-1.56-2.21-.43-.18-.95-.16-1.31-.09-.4.08-.79.13-1.19.24.4.11.79.15,1.19.23.41.05.7.13.99.31.55.33.91.93.9,1.54-.02.94.6,1.91,1.48,2.25.42.19.93.2,1.32.12s.79-.12,1.18-.23c-.39-.12-.79-.16-1.18-.24ZM32.89,368.9c-.4-.05-.7-.15-.98-.33-.54-.36-.86-.94-.85-1.59,0-.98-.66-1.9-1.55-2.21-.43-.18-.95-.16-1.32-.09-.39.08-.78.13-1.18.24.4.11.79.16,1.18.24.42.04.71.13,1,.3.55.34.9.93.9,1.54-.02.94.59,1.92,1.48,2.25.42.19.93.2,1.32.13.39-.08.78-.13,1.18-.24-.4-.11-.79-.16-1.18-.24ZM110.65,368.89c0-.98-.67-1.9-1.56-2.21-.42-.18-.94-.16-1.31-.09-.4.08-.79.13-1.18.24.39.11.78.16,1.18.24.42.05.7.13.99.3.56.34.91.93.9,1.54-.01.52.18,1.04.49,1.47h1.21c-.47-.36-.74-.89-.72-1.49ZM65.85,299.28c-.4-.04-.69-.15-.97-.33-.55-.36-.86-.94-.85-1.59,0-.97-.67-1.9-1.56-2.21-.42-.18-.94-.16-1.31-.09-.39.08-.79.13-1.18.24.39.11.79.16,1.18.24.42.05.71.13,1,.3.55.34.9.93.89,1.54-.01.94.6,1.92,1.48,2.25.42.19.94.2,1.32.13.4-.08.79-.13,1.18-.24-.39-.11-.78-.16-1.18-.24ZM118.63,344.68c-.4-.04-.69-.14-.98-.32-.54-.37-.86-.95-.84-1.59-.01-.98-.67-1.91-1.56-2.22-.42-.17-.94-.15-1.31-.08-.4.08-.79.12-1.18.23.39.12.78.16,1.18.24.42.05.7.13.99.3.56.34.91.94.9,1.54-.01.95.6,1.92,1.48,2.26.42.19.93.2,1.32.12s.79-.13,1.18-.24c-.39-.11-.79-.15-1.18-.24ZM100.14,266.62c-.4-.05-.7-.15-.98-.33-.54-.37-.86-.95-.85-1.59,0-.98-.66-1.9-1.55-2.21-.43-.18-.95-.16-1.32-.09-.39.08-.78.13-1.18.24.4.11.79.16,1.18.24.42.04.71.12,1,.3.55.33.9.93.9,1.54-.02.94.6,1.92,1.48,2.25.42.19.93.2,1.32.13.39-.08.78-.13,1.18-.24-.4-.11-.79-.16-1.18-.24Z"/>
      </g>
      <g>
        <g>
          <path class="cls-6" d="M130.68,214.63s-5.03-9.46-11.2-5.5c-6.17,3.96.32,12.48.32,12.48l10.88-6.98Z"/>
          <rect class="cls-5" x="138.87" y="211.81" width="12.93" height="75.35" transform="translate(402.31 381.11) rotate(147.34)"/>
          <rect class="cls-11" x="118.05" y="217.18" width="15.09" height="3" transform="translate(349.34 335.03) rotate(147.34)"/>
          <rect class="cls-11" x="119.83" y="219.97" width="15.09" height="3" transform="translate(354.13 339.2) rotate(147.34)"/>
          <g>
            <path class="cls-9" d="M160.22,284.69l9.11,5.21,3,1.73-.29-3.46-.92-10.46-2.11-.87s-.06,2.23-.06,2.27l-2.11-.87s-.06,2.23-.06,2.27l-2.09-.89s-.08,2.25-.09,2.29l-2.09-.89s-.08,2.25-.09,2.29l-2.09-.89s-.08,2.25-.09,2.29Z"/>
            <polygon class="cls-11" points="169.33 289.9 172.33 291.62 172.03 288.16 169.33 289.9"/>
          </g>
        </g>
        <g>
          <g>
            <path class="cls-1" d="M60.14,260.7c-11.32,26.43-28.69,81.84-16.39,99.51,11.85,17.02,81.1-20.1,95.14-27.7,5.76-3.12-8.9-52.39-15.43-49.84-14.33,5.61-43.64,25.17-44.41,24.8-.68-.33.55-22.83.98-44.97.63-32.23-11.76-20.79-19.9-1.8Z"/>
            <g>
              <path class="cls-1" d="M164.53,252.26c4.7,4.04.45,8.83.45,8.83,0,0,4.33-.21,7.45,2.55,3.58,3.16.19,10.15.19,10.15,0,0,4.43.7,7.43,3.94,3.12,3.37.71,10.91.71,10.91,0,0,3.77,2.91,4.35,7.58,1,7.98-8.47,15.8-14.53,20.73-9,7.32-27.71,13.52-31.68,15.57l-32.36-38.27s20.87-29.57,28.45-34.91c7.75-5.45,24.92-11.06,29.54-7.08Z"/>
              <g>
                <path class="cls-2" d="M164.19,260.7c-8.12,2.66-15,7.58-22.16,12.09-.16.1,0,.35.16.25,7.06-4.57,14.94-7.69,22.17-11.97.2-.12.05-.44-.17-.37Z"/>
                <path class="cls-2" d="M172.07,273.39c-1.82.66-3.41,1.91-4.98,3.02-1.69,1.19-3.35,2.4-5,3.65-3.3,2.49-6.54,5.05-9.71,7.71-.14.12,0,.36.16.25,3.29-2.47,6.62-4.9,10.01-7.23,1.7-1.17,3.41-2.32,5.12-3.46,1.6-1.06,3.37-2.05,4.7-3.45.2-.21-.03-.58-.3-.48Z"/>
                <path class="cls-2" d="M180.62,288.74c-1.6.51-3.04,1.93-4.34,2.95-1.48,1.16-2.96,2.32-4.46,3.47-2.98,2.3-5.97,4.59-9.03,6.78-.15.11,0,.36.16.25,3.12-2.21,6.27-4.38,9.38-6.61,1.52-1.1,3.04-2.21,4.55-3.32,1.29-.95,3-1.99,3.86-3.37.05-.08-.04-.17-.12-.15Z"/>
              </g>
            </g>
          </g>
          <g>
            <path class="cls-5" d="M106.27,289.36l25.76,51.06s-59.53,27.49-80.34,24.45c-20.81-3.03-10.67-42.75-9.29-51.71.99-6.4,12.38-45.06,21.1-60.72,8.72-15.67,16.26-15.85,17.17,5.64.91,21.49-1.15,47.57-.28,47.19.87-.38,25.87-15.91,25.87-15.91Z"/>
            <path class="cls-10" d="M118.63,344.68c-.4-.04-.69-.14-.98-.32-.54-.37-.86-.95-.84-1.59-.01-.98-.67-1.91-1.56-2.22-.42-.17-.94-.15-1.31-.08-.4.08-.79.12-1.18.23.39.12.78.16,1.18.24.42.05.7.13.99.3.56.34.91.94.9,1.54-.01.95.6,1.92,1.48,2.26.42.19.93.2,1.32.12s.79-.13,1.18-.24c-.39-.11-.79-.15-1.18-.24ZM65.85,299.28c-.4-.04-.69-.15-.97-.33-.55-.36-.86-.94-.85-1.59,0-.97-.67-1.9-1.56-2.21-.42-.18-.94-.16-1.31-.09-.39.08-.79.13-1.18.24.39.11.79.16,1.18.24.42.05.71.13,1,.3.55.34.9.93.89,1.54-.01.94.6,1.92,1.48,2.25.42.19.94.2,1.32.13.4-.08.79-.13,1.18-.24-.39-.11-.78-.16-1.18-.24ZM89.52,332.38c-.4-.05-.7-.15-.98-.33-.54-.37-.86-.95-.84-1.59-.01-.98-.67-1.91-1.56-2.21-.43-.18-.95-.16-1.31-.09-.4.08-.79.13-1.19.24.4.11.79.15,1.19.23.41.05.7.13.99.31.55.33.91.93.9,1.54-.02.94.6,1.91,1.48,2.25.42.19.93.2,1.32.12s.79-.12,1.18-.23c-.39-.12-.79-.16-1.18-.24ZM47.06,339.36c-.4-.05-.7-.15-.98-.33-.54-.36-.86-.94-.85-1.59,0-.98-.66-1.9-1.55-2.21-.43-.18-.95-.16-1.32-.09-.39.08-.78.13-1.18.24.4.11.79.16,1.18.24.42.04.71.13,1,.3.55.34.9.93.9,1.54-.02.94.59,1.92,1.48,2.25.42.19.93.2,1.32.13.39-.08.78-.13,1.18-.24-.4-.11-.79-.16-1.18-.24ZM109.06,300.22c-.4-.04-.69-.14-.97-.33-.55-.36-.86-.94-.85-1.58-.01-.98-.66-1.91-1.56-2.22-.42-.17-.94-.16-1.31-.08-.39.08-.79.12-1.18.23.39.11.79.16,1.18.24.42.05.71.13,1,.3.55.34.9.93.9,1.54-.02.95.59,1.92,1.47,2.25.43.19.94.2,1.32.13.4-.08.79-.13,1.19-.24-.4-.11-.79-.16-1.19-.24ZM78.77,250.55c-.33.27-.59.41-.92.5-.63.15-1.3-.02-1.72-.46-.66-.68-1.78-.93-2.64-.55-.43.17-.8.52-1.02.85s-.47.65-.67,1c.36-.2.67-.44,1.01-.66.31-.25.59-.39.92-.46.64-.13,1.27.06,1.72.52.7.69,1.82.88,2.67.47.42-.18.78-.56.99-.87.22-.34.46-.65.66-1-.35.2-.66.44-1,.66ZM87.41,305.12c-.08-.4-.13-.79-.24-1.18-.11.39-.16.78-.24,1.18-.04.42-.13.7-.3.99-.34.56-.93.91-1.54.9-.94-.01-1.92.6-2.25,1.48-.19.42-.2.93-.13,1.32.08.39.13.79.24,1.18.11-.39.16-.79.24-1.18.05-.4.15-.69.33-.98.37-.54.95-.86,1.59-.84.98-.01,1.9-.67,2.21-1.56.18-.42.16-.95.09-1.31ZM49.17,307.6c-.08-.39-.13-.79-.24-1.18-.11.39-.16.79-.24,1.18-.05.42-.13.71-.3,1-.34.55-.93.9-1.54.89-.94-.01-1.92.6-2.25,1.48-.19.42-.2.93-.13,1.32.08.4.13.79.24,1.18.11-.39.16-.78.24-1.18.05-.4.15-.69.33-.97.36-.55.94-.86,1.59-.85.97-.01,1.9-.67,2.21-1.56.18-.42.16-.94.09-1.31ZM67.89,267.45c-.08-.4-.13-.79-.24-1.18-.11.39-.16.78-.24,1.18-.05.42-.13.7-.3.99-.34.56-.93.91-1.54.9-.94-.01-1.92.6-2.25,1.48-.19.42-.2.93-.13,1.32.08.39.13.79.24,1.18.11-.39.16-.79.24-1.18.05-.4.15-.69.33-.98.36-.54.94-.86,1.59-.84.98-.01,1.9-.67,2.21-1.56.18-.42.16-.95.09-1.31ZM72.03,346.11c-.08-.4-.12-.79-.23-1.19-.11.4-.16.79-.24,1.19-.05.41-.13.7-.3.99-.34.56-.93.91-1.54.9-.95-.01-1.92.6-2.26,1.48-.19.42-.2.93-.12,1.32s.13.79.24,1.18c.11-.39.16-.79.24-1.18.04-.4.14-.7.32-.98.37-.54.95-.86,1.59-.84.98,0,1.91-.67,2.22-1.56.17-.42.16-.95.08-1.31ZM66.41,325.01c-.31.25-.59.38-.92.45-.64.13-1.28-.06-1.72-.52-.7-.69-1.82-.88-2.67-.47-.42.18-.78.56-.99.87-.22.34-.47.65-.67,1.01.36-.21.67-.45,1.01-.67.33-.27.59-.41.92-.49.63-.16,1.29.02,1.72.45.65.68,1.78.93,2.64.55.43-.17.8-.52,1.02-.85s.47-.64.67-1c-.36.2-.67.44-1.01.67ZM117.62,320.63c-.32.25-.6.38-.92.45-.65.13-1.28-.06-1.72-.52-.7-.69-1.82-.88-2.67-.47-.42.18-.78.56-.99.87-.22.34-.47.65-.67,1.01.36-.21.67-.45,1.01-.67.32-.27.59-.41.91-.49.63-.16,1.3.01,1.73.45.65.68,1.78.93,2.64.55.43-.17.8-.52,1.02-.85s.46-.64.67-1c-.36.2-.67.44-1.01.67ZM97.97,351.64c-.32.25-.6.39-.92.46-.65.13-1.28-.06-1.73-.52-.69-.69-1.81-.88-2.66-.47-.43.18-.78.56-.99.87-.22.34-.47.65-.67,1,.36-.2.67-.44,1-.66.33-.27.59-.41.92-.5.63-.15,1.3.02,1.73.46.65.68,1.77.93,2.63.55.44-.17.8-.52,1.03-.85.22-.33.46-.65.66-1-.35.2-.67.44-1,.66ZM53.37,356.71c-.32.25-.6.38-.92.45-.65.13-1.28-.06-1.72-.52-.7-.69-1.82-.88-2.67-.47-.42.18-.78.56-.99.87-.22.34-.47.65-.67,1.01.36-.2.67-.45,1.01-.67.32-.26.59-.41.91-.49.63-.16,1.3.02,1.73.45.65.68,1.78.94,2.64.55.43-.17.8-.52,1.02-.84.22-.34.46-.65.67-1.01-.36.2-.67.45-1.01.67Z"/>
            <g>
              <path class="cls-2" d="M80.31,304.56c-2.8,2.8-4.83,5.88-6.9,8.91-2.09,3.07-3.7,6.25-5.4,9.42-.04.07.15.11.19.04,1.9-3.09,4.18-6.1,6.27-9.14,2.09-3.03,4.52-5.97,6.42-9.06.12-.2-.4-.35-.58-.17Z"/>
              <path class="cls-2" d="M46.33,298.24c-1.64,6.37-3.11,12.79-4.28,19.25-1.22,6.45-2.16,12.96-2.5,19.47-.11,3.26-.09,6.49.28,9.72.35,3.21.93,6.42,2.18,9.32,1.23,2.88,3.29,5.35,6.08,6.64,2.78,1.32,6,1.62,9.18,1.49,6.41-.28,12.77-2.06,19.05-3.89,6.28-1.86,12.49-4.02,18.7-6.18,6.21-2.15,12.38-4.41,18.54-6.74,6.15-2.32,12.31-4.63,18.44-7.03l-.06.15-1.59-3.41,1.79,3.31.06.1-.11.05c-6.01,2.69-12.05,5.32-18.13,7.83-6.09,2.49-12.22,4.92-18.38,7.25-6.17,2.31-12.4,4.46-18.71,6.42-6.31,1.88-12.73,3.82-19.51,4.1-3.36.1-6.89-.23-10.08-1.77-1.59-.76-3.02-1.88-4.18-3.2-1.16-1.33-2.05-2.85-2.72-4.43-1.33-3.18-1.89-6.54-2.22-9.85-.37-3.31-.27-6.68-.08-9.99,1.1-13.23,4.31-26.09,8.28-38.64Z"/>
              <path class="cls-2" d="M80.92,270.7c.08,2.71.06,5.41.1,8.12l-.02,8.11c.01,5.4-.13,10.82-.07,16.2l.03.99.02.48.02.22v.08s.01.02,0,0v-.02s-.07-.11-.07-.11c-.08-.13-.23-.25-.37-.28l-.1-.04c-.06-.02-.13-.02-.19,0-.03,0-.06.01-.08.02-.02,0,0,0,0,0l.04-.02c.06-.03.11-.05.19-.09l.43-.22.87-.48c1.16-.66,2.32-1.36,3.48-2.05l6.97-4.14,6.99-4.12,7.05-4.04.07-.04.03.07.49,1.12-.61-1.06.1.03c-2.22,1.55-4.45,3.09-6.7,4.6l-6.78,4.46c-2.27,1.48-4.56,2.91-6.86,4.35-1.16.71-2.31,1.41-3.49,2.09l-.9.51-.47.25c-.07.04-.18.09-.27.13l-.07.03-.05.02s-.09.03-.14.04c-.1.02-.21.03-.31.02-.06,0-.08,0-.16-.03-.15-.05-.32-.18-.41-.33-.06-.09-.07-.14-.07-.13v-.04s-.04-.08-.04-.08c-.02-.07-.03-.1-.03-.13l-.03-.17-.03-.29-.03-.53-.03-1.03c-.02-5.44.16-10.84.43-16.25l.43-8.11c.2-2.7.36-5.4.61-8.1Z"/>
              <path class="cls-2" d="M109.53,325.5c-2.93-5.88-5.81-11.78-8.95-17.54-1.79-3.28-3.56-6.57-5.38-9.83-.07-.12-.29-.02-.23.11,2.7,6.01,5.43,12.04,8.41,17.93,2.96,5.86,5.88,11.74,8.92,17.57,1.73,3.31,3.55,6.56,5.48,9.76.04.06.15.01.12-.06-2.5-6.11-5.42-12.02-8.37-17.93Z"/>
              <path class="cls-2" d="M82.97,277.1c-.2,1.59-.55,3.15-.93,4.7-.4,1.54-.83,3.08-1.41,4.58.2-1.59.55-3.15.93-4.7.4-1.54.83-3.08,1.41-4.58Z"/>
            </g>
          </g>
        </g>
      </g>
      <g>
        <g>
          <g>
            <path class="cls-1" d="M102.47,255.17c-6.06,2.81-18.99-4.7-24.92-11.7-.4-.48-.74-6.35-1.48-13.47-.47-4.32-1.09-9.11-1.98-13.44-.19-.89,28.53,1.05,28.53,1.05,0,0-.82,9.63.77,17.18.14.63.32,1.2.55,1.74.03.08.07.17.1.29,1.24,3.27,4.29,15.64-1.57,18.36Z"/>
            <path class="cls-2" d="M75.78,216.32c2.76,7.07,10.93,23.84,25.5,21.21,1.01-.18,1.93-.42,2.75-.72-.02-.12-.07-.21-.1-.29-.22-.54-.41-1.11-.55-1.73-1.59-7.56-.77-17.19-.77-17.19,0,0-20.71-1.4-26.83-1.28Z"/>
          </g>
          <g>
            <path class="cls-1" d="M65.46,182.67c-1.67,10.15,7.24,37.63,15.02,42.98,11.27,7.76,27.85,6.43,33.97-6.69,5.93-12.72-6.32-48.32-14.83-52.99-12.53-6.88-31.69,1.71-34.15,16.7Z"/>
            <g>
              <g>
                <path class="cls-2" d="M95.34,196.18c-.04-.06-.11.14-.08.21.72,1.81,1.24,4-.2,5.21-.04.04,0,.13.05.1,1.92-1.01,1.2-3.92.23-5.52Z"/>
                <path class="cls-2" d="M93.02,194.86c-3.02.84-1.12,6.83,1.68,6.05,2.76-.77.85-6.75-1.68-6.05Z"/>
              </g>
              <g>
                <path class="cls-2" d="M105.74,192.94c0-.08.17.04.19.12.53,1.87,1.45,3.93,3.33,4.01.06,0,.08.1.02.11-2.14.36-3.34-2.38-3.54-4.24Z"/>
                <path class="cls-2" d="M106.78,190.48c2.91-1.17,5.04,4.73,2.35,5.82-2.65,1.07-4.79-4.84-2.35-5.82Z"/>
              </g>
              <path class="cls-2" d="M89.86,193.62c.82-.33,1.52-.76,2.3-1.17.88-.46,1.62-.73,2.12-1.64.27-.49.03-1.26-.42-1.57-1.04-.7-2.26-.41-3.34.1-1.17.55-1.93,1.27-2.49,2.44-.54,1.13.75,2.26,1.83,1.84Z"/>
              <path class="cls-2" d="M108.14,185.24c-.87.13-1.7.1-2.58.14-.99.04-1.77.18-2.65-.36-.47-.29-.65-1.08-.42-1.57.55-1.13,1.75-1.48,2.94-1.58,1.29-.11,2.31.14,3.38.87,1.03.71.48,2.33-.67,2.5Z"/>
              <path class="cls-2" d="M97.72,214.4c.58.29,1.22.75,1.91.59.66-.15,1.33-.68,1.85-1.1.05-.04.13,0,.11.07-.26.86-1.13,1.63-2.03,1.75-.89.12-1.53-.47-1.98-1.18-.06-.1.07-.18.15-.14Z"/>
              <path class="cls-2" d="M97.91,208.23c1.55,1.28,3.35,1.67,5.11,1.47.78-.09,1.57-.31,2.3-.62.15-.05.29-.11.42-.19.13-.06.25-.11.39-.19.21-.1.27-.32.24-.53h0c-.02-.08-.04-.14-.08-.2h0s-.06-.18-.06-.18c-.41-1.44-1.24-3.57-1.24-3.57.6.1,3.65.45,3.37-.29-2.33-6.06-4.92-12.79-8.52-18.33-.11-.19-.41-.04-.32.15,2.01,5.91,5.05,11.43,7.16,17.33-.95-.05-2.53-.21-3.27.04-.18.12,1.67,4.08,1.81,4.75,0,0,0,.03,0,.07-2.3,1.07-4.34.92-7.18.05-.17-.06-.28.11-.12.22Z"/>
              <g>
                <path class="cls-2" d="M104.25,208.62s-.72,2.11-2.26,3.28c-.56.43-1.22.74-2.01.78-1.6.08-2.07-1.27-2.17-2.52-.08-1.03.1-1.99.1-1.99,0,0,2.81,1.34,6.34.45Z"/>
                <path class="cls-7" d="M101.99,211.9c-.56.43-1.22.74-2.01.78-1.6.08-2.07-1.27-2.17-2.52,1.64-.34,3.55.24,4.18,1.74Z"/>
              </g>
            </g>
            <g>
              <path class="cls-2" d="M76.32,197.62c1.21-5.95-3.29-15.09-.76-18.01,5.46-6.33,19.45,2.68,28.12,1.63,8.41-1.02,10.53-6.79,8.14-13.41-2.39-6.62-8.77-10.46-18.38-10.66-9.94-.21-18.33,4.86-22.77,8.58,0,0,1.69-3.68.76-4.63-.93-.96-4.63,2.84-5.7,4.4-1.1,1.58-1.54,4.31-1.54,4.31,0,0-1.59-.26-3.89.09-2.13.33-4.61,2.35-4.7,2.87-.09.52,3.02.52,5.18.35,0,0-3.32,5.82-2.65,10.35.67,4.53,10.5,25.2,12.23,25.22,2.22.02,5.48-8.66,5.97-11.08Z"/>
              <path class="cls-2" d="M61.54,172.48c.07-.05.18.04.12.11-1.82,2.03-3.21,4.29-3.72,7.01-.59,3.15.03,6.39,1.11,9.37,2.09,5.8,5.7,10.84,8.94,16.02.09.15-.16.32-.26.17-3.78-5.27-7.68-11.02-9.65-17.25-1.68-5.32-1.22-11.73,3.47-15.42Z"/>
              <path class="cls-2" d="M74.94,177.45c2.42-.66,5.2-.78,7.69-.48,2.45.3,4.67,1.51,6.95,2.4,5.1,1.98,10.6,3.32,16.07,2.28.07-.01.09.09.02.11-4.96,1.28-10.08.41-14.85-1.25-2.4-.84-4.74-2.17-7.23-2.71-2.83-.61-5.73-.2-8.57.1-.29.03-.36-.37-.08-.45Z"/>
              <path class="cls-2" d="M75.54,162.69c3.16-2.16,6.69-3.76,10.32-4.94,3.49-1.13,7.14-1.89,10.82-1.77,6.35.22,12.59,3.45,14.86,9.66,1.15,3.14,1.27,6.74-.03,9.87-.09.21-.4.1-.33-.12,1.84-5.92-.03-12.58-5.31-16.1-5.67-3.78-12.88-3.2-19.12-1.37-3.93,1.15-7.6,2.88-11.2,4.82-.02.01-.05-.02-.03-.04Z"/>
            </g>
            <g>
              <path class="cls-1" d="M74.56,204.82s-7.75-8.1-11.52-5.2c-3.77,2.9,3.03,15.33,8.15,16.38,5.12,1.05,6.19-3.66,6.19-3.66l-2.81-7.52Z"/>
              <path class="cls-2" d="M65.07,203.13c-.08,0-.08.12,0,.13,3.6.85,5.88,3.72,7.63,6.79-1.2-1.1-2.68-1.58-4.18-.12-.08.08.03.2.12.17,1.34-.51,2.38-.43,3.49.54.79.69,1.39,1.61,2.01,2.45.21.28.73.03.56-.3-.01-.02-.03-.05-.04-.07-.58-4.34-4.88-9.87-9.59-9.59Z"/>
            </g>
          </g>
        </g>
        <g>
          <path class="cls-9" d="M103.86,236.38l-3.72,17.2-23.48-16.96-4.55,7.5s25.09,29.03,24.97,27.55l4.27-15.01,11.23,8.02-4.91-24.11-3.79-4.2Z"/>
          <path class="cls-2" d="M110.81,252.64c-.94-3.95-1.79-7.96-2.91-11.87-.04-.14-.27-.16-.28,0-.14,4,3.55,19.1,4.16,22.76-.02-.01-.03-.02-.05-.03-.47-.35-10.33-6.98-10.39-6.84-1.06,2.45-4.21,13.39-4.38,14.36-3.97-4.61-20.57-22.64-25.06-26.88-.13-.12-.33.03-.22.18,3.66,4.96,25.2,28.81,25.42,28.7.19.1,4.11-13.38,4.44-15.86,1.74,1.52,11.85,9.17,11.78,8.57-.49-4.04-1.56-9.16-2.5-13.12Z"/>
        </g>
      </g>
    </g>
  </g>
</svg>