<svg width="2065" height="691" xmlns="http://www.w3.org/2000/svg" xmlns:xlink="http://www.w3.org/1999/xlink" xml:space="preserve" overflow="hidden"><defs><clipPath id="clip0"><rect x="2942" y="1140" width="2065" height="691"/></clipPath></defs><g clip-path="url(#clip0)" transform="translate(-2942 -1140)"><rect x="2943" y="1141" width="2062" height="688" fill="#FFF0D1"/><g><path d="M3428.61 1311.5 3428.61 1722.5M3584.62 1311.5 3584.62 1722.5M3741.62 1311.5 3741.62 1722.5M3898.63 1311.5 3898.63 1722.5M4054.63 1311.5 4054.63 1722.5M4211.64 1311.5 4211.64 1722.5M4367.64 1311.5 4367.64 1722.5M4524.5 1311.5 4524.5 1722.5" stroke="#D9D9D9" stroke-width="3.4375" stroke-linejoin="round" stroke-miterlimit="10" fill="none"/></g><g><rect x="3272" y="1630" width="88" height="48.9998" fill="#CC2B52"/></g><g><rect x="3272" y="1493" width="210" height="48.0001" fill="#AF1740"/></g><g><path d="M4388.14 1404.05 3272 1404.05 3272 1355.04 4388.14 1355.04Z" fill="#740938"/></g><g><path d="M0 0 0.000360892 411" stroke="#D9D9D9" stroke-width="3.4375" stroke-linejoin="round" stroke-miterlimit="10" fill="none" fill-rule="evenodd" transform="matrix(1 0 0 -1 3271.5 1722.5)"/></g><g><text fill="#795757" font-family="Aptos Narrow,Aptos Narrow_MSFontService,sans-serif" font-weight="400" font-stretch="semi-condensed" font-size="41" transform="matrix(1 0 0 1 3387.03 1668)">$2,799</text></g><g><text fill="#795757" font-family="Aptos Narrow,Aptos Narrow_MSFontService,sans-serif" font-weight="400" font-stretch="semi-condensed" font-size="41" transform="matrix(1 0 0 1 3509.13 1531)">$6,697</text></g><g><text fill="#795757" font-family="Aptos Narrow,Aptos Narrow_MSFontService,sans-serif" font-weight="400" font-stretch="semi-condensed" font-size="41" transform="matrix(1 0 0 1 4415.61 1394)">$35,639</text></g><g><text fill="#795757" font-family="Aptos Narrow,Aptos Narrow_MSFontService,sans-serif" font-weight="400" font-stretch="semi-condensed" font-size="41" transform="matrix(1 0 0 1 3250.98 1788)">$0</text></g><g><text fill="#795757" font-family="Aptos Narrow,Aptos Narrow_MSFontService,sans-serif" font-weight="400" font-stretch="semi-condensed" font-size="41" transform="matrix(1 0 0 1 3370.87 1788)">$5,000</text></g><g><text fill="#795757" font-family="Aptos Narrow,Aptos Narrow_MSFontService,sans-serif" font-weight="400" font-stretch="semi-condensed" font-size="41" transform="matrix(1 0 0 1 3517.02 1788)">$10,000</text></g><g><text fill="#795757" font-family="Aptos Narrow,Aptos Narrow_MSFontService,sans-serif" font-weight="400" font-stretch="semi-condensed" font-size="41" transform="matrix(1 0 0 1 3673.63 1788)">$15,000</text></g><g><text fill="#795757" font-family="Aptos Narrow,Aptos Narrow_MSFontService,sans-serif" font-weight="400" font-stretch="semi-condensed" font-size="41" transform="matrix(1 0 0 1 3830.23 1788)">$20,000</text></g><g><text fill="#795757" font-family="Aptos Narrow,Aptos Narrow_MSFontService,sans-serif" font-weight="400" font-stretch="semi-condensed" font-size="41" transform="matrix(1 0 0 1 3986.83 1788)">$25,000</text></g><g><text fill="#795757" font-family="Aptos Narrow,Aptos Narrow_MSFontService,sans-serif" font-weight="400" font-stretch="semi-condensed" font-size="41" transform="matrix(1 0 0 1 4143.44 1788)">$30,000</text></g><g><text fill="#795757" font-family="Aptos Narrow,Aptos Narrow_MSFontService,sans-serif" font-weight="400" font-stretch="semi-condensed" font-size="41" transform="matrix(1 0 0 1 4300.04 1788)">$35,000</text></g><g><text fill="#795757" font-family="Aptos Narrow,Aptos Narrow_MSFontService,sans-serif" font-weight="400" font-stretch="semi-condensed" font-size="41" transform="matrix(1 0 0 1 4456.64 1788)">$40,000</text></g><g><text fill="#795757" font-family="Aptos Narrow,Aptos Narrow_MSFontService,sans-serif" font-weight="400" font-stretch="semi-condensed" font-size="41" transform="matrix(1 0 0 1 2972.29 1666)">United Kingdom</text></g><g><text fill="#795757" font-family="Aptos Narrow,Aptos Narrow_MSFontService,sans-serif" font-weight="400" font-stretch="semi-condensed" font-size="41" transform="matrix(1 0 0 1 3118.78 1529)">Ireland</text></g><g><text fill="#795757" font-family="Aptos Narrow,Aptos Narrow_MSFontService,sans-serif" font-weight="400" font-stretch="semi-condensed" font-size="41" transform="matrix(1 0 0 1 3012.67 1391)">United States</text></g><g><text fill="#3B3030" font-family="Aptos Display,Aptos Display_MSFontService,sans-serif" font-weight="700" font-size="64" transform="matrix(1 0 0 1 3741.25 1236)">Sales By Country</text></g><g><rect x="4665" y="1456" width="22" height="23" fill="#CC2B52"/></g><g><text fill="#795757" font-family="Aptos Narrow,Aptos Narrow_MSFontService,sans-serif" font-weight="400" font-stretch="semi-condensed" font-size="41" transform="matrix(1 0 0 1 4697.09 1479)">United Kingdom</text></g><g><rect x="4665" y="1533" width="22" height="23" fill="#AF1740"/></g><g><text fill="#795757" font-family="Aptos Narrow,Aptos Narrow_MSFontService,sans-serif" font-weight="400" font-stretch="semi-condensed" font-size="41" transform="matrix(1 0 0 1 4697.09 1556)">Ireland</text></g><g><rect x="4665" y="1611" width="22" height="22" fill="#740938"/></g><g><text fill="#795757" font-family="Aptos Narrow,Aptos Narrow_MSFontService,sans-serif" font-weight="400" font-stretch="semi-condensed" font-size="41" transform="matrix(1 0 0 1 4697.09 1634)">United States</text></g><rect x="2943.5" y="1141.5" width="2062" height="688" stroke="#D9D9D9" stroke-width="3.4375" stroke-linejoin="round" stroke-miterlimit="10" fill="none"/></g></svg>