<?xml version="1.0" encoding="UTF-8"?>
<svg id="svg29" xmlns="http://www.w3.org/2000/svg" xmlns:xlink="http://www.w3.org/1999/xlink" viewBox="0 0 2503 687">
  <defs>
    <style>
      .cls-1 {
        fill: #f2f2f2;
      }

      .cls-1, .cls-2, .cls-3, .cls-4, .cls-5, .cls-6 {
        stroke-width: 0px;
      }

      .cls-2 {
        fill: #1f2544;
      }

      .cls-3, .cls-7 {
        fill: none;
      }

      .cls-7 {
        stroke: #d9d9d9;
        stroke-linejoin: round;
        stroke-width: 3.438px;
      }

      .cls-4 {
        fill: #81689d;
      }

      .cls-5 {
        fill: #404040;
      }

      .cls-8 {
        clip-path: url(#clippath);
      }

      .cls-6 {
        fill: #6eacda;
      }
    </style>
    <clipPath id="clippath">
      <rect class="cls-3" width="2503" height="687"/>
    </clipPath>
  </defs>
  <g class="cls-8">
    <g id="g29">
      <path id="rect2" class="cls-1" d="M0,0h2503v687H0V0Z"/>
      <g id="g2">
        <path id="path2" class="cls-7" d="M578.6,168.5v412M775.61,168.5v412M973.62,168.5v412M1170.62,168.5v412M1368.63,168.5v412M1565.64,168.5v412M1763.64,168.5v412M1960.5,168.5v412"/>
      </g>
      <g id="g3">
        <path id="rect3" class="cls-2" d="M381,488h111v49h-111v-49Z"/>
      </g>
      <g id="g4">
        <path id="rect4" class="cls-4" d="M381,351h264v48h-264v-48Z"/>
      </g>
      <g id="g5">
        <path id="rect5" class="cls-6" d="M381,213h1408v49H381v-49Z"/>
      </g>
      <g id="g6">
        <path id="path5" class="cls-7" d="M380.5,580.5V168.5"/>
      </g>
      <g id="g7">
        <path id="text6" class="cls-5" d="M530.952,531.364v-3.884c-2.883-.2-5.172-1.041-6.867-2.522-1.682-1.495-2.603-3.417-2.763-5.766h3.904c.133,1.495.747,2.643,1.842,3.443,1.094.787,2.389,1.261,3.884,1.421v-10.771l-1.181-.34c-2.402-.681-4.271-1.655-5.605-2.923-1.335-1.268-2.002-2.889-2.002-4.865,0-1.535.38-2.896,1.141-4.084.774-1.188,1.822-2.142,3.143-2.863,1.321-.734,2.823-1.188,4.504-1.361v-4.044h2.402v3.984c1.788.12,3.363.541,4.725,1.261,1.375.707,2.456,1.642,3.243,2.803.787,1.148,1.208,2.429,1.261,3.844h-3.724c-.147-1.308-.727-2.349-1.742-3.123-1.001-.774-2.256-1.235-3.764-1.381v10.11l1.181.32c.801.214,1.682.507,2.643.881.974.374,1.902.874,2.783,1.501.881.614,1.602,1.401,2.162,2.362.574.948.861,2.115.861,3.503,0,1.535-.38,2.93-1.141,4.184-.747,1.241-1.842,2.256-3.283,3.043-1.428.787-3.163,1.248-5.205,1.381v3.884h-2.402ZM533.354,524.057c1.722-.187,3.136-.747,4.244-1.682,1.121-.948,1.682-2.135,1.682-3.563,0-.961-.274-1.742-.821-2.342-.534-.601-1.248-1.094-2.142-1.481s-1.875-.727-2.943-1.021h-.02v10.09ZM530.952,509.623v-9.409c-1.548.214-2.783.754-3.704,1.622s-1.381,1.915-1.381,3.143c0,.948.274,1.728.821,2.342.547.601,1.215,1.088,2.002,1.461.787.36,1.542.641,2.262.841ZM548.389,527v-2.743l9.91-10.75c1.108-1.201,2.029-2.256,2.763-3.163.734-.908,1.288-1.768,1.662-2.583.374-.827.561-1.702.561-2.623,0-1.562-.541-2.796-1.622-3.704-1.068-.908-2.396-1.361-3.984-1.361-1.695,0-3.05.507-4.064,1.521-1.001,1.014-1.501,2.362-1.501,4.044h-3.644c0-1.762.407-3.31,1.221-4.645s1.922-2.369,3.323-3.103c1.401-.747,2.99-1.121,4.765-1.121s3.343.374,4.705,1.121c1.375.734,2.449,1.728,3.223,2.983.787,1.255,1.181,2.663,1.181,4.224,0,1.081-.194,2.135-.581,3.163-.387,1.014-1.068,2.169-2.042,3.463-.974,1.295-2.342,2.876-4.104,4.745l-6.526,6.947v.24h13.753v3.343h-18.999ZM572.873,534.187l1.762-11.351h4.124l-3.123,11.351h-2.763ZM585.545,527l13.253-26.246v-.24h-15.295v-3.343h19.279v3.543l-13.233,26.286h-4.004ZM616.415,527.4c-1.695,0-3.203-.334-4.524-1.001-1.321-.667-2.402-1.602-3.243-2.803s-1.381-2.596-1.622-4.184h3.764c.307,1.321.928,2.422,1.862,3.303s2.189,1.321,3.764,1.321c2.269,0,4.057-.988,5.365-2.963,1.321-1.989,1.982-4.791,1.982-8.408h-.24c-.801,1.215-1.835,2.182-3.103,2.903-1.268.721-2.683,1.081-4.244,1.081-1.708,0-3.277-.42-4.705-1.261-1.428-.854-2.569-2.022-3.423-3.503-.841-1.495-1.261-3.196-1.261-5.105,0-1.855.42-3.543,1.261-5.065.841-1.535,2.015-2.749,3.523-3.644,1.521-.908,3.303-1.341,5.345-1.301,1.228.013,2.456.254,3.684.721,1.228.454,2.349,1.208,3.363,2.262s1.828,2.489,2.442,4.304c.614,1.815.921,4.097.921,6.847,0,5.272-.974,9.342-2.923,12.212-1.949,2.856-4.611,4.284-7.988,4.284ZM616.735,513.327c1.215,0,2.309-.307,3.283-.921.974-.627,1.748-1.448,2.322-2.462.587-1.014.881-2.102.881-3.263,0-1.148-.28-2.215-.841-3.203-.547-1.001-1.301-1.808-2.262-2.422-.948-.627-2.035-.941-3.263-.941-1.201,0-2.282.3-3.243.901-.948.587-1.702,1.388-2.262,2.402-.561,1.001-.841,2.115-.841,3.343,0,1.215.267,2.322.801,3.323.547.988,1.288,1.775,2.222,2.362s2.002.881,3.203.881ZM641.84,527.4c-1.695,0-3.203-.334-4.524-1.001-1.321-.667-2.402-1.602-3.243-2.803s-1.381-2.596-1.622-4.184h3.764c.307,1.321.928,2.422,1.862,3.303.934.881,2.189,1.321,3.764,1.321,2.269,0,4.057-.988,5.365-2.963,1.321-1.989,1.982-4.791,1.982-8.408h-.24c-.801,1.215-1.835,2.182-3.103,2.903-1.268.721-2.683,1.081-4.244,1.081-1.708,0-3.277-.42-4.705-1.261-1.428-.854-2.569-2.022-3.423-3.503-.841-1.495-1.261-3.196-1.261-5.105,0-1.855.42-3.543,1.261-5.065.841-1.535,2.015-2.749,3.523-3.644,1.521-.908,3.303-1.341,5.345-1.301,1.228.013,2.456.254,3.684.721,1.228.454,2.349,1.208,3.363,2.262,1.014,1.054,1.828,2.489,2.442,4.304.614,1.815.921,4.097.921,6.847,0,5.272-.974,9.342-2.923,12.212-1.949,2.856-4.611,4.284-7.988,4.284ZM642.16,513.327c1.215,0,2.309-.307,3.283-.921.974-.627,1.748-1.448,2.322-2.462.587-1.014.881-2.102.881-3.263,0-1.148-.28-2.215-.841-3.203-.547-1.001-1.301-1.808-2.262-2.422-.948-.627-2.035-.941-3.263-.941-1.201,0-2.282.3-3.243.901-.948.587-1.702,1.388-2.262,2.402-.561,1.001-.841,2.115-.841,3.343,0,1.215.267,2.322.801,3.323.547.988,1.288,1.775,2.222,2.362.934.587,2.002.881,3.203.881h0Z"/>
      </g>
      <g id="g8">
        <path id="text7" class="cls-5" d="M684.922,394.364v-3.884c-2.883-.2-5.172-1.041-6.867-2.522-1.682-1.495-2.603-3.417-2.763-5.766h3.904c.133,1.495.747,2.643,1.842,3.443,1.094.787,2.389,1.261,3.884,1.421v-10.771l-1.181-.34c-2.402-.681-4.271-1.655-5.605-2.923-1.335-1.268-2.002-2.889-2.002-4.865,0-1.535.38-2.896,1.141-4.084.774-1.188,1.822-2.142,3.143-2.863,1.321-.734,2.823-1.188,4.504-1.361v-4.044h2.402v3.984c1.788.12,3.363.541,4.725,1.261,1.375.707,2.456,1.642,3.243,2.803.787,1.148,1.208,2.429,1.261,3.844h-3.724c-.147-1.308-.727-2.349-1.742-3.123-1.001-.774-2.256-1.235-3.764-1.381v10.11l1.181.32c.801.214,1.682.507,2.643.881.974.374,1.902.874,2.783,1.501.881.614,1.602,1.401,2.162,2.362.574.948.861,2.115.861,3.503,0,1.535-.38,2.93-1.141,4.184-.747,1.241-1.842,2.256-3.283,3.043-1.428.787-3.163,1.248-5.205,1.381v3.884h-2.402ZM687.324,387.057c1.722-.187,3.136-.747,4.244-1.682,1.121-.948,1.682-2.135,1.682-3.563,0-.961-.274-1.742-.821-2.342-.534-.601-1.248-1.094-2.142-1.481s-1.875-.727-2.943-1.021h-.02v10.09ZM684.922,372.623v-9.409c-1.548.214-2.783.754-3.704,1.622s-1.381,1.915-1.381,3.143c0,.948.274,1.728.821,2.342.547.601,1.215,1.088,2.002,1.461.787.36,1.542.641,2.262.841ZM712.208,390.4c-1.241,0-2.482-.227-3.724-.681-1.241-.454-2.376-1.215-3.403-2.282-1.014-1.068-1.828-2.516-2.442-4.344-.614-1.828-.921-4.117-.921-6.867,0-5.245.981-9.296,2.943-12.152,1.962-2.869,4.631-4.304,8.008-4.304,1.668,0,3.163.334,4.484,1.001s2.402,1.595,3.243,2.783,1.381,2.562,1.622,4.124h-3.724c-.334-1.295-.968-2.376-1.902-3.243s-2.175-1.301-3.724-1.301c-2.296,0-4.097.994-5.405,2.983-1.295,1.975-1.942,4.758-1.942,8.348h.24c.801-1.241,1.835-2.209,3.103-2.903,1.281-.707,2.696-1.061,4.244-1.061,1.708,0,3.27.42,4.685,1.261s2.542,2.009,3.383,3.503c.854,1.481,1.281,3.183,1.281,5.105,0,1.855-.414,3.543-1.241,5.065-.827,1.508-1.995,2.716-3.503,3.624-1.508.894-3.277,1.341-5.305,1.341ZM712.208,387.057c1.201,0,2.282-.3,3.243-.901s1.722-1.401,2.282-2.402c.561-1.014.841-2.142.841-3.383,0-1.215-.274-2.316-.821-3.303-.534-1.001-1.275-1.795-2.222-2.382s-2.022-.881-3.223-.881-2.289.307-3.263.921c-.974.614-1.748,1.428-2.322,2.442-.574,1.001-.861,2.082-.861,3.243,0,1.174.274,2.269.821,3.283.547,1.001,1.301,1.815,2.262,2.442.961.614,2.049.921,3.263.921ZM725.882,397.187l1.762-11.351h4.124l-3.123,11.351h-2.763ZM747.022,390.4c-1.241,0-2.482-.227-3.724-.681-1.241-.454-2.376-1.215-3.403-2.282-1.014-1.068-1.828-2.516-2.442-4.344-.614-1.828-.921-4.117-.921-6.867,0-5.245.981-9.296,2.943-12.152,1.962-2.869,4.631-4.304,8.008-4.304,1.668,0,3.163.334,4.484,1.001s2.402,1.595,3.243,2.783,1.381,2.562,1.622,4.124h-3.724c-.334-1.295-.968-2.376-1.902-3.243s-2.175-1.301-3.724-1.301c-2.296,0-4.097.994-5.405,2.983-1.295,1.975-1.942,4.758-1.942,8.348h.24c.801-1.241,1.835-2.209,3.103-2.903,1.281-.707,2.696-1.061,4.244-1.061,1.708,0,3.27.42,4.685,1.261s2.542,2.009,3.383,3.503c.854,1.481,1.281,3.183,1.281,5.105,0,1.855-.414,3.543-1.241,5.065-.827,1.508-1.995,2.716-3.503,3.624-1.508.894-3.277,1.341-5.305,1.341ZM747.022,387.057c1.201,0,2.282-.3,3.243-.901s1.722-1.401,2.282-2.402c.561-1.014.841-2.142.841-3.383,0-1.215-.274-2.316-.821-3.303-.534-1.001-1.275-1.795-2.222-2.382s-2.022-.881-3.223-.881-2.289.307-3.263.921c-.974.614-1.748,1.428-2.322,2.442-.574,1.001-.861,2.082-.861,3.243,0,1.174.274,2.269.821,3.283.547,1.001,1.301,1.815,2.262,2.442.961.614,2.049.921,3.263.921ZM771.586,390.4c-1.695,0-3.203-.334-4.524-1.001-1.321-.667-2.402-1.602-3.243-2.803s-1.381-2.596-1.622-4.184h3.764c.307,1.321.928,2.422,1.862,3.303s2.189,1.321,3.764,1.321c2.269,0,4.057-.988,5.365-2.963,1.321-1.989,1.982-4.791,1.982-8.408h-.24c-.801,1.215-1.835,2.182-3.103,2.903-1.268.721-2.683,1.081-4.244,1.081-1.708,0-3.277-.42-4.705-1.261-1.428-.854-2.569-2.022-3.423-3.503-.841-1.495-1.261-3.196-1.261-5.105,0-1.855.42-3.543,1.261-5.065.841-1.535,2.015-2.749,3.523-3.644,1.521-.908,3.303-1.341,5.345-1.301,1.228.013,2.456.254,3.684.721,1.228.454,2.349,1.208,3.363,2.262,1.014,1.054,1.828,2.489,2.442,4.304.614,1.815.921,4.097.921,6.847,0,5.272-.974,9.342-2.923,12.212-1.949,2.856-4.611,4.284-7.988,4.284h0ZM771.906,376.327c1.215,0,2.309-.307,3.283-.921.974-.627,1.748-1.448,2.322-2.462.587-1.014.881-2.102.881-3.263,0-1.148-.28-2.215-.841-3.203-.547-1.001-1.301-1.808-2.262-2.422-.948-.627-2.035-.941-3.263-.941-1.201,0-2.282.3-3.243.901-.948.587-1.702,1.388-2.262,2.402-.561,1.001-.841,2.115-.841,3.343,0,1.215.267,2.322.801,3.323.547.988,1.288,1.775,2.222,2.362s2.002.881,3.203.881ZM788.142,390l13.253-26.246v-.24h-15.295v-3.343h19.279v3.543l-13.233,26.286h-4.004Z"/>
      </g>
      <g id="g9">
        <path id="text8" class="cls-5" d="M1827.952,257.364v-3.884c-2.883-.2-5.172-1.041-6.867-2.522-1.682-1.495-2.603-3.417-2.763-5.766h3.904c.133,1.495.747,2.643,1.842,3.443,1.094.787,2.389,1.261,3.884,1.421v-10.771l-1.181-.34c-2.402-.681-4.271-1.655-5.605-2.923-1.335-1.268-2.002-2.889-2.002-4.865,0-1.535.38-2.896,1.141-4.084.774-1.188,1.822-2.142,3.143-2.863,1.321-.734,2.823-1.188,4.504-1.361v-4.044h2.402v3.984c1.788.12,3.363.541,4.725,1.261,1.375.707,2.456,1.642,3.243,2.803.787,1.148,1.208,2.429,1.261,3.844h-3.724c-.147-1.308-.727-2.349-1.742-3.123-1.001-.774-2.256-1.235-3.764-1.381v10.11l1.181.32c.801.214,1.682.507,2.643.881.974.374,1.902.874,2.783,1.501.881.614,1.602,1.401,2.162,2.362.574.948.861,2.115.861,3.503,0,1.535-.38,2.93-1.141,4.184-.747,1.241-1.842,2.256-3.283,3.043-1.428.787-3.163,1.248-5.205,1.381v3.884h-2.402ZM1830.354,250.057c1.722-.187,3.136-.747,4.244-1.682,1.121-.948,1.682-2.135,1.682-3.563,0-.961-.274-1.742-.821-2.342-.534-.601-1.248-1.094-2.142-1.481s-1.875-.727-2.943-1.021h-.02v10.09ZM1827.952,235.623v-9.409c-1.548.214-2.783.754-3.704,1.622s-1.381,1.915-1.381,3.143c0,.948.274,1.728.821,2.342.547.601,1.215,1.088,2.002,1.461.787.36,1.542.641,2.262.841ZM1855.018,253.4c-1.949,0-3.677-.334-5.185-1.001-1.508-.667-2.709-1.595-3.604-2.783-.881-1.188-1.355-2.569-1.421-4.144h3.844c.107,1.415.761,2.536,1.962,3.363,1.201.814,2.649,1.221,4.344,1.221,1.868,0,3.41-.48,4.625-1.441,1.228-.961,1.842-2.215,1.842-3.764,0-1.615-.601-2.93-1.802-3.944-1.201-1.028-2.91-1.542-5.125-1.542h-2.422v-3.303h2.422c1.748,0,3.163-.46,4.244-1.381,1.094-.934,1.642-2.169,1.642-3.704,0-1.481-.48-2.669-1.441-3.563s-2.256-1.341-3.884-1.341c-1.014,0-1.969.187-2.863.561-.881.36-1.608.881-2.182,1.562-.561.681-.861,1.508-.901,2.482h-3.664c.053-1.562.521-2.936,1.401-4.124s2.042-2.115,3.483-2.783c1.455-.667,3.056-1.001,4.805-1.001,1.855,0,3.45.374,4.785,1.121,1.348.747,2.382,1.728,3.103,2.943s1.081,2.529,1.081,3.944c0,1.682-.447,3.11-1.341,4.284-.881,1.174-2.082,1.989-3.604,2.442v.24c1.909.307,3.39,1.108,4.444,2.402,1.054,1.281,1.582,2.863,1.582,4.745,0,1.628-.44,3.083-1.321,4.364s-2.089,2.296-3.624,3.043c-1.535.734-3.277,1.101-5.225,1.101ZM1880.163,253.4c-1.748,0-3.317-.34-4.705-1.021-1.388-.694-2.496-1.635-3.323-2.823-.827-1.201-1.275-2.562-1.341-4.084h3.684c.12,1.335.721,2.436,1.802,3.303,1.094.854,2.389,1.281,3.884,1.281,1.201,0,2.269-.28,3.203-.841.948-.561,1.688-1.335,2.222-2.322s.801-2.109.801-3.363c0-1.281-.28-2.429-.841-3.443s-1.328-1.808-2.302-2.382c-.961-.587-2.069-.881-3.323-.881-.921,0-1.855.147-2.803.44-.948.294-1.715.667-2.302,1.121l-3.563-.44,1.762-14.774h15.695v3.343h-12.492l-1.021,8.708h.16c.614-.507,1.388-.921,2.322-1.241.934-.334,1.915-.5,2.943-.5,1.828,0,3.457.434,4.885,1.301,1.428.854,2.549,2.035,3.363,3.543.827,1.508,1.241,3.223,1.241,5.145,0,1.909-.434,3.61-1.301,5.105-.854,1.495-2.029,2.676-3.523,3.543-1.495.854-3.203,1.281-5.125,1.281ZM1894.016,260.187l1.762-11.351h4.124l-3.123,11.351h-2.763ZM1915.157,253.4c-1.241,0-2.482-.227-3.724-.681-1.241-.454-2.376-1.215-3.403-2.282-1.014-1.068-1.828-2.516-2.442-4.344-.614-1.828-.921-4.117-.921-6.867,0-5.245.981-9.296,2.943-12.152,1.962-2.869,4.631-4.304,8.008-4.304,1.668,0,3.163.334,4.484,1.001s2.402,1.595,3.243,2.783,1.381,2.562,1.622,4.124h-3.724c-.334-1.295-.968-2.376-1.902-3.243s-2.175-1.301-3.724-1.301c-2.296,0-4.097.994-5.405,2.983-1.295,1.975-1.942,4.758-1.942,8.348h.24c.801-1.241,1.835-2.209,3.103-2.903,1.281-.707,2.696-1.061,4.244-1.061,1.708,0,3.27.42,4.685,1.261s2.542,2.009,3.383,3.503c.854,1.481,1.281,3.183,1.281,5.105,0,1.855-.414,3.543-1.241,5.065-.827,1.508-1.995,2.716-3.503,3.624-1.508.894-3.277,1.341-5.305,1.341ZM1915.157,250.057c1.201,0,2.282-.3,3.243-.901s1.722-1.401,2.282-2.402c.561-1.014.841-2.142.841-3.383,0-1.215-.274-2.316-.821-3.303-.534-1.001-1.275-1.795-2.222-2.382s-2.022-.881-3.223-.881-2.289.307-3.263.921c-.974.614-1.748,1.428-2.322,2.442-.574,1.001-.861,2.082-.861,3.243,0,1.174.274,2.269.821,3.283.547,1.001,1.301,1.815,2.262,2.442.961.614,2.049.921,3.263.921ZM1940.361,253.4c-1.949,0-3.677-.334-5.185-1.001-1.508-.667-2.709-1.595-3.604-2.783-.881-1.188-1.355-2.569-1.421-4.144h3.844c.107,1.415.761,2.536,1.962,3.363,1.201.814,2.649,1.221,4.344,1.221,1.868,0,3.41-.48,4.625-1.441,1.228-.961,1.842-2.215,1.842-3.764,0-1.615-.601-2.93-1.802-3.944-1.201-1.028-2.91-1.542-5.125-1.542h-2.422v-3.303h2.422c1.748,0,3.163-.46,4.244-1.381,1.094-.934,1.642-2.169,1.642-3.704,0-1.481-.48-2.669-1.441-3.563-.961-.894-2.256-1.341-3.884-1.341-1.014,0-1.969.187-2.863.561-.881.36-1.608.881-2.182,1.562-.561.681-.861,1.508-.901,2.482h-3.664c.053-1.562.521-2.936,1.401-4.124.881-1.188,2.042-2.115,3.483-2.783,1.455-.667,3.056-1.001,4.805-1.001,1.855,0,3.45.374,4.785,1.121,1.348.747,2.382,1.728,3.103,2.943s1.081,2.529,1.081,3.944c0,1.682-.447,3.11-1.341,4.284-.881,1.174-2.082,1.989-3.604,2.442v.24c1.909.307,3.39,1.108,4.444,2.402,1.054,1.281,1.582,2.863,1.582,4.745,0,1.628-.44,3.083-1.321,4.364s-2.089,2.296-3.624,3.043c-1.535.734-3.277,1.101-5.225,1.101h0ZM1965.045,253.4c-1.695,0-3.203-.334-4.524-1.001-1.321-.667-2.402-1.602-3.243-2.803s-1.381-2.596-1.622-4.184h3.764c.307,1.321.928,2.422,1.862,3.303s2.189,1.321,3.764,1.321c2.269,0,4.057-.988,5.365-2.963,1.321-1.989,1.982-4.791,1.982-8.408h-.24c-.801,1.215-1.835,2.182-3.103,2.903s-2.683,1.081-4.244,1.081c-1.708,0-3.277-.42-4.705-1.261-1.428-.854-2.569-2.022-3.423-3.503-.841-1.495-1.261-3.196-1.261-5.105,0-1.855.42-3.543,1.261-5.065.841-1.535,2.015-2.749,3.523-3.644,1.521-.908,3.303-1.341,5.345-1.301,1.228.013,2.456.254,3.684.721,1.228.454,2.349,1.208,3.363,2.262s1.828,2.489,2.442,4.304c.614,1.815.921,4.097.921,6.847,0,5.272-.974,9.342-2.923,12.212-1.949,2.856-4.611,4.284-7.988,4.284h0ZM1965.366,239.327c1.215,0,2.309-.307,3.283-.921.974-.627,1.748-1.448,2.322-2.462.587-1.014.881-2.102.881-3.263,0-1.148-.28-2.215-.841-3.203-.547-1.001-1.301-1.808-2.262-2.422-.948-.627-2.035-.941-3.263-.941-1.201,0-2.282.3-3.243.901-.948.587-1.702,1.388-2.262,2.402-.561,1.001-.841,2.115-.841,3.343,0,1.215.267,2.322.801,3.323.547.988,1.288,1.775,2.222,2.362s2.002.881,3.203.881Z"/>
      </g>
      <g id="g10">
        <path id="text9" class="cls-5" d="M366.682,651.364v-3.884c-2.883-.2-5.172-1.041-6.867-2.522-1.682-1.495-2.603-3.417-2.763-5.766h3.904c.133,1.495.747,2.643,1.842,3.443,1.094.787,2.389,1.261,3.884,1.421v-10.771l-1.181-.34c-2.402-.681-4.271-1.655-5.605-2.923-1.335-1.268-2.002-2.889-2.002-4.865,0-1.535.38-2.896,1.141-4.084.774-1.188,1.822-2.142,3.143-2.863,1.321-.734,2.823-1.188,4.504-1.361v-4.044h2.402v3.984c1.788.12,3.363.541,4.725,1.261,1.375.707,2.456,1.642,3.243,2.803.787,1.148,1.208,2.429,1.261,3.844h-3.724c-.147-1.308-.727-2.349-1.742-3.123-1.001-.774-2.256-1.235-3.764-1.381v10.11l1.181.32c.801.214,1.682.507,2.643.881.974.374,1.902.874,2.783,1.501.881.614,1.602,1.401,2.162,2.362.574.948.861,2.115.861,3.503,0,1.535-.38,2.93-1.141,4.184-.747,1.241-1.842,2.256-3.283,3.043-1.428.787-3.163,1.248-5.205,1.381v3.884h-2.402ZM369.084,644.057c1.722-.187,3.136-.747,4.244-1.682,1.121-.948,1.682-2.135,1.682-3.563,0-.961-.274-1.742-.821-2.342-.534-.601-1.248-1.094-2.142-1.481s-1.875-.727-2.943-1.021h-.02v10.09ZM366.682,629.623v-9.409c-1.548.214-2.783.754-3.704,1.622s-1.381,1.915-1.381,3.143c0,.948.274,1.728.821,2.342.547.601,1.215,1.088,2.002,1.461.787.36,1.542.641,2.262.841ZM393.968,647.4c-3.323,0-5.906-1.335-7.748-4.004-1.828-2.669-2.743-6.433-2.743-11.291,0-4.831.921-8.595,2.763-11.291,1.855-2.696,4.431-4.044,7.728-4.044s5.886,1.348,7.728,4.044,2.763,6.46,2.763,11.291c0,4.858-.914,8.622-2.743,11.291-1.828,2.669-4.411,4.004-7.748,4.004ZM393.968,644.077c2.189,0,3.87-1.048,5.045-3.143,1.188-2.109,1.782-5.052,1.782-8.829,0-3.804-.594-6.76-1.782-8.869-1.174-2.109-2.856-3.163-5.045-3.163-2.175,0-3.857,1.061-5.045,3.183-1.188,2.109-1.782,5.058-1.782,8.849s.594,6.72,1.782,8.829c1.188,2.095,2.869,3.143,5.045,3.143Z"/>
      </g>
      <g id="g11">
        <path id="text10" class="cls-5" d="M519.632,651.364v-3.884c-2.883-.2-5.172-1.041-6.867-2.522-1.682-1.495-2.603-3.417-2.763-5.766h3.904c.133,1.495.747,2.643,1.842,3.443,1.094.787,2.389,1.261,3.884,1.421v-10.771l-1.181-.34c-2.402-.681-4.271-1.655-5.605-2.923-1.335-1.268-2.002-2.889-2.002-4.865,0-1.535.38-2.896,1.141-4.084.774-1.188,1.822-2.142,3.143-2.863,1.321-.734,2.823-1.188,4.504-1.361v-4.044h2.402v3.984c1.788.12,3.363.541,4.725,1.261,1.375.707,2.456,1.642,3.243,2.803.787,1.148,1.208,2.429,1.261,3.844h-3.724c-.147-1.308-.727-2.349-1.742-3.123-1.001-.774-2.256-1.235-3.764-1.381v10.11l1.181.32c.801.214,1.682.507,2.643.881.974.374,1.902.874,2.783,1.501.881.614,1.602,1.401,2.162,2.362.574.948.861,2.115.861,3.503,0,1.535-.38,2.93-1.141,4.184-.747,1.241-1.842,2.256-3.283,3.043-1.428.787-3.163,1.248-5.205,1.381v3.884h-2.402ZM522.034,644.057c1.722-.187,3.136-.747,4.244-1.682,1.121-.948,1.682-2.135,1.682-3.563,0-.961-.274-1.742-.821-2.342-.534-.601-1.248-1.094-2.142-1.481s-1.875-.727-2.943-1.021h-.02v10.09ZM519.632,629.623v-9.409c-1.548.214-2.783.754-3.704,1.622s-1.381,1.915-1.381,3.143c0,.948.274,1.728.821,2.342.547.601,1.215,1.088,2.002,1.461.787.36,1.542.641,2.262.841ZM546.518,647.4c-1.748,0-3.317-.34-4.705-1.021-1.388-.694-2.496-1.635-3.323-2.823-.827-1.201-1.275-2.562-1.341-4.084h3.684c.12,1.335.721,2.436,1.802,3.303,1.094.854,2.389,1.281,3.884,1.281,1.201,0,2.269-.28,3.203-.841.948-.561,1.688-1.335,2.222-2.322s.801-2.109.801-3.363c0-1.281-.28-2.429-.841-3.443s-1.328-1.808-2.302-2.382c-.961-.587-2.069-.881-3.323-.881-.921,0-1.855.147-2.803.44-.948.294-1.715.667-2.302,1.121l-3.563-.44,1.762-14.774h15.695v3.343h-12.492l-1.021,8.708h.16c.614-.507,1.388-.921,2.322-1.241.934-.334,1.915-.5,2.943-.5,1.828,0,3.457.434,4.885,1.301,1.428.854,2.549,2.035,3.363,3.543.827,1.508,1.241,3.223,1.241,5.145,0,1.909-.434,3.61-1.301,5.105-.854,1.495-2.029,2.676-3.523,3.543-1.495.854-3.203,1.281-5.125,1.281ZM560.371,654.187l1.762-11.351h4.124l-3.123,11.351h-2.763ZM581.512,647.4c-3.323,0-5.906-1.335-7.748-4.004-1.828-2.669-2.743-6.433-2.743-11.291,0-4.831.921-8.595,2.763-11.291,1.855-2.696,4.431-4.044,7.728-4.044s5.886,1.348,7.728,4.044,2.763,6.46,2.763,11.291c0,4.858-.914,8.622-2.743,11.291-1.828,2.669-4.411,4.004-7.748,4.004ZM581.512,644.077c2.189,0,3.87-1.048,5.045-3.143,1.188-2.109,1.782-5.052,1.782-8.829,0-3.804-.594-6.76-1.782-8.869-1.174-2.109-2.856-3.163-5.045-3.163-2.175,0-3.857,1.061-5.045,3.183-1.188,2.109-1.782,5.058-1.782,8.849s.594,6.72,1.782,8.829c1.188,2.095,2.869,3.143,5.045,3.143ZM607.377,647.4c-3.323,0-5.906-1.335-7.748-4.004-1.828-2.669-2.743-6.433-2.743-11.291,0-4.831.921-8.595,2.763-11.291,1.855-2.696,4.431-4.044,7.728-4.044s5.886,1.348,7.728,4.044c1.842,2.696,2.763,6.46,2.763,11.291,0,4.858-.914,8.622-2.743,11.291-1.828,2.669-4.411,4.004-7.748,4.004ZM607.377,644.077c2.189,0,3.87-1.048,5.045-3.143,1.188-2.109,1.782-5.052,1.782-8.829,0-3.804-.594-6.76-1.782-8.869-1.174-2.109-2.856-3.163-5.045-3.163-2.175,0-3.857,1.061-5.045,3.183-1.188,2.109-1.782,5.058-1.782,8.849s.594,6.72,1.782,8.829c1.188,2.095,2.869,3.143,5.045,3.143ZM633.242,647.4c-3.323,0-5.906-1.335-7.748-4.004-1.828-2.669-2.743-6.433-2.743-11.291,0-4.831.921-8.595,2.763-11.291,1.855-2.696,4.431-4.044,7.728-4.044s5.886,1.348,7.728,4.044,2.763,6.46,2.763,11.291c0,4.858-.914,8.622-2.743,11.291-1.828,2.669-4.411,4.004-7.748,4.004ZM633.242,644.077c2.189,0,3.87-1.048,5.045-3.143,1.188-2.109,1.782-5.052,1.782-8.829,0-3.804-.594-6.76-1.782-8.869-1.174-2.109-2.856-3.163-5.045-3.163-2.175,0-3.857,1.061-5.045,3.183-1.188,2.109-1.782,5.058-1.782,8.849s.594,6.72,1.782,8.829c1.188,2.095,2.869,3.143,5.045,3.143Z"/>
      </g>
      <g id="g12">
        <path id="text11" class="cls-5" d="M708.232,651.364v-3.884c-2.883-.2-5.172-1.041-6.867-2.522-1.682-1.495-2.603-3.417-2.763-5.766h3.904c.133,1.495.747,2.643,1.842,3.443,1.094.787,2.389,1.261,3.884,1.421v-10.771l-1.181-.34c-2.402-.681-4.271-1.655-5.605-2.923-1.335-1.268-2.002-2.889-2.002-4.865,0-1.535.38-2.896,1.141-4.084.774-1.188,1.822-2.142,3.143-2.863,1.321-.734,2.823-1.188,4.504-1.361v-4.044h2.402v3.984c1.788.12,3.363.541,4.725,1.261,1.375.707,2.456,1.642,3.243,2.803.787,1.148,1.208,2.429,1.261,3.844h-3.724c-.147-1.308-.727-2.349-1.742-3.123-1.001-.774-2.256-1.235-3.764-1.381v10.11l1.181.32c.801.214,1.682.507,2.643.881.974.374,1.902.874,2.783,1.501.881.614,1.602,1.401,2.162,2.362.574.948.861,2.115.861,3.503,0,1.535-.38,2.93-1.141,4.184-.747,1.241-1.842,2.256-3.283,3.043-1.428.787-3.163,1.248-5.205,1.381v3.884h-2.402ZM710.634,644.057c1.722-.187,3.136-.747,4.244-1.682,1.121-.948,1.682-2.135,1.682-3.563,0-.961-.274-1.742-.821-2.342-.534-.601-1.248-1.094-2.142-1.481s-1.875-.727-2.943-1.021h-.02v10.09ZM708.232,629.623v-9.409c-1.548.214-2.783.754-3.704,1.622s-1.381,1.915-1.381,3.143c0,.948.274,1.728.821,2.342.547.601,1.215,1.088,2.002,1.461.787.36,1.542.641,2.262.841ZM735.658,617.171v29.829h-3.744v-26.306h-.2l-7.207,5.345v-4.084l6.486-4.785h4.665ZM752.195,647.4c-3.323,0-5.906-1.335-7.748-4.004-1.828-2.669-2.743-6.433-2.743-11.291,0-4.831.921-8.595,2.763-11.291,1.855-2.696,4.431-4.044,7.728-4.044s5.886,1.348,7.728,4.044,2.763,6.46,2.763,11.291c0,4.858-.914,8.622-2.743,11.291-1.828,2.669-4.411,4.004-7.748,4.004ZM752.195,644.077c2.189,0,3.87-1.048,5.045-3.143,1.188-2.109,1.782-5.052,1.782-8.829,0-3.804-.594-6.76-1.782-8.869-1.174-2.109-2.856-3.163-5.045-3.163-2.175,0-3.857,1.061-5.045,3.183-1.188,2.109-1.782,5.058-1.782,8.849s.594,6.72,1.782,8.829c1.188,2.095,2.869,3.143,5.045,3.143ZM766.649,654.187l1.762-11.351h4.124l-3.123,11.351h-2.763ZM787.789,647.4c-3.323,0-5.906-1.335-7.748-4.004-1.828-2.669-2.743-6.433-2.743-11.291,0-4.831.921-8.595,2.763-11.291,1.855-2.696,4.431-4.044,7.728-4.044s5.886,1.348,7.728,4.044,2.763,6.46,2.763,11.291c0,4.858-.914,8.622-2.743,11.291-1.828,2.669-4.411,4.004-7.748,4.004ZM787.789,644.077c2.189,0,3.87-1.048,5.045-3.143,1.188-2.109,1.782-5.052,1.782-8.829,0-3.804-.594-6.76-1.782-8.869-1.174-2.109-2.856-3.163-5.045-3.163-2.175,0-3.857,1.061-5.045,3.183-1.188,2.109-1.782,5.058-1.782,8.849s.594,6.72,1.782,8.829c1.188,2.095,2.869,3.143,5.045,3.143ZM813.655,647.4c-3.323,0-5.906-1.335-7.748-4.004-1.828-2.669-2.743-6.433-2.743-11.291,0-4.831.921-8.595,2.763-11.291,1.855-2.696,4.431-4.044,7.728-4.044s5.886,1.348,7.728,4.044,2.763,6.46,2.763,11.291c0,4.858-.914,8.622-2.743,11.291-1.828,2.669-4.411,4.004-7.748,4.004ZM813.655,644.077c2.189,0,3.87-1.048,5.045-3.143,1.188-2.109,1.782-5.052,1.782-8.829,0-3.804-.594-6.76-1.782-8.869-1.174-2.109-2.856-3.163-5.045-3.163-2.175,0-3.857,1.061-5.045,3.183-1.188,2.109-1.782,5.058-1.782,8.849s.594,6.72,1.782,8.829c1.188,2.095,2.869,3.143,5.045,3.143ZM839.52,647.4c-3.323,0-5.906-1.335-7.748-4.004-1.828-2.669-2.743-6.433-2.743-11.291,0-4.831.921-8.595,2.763-11.291,1.855-2.696,4.431-4.044,7.728-4.044s5.886,1.348,7.728,4.044,2.763,6.46,2.763,11.291c0,4.858-.914,8.622-2.743,11.291-1.828,2.669-4.411,4.004-7.748,4.004h0ZM839.52,644.077c2.189,0,3.87-1.048,5.045-3.143,1.188-2.109,1.782-5.052,1.782-8.829,0-3.804-.594-6.76-1.782-8.869-1.174-2.109-2.856-3.163-5.045-3.163-2.175,0-3.857,1.061-5.045,3.183-1.188,2.109-1.782,5.058-1.782,8.849s.594,6.72,1.782,8.829c1.188,2.095,2.869,3.143,5.045,3.143Z"/>
      </g>
      <g id="g13">
        <path id="text12" class="cls-5" d="M906.192,651.364v-3.884c-2.883-.2-5.172-1.041-6.867-2.522-1.682-1.495-2.603-3.417-2.763-5.766h3.904c.133,1.495.747,2.643,1.842,3.443,1.094.787,2.389,1.261,3.884,1.421v-10.771l-1.181-.34c-2.402-.681-4.271-1.655-5.605-2.923-1.335-1.268-2.002-2.889-2.002-4.865,0-1.535.38-2.896,1.141-4.084.774-1.188,1.822-2.142,3.143-2.863,1.321-.734,2.823-1.188,4.504-1.361v-4.044h2.402v3.984c1.788.12,3.363.541,4.725,1.261,1.375.707,2.456,1.642,3.243,2.803.787,1.148,1.208,2.429,1.261,3.844h-3.724c-.147-1.308-.727-2.349-1.742-3.123-1.001-.774-2.256-1.235-3.764-1.381v10.11l1.181.32c.801.214,1.682.507,2.643.881.974.374,1.902.874,2.783,1.501.881.614,1.602,1.401,2.162,2.362.574.948.861,2.115.861,3.503,0,1.535-.38,2.93-1.141,4.184-.747,1.241-1.842,2.256-3.283,3.043-1.428.787-3.163,1.248-5.205,1.381v3.884h-2.402ZM908.594,644.057c1.722-.187,3.136-.747,4.244-1.682,1.121-.948,1.682-2.135,1.682-3.563,0-.961-.274-1.742-.821-2.342-.534-.601-1.248-1.094-2.142-1.481s-1.875-.727-2.943-1.021h-.02v10.09ZM906.192,629.623v-9.409c-1.548.214-2.783.754-3.704,1.622s-1.381,1.915-1.381,3.143c0,.948.274,1.728.821,2.342.547.601,1.215,1.088,2.002,1.461.787.36,1.542.641,2.262.841ZM933.618,617.171v29.829h-3.744v-26.306h-.2l-7.207,5.345v-4.084l6.486-4.785h4.665ZM949.754,647.4c-1.748,0-3.317-.34-4.705-1.021-1.388-.694-2.496-1.635-3.323-2.823-.827-1.201-1.275-2.562-1.341-4.084h3.684c.12,1.335.721,2.436,1.802,3.303,1.094.854,2.389,1.281,3.884,1.281,1.201,0,2.269-.28,3.203-.841.948-.561,1.688-1.335,2.222-2.322s.801-2.109.801-3.363c0-1.281-.28-2.429-.841-3.443s-1.328-1.808-2.302-2.382c-.961-.587-2.069-.881-3.323-.881-.921,0-1.855.147-2.803.44-.948.294-1.715.667-2.302,1.121l-3.563-.44,1.762-14.774h15.695v3.343h-12.492l-1.021,8.708h.16c.614-.507,1.388-.921,2.322-1.241.934-.334,1.915-.5,2.943-.5,1.828,0,3.457.434,4.885,1.301,1.428.854,2.549,2.035,3.363,3.543.827,1.508,1.241,3.223,1.241,5.145,0,1.909-.434,3.61-1.301,5.105-.854,1.495-2.029,2.676-3.523,3.543-1.495.854-3.203,1.281-5.125,1.281ZM963.608,654.187l1.762-11.351h4.124l-3.123,11.351h-2.763ZM984.748,647.4c-3.323,0-5.906-1.335-7.748-4.004-1.828-2.669-2.743-6.433-2.743-11.291,0-4.831.921-8.595,2.763-11.291,1.855-2.696,4.431-4.044,7.728-4.044s5.886,1.348,7.728,4.044,2.763,6.46,2.763,11.291c0,4.858-.914,8.622-2.743,11.291-1.828,2.669-4.411,4.004-7.748,4.004ZM984.748,644.077c2.189,0,3.87-1.048,5.045-3.143,1.188-2.109,1.782-5.052,1.782-8.829,0-3.804-.594-6.76-1.782-8.869-1.174-2.109-2.856-3.163-5.045-3.163-2.175,0-3.857,1.061-5.045,3.183-1.188,2.109-1.782,5.058-1.782,8.849s.594,6.72,1.782,8.829c1.188,2.095,2.869,3.143,5.045,3.143ZM1010.614,647.4c-3.323,0-5.906-1.335-7.748-4.004-1.828-2.669-2.743-6.433-2.743-11.291,0-4.831.921-8.595,2.763-11.291,1.855-2.696,4.431-4.044,7.728-4.044s5.886,1.348,7.728,4.044c1.842,2.696,2.763,6.46,2.763,11.291,0,4.858-.914,8.622-2.743,11.291-1.828,2.669-4.411,4.004-7.748,4.004ZM1010.614,644.077c2.189,0,3.87-1.048,5.045-3.143,1.188-2.109,1.782-5.052,1.782-8.829,0-3.804-.594-6.76-1.782-8.869-1.174-2.109-2.856-3.163-5.045-3.163-2.175,0-3.857,1.061-5.045,3.183-1.188,2.109-1.782,5.058-1.782,8.849s.594,6.72,1.782,8.829c1.188,2.095,2.869,3.143,5.045,3.143ZM1036.479,647.4c-3.323,0-5.906-1.335-7.748-4.004-1.828-2.669-2.743-6.433-2.743-11.291,0-4.831.921-8.595,2.763-11.291,1.855-2.696,4.431-4.044,7.728-4.044s5.886,1.348,7.728,4.044,2.763,6.46,2.763,11.291c0,4.858-.914,8.622-2.743,11.291-1.828,2.669-4.411,4.004-7.748,4.004ZM1036.479,644.077c2.189,0,3.87-1.048,5.045-3.143,1.188-2.109,1.782-5.052,1.782-8.829,0-3.804-.594-6.76-1.782-8.869-1.174-2.109-2.856-3.163-5.045-3.163-2.175,0-3.857,1.061-5.045,3.183-1.188,2.109-1.782,5.058-1.782,8.849s.594,6.72,1.782,8.829c1.188,2.095,2.869,3.143,5.045,3.143Z"/>
      </g>
      <g id="g14">
        <path id="text13" class="cls-5" d="M1098.982,651.364v-3.884c-2.883-.2-5.172-1.041-6.867-2.522-1.682-1.495-2.603-3.417-2.763-5.766h3.904c.133,1.495.747,2.643,1.842,3.443,1.094.787,2.389,1.261,3.884,1.421v-10.771l-1.181-.34c-2.402-.681-4.271-1.655-5.605-2.923-1.335-1.268-2.002-2.889-2.002-4.865,0-1.535.38-2.896,1.141-4.084.774-1.188,1.822-2.142,3.143-2.863,1.321-.734,2.823-1.188,4.504-1.361v-4.044h2.402v3.984c1.788.12,3.363.541,4.725,1.261,1.375.707,2.456,1.642,3.243,2.803.787,1.148,1.208,2.429,1.261,3.844h-3.724c-.147-1.308-.727-2.349-1.742-3.123-1.001-.774-2.256-1.235-3.764-1.381v10.11l1.181.32c.801.214,1.682.507,2.643.881.974.374,1.902.874,2.783,1.501.881.614,1.602,1.401,2.162,2.362.574.948.861,2.115.861,3.503,0,1.535-.38,2.93-1.141,4.184-.747,1.241-1.842,2.256-3.283,3.043-1.428.787-3.163,1.248-5.205,1.381v3.884h-2.402ZM1101.384,644.057c1.722-.187,3.136-.747,4.244-1.682,1.121-.948,1.682-2.135,1.682-3.563,0-.961-.274-1.742-.821-2.342-.534-.601-1.248-1.094-2.142-1.481s-1.875-.727-2.943-1.021h-.02v10.09ZM1098.982,629.623v-9.409c-1.548.214-2.783.754-3.704,1.622s-1.381,1.915-1.381,3.143c0,.948.274,1.728.821,2.342.547.601,1.215,1.088,2.002,1.461.787.36,1.542.641,2.262.841ZM1116.419,647v-2.743l9.91-10.75c1.108-1.201,2.029-2.256,2.763-3.163.734-.908,1.288-1.768,1.662-2.583.374-.827.561-1.702.561-2.623,0-1.562-.541-2.796-1.622-3.704-1.068-.908-2.396-1.361-3.984-1.361-1.695,0-3.05.507-4.064,1.521-1.001,1.014-1.501,2.362-1.501,4.044h-3.644c0-1.762.407-3.31,1.221-4.645s1.922-2.369,3.323-3.103c1.401-.747,2.99-1.121,4.765-1.121s3.343.374,4.705,1.121c1.375.734,2.449,1.728,3.223,2.983.787,1.255,1.181,2.663,1.181,4.224,0,1.081-.194,2.135-.581,3.163-.387,1.014-1.068,2.169-2.042,3.463-.974,1.295-2.342,2.876-4.104,4.745l-6.526,6.947v.24h13.753v3.343h-18.999ZM1151.273,647.4c-3.323,0-5.906-1.335-7.748-4.004-1.828-2.669-2.743-6.433-2.743-11.291,0-4.831.921-8.595,2.763-11.291,1.855-2.696,4.431-4.044,7.728-4.044s5.886,1.348,7.728,4.044,2.763,6.46,2.763,11.291c0,4.858-.914,8.622-2.743,11.291-1.828,2.669-4.411,4.004-7.748,4.004ZM1151.273,644.077c2.189,0,3.87-1.048,5.045-3.143,1.188-2.109,1.782-5.052,1.782-8.829,0-3.804-.594-6.76-1.782-8.869-1.174-2.109-2.856-3.163-5.045-3.163-2.175,0-3.857,1.061-5.045,3.183-1.188,2.109-1.782,5.058-1.782,8.849s.594,6.72,1.782,8.829c1.188,2.095,2.869,3.143,5.045,3.143ZM1165.727,654.187l1.762-11.351h4.124l-3.123,11.351h-2.763ZM1186.867,647.4c-3.323,0-5.906-1.335-7.748-4.004-1.828-2.669-2.743-6.433-2.743-11.291,0-4.831.921-8.595,2.763-11.291,1.855-2.696,4.431-4.044,7.728-4.044s5.886,1.348,7.728,4.044,2.763,6.46,2.763,11.291c0,4.858-.914,8.622-2.743,11.291-1.828,2.669-4.411,4.004-7.748,4.004ZM1186.867,644.077c2.189,0,3.87-1.048,5.045-3.143,1.188-2.109,1.782-5.052,1.782-8.829,0-3.804-.594-6.76-1.782-8.869-1.174-2.109-2.856-3.163-5.045-3.163-2.175,0-3.857,1.061-5.045,3.183-1.188,2.109-1.782,5.058-1.782,8.849s.594,6.72,1.782,8.829c1.188,2.095,2.869,3.143,5.045,3.143ZM1212.733,647.4c-3.323,0-5.906-1.335-7.748-4.004-1.828-2.669-2.743-6.433-2.743-11.291,0-4.831.921-8.595,2.763-11.291,1.855-2.696,4.431-4.044,7.728-4.044s5.886,1.348,7.728,4.044,2.763,6.46,2.763,11.291c0,4.858-.914,8.622-2.743,11.291-1.828,2.669-4.411,4.004-7.748,4.004ZM1212.733,644.077c2.189,0,3.87-1.048,5.045-3.143,1.188-2.109,1.782-5.052,1.782-8.829,0-3.804-.594-6.76-1.782-8.869-1.174-2.109-2.856-3.163-5.045-3.163-2.175,0-3.857,1.061-5.045,3.183-1.188,2.109-1.782,5.058-1.782,8.849s.594,6.72,1.782,8.829c1.188,2.095,2.869,3.143,5.045,3.143ZM1238.598,647.4c-3.323,0-5.906-1.335-7.748-4.004-1.828-2.669-2.743-6.433-2.743-11.291,0-4.831.921-8.595,2.763-11.291,1.855-2.696,4.431-4.044,7.728-4.044s5.886,1.348,7.728,4.044,2.763,6.46,2.763,11.291c0,4.858-.914,8.622-2.743,11.291-1.828,2.669-4.411,4.004-7.748,4.004ZM1238.598,644.077c2.189,0,3.87-1.048,5.045-3.143,1.188-2.109,1.782-5.052,1.782-8.829,0-3.804-.594-6.76-1.782-8.869-1.174-2.109-2.856-3.163-5.045-3.163-2.175,0-3.857,1.061-5.045,3.183-1.188,2.109-1.782,5.058-1.782,8.849s.594,6.72,1.782,8.829c1.188,2.095,2.869,3.143,5.045,3.143Z"/>
      </g>
      <g id="g15">
        <path id="text14" class="cls-5" d="M1296.932,651.364v-3.884c-2.883-.2-5.172-1.041-6.867-2.522-1.682-1.495-2.603-3.417-2.763-5.766h3.904c.133,1.495.747,2.643,1.842,3.443,1.094.787,2.389,1.261,3.884,1.421v-10.771l-1.181-.34c-2.402-.681-4.271-1.655-5.605-2.923-1.335-1.268-2.002-2.889-2.002-4.865,0-1.535.38-2.896,1.141-4.084.774-1.188,1.822-2.142,3.143-2.863,1.321-.734,2.823-1.188,4.504-1.361v-4.044h2.402v3.984c1.788.12,3.363.541,4.725,1.261,1.375.707,2.456,1.642,3.243,2.803.787,1.148,1.208,2.429,1.261,3.844h-3.724c-.147-1.308-.727-2.349-1.742-3.123-1.001-.774-2.256-1.235-3.764-1.381v10.11l1.181.32c.801.214,1.682.507,2.643.881.974.374,1.902.874,2.783,1.501.881.614,1.602,1.401,2.162,2.362.574.948.861,2.115.861,3.503,0,1.535-.38,2.93-1.141,4.184-.747,1.241-1.842,2.256-3.283,3.043-1.428.787-3.163,1.248-5.205,1.381v3.884h-2.402ZM1299.334,644.057c1.722-.187,3.136-.747,4.244-1.682,1.121-.948,1.682-2.135,1.682-3.563,0-.961-.274-1.742-.821-2.342-.534-.601-1.248-1.094-2.142-1.481s-1.875-.727-2.943-1.021h-.02v10.09ZM1296.932,629.623v-9.409c-1.548.214-2.783.754-3.704,1.622s-1.381,1.915-1.381,3.143c0,.948.274,1.728.821,2.342.547.601,1.215,1.088,2.002,1.461.787.36,1.542.641,2.262.841ZM1314.369,647v-2.743l9.91-10.75c1.108-1.201,2.029-2.256,2.763-3.163.734-.908,1.288-1.768,1.662-2.583.374-.827.561-1.702.561-2.623,0-1.562-.541-2.796-1.622-3.704-1.068-.908-2.396-1.361-3.984-1.361-1.695,0-3.05.507-4.064,1.521-1.001,1.014-1.501,2.362-1.501,4.044h-3.644c0-1.762.407-3.31,1.221-4.645s1.922-2.369,3.323-3.103c1.401-.747,2.99-1.121,4.765-1.121s3.343.374,4.705,1.121c1.375.734,2.449,1.728,3.223,2.983.787,1.255,1.181,2.663,1.181,4.224,0,1.081-.194,2.135-.581,3.163-.387,1.014-1.068,2.169-2.042,3.463-.974,1.295-2.342,2.876-4.104,4.745l-6.526,6.947v.24h13.753v3.343h-18.999ZM1348.822,647.4c-1.748,0-3.317-.34-4.705-1.021-1.388-.694-2.496-1.635-3.323-2.823-.827-1.201-1.275-2.562-1.341-4.084h3.684c.12,1.335.721,2.436,1.802,3.303,1.094.854,2.389,1.281,3.884,1.281,1.201,0,2.269-.28,3.203-.841.948-.561,1.688-1.335,2.222-2.322s.801-2.109.801-3.363c0-1.281-.28-2.429-.841-3.443s-1.328-1.808-2.302-2.382c-.961-.587-2.069-.881-3.323-.881-.921,0-1.855.147-2.803.44-.948.294-1.715.667-2.302,1.121l-3.563-.44,1.762-14.774h15.695v3.343h-12.492l-1.021,8.708h.16c.614-.507,1.388-.921,2.322-1.241.934-.334,1.915-.5,2.943-.5,1.828,0,3.457.434,4.885,1.301,1.428.854,2.549,2.035,3.363,3.543.827,1.508,1.241,3.223,1.241,5.145,0,1.909-.434,3.61-1.301,5.105-.854,1.495-2.029,2.676-3.523,3.543-1.495.854-3.203,1.281-5.125,1.281ZM1362.676,654.187l1.762-11.351h4.124l-3.123,11.351h-2.763ZM1383.816,647.4c-3.323,0-5.906-1.335-7.748-4.004-1.828-2.669-2.743-6.433-2.743-11.291,0-4.831.921-8.595,2.763-11.291,1.855-2.696,4.431-4.044,7.728-4.044s5.886,1.348,7.728,4.044c1.842,2.696,2.763,6.46,2.763,11.291,0,4.858-.914,8.622-2.743,11.291-1.828,2.669-4.411,4.004-7.748,4.004ZM1383.816,644.077c2.189,0,3.87-1.048,5.045-3.143,1.188-2.109,1.782-5.052,1.782-8.829,0-3.804-.594-6.76-1.782-8.869-1.174-2.109-2.856-3.163-5.045-3.163-2.175,0-3.857,1.061-5.045,3.183-1.188,2.109-1.782,5.058-1.782,8.849s.594,6.72,1.782,8.829c1.188,2.095,2.869,3.143,5.045,3.143ZM1409.682,647.4c-3.323,0-5.906-1.335-7.748-4.004-1.828-2.669-2.743-6.433-2.743-11.291,0-4.831.921-8.595,2.763-11.291,1.855-2.696,4.431-4.044,7.728-4.044s5.886,1.348,7.728,4.044,2.763,6.46,2.763,11.291c0,4.858-.914,8.622-2.743,11.291-1.828,2.669-4.411,4.004-7.748,4.004ZM1409.682,644.077c2.189,0,3.87-1.048,5.045-3.143,1.188-2.109,1.782-5.052,1.782-8.829,0-3.804-.594-6.76-1.782-8.869-1.174-2.109-2.856-3.163-5.045-3.163-2.175,0-3.857,1.061-5.045,3.183-1.188,2.109-1.782,5.058-1.782,8.849s.594,6.72,1.782,8.829c1.188,2.095,2.869,3.143,5.045,3.143ZM1435.547,647.4c-3.323,0-5.906-1.335-7.748-4.004-1.828-2.669-2.743-6.433-2.743-11.291,0-4.831.921-8.595,2.763-11.291,1.855-2.696,4.431-4.044,7.728-4.044s5.886,1.348,7.728,4.044,2.763,6.46,2.763,11.291c0,4.858-.914,8.622-2.743,11.291-1.828,2.669-4.411,4.004-7.748,4.004ZM1435.547,644.077c2.189,0,3.87-1.048,5.045-3.143,1.188-2.109,1.782-5.052,1.782-8.829,0-3.804-.594-6.76-1.782-8.869-1.174-2.109-2.856-3.163-5.045-3.163-2.175,0-3.857,1.061-5.045,3.183-1.188,2.109-1.782,5.058-1.782,8.849s.594,6.72,1.782,8.829c1.188,2.095,2.869,3.143,5.045,3.143Z"/>
      </g>
      <g id="g16">
        <path id="text15" class="cls-5" d="M1493.762,651.364v-3.884c-2.883-.2-5.172-1.041-6.867-2.522-1.682-1.495-2.603-3.417-2.763-5.766h3.904c.133,1.495.747,2.643,1.842,3.443,1.094.787,2.389,1.261,3.884,1.421v-10.771l-1.181-.34c-2.402-.681-4.271-1.655-5.605-2.923-1.335-1.268-2.002-2.889-2.002-4.865,0-1.535.38-2.896,1.141-4.084.774-1.188,1.822-2.142,3.143-2.863,1.321-.734,2.823-1.188,4.504-1.361v-4.044h2.402v3.984c1.788.12,3.363.541,4.725,1.261,1.375.707,2.456,1.642,3.243,2.803.787,1.148,1.208,2.429,1.261,3.844h-3.724c-.147-1.308-.727-2.349-1.742-3.123-1.001-.774-2.256-1.235-3.764-1.381v10.11l1.181.32c.801.214,1.682.507,2.643.881.974.374,1.902.874,2.783,1.501.881.614,1.602,1.401,2.162,2.362.574.948.861,2.115.861,3.503,0,1.535-.38,2.93-1.141,4.184-.747,1.241-1.842,2.256-3.283,3.043-1.428.787-3.163,1.248-5.205,1.381v3.884h-2.402ZM1496.164,644.057c1.722-.187,3.136-.747,4.244-1.682,1.121-.948,1.682-2.135,1.682-3.563,0-.961-.274-1.742-.821-2.342-.534-.601-1.248-1.094-2.142-1.481s-1.875-.727-2.943-1.021h-.02v10.09ZM1493.762,629.623v-9.409c-1.548.214-2.783.754-3.704,1.622s-1.381,1.915-1.381,3.143c0,.948.274,1.728.821,2.342.547.601,1.215,1.088,2.002,1.461.787.36,1.542.641,2.262.841ZM1520.828,647.4c-1.949,0-3.677-.334-5.185-1.001-1.508-.667-2.709-1.595-3.604-2.783-.881-1.188-1.355-2.569-1.421-4.144h3.844c.107,1.415.761,2.536,1.962,3.363,1.201.814,2.649,1.221,4.344,1.221,1.868,0,3.41-.48,4.625-1.441,1.228-.961,1.842-2.215,1.842-3.764,0-1.615-.601-2.93-1.802-3.944-1.201-1.028-2.91-1.542-5.125-1.542h-2.422v-3.303h2.422c1.748,0,3.163-.46,4.244-1.381,1.094-.934,1.642-2.169,1.642-3.704,0-1.481-.48-2.669-1.441-3.563s-2.256-1.341-3.884-1.341c-1.014,0-1.969.187-2.863.561-.881.36-1.608.881-2.182,1.562-.561.681-.861,1.508-.901,2.482h-3.664c.053-1.562.521-2.936,1.401-4.124s2.042-2.115,3.483-2.783c1.455-.667,3.056-1.001,4.805-1.001,1.855,0,3.45.374,4.785,1.121,1.348.747,2.382,1.728,3.103,2.943s1.081,2.529,1.081,3.944c0,1.682-.447,3.11-1.341,4.284-.881,1.174-2.082,1.989-3.604,2.442v.24c1.909.307,3.39,1.108,4.444,2.402,1.054,1.281,1.582,2.863,1.582,4.745,0,1.628-.44,3.083-1.321,4.364s-2.089,2.296-3.624,3.043c-1.535.734-3.277,1.101-5.225,1.101ZM1546.373,647.4c-3.323,0-5.906-1.335-7.748-4.004-1.828-2.669-2.743-6.433-2.743-11.291,0-4.831.921-8.595,2.763-11.291,1.855-2.696,4.431-4.044,7.728-4.044s5.886,1.348,7.728,4.044,2.763,6.46,2.763,11.291c0,4.858-.914,8.622-2.743,11.291-1.828,2.669-4.411,4.004-7.748,4.004ZM1546.373,644.077c2.189,0,3.87-1.048,5.045-3.143,1.188-2.109,1.782-5.052,1.782-8.829,0-3.804-.594-6.76-1.782-8.869-1.174-2.109-2.856-3.163-5.045-3.163-2.175,0-3.857,1.061-5.045,3.183-1.188,2.109-1.782,5.058-1.782,8.849s.594,6.72,1.782,8.829c1.188,2.095,2.869,3.143,5.045,3.143ZM1560.827,654.187l1.762-11.351h4.124l-3.123,11.351h-2.763ZM1581.968,647.4c-3.323,0-5.906-1.335-7.748-4.004-1.828-2.669-2.743-6.433-2.743-11.291,0-4.831.921-8.595,2.763-11.291,1.855-2.696,4.431-4.044,7.728-4.044s5.886,1.348,7.728,4.044c1.842,2.696,2.763,6.46,2.763,11.291,0,4.858-.914,8.622-2.743,11.291-1.828,2.669-4.411,4.004-7.748,4.004ZM1581.968,644.077c2.189,0,3.87-1.048,5.045-3.143,1.188-2.109,1.782-5.052,1.782-8.829,0-3.804-.594-6.76-1.782-8.869-1.174-2.109-2.856-3.163-5.045-3.163-2.175,0-3.857,1.061-5.045,3.183-1.188,2.109-1.782,5.058-1.782,8.849s.594,6.72,1.782,8.829c1.188,2.095,2.869,3.143,5.045,3.143ZM1607.833,647.4c-3.323,0-5.906-1.335-7.748-4.004-1.828-2.669-2.743-6.433-2.743-11.291,0-4.831.921-8.595,2.763-11.291,1.855-2.696,4.431-4.044,7.728-4.044s5.886,1.348,7.728,4.044,2.763,6.46,2.763,11.291c0,4.858-.914,8.622-2.743,11.291-1.828,2.669-4.411,4.004-7.748,4.004ZM1607.833,644.077c2.189,0,3.87-1.048,5.045-3.143,1.188-2.109,1.782-5.052,1.782-8.829,0-3.804-.594-6.76-1.782-8.869-1.174-2.109-2.856-3.163-5.045-3.163-2.175,0-3.857,1.061-5.045,3.183-1.188,2.109-1.782,5.058-1.782,8.849s.594,6.72,1.782,8.829c1.188,2.095,2.869,3.143,5.045,3.143ZM1633.698,647.4c-3.323,0-5.906-1.335-7.748-4.004-1.828-2.669-2.743-6.433-2.743-11.291,0-4.831.921-8.595,2.763-11.291,1.855-2.696,4.431-4.044,7.728-4.044s5.886,1.348,7.728,4.044,2.763,6.46,2.763,11.291c0,4.858-.914,8.622-2.743,11.291-1.828,2.669-4.411,4.004-7.748,4.004ZM1633.698,644.077c2.189,0,3.87-1.048,5.045-3.143,1.188-2.109,1.782-5.052,1.782-8.829,0-3.804-.594-6.76-1.782-8.869-1.174-2.109-2.856-3.163-5.045-3.163-2.175,0-3.857,1.061-5.045,3.183-1.188,2.109-1.782,5.058-1.782,8.849s.594,6.72,1.782,8.829c1.188,2.095,2.869,3.143,5.045,3.143Z"/>
      </g>
      <g id="g17">
        <path id="text16" class="cls-5" d="M1691.711,651.364v-3.884c-2.883-.2-5.172-1.041-6.867-2.522-1.682-1.495-2.603-3.417-2.763-5.766h3.904c.133,1.495.747,2.643,1.842,3.443,1.094.787,2.389,1.261,3.884,1.421v-10.771l-1.181-.34c-2.402-.681-4.271-1.655-5.605-2.923-1.335-1.268-2.002-2.889-2.002-4.865,0-1.535.38-2.896,1.141-4.084.774-1.188,1.822-2.142,3.143-2.863,1.321-.734,2.823-1.188,4.504-1.361v-4.044h2.402v3.984c1.788.12,3.363.541,4.725,1.261,1.375.707,2.456,1.642,3.243,2.803.787,1.148,1.208,2.429,1.261,3.844h-3.724c-.147-1.308-.727-2.349-1.742-3.123-1.001-.774-2.256-1.235-3.764-1.381v10.11l1.181.32c.801.214,1.682.507,2.643.881.974.374,1.902.874,2.783,1.501.881.614,1.602,1.401,2.162,2.362.574.948.861,2.115.861,3.503,0,1.535-.38,2.93-1.141,4.184-.747,1.241-1.842,2.256-3.283,3.043-1.428.787-3.163,1.248-5.205,1.381v3.884h-2.402ZM1694.114,644.057c1.722-.187,3.136-.747,4.244-1.682,1.121-.948,1.682-2.135,1.682-3.563,0-.961-.274-1.742-.821-2.342-.534-.601-1.248-1.094-2.142-1.481s-1.875-.727-2.943-1.021h-.02v10.09ZM1691.711,629.623v-9.409c-1.548.214-2.783.754-3.704,1.622s-1.381,1.915-1.381,3.143c0,.948.274,1.728.821,2.342.547.601,1.215,1.088,2.002,1.461.787.36,1.542.641,2.262.841ZM1718.778,647.4c-1.949,0-3.677-.334-5.185-1.001-1.508-.667-2.709-1.595-3.604-2.783-.881-1.188-1.355-2.569-1.421-4.144h3.844c.107,1.415.761,2.536,1.962,3.363,1.201.814,2.649,1.221,4.344,1.221,1.868,0,3.41-.48,4.625-1.441,1.228-.961,1.842-2.215,1.842-3.764,0-1.615-.601-2.93-1.802-3.944-1.201-1.028-2.91-1.542-5.125-1.542h-2.422v-3.303h2.422c1.748,0,3.163-.46,4.244-1.381,1.094-.934,1.642-2.169,1.642-3.704,0-1.481-.48-2.669-1.441-3.563s-2.256-1.341-3.884-1.341c-1.014,0-1.969.187-2.863.561-.881.36-1.608.881-2.182,1.562-.561.681-.861,1.508-.901,2.482h-3.664c.053-1.562.521-2.936,1.401-4.124s2.042-2.115,3.483-2.783c1.455-.667,3.056-1.001,4.805-1.001,1.855,0,3.45.374,4.785,1.121,1.348.747,2.382,1.728,3.103,2.943s1.081,2.529,1.081,3.944c0,1.682-.447,3.11-1.341,4.284-.881,1.174-2.082,1.989-3.604,2.442v.24c1.909.307,3.39,1.108,4.444,2.402,1.054,1.281,1.582,2.863,1.582,4.745,0,1.628-.44,3.083-1.321,4.364s-2.089,2.296-3.624,3.043c-1.535.734-3.277,1.101-5.225,1.101ZM1743.922,647.4c-1.748,0-3.317-.34-4.705-1.021-1.388-.694-2.496-1.635-3.323-2.823-.827-1.201-1.275-2.562-1.341-4.084h3.684c.12,1.335.721,2.436,1.802,3.303,1.094.854,2.389,1.281,3.884,1.281,1.201,0,2.269-.28,3.203-.841.948-.561,1.688-1.335,2.222-2.322s.801-2.109.801-3.363c0-1.281-.28-2.429-.841-3.443s-1.328-1.808-2.302-2.382c-.961-.587-2.069-.881-3.323-.881-.921,0-1.855.147-2.803.44-.948.294-1.715.667-2.302,1.121l-3.563-.44,1.762-14.774h15.695v3.343h-12.492l-1.021,8.708h.16c.614-.507,1.388-.921,2.322-1.241.934-.334,1.915-.5,2.943-.5,1.828,0,3.457.434,4.885,1.301,1.428.854,2.549,2.035,3.363,3.543.827,1.508,1.241,3.223,1.241,5.145,0,1.909-.434,3.61-1.301,5.105-.854,1.495-2.029,2.676-3.523,3.543-1.495.854-3.203,1.281-5.125,1.281ZM1757.776,654.187l1.762-11.351h4.124l-3.123,11.351h-2.763ZM1778.917,647.4c-3.323,0-5.906-1.335-7.748-4.004-1.828-2.669-2.743-6.433-2.743-11.291,0-4.831.921-8.595,2.763-11.291,1.855-2.696,4.431-4.044,7.728-4.044s5.886,1.348,7.728,4.044,2.763,6.46,2.763,11.291c0,4.858-.914,8.622-2.743,11.291-1.828,2.669-4.411,4.004-7.748,4.004ZM1778.917,644.077c2.189,0,3.87-1.048,5.045-3.143,1.188-2.109,1.782-5.052,1.782-8.829,0-3.804-.594-6.76-1.782-8.869-1.174-2.109-2.856-3.163-5.045-3.163-2.175,0-3.857,1.061-5.045,3.183-1.188,2.109-1.782,5.058-1.782,8.849s.594,6.72,1.782,8.829c1.188,2.095,2.869,3.143,5.045,3.143ZM1804.782,647.4c-3.323,0-5.906-1.335-7.748-4.004-1.828-2.669-2.743-6.433-2.743-11.291,0-4.831.921-8.595,2.763-11.291,1.855-2.696,4.431-4.044,7.728-4.044s5.886,1.348,7.728,4.044,2.763,6.46,2.763,11.291c0,4.858-.914,8.622-2.743,11.291-1.828,2.669-4.411,4.004-7.748,4.004ZM1804.782,644.077c2.189,0,3.87-1.048,5.045-3.143,1.188-2.109,1.782-5.052,1.782-8.829,0-3.804-.594-6.76-1.782-8.869-1.174-2.109-2.856-3.163-5.045-3.163-2.175,0-3.857,1.061-5.045,3.183-1.188,2.109-1.782,5.058-1.782,8.849s.594,6.72,1.782,8.829c1.188,2.095,2.869,3.143,5.045,3.143ZM1830.647,647.4c-3.323,0-5.906-1.335-7.748-4.004-1.828-2.669-2.743-6.433-2.743-11.291,0-4.831.921-8.595,2.763-11.291,1.855-2.696,4.431-4.044,7.728-4.044s5.886,1.348,7.728,4.044,2.763,6.46,2.763,11.291c0,4.858-.914,8.622-2.743,11.291-1.828,2.669-4.411,4.004-7.748,4.004ZM1830.647,644.077c2.189,0,3.87-1.048,5.045-3.143,1.188-2.109,1.782-5.052,1.782-8.829,0-3.804-.594-6.76-1.782-8.869-1.174-2.109-2.856-3.163-5.045-3.163-2.175,0-3.857,1.061-5.045,3.183-1.188,2.109-1.782,5.058-1.782,8.849s.594,6.72,1.782,8.829c1.188,2.095,2.869,3.143,5.045,3.143Z"/>
      </g>
      <g id="g18">
        <path id="text17" class="cls-5" d="M1888.122,651.364v-3.884c-2.883-.2-5.172-1.041-6.867-2.522-1.682-1.495-2.603-3.417-2.763-5.766h3.904c.133,1.495.747,2.643,1.842,3.443,1.094.787,2.389,1.261,3.884,1.421v-10.771l-1.181-.34c-2.402-.681-4.271-1.655-5.605-2.923-1.335-1.268-2.002-2.889-2.002-4.865,0-1.535.38-2.896,1.141-4.084.774-1.188,1.822-2.142,3.143-2.863,1.321-.734,2.823-1.188,4.504-1.361v-4.044h2.402v3.984c1.788.12,3.363.541,4.725,1.261,1.375.707,2.456,1.642,3.243,2.803.787,1.148,1.208,2.429,1.261,3.844h-3.724c-.147-1.308-.727-2.349-1.742-3.123-1.001-.774-2.256-1.235-3.764-1.381v10.11l1.181.32c.801.214,1.682.507,2.643.881.974.374,1.902.874,2.783,1.501.881.614,1.602,1.401,2.162,2.362.574.948.861,2.115.861,3.503,0,1.535-.38,2.93-1.141,4.184-.747,1.241-1.842,2.256-3.283,3.043-1.428.787-3.163,1.248-5.205,1.381v3.884h-2.402ZM1890.524,644.057c1.722-.187,3.136-.747,4.244-1.682,1.121-.948,1.682-2.135,1.682-3.563,0-.961-.274-1.742-.821-2.342-.534-.601-1.248-1.094-2.142-1.481s-1.875-.727-2.943-1.021h-.02v10.09ZM1888.122,629.623v-9.409c-1.548.214-2.783.754-3.704,1.622s-1.381,1.915-1.381,3.143c0,.948.274,1.728.821,2.342.547.601,1.215,1.088,2.002,1.461.787.36,1.542.641,2.262.841ZM1904.878,640.934v-3.103l13.053-20.66h4.625v20.42h4.044v3.343h-4.044v6.066h-3.644v-6.066h-14.034ZM1918.932,637.591v-15.655h-.24l-9.75,15.415v.24h9.99ZM1941.894,647.4c-3.323,0-5.906-1.335-7.748-4.004-1.828-2.669-2.743-6.433-2.743-11.291,0-4.831.921-8.595,2.763-11.291,1.855-2.696,4.431-4.044,7.728-4.044s5.886,1.348,7.728,4.044,2.763,6.46,2.763,11.291c0,4.858-.914,8.622-2.743,11.291-1.828,2.669-4.411,4.004-7.748,4.004ZM1941.894,644.077c2.189,0,3.87-1.048,5.045-3.143,1.188-2.109,1.782-5.052,1.782-8.829,0-3.804-.594-6.76-1.782-8.869-1.174-2.109-2.856-3.163-5.045-3.163-2.175,0-3.857,1.061-5.045,3.183-1.188,2.109-1.782,5.058-1.782,8.849s.594,6.72,1.782,8.829c1.188,2.095,2.869,3.143,5.045,3.143ZM1956.348,654.187l1.762-11.351h4.124l-3.123,11.351h-2.763ZM1977.489,647.4c-3.323,0-5.906-1.335-7.748-4.004-1.828-2.669-2.743-6.433-2.743-11.291,0-4.831.921-8.595,2.763-11.291,1.855-2.696,4.431-4.044,7.728-4.044s5.886,1.348,7.728,4.044,2.763,6.46,2.763,11.291c0,4.858-.914,8.622-2.743,11.291-1.828,2.669-4.411,4.004-7.748,4.004ZM1977.489,644.077c2.189,0,3.87-1.048,5.045-3.143,1.188-2.109,1.782-5.052,1.782-8.829,0-3.804-.594-6.76-1.782-8.869-1.174-2.109-2.856-3.163-5.045-3.163-2.175,0-3.857,1.061-5.045,3.183-1.188,2.109-1.782,5.058-1.782,8.849s.594,6.72,1.782,8.829c1.188,2.095,2.869,3.143,5.045,3.143ZM2003.354,647.4c-3.323,0-5.906-1.335-7.748-4.004-1.828-2.669-2.743-6.433-2.743-11.291,0-4.831.921-8.595,2.763-11.291,1.855-2.696,4.431-4.044,7.728-4.044s5.886,1.348,7.728,4.044,2.763,6.46,2.763,11.291c0,4.858-.914,8.622-2.743,11.291-1.828,2.669-4.411,4.004-7.748,4.004ZM2003.354,644.077c2.189,0,3.87-1.048,5.045-3.143,1.188-2.109,1.782-5.052,1.782-8.829,0-3.804-.594-6.76-1.782-8.869-1.174-2.109-2.856-3.163-5.045-3.163-2.175,0-3.857,1.061-5.045,3.183-1.188,2.109-1.782,5.058-1.782,8.849s.594,6.72,1.782,8.829c1.188,2.095,2.869,3.143,5.045,3.143ZM2029.219,647.4c-3.323,0-5.906-1.335-7.748-4.004-1.828-2.669-2.743-6.433-2.743-11.291,0-4.831.921-8.595,2.763-11.291,1.855-2.696,4.431-4.044,7.728-4.044s5.886,1.348,7.728,4.044,2.763,6.46,2.763,11.291c0,4.858-.914,8.622-2.743,11.291-1.828,2.669-4.411,4.004-7.748,4.004h0ZM2029.219,644.077c2.189,0,3.87-1.048,5.045-3.143,1.188-2.109,1.782-5.052,1.782-8.829,0-3.804-.594-6.76-1.782-8.869-1.174-2.109-2.856-3.163-5.045-3.163-2.175,0-3.857,1.061-5.045,3.183-1.188,2.109-1.782,5.058-1.782,8.849s.594,6.72,1.782,8.829c1.188,2.095,2.869,3.143,5.045,3.143Z"/>
      </g>
      <g id="g19">
        <path id="text18" class="cls-5" d="M45.065,525.48c-2.349,0-4.404-.46-6.166-1.381-1.748-.921-3.103-2.182-4.064-3.784s-1.441-3.423-1.441-5.465v-19.679h3.804v19.379c0,1.428.314,2.703.941,3.824.641,1.108,1.548,1.982,2.723,2.623s2.576.961,4.204.961,3.023-.32,4.184-.961c1.174-.641,2.075-1.515,2.703-2.623.627-1.121.941-2.396.941-3.824v-19.379h3.804v19.679c0,2.042-.48,3.864-1.441,5.465-.961,1.602-2.316,2.863-4.064,3.784-1.735.921-3.777,1.381-6.126,1.381ZM67.066,511.587v13.413h-3.604v-22.382h3.463l.02,4.144c.721-1.588,1.662-2.723,2.823-3.403,1.174-.681,2.516-1.021,4.024-1.021,2.269,0,4.097.701,5.485,2.102s2.082,3.517,2.082,6.346v14.214h-3.604v-13.914c0-1.722-.454-3.07-1.361-4.044-.894-.974-2.122-1.461-3.684-1.461-1.615,0-2.963.527-4.044,1.582-1.068,1.041-1.602,2.516-1.602,4.424ZM87.687,525v-22.382h3.604v22.382h-3.604ZM89.508,498.955c-.681,0-1.268-.234-1.762-.701s-.741-1.028-.741-1.682c0-.667.247-1.228.741-1.682.494-.467,1.081-.701,1.762-.701.694,0,1.288.234,1.782.701.494.454.741,1.014.741,1.682,0,.654-.247,1.215-.741,1.682s-1.088.701-1.782.701ZM106.425,502.618v3.083h-4.604v13.493c0,1.001.2,1.735.601,2.202.414.454,1.094.681,2.042.681.227,0,.514-.027.861-.08.36-.053.687-.107.981-.16l.741,3.043c-.374.133-.801.234-1.281.3-.467.067-.934.1-1.401.1-1.935,0-3.443-.507-4.524-1.521-1.081-1.028-1.622-2.456-1.622-4.284v-13.773h-3.363v-3.083h3.363v-5.325h3.604v5.325h4.604ZM120.038,525.48c-2.162,0-4.031-.48-5.605-1.441-1.562-.961-2.769-2.302-3.624-4.024-.841-1.722-1.261-3.73-1.261-6.026s.414-4.318,1.241-6.066c.827-1.748,1.995-3.116,3.503-4.104,1.521-.988,3.297-1.481,5.325-1.481,1.188,0,2.356.2,3.503.601,1.161.387,2.209,1.021,3.143,1.902.948.868,1.702,2.015,2.262,3.443.561,1.428.841,3.176.841,5.245v1.501h-16.176c.093,2.336.761,4.131,2.002,5.385,1.255,1.241,2.876,1.862,4.865,1.862,1.321,0,2.456-.287,3.403-.861.961-.587,1.648-1.448,2.062-2.583l3.483.961c-.521,1.695-1.575,3.07-3.163,4.124-1.575,1.041-3.51,1.562-5.806,1.562ZM113.211,511.987h12.492c-.174-1.909-.774-3.457-1.802-4.645-1.014-1.201-2.442-1.802-4.284-1.802-1.281,0-2.389.3-3.323.901-.921.601-1.648,1.388-2.182,2.362-.534.974-.834,2.035-.901,3.183ZM142.92,525.48c-1.855,0-3.497-.474-4.925-1.421-1.428-.948-2.542-2.289-3.343-4.024-.801-1.735-1.201-3.79-1.201-6.166,0-2.362.4-4.404,1.201-6.126.814-1.735,1.935-3.07,3.363-4.004,1.428-.934,3.07-1.401,4.925-1.401,1.455,0,2.609.24,3.463.721s1.508,1.028,1.962,1.642c.467.601.821,1.101,1.061,1.501h.28v-11.031h3.604v29.829h-3.483v-3.463h-.4c-.24.414-.601.934-1.081,1.562-.467.614-1.134,1.168-2.002,1.662-.854.48-1.995.721-3.423.721ZM143.461,522.257c2.029,0,3.583-.781,4.665-2.342s1.622-3.59,1.622-6.086c0-2.469-.534-4.464-1.602-5.986-1.054-1.521-2.616-2.282-4.685-2.282-1.415,0-2.596.367-3.543,1.101-.934.734-1.635,1.728-2.102,2.983-.467,1.241-.701,2.636-.701,4.184,0,1.562.234,2.983.701,4.264.48,1.268,1.194,2.282,2.142,3.043.948.747,2.115,1.121,3.503,1.121ZM171.608,525v-29.829h3.804v10.21l-.06,5.485c.827-1.081,1.662-2.115,2.502-3.103.854-.988,1.735-1.975,2.643-2.963l8.909-9.629h4.985l-12.052,12.913,12.072,16.917h-4.504l-10.19-14.334-4.304,4.544v9.79h-3.804ZM199.355,525v-22.382h3.604v22.382h-3.604ZM201.177,498.955c-.681,0-1.268-.234-1.762-.701s-.741-1.028-.741-1.682c0-.667.247-1.228.741-1.682.494-.467,1.081-.701,1.762-.701.694,0,1.288.234,1.782.701.494.454.741,1.014.741,1.682,0,.654-.247,1.215-.741,1.682s-1.088.701-1.782.701ZM212.889,511.587v13.413h-3.604v-22.382h3.463l.02,4.144c.721-1.588,1.662-2.723,2.823-3.403,1.174-.681,2.516-1.021,4.024-1.021,2.269,0,4.097.701,5.485,2.102,1.388,1.401,2.082,3.517,2.082,6.346v14.214h-3.604v-13.914c0-1.722-.454-3.07-1.361-4.044-.894-.974-2.122-1.461-3.684-1.461-1.615,0-2.963.527-4.044,1.582-1.068,1.041-1.602,2.516-1.602,4.424h0ZM242.578,533.849c-2.482,0-4.464-.454-5.946-1.361-1.481-.908-2.569-1.975-3.263-3.203l2.923-1.882c.32.427.714.901,1.181,1.421.48.521,1.121.961,1.922,1.321.814.374,1.875.561,3.183.561,1.788,0,3.257-.427,4.404-1.281,1.161-.854,1.742-2.202,1.742-4.044v-4.484h-.34c-.254.427-.614.934-1.081,1.521-.454.587-1.114,1.108-1.982,1.562-.854.44-2.002.661-3.443.661-1.788,0-3.397-.42-4.825-1.261-1.428-.854-2.556-2.095-3.383-3.724-.827-1.628-1.241-3.61-1.241-5.946,0-2.309.407-4.311,1.221-6.006.814-1.708,1.935-3.03,3.363-3.964,1.441-.934,3.09-1.401,4.945-1.401,1.441,0,2.589.24,3.443.721.868.467,1.535,1.008,2.002,1.622s.827,1.121,1.081,1.521h.34v-3.583h3.503v22.962c0,1.922-.434,3.49-1.301,4.705-.868,1.228-2.042,2.129-3.523,2.703-1.468.574-3.11.861-4.925.861ZM242.478,521.437c2.029,0,3.583-.687,4.665-2.062,1.081-1.388,1.622-3.303,1.622-5.746,0-2.376-.534-4.311-1.602-5.806-1.054-1.508-2.616-2.262-4.685-2.262-1.415,0-2.596.367-3.543,1.101-.948.721-1.662,1.688-2.142,2.903-.467,1.215-.701,2.569-.701,4.064,0,2.296.541,4.171,1.622,5.625s2.669,2.182,4.765,2.182ZM267.042,525.48c-1.855,0-3.497-.474-4.925-1.421-1.428-.948-2.542-2.289-3.343-4.024-.801-1.735-1.201-3.79-1.201-6.166,0-2.362.4-4.404,1.201-6.126.814-1.735,1.935-3.07,3.363-4.004s3.07-1.401,4.925-1.401c1.455,0,2.609.24,3.463.721s1.508,1.028,1.962,1.642c.467.601.821,1.101,1.061,1.501h.28v-11.031h3.604v29.829h-3.483v-3.463h-.4c-.24.414-.601.934-1.081,1.562-.467.614-1.134,1.168-2.002,1.662-.854.48-1.995.721-3.423.721ZM267.582,522.257c2.029,0,3.583-.781,4.665-2.342s1.622-3.59,1.622-6.086c0-2.469-.534-4.464-1.602-5.986-1.054-1.521-2.616-2.282-4.685-2.282-1.415,0-2.596.367-3.543,1.101-.934.734-1.635,1.728-2.102,2.983-.467,1.241-.701,2.636-.701,4.184,0,1.562.234,2.983.701,4.264.48,1.268,1.194,2.282,2.142,3.043.948.747,2.115,1.121,3.503,1.121h0ZM292.867,525.48c-2.029,0-3.81-.48-5.345-1.441-1.521-.961-2.709-2.309-3.563-4.044-.854-1.735-1.281-3.75-1.281-6.046,0-2.336.427-4.371,1.281-6.106.854-1.748,2.042-3.103,3.563-4.064,1.535-.961,3.317-1.441,5.345-1.441,2.042,0,3.83.48,5.365,1.441s2.729,2.316,3.583,4.064c.854,1.735,1.281,3.77,1.281,6.106,0,2.296-.427,4.311-1.281,6.046-.854,1.735-2.049,3.083-3.583,4.044s-3.323,1.441-5.365,1.441ZM292.867,522.257c1.508,0,2.749-.387,3.724-1.161.974-.774,1.695-1.788,2.162-3.043.467-1.268.701-2.636.701-4.104,0-1.481-.234-2.856-.701-4.124-.467-1.281-1.188-2.309-2.162-3.083-.974-.787-2.215-1.181-3.724-1.181-1.495,0-2.723.394-3.684,1.181-.961.774-1.675,1.795-2.142,3.063-.467,1.268-.701,2.649-.701,4.144,0,1.468.234,2.836.701,4.104.467,1.255,1.181,2.269,2.142,3.043.961.774,2.189,1.161,3.684,1.161ZM308.342,525v-22.382h3.503l.02,4.104c.547-1.508,1.395-2.636,2.542-3.383,1.161-.747,2.402-1.121,3.724-1.121,1.468,0,2.683.42,3.644,1.261.974.827,1.662,1.929,2.062,3.303.534-1.415,1.435-2.529,2.703-3.343,1.281-.814,2.729-1.221,4.344-1.221,1.295,0,2.476.28,3.543.841,1.068.561,1.915,1.408,2.542,2.542.641,1.134.961,2.569.961,4.304v15.095h-3.624v-14.995c0-1.615-.454-2.769-1.361-3.463-.894-.694-1.942-1.041-3.143-1.041-1.508,0-2.696.46-3.563,1.381-.868.921-1.301,2.089-1.301,3.503v14.614h-3.604v-15.355c0-1.241-.414-2.242-1.241-3.003-.827-.761-1.875-1.141-3.143-1.141-1.308,0-2.469.454-3.483,1.361-1.014.908-1.521,2.256-1.521,4.044v14.094h-3.603Z"/>
      </g>
      <g id="g20">
        <path id="text19" class="cls-5" d="M216.687,358.171v29.829h-3.804v-29.829h3.804ZM223.454,388v-22.382h3.483v3.443h.24c.414-1.134,1.148-2.042,2.202-2.723,1.068-.694,2.269-1.041,3.604-1.041.267,0,.581.007.941.02.374.013.667.027.881.04v3.624c-.107-.027-.374-.067-.801-.12-.427-.053-.881-.08-1.361-.08-1.615,0-2.95.494-4.004,1.481-1.054.974-1.582,2.215-1.582,3.724v14.014h-3.604ZM247.617,388.48c-2.162,0-4.031-.48-5.605-1.441-1.562-.961-2.769-2.302-3.624-4.024-.841-1.722-1.261-3.73-1.261-6.026s.414-4.318,1.241-6.066c.827-1.748,1.995-3.116,3.503-4.104,1.521-.988,3.297-1.481,5.325-1.481,1.188,0,2.356.2,3.503.601,1.161.387,2.209,1.021,3.143,1.902.948.868,1.702,2.015,2.262,3.443.561,1.428.841,3.176.841,5.245v1.501h-16.176c.093,2.336.761,4.131,2.002,5.385,1.255,1.241,2.876,1.862,4.865,1.862,1.321,0,2.456-.287,3.403-.861.961-.587,1.648-1.448,2.062-2.583l3.483.961c-.521,1.695-1.575,3.07-3.163,4.124-1.575,1.041-3.51,1.562-5.806,1.562ZM240.791,374.987h12.492c-.174-1.909-.774-3.457-1.802-4.645-1.014-1.201-2.442-1.802-4.284-1.802-1.281,0-2.389.3-3.323.901-.921.601-1.648,1.388-2.182,2.362-.534.974-.834,2.035-.901,3.183ZM265.715,358.171v29.829h-3.604v-29.829h3.604ZM278.307,388.521c-1.415,0-2.703-.267-3.864-.801-1.148-.534-2.062-1.315-2.743-2.342-.681-1.028-1.021-2.276-1.021-3.744,0-1.281.254-2.322.761-3.123s1.181-1.428,2.022-1.882c.854-.467,1.795-.814,2.823-1.041,1.028-.227,2.062-.407,3.103-.541,1.335-.174,2.422-.307,3.263-.4s1.461-.254,1.862-.48c.414-.227.621-.614.621-1.161v-.12c0-1.388-.394-2.462-1.181-3.223-.787-.774-1.955-1.161-3.503-1.161-1.615,0-2.876.354-3.784,1.061-.908.694-1.535,1.435-1.882,2.222l-3.463-1.141c.574-1.361,1.348-2.422,2.322-3.183.974-.774,2.049-1.321,3.223-1.642s2.336-.48,3.483-.48c.747,0,1.595.093,2.542.28.961.174,1.882.527,2.763,1.061.894.534,1.628,1.328,2.202,2.382.587,1.041.881,2.436.881,4.184v14.754h-3.543v-3.043h-.24c-.254.521-.661,1.061-1.221,1.622-.561.547-1.288,1.008-2.182,1.381s-1.975.561-3.243.561ZM278.928,385.337c1.335,0,2.462-.26,3.383-.781s1.622-1.194,2.102-2.022c.48-.841.721-1.715.721-2.623v-3.103c-.147.174-.467.334-.961.48-.494.133-1.061.254-1.702.36-.627.107-1.241.2-1.842.28-.587.067-1.054.12-1.401.16-.868.107-1.682.294-2.442.561-.747.254-1.348.634-1.802,1.141-.454.494-.681,1.168-.681,2.022,0,1.161.434,2.042,1.301,2.643.881.587,1.989.881,3.323.881ZM298.667,374.587v13.413h-3.604v-22.382h3.463l.02,4.144c.721-1.588,1.662-2.723,2.823-3.403,1.174-.681,2.516-1.021,4.024-1.021,2.269,0,4.097.701,5.485,2.102s2.082,3.517,2.082,6.346v14.214h-3.604v-13.914c0-1.722-.454-3.07-1.361-4.044-.894-.974-2.122-1.461-3.684-1.461-1.615,0-2.963.527-4.044,1.582-1.068,1.041-1.602,2.516-1.602,4.424ZM327.676,388.48c-1.855,0-3.497-.474-4.925-1.421-1.428-.948-2.542-2.289-3.343-4.024-.801-1.735-1.201-3.79-1.201-6.166,0-2.362.4-4.404,1.201-6.126.814-1.735,1.935-3.07,3.363-4.004,1.428-.934,3.07-1.401,4.925-1.401,1.455,0,2.609.24,3.463.721s1.508,1.028,1.962,1.642c.467.601.821,1.101,1.061,1.501h.28v-11.031h3.604v29.829h-3.483v-3.463h-.4c-.24.414-.601.934-1.081,1.562-.467.614-1.134,1.168-2.002,1.662-.854.48-1.995.721-3.423.721ZM328.216,385.257c2.029,0,3.583-.781,4.665-2.342s1.622-3.59,1.622-6.086c0-2.469-.534-4.464-1.602-5.986-1.054-1.521-2.616-2.282-4.685-2.282-1.415,0-2.596.367-3.543,1.101-.934.734-1.635,1.728-2.102,2.983-.467,1.241-.701,2.636-.701,4.184,0,1.562.234,2.983.701,4.264.48,1.268,1.194,2.282,2.142,3.043.948.747,2.115,1.121,3.503,1.121Z"/>
      </g>
      <g id="g21">
        <path id="text20" class="cls-5" d="M96.105,251.48c-2.349,0-4.404-.46-6.166-1.381-1.748-.921-3.103-2.182-4.064-3.784s-1.441-3.423-1.441-5.465v-19.679h3.804v19.379c0,1.428.314,2.703.941,3.824.641,1.108,1.548,1.982,2.723,2.623s2.576.961,4.204.961,3.023-.32,4.184-.961c1.174-.641,2.075-1.515,2.703-2.623.627-1.121.941-2.396.941-3.824v-19.379h3.804v19.679c0,2.042-.48,3.864-1.441,5.465-.961,1.602-2.316,2.863-4.064,3.784-1.735.921-3.777,1.381-6.126,1.381ZM118.106,237.587v13.413h-3.604v-22.382h3.463l.02,4.144c.721-1.588,1.662-2.723,2.823-3.403,1.174-.681,2.516-1.021,4.024-1.021,2.269,0,4.097.701,5.485,2.102s2.082,3.517,2.082,6.346v14.214h-3.604v-13.914c0-1.722-.454-3.07-1.361-4.044-.894-.974-2.122-1.461-3.684-1.461-1.615,0-2.963.527-4.044,1.582-1.068,1.041-1.602,2.516-1.602,4.424ZM138.727,251v-22.382h3.604v22.382h-3.604ZM140.548,224.955c-.681,0-1.268-.234-1.762-.701s-.741-1.028-.741-1.682c0-.667.247-1.228.741-1.682.494-.467,1.081-.701,1.762-.701.694,0,1.288.234,1.782.701.494.454.741,1.014.741,1.682,0,.654-.247,1.215-.741,1.682s-1.088.701-1.782.701ZM157.465,228.618v3.083h-4.604v13.493c0,1.001.2,1.735.601,2.202.414.454,1.094.681,2.042.681.227,0,.514-.027.861-.08.36-.053.687-.107.981-.16l.741,3.043c-.374.133-.801.234-1.281.3-.467.067-.934.1-1.401.1-1.935,0-3.443-.507-4.524-1.521-1.081-1.028-1.622-2.456-1.622-4.284v-13.773h-3.363v-3.083h3.363v-5.325h3.604v5.325h4.604ZM171.078,251.48c-2.162,0-4.031-.48-5.605-1.441-1.562-.961-2.769-2.302-3.624-4.024-.841-1.722-1.261-3.73-1.261-6.026s.414-4.318,1.241-6.066c.827-1.748,1.995-3.116,3.503-4.104,1.521-.988,3.297-1.481,5.325-1.481,1.188,0,2.356.2,3.503.601,1.161.387,2.209,1.021,3.143,1.902.948.868,1.702,2.015,2.262,3.443.561,1.428.841,3.176.841,5.245v1.501h-16.176c.093,2.336.761,4.131,2.002,5.385,1.255,1.241,2.876,1.862,4.865,1.862,1.321,0,2.456-.287,3.403-.861.961-.587,1.648-1.448,2.062-2.583l3.483.961c-.521,1.695-1.575,3.07-3.163,4.124-1.575,1.041-3.51,1.562-5.806,1.562ZM164.251,237.987h12.492c-.174-1.909-.774-3.457-1.802-4.645-1.014-1.201-2.442-1.802-4.284-1.802-1.281,0-2.389.3-3.323.901-.921.601-1.648,1.388-2.182,2.362-.534.974-.834,2.035-.901,3.183ZM193.96,251.48c-1.855,0-3.497-.474-4.925-1.421-1.428-.948-2.542-2.289-3.343-4.024-.801-1.735-1.201-3.79-1.201-6.166,0-2.362.4-4.404,1.201-6.126.814-1.735,1.935-3.07,3.363-4.004,1.428-.934,3.07-1.401,4.925-1.401,1.455,0,2.609.24,3.463.721s1.508,1.028,1.962,1.642c.467.601.821,1.101,1.061,1.501h.28v-11.031h3.604v29.829h-3.483v-3.463h-.4c-.24.414-.601.934-1.081,1.562-.467.614-1.134,1.168-2.002,1.662-.854.48-1.995.721-3.423.721ZM194.501,248.257c2.029,0,3.583-.781,4.665-2.342s1.622-3.59,1.622-6.086c0-2.469-.534-4.464-1.602-5.986-1.054-1.521-2.616-2.282-4.685-2.282-1.415,0-2.596.367-3.543,1.101-.934.734-1.635,1.728-2.102,2.983-.467,1.241-.701,2.636-.701,4.184,0,1.562.234,2.983.701,4.264.48,1.268,1.194,2.282,2.142,3.043.948.747,2.115,1.121,3.503,1.121ZM232.198,251.521c-3.23,0-5.799-.761-7.708-2.282-1.909-1.535-2.95-3.55-3.123-6.046h3.904c.107,1.121.487,2.049,1.141,2.783.654.721,1.488,1.261,2.502,1.622,1.028.347,2.122.521,3.283.521,1.348,0,2.556-.22,3.624-.661,1.081-.44,1.935-1.061,2.562-1.862s.941-1.728.941-2.783c0-.961-.274-1.742-.821-2.342-.534-.601-1.248-1.094-2.142-1.481s-1.875-.727-2.943-1.021l-3.604-1.021c-2.402-.681-4.271-1.655-5.605-2.923-1.335-1.268-2.002-2.889-2.002-4.865,0-1.682.454-3.15,1.361-4.404.908-1.268,2.135-2.249,3.684-2.943s3.283-1.041,5.205-1.041c1.962,0,3.697.347,5.205,1.041s2.696,1.642,3.563,2.843c.881,1.188,1.348,2.536,1.401,4.044h-3.724c-.174-1.455-.868-2.576-2.082-3.363-1.215-.801-2.709-1.201-4.484-1.201-1.935,0-3.49.46-4.665,1.381-1.174.908-1.762,2.062-1.762,3.463,0,1.041.32,1.882.961,2.522.654.627,1.421,1.121,2.302,1.481.894.347,1.702.621,2.422.821l2.983.821c.801.214,1.682.507,2.643.881.974.374,1.902.874,2.783,1.501.881.614,1.602,1.401,2.162,2.362.574.948.861,2.115.861,3.503,0,1.628-.427,3.096-1.281,4.404-.841,1.308-2.069,2.342-3.684,3.103s-3.57,1.141-5.866,1.141ZM257.322,228.618v3.083h-4.604v13.493c0,1.001.2,1.735.601,2.202.414.454,1.094.681,2.042.681.227,0,.514-.027.861-.08.36-.053.687-.107.981-.16l.741,3.043c-.374.133-.801.234-1.281.3-.467.067-.934.1-1.401.1-1.935,0-3.443-.507-4.524-1.521-1.081-1.028-1.622-2.456-1.622-4.284v-13.773h-3.363v-3.083h3.363v-5.325h3.604v5.325h4.604ZM268.393,251.521c-1.415,0-2.703-.267-3.864-.801-1.148-.534-2.062-1.315-2.743-2.342-.681-1.028-1.021-2.276-1.021-3.744,0-1.281.254-2.322.761-3.123s1.181-1.428,2.022-1.882c.854-.467,1.795-.814,2.823-1.041,1.028-.227,2.062-.407,3.103-.541,1.335-.174,2.422-.307,3.263-.4s1.461-.254,1.862-.48c.414-.227.621-.614.621-1.161v-.12c0-1.388-.394-2.462-1.181-3.223-.787-.774-1.955-1.161-3.503-1.161-1.615,0-2.876.354-3.784,1.061-.908.694-1.535,1.435-1.882,2.222l-3.463-1.141c.574-1.361,1.348-2.422,2.322-3.183.974-.774,2.049-1.321,3.223-1.642s2.336-.48,3.483-.48c.747,0,1.595.093,2.542.28.961.174,1.882.527,2.763,1.061.894.534,1.628,1.328,2.202,2.382.587,1.041.881,2.436.881,4.184v14.754h-3.543v-3.043h-.24c-.254.521-.661,1.061-1.221,1.622-.561.547-1.288,1.008-2.182,1.381-.894.374-1.975.561-3.243.561h0ZM269.014,248.337c1.335,0,2.462-.26,3.383-.781s1.622-1.194,2.102-2.022c.48-.841.721-1.715.721-2.623v-3.103c-.147.174-.467.334-.961.48-.494.133-1.061.254-1.702.36-.627.107-1.241.2-1.842.28-.587.067-1.054.12-1.401.16-.868.107-1.682.294-2.442.561-.747.254-1.348.634-1.802,1.141-.454.494-.681,1.168-.681,2.022,0,1.161.434,2.042,1.301,2.643.881.587,1.989.881,3.323.881h0ZM293.958,228.618v3.083h-4.604v13.493c0,1.001.2,1.735.601,2.202.414.454,1.094.681,2.042.681.227,0,.514-.027.861-.08.36-.053.687-.107.981-.16l.741,3.043c-.374.133-.801.234-1.281.3-.467.067-.934.1-1.401.1-1.935,0-3.443-.507-4.524-1.521-1.081-1.028-1.622-2.456-1.622-4.284v-13.773h-3.363v-3.083h3.363v-5.325h3.604v5.325h4.604ZM307.571,251.48c-2.162,0-4.031-.48-5.605-1.441-1.562-.961-2.769-2.302-3.624-4.024-.841-1.722-1.261-3.73-1.261-6.026s.414-4.318,1.241-6.066c.827-1.748,1.995-3.116,3.503-4.104,1.521-.988,3.297-1.481,5.325-1.481,1.188,0,2.356.2,3.503.601,1.161.387,2.209,1.021,3.143,1.902.948.868,1.702,2.015,2.262,3.443.561,1.428.841,3.176.841,5.245v1.501h-16.176c.093,2.336.761,4.131,2.002,5.385,1.255,1.241,2.876,1.862,4.865,1.862,1.321,0,2.456-.287,3.403-.861.961-.587,1.648-1.448,2.062-2.583l3.483.961c-.521,1.695-1.575,3.07-3.163,4.124-1.575,1.041-3.51,1.562-5.806,1.562ZM300.745,237.987h12.492c-.174-1.909-.774-3.457-1.802-4.645-1.014-1.201-2.442-1.802-4.284-1.802-1.281,0-2.389.3-3.323.901-.921.601-1.648,1.388-2.182,2.362-.534.974-.834,2.035-.901,3.183ZM329.673,251.48c-2.296,0-4.204-.5-5.726-1.501s-2.482-2.469-2.883-4.404l3.423-.821c.32,1.228.921,2.129,1.802,2.703.894.574,2.009.861,3.343.861,1.562,0,2.803-.334,3.724-1.001.934-.667,1.401-1.461,1.401-2.382,0-1.535-1.094-2.562-3.283-3.083l-3.724-.881c-4.004-.948-6.006-2.983-6.006-6.106,0-1.281.36-2.409,1.081-3.383.721-.988,1.702-1.755,2.943-2.302,1.255-.561,2.676-.841,4.264-.841,2.309,0,4.097.507,5.365,1.521,1.281,1.001,2.175,2.289,2.683,3.864l-3.263.841c-.307-.801-.821-1.528-1.542-2.182-.707-.654-1.782-.981-3.223-.981-1.335,0-2.449.307-3.343.921-.881.614-1.321,1.388-1.321,2.322,0,.827.3,1.495.901,2.002.601.494,1.555.894,2.863,1.201l3.383.801c2.029.48,3.53,1.228,4.504,2.242.974,1.001,1.461,2.269,1.461,3.804,0,1.308-.374,2.476-1.121,3.503-.734,1.014-1.768,1.815-3.103,2.402-1.321.587-2.856.881-4.604.881Z"/>
      </g>
      <g id="g22">
        <path id="text21" class="cls-5" d="M1024.169,96.75c-5.771,0-10.292-1.406-13.562-4.219-3.25-2.833-4.875-6.74-4.875-11.719h8.094c.042,2.812.969,5.01,2.781,6.594,1.833,1.583,4.375,2.375,7.625,2.375,2.896,0,5.229-.604,7-1.812,1.771-1.229,2.656-2.865,2.656-4.906,0-1.646-.667-2.979-2-4-1.333-1.042-3.552-1.917-6.656-2.625l-5-1.125c-4.646-1.062-8.073-2.635-10.281-4.719-2.208-2.083-3.312-4.76-3.312-8.031,0-2.771.708-5.198,2.125-7.281,1.438-2.083,3.438-3.698,6-4.844,2.583-1.167,5.583-1.75,9-1.75,5.208,0,9.333,1.323,12.375,3.969,3.062,2.646,4.656,6.281,4.781,10.906h-7.844c-.167-2.458-1.083-4.385-2.75-5.781s-3.865-2.094-6.594-2.094c-2.583,0-4.698.604-6.344,1.812s-2.469,2.76-2.469,4.656c0,1.562.646,2.833,1.938,3.812,1.312.958,3.49,1.781,6.531,2.469l4.719,1.094c4.833,1.062,8.375,2.646,10.625,4.75s3.375,4.865,3.375,8.281c0,2.896-.729,5.406-2.188,7.531s-3.531,3.771-6.219,4.938c-2.688,1.146-5.865,1.719-9.531,1.719ZM1057.95,96.531c-3.292,0-6.021-.823-8.188-2.469-2.146-1.667-3.219-4.146-3.219-7.438,0-2.5.604-4.427,1.812-5.781,1.229-1.375,2.823-2.375,4.781-3,1.979-.625,4.104-1.052,6.375-1.281,3.062-.354,5.198-.667,6.406-.938s1.812-.969,1.812-2.094v-.25c0-1.417-.542-2.573-1.625-3.469-1.062-.896-2.531-1.344-4.406-1.344-1.917,0-3.479.448-4.688,1.344-1.188.896-1.833,2.042-1.938,3.438h-7.594c.188-3.271,1.552-5.906,4.094-7.906s5.969-3,10.281-3,7.646,1,10.062,3,3.625,4.719,3.625,8.156v22.5h-7.75v-4.656h-.125c-.792,1.458-1.938,2.688-3.438,3.688s-3.594,1.5-6.281,1.5ZM1059.887,90.688c2.583,0,4.542-.667,5.875-2,1.333-1.354,2-2.99,2-4.906v-3.562c-.479.312-1.406.604-2.781.875-1.375.25-2.875.5-4.5.75-1.688.25-3.156.729-4.406,1.438-1.229.688-1.844,1.781-1.844,3.281,0,1.292.51,2.302,1.531,3.031s2.396,1.094,4.125,1.094ZM1090.387,49.438v46.562h-7.875v-46.562h7.875ZM1111.95,96.75c-3.292,0-6.146-.74-8.562-2.219-2.417-1.479-4.281-3.51-5.594-6.094-1.292-2.604-1.938-5.573-1.938-8.906,0-3.354.667-6.323,2-8.906,1.354-2.604,3.219-4.646,5.594-6.125,2.375-1.5,5.104-2.25,8.188-2.25,3.167,0,5.938.729,8.312,2.188,2.375,1.458,4.219,3.479,5.531,6.062,1.312,2.562,1.969,5.531,1.969,8.906v2.156h-23.875c.104,2.688.896,4.854,2.375,6.5,1.479,1.646,3.542,2.469,6.188,2.469,1.979,0,3.615-.427,4.906-1.281,1.292-.875,2.167-2.021,2.625-3.438h7.375c-.417,2.146-1.333,4.042-2.75,5.688-1.396,1.646-3.156,2.938-5.281,3.875-2.125.917-4.479,1.375-7.062,1.375ZM1103.637,76.125h16.25c-.25-2.354-1.104-4.208-2.562-5.562-1.438-1.375-3.292-2.062-5.562-2.062-2.292,0-4.156.688-5.594,2.062-1.417,1.354-2.26,3.208-2.531,5.562ZM1145.731,96.781c-4.021,0-7.385-.938-10.094-2.812-2.688-1.896-4.156-4.615-4.406-8.156h7.781c.167,1.604.812,2.854,1.938,3.75,1.125.875,2.677,1.312,4.656,1.312,1.896,0,3.385-.375,4.469-1.125,1.104-.75,1.656-1.708,1.656-2.875,0-1-.406-1.802-1.219-2.406s-1.906-1.052-3.281-1.344l-5.625-1.156c-6.417-1.333-9.625-4.51-9.625-9.531,0-3.042,1.208-5.49,3.625-7.344,2.417-1.875,5.635-2.812,9.656-2.812,4,0,7.25.99,9.75,2.969,2.521,1.958,3.823,4.635,3.906,8.031h-7.406c-.042-1.479-.615-2.698-1.719-3.656s-2.552-1.438-4.344-1.438c-1.729,0-3.094.385-4.094,1.156s-1.5,1.719-1.5,2.844c0,.979.385,1.781,1.156,2.406.771.604,1.844,1.062,3.219,1.375l5.938,1.219c3.271.688,5.677,1.771,7.219,3.25,1.562,1.479,2.344,3.427,2.344,5.844,0,2.146-.604,4.01-1.812,5.594-1.188,1.562-2.833,2.771-4.938,3.625-2.104.854-4.521,1.281-7.25,1.281ZM1197.387,96.656c-2.167,0-4.125-.469-5.875-1.406-1.729-.938-3.104-2.365-4.125-4.281h-.062v5.031h-7.75v-46.562h7.875v18.25h.062c1.062-1.812,2.448-3.156,4.156-4.031s3.625-1.312,5.75-1.312c2.833,0,5.312.729,7.438,2.188,2.146,1.438,3.812,3.448,5,6.031,1.208,2.562,1.812,5.531,1.812,8.906,0,3.438-.594,6.448-1.781,9.031-1.167,2.562-2.823,4.562-4.969,6s-4.656,2.156-7.531,2.156ZM1195.544,90.062c2.438,0,4.406-.906,5.906-2.719,1.5-1.833,2.25-4.458,2.25-7.875,0-3.396-.75-6.01-2.25-7.844s-3.469-2.75-5.906-2.75c-2.583,0-4.656.969-6.219,2.906-1.542,1.917-2.312,4.479-2.312,7.688s.771,5.781,2.312,7.719c1.562,1.917,3.635,2.875,6.219,2.875ZM1216.544,109.062v-6.406h3.906c1.062,0,1.885-.292,2.469-.875.604-.562,1.135-1.49,1.594-2.781l1.219-3.188-12.719-32.812h8.344l6.062,17.188c.417,1.229.823,2.458,1.219,3.688.396,1.208.781,2.417,1.156,3.625.75-2.417,1.542-4.854,2.375-7.312l6.031-17.188h8.25l-14.75,38.438c-1.958,5.083-5.292,7.625-10,7.625h-5.156ZM1285.669,96.75c-4.292,0-8.083-.99-11.375-2.969-3.292-1.979-5.875-4.771-7.75-8.375-1.875-3.604-2.812-7.823-2.812-12.656,0-4.875.938-9.115,2.812-12.719s4.458-6.396,7.75-8.375,7.083-2.969,11.375-2.969c3.5,0,6.667.688,9.5,2.062s5.167,3.312,7,5.812c1.854,2.5,3.042,5.448,3.562,8.844h-8.406c-.625-2.958-1.969-5.25-4.031-6.875s-4.583-2.438-7.562-2.438c-2.833,0-5.281.688-7.344,2.062-2.042,1.375-3.615,3.312-4.719,5.812-1.083,2.5-1.625,5.427-1.625,8.781,0,3.333.542,6.25,1.625,8.75,1.104,2.479,2.677,4.406,4.719,5.781s4.49,2.062,7.344,2.062c2.958,0,5.469-.802,7.531-2.406,2.062-1.604,3.427-3.885,4.094-6.844h8.375c-.521,3.396-1.708,6.344-3.562,8.844-1.833,2.479-4.167,4.406-7,5.781-2.833,1.354-6,2.031-9.5,2.031ZM1326.106,96.75c-3.25,0-6.094-.719-8.531-2.156-2.438-1.458-4.344-3.479-5.719-6.062-1.354-2.583-2.031-5.583-2.031-9s.677-6.417,2.031-9c1.375-2.604,3.281-4.635,5.719-6.094,2.438-1.458,5.281-2.188,8.531-2.188,3.229,0,6.062.729,8.5,2.188,2.458,1.458,4.365,3.49,5.719,6.094,1.375,2.583,2.062,5.583,2.062,9s-.688,6.417-2.062,9c-1.354,2.583-3.26,4.604-5.719,6.062-2.438,1.438-5.271,2.156-8.5,2.156ZM1326.106,90.156c2.521,0,4.531-.948,6.031-2.844,1.5-1.896,2.25-4.49,2.25-7.781s-.75-5.896-2.25-7.812-3.51-2.875-6.031-2.875c-2.542,0-4.562.958-6.062,2.875-1.5,1.896-2.25,4.5-2.25,7.812,0,3.292.75,5.885,2.25,7.781,1.5,1.896,3.521,2.844,6.062,2.844ZM1359.575,96.656c-3.458,0-6.281-1.115-8.469-3.344-2.188-2.229-3.281-5.458-3.281-9.688v-20.625h7.875v19.375c0,2.417.583,4.25,1.75,5.5s2.802,1.875,4.906,1.875c2.083,0,3.802-.646,5.156-1.938,1.375-1.292,2.062-3.344,2.062-6.156v-18.656h7.906v33h-7.75v-5.062c-2.312,3.812-5.698,5.719-10.156,5.719ZM1392.356,77.344v18.656h-7.875v-33h7.75v5.062c2.292-3.812,5.667-5.719,10.125-5.719,3.458,0,6.281,1.115,8.469,3.344,2.208,2.229,3.312,5.458,3.312,9.688v20.625h-7.906v-19.375c0-2.417-.583-4.25-1.75-5.5s-2.802-1.875-4.906-1.875c-2.062,0-3.781.646-5.156,1.938s-2.062,3.344-2.062,6.156ZM1438.544,63v6.344h-6.719v17.188c0,1.188.24,2.01.719,2.469.479.438,1.354.656,2.625.656h3.375v6.344h-4.75c-3.354,0-5.844-.677-7.469-2.031-1.604-1.354-2.406-3.448-2.406-6.281v-18.344h-5.75v-6.344h5.75v-9h7.906v9h6.719ZM1443.512,96v-33h7.594v5.469h.094c.604-1.875,1.552-3.302,2.844-4.281,1.312-1,3.031-1.5,5.156-1.5.542,0,1.021.021,1.438.062.437.021.812.042,1.125.062v7c-.292-.042-.792-.094-1.5-.156-.708-.062-1.448-.094-2.219-.094-1.875,0-3.458.646-4.75,1.938-1.271,1.292-1.906,3.229-1.906,5.812v18.688h-7.875ZM1467.669,109.062v-6.406h3.906c1.062,0,1.885-.292,2.469-.875.604-.562,1.135-1.49,1.594-2.781l1.219-3.188-12.719-32.812h8.344l6.062,17.188c.417,1.229.823,2.458,1.219,3.688.396,1.208.781,2.417,1.156,3.625.75-2.417,1.542-4.854,2.375-7.312l6.031-17.188h8.25l-14.75,38.438c-1.958,5.083-5.292,7.625-10,7.625h-5.156Z"/>
      </g>
      <g id="g23">
        <path id="rect22" class="cls-2" d="M2117,315h23v22h-23v-22Z"/>
      </g>
      <g id="g24">
        <path id="text23" class="cls-5" d="M2164.345,339.46c-2.242,0-4.217-.454-5.926-1.361-1.708-.921-3.043-2.175-4.004-3.764-.948-1.602-1.421-3.423-1.421-5.465v-19.699h2.843v19.499c0,1.562.354,2.956,1.061,4.184.707,1.228,1.695,2.195,2.963,2.903,1.281.707,2.776,1.061,4.484,1.061s3.196-.354,4.464-1.061c1.281-.707,2.269-1.675,2.963-2.903.707-1.228,1.061-2.623,1.061-4.184v-19.499h2.843v19.699c0,2.042-.48,3.864-1.441,5.465-.948,1.588-2.276,2.843-3.984,3.764-1.695.908-3.664,1.361-5.906,1.361ZM2185.565,325.046v13.954h-2.723v-22.382h2.623l.02,4.124c.681-1.548,1.635-2.669,2.863-3.363,1.228-.707,2.603-1.061,4.124-1.061,2.269,0,4.111.707,5.525,2.122,1.415,1.401,2.122,3.43,2.122,6.086v14.474h-2.703v-14.274c0-1.828-.514-3.27-1.542-4.324-1.028-1.068-2.402-1.602-4.124-1.602-1.762,0-3.236.561-4.424,1.682-1.174,1.121-1.762,2.643-1.762,4.564ZM2206.966,339v-22.382h2.723v22.382h-2.723ZM2208.348,312.474c-.547,0-1.014-.187-1.401-.561s-.581-.821-.581-1.341.194-.968.581-1.341.854-.561,1.401-.561,1.014.187,1.401.561.581.821.581,1.341-.194.968-.581,1.341-.854.561-1.401.561ZM2224.103,316.618v2.362h-4.604v14.734c0,2.242,1.001,3.263,3.003,3.063.187,0,.414-.02.681-.06.28-.053.541-.107.781-.16l.561,2.342c-.574.187-1.255.294-2.042.32-1.775.12-3.17-.3-4.184-1.261-1.014-.974-1.521-2.329-1.521-4.064v-14.915h-3.323v-2.362h3.323v-5.325h2.723v5.325h4.604ZM2237.496,339.48c-2.095,0-3.91-.487-5.445-1.461-1.521-.988-2.703-2.349-3.543-4.084-.827-1.735-1.241-3.73-1.241-5.986s.407-4.257,1.221-6.006c.827-1.748,1.975-3.123,3.443-4.124,1.481-1.001,3.196-1.501,5.145-1.501,1.628,0,3.17.4,4.625,1.201s2.636,2.022,3.543,3.664,1.361,3.73,1.361,6.266v1.181h-16.596c.053,2.549.754,4.591,2.102,6.126,1.348,1.521,3.15,2.282,5.405,2.282,1.562,0,2.843-.36,3.844-1.081s1.708-1.575,2.122-2.562l2.583.821c-.507,1.401-1.501,2.629-2.983,3.684-1.468,1.054-3.33,1.582-5.585,1.582ZM2230.009,326.288h13.854c-.147-2.175-.814-3.971-2.002-5.385-1.188-1.428-2.783-2.142-4.785-2.142-1.348,0-2.536.34-3.563,1.021s-1.848,1.595-2.462,2.743c-.614,1.134-.961,2.389-1.041,3.764ZM2260.198,339.48c-1.828,0-3.43-.48-4.805-1.441-1.375-.974-2.449-2.329-3.223-4.064-.761-1.748-1.141-3.784-1.141-6.106,0-2.309.387-4.324,1.161-6.046.774-1.735,1.848-3.083,3.223-4.044,1.388-.974,2.99-1.461,4.805-1.461,1.361,0,2.496.247,3.403.741.908.48,1.635,1.074,2.182,1.782.561.707.988,1.401,1.281,2.082h.22v-11.751h2.703v29.829h-2.623v-4.184h-.3c-.294.694-.721,1.401-1.281,2.122s-1.301,1.328-2.222,1.822c-.908.48-2.035.721-3.383.721ZM2260.559,337.018c1.441,0,2.663-.394,3.664-1.181,1.014-.787,1.782-1.868,2.302-3.243.534-1.388.801-2.97.801-4.745s-.267-3.343-.801-4.705c-.521-1.361-1.288-2.429-2.302-3.203-1.001-.774-2.222-1.161-3.664-1.161-1.468,0-2.709.4-3.724,1.201-1.001.801-1.762,1.889-2.282,3.263-.521,1.361-.781,2.896-.781,4.604,0,1.722.26,3.277.781,4.665.534,1.375,1.301,2.469,2.302,3.283,1.014.814,2.249,1.221,3.704,1.221ZM2288.926,339v-29.829h2.843v10.35l-.02,6.066c.908-1.121,1.808-2.202,2.703-3.243.908-1.041,1.855-2.095,2.843-3.163l9.269-10.01h3.744l-12.052,12.933,12.052,16.896h-3.383l-10.63-14.955-4.524,4.805v10.15h-2.843ZM2315.572,339v-22.382h2.723v22.382h-2.723ZM2316.954,312.474c-.547,0-1.014-.187-1.401-.561s-.581-.821-.581-1.341.194-.968.581-1.341.854-.561,1.401-.561,1.014.187,1.401.561.581.821.581,1.341-.194.968-.581,1.341-.854.561-1.401.561ZM2327.864,325.046v13.954h-2.723v-22.382h2.623l.02,4.124c.681-1.548,1.635-2.669,2.863-3.363,1.228-.707,2.603-1.061,4.124-1.061,2.269,0,4.111.707,5.525,2.122,1.415,1.401,2.122,3.43,2.122,6.086v14.474h-2.703v-14.274c0-1.828-.514-3.27-1.542-4.324-1.028-1.068-2.402-1.602-4.124-1.602-1.762,0-3.236.561-4.424,1.682-1.174,1.121-1.762,2.643-1.762,4.564h0ZM2357.833,347.849c-2.282,0-4.157-.427-5.625-1.281-1.455-.854-2.502-1.942-3.143-3.263l2.242-1.361c.48.868,1.221,1.668,2.222,2.402s2.436,1.101,4.304,1.101c1.975,0,3.563-.494,4.765-1.481,1.201-.974,1.802-2.489,1.802-4.544v-5.025h-.26c-.294.694-.727,1.381-1.301,2.062-.561.667-1.295,1.221-2.202,1.662-.908.427-2.029.641-3.363.641-1.775,0-3.357-.434-4.745-1.301-1.375-.881-2.456-2.142-3.243-3.784-.787-1.642-1.181-3.61-1.181-5.906,0-2.282.387-4.278,1.161-5.986.774-1.722,1.855-3.063,3.243-4.024,1.388-.961,2.996-1.441,4.825-1.441,1.361,0,2.496.247,3.403.741.908.48,1.635,1.074,2.182,1.782.561.707.988,1.401,1.281,2.082h.28v-4.304h2.643v22.922c0,1.895-.407,3.457-1.221,4.685-.801,1.228-1.902,2.135-3.303,2.723-1.388.601-2.976.901-4.765.901h0ZM2357.673,336.317c2.135,0,3.797-.761,4.985-2.282,1.188-1.535,1.782-3.644,1.782-6.326,0-1.722-.267-3.257-.801-4.604-.521-1.348-1.281-2.402-2.282-3.163-1.001-.774-2.229-1.161-3.684-1.161-1.468,0-2.716.4-3.744,1.201-1.014.787-1.782,1.855-2.302,3.203-.521,1.348-.781,2.856-.781,4.524,0,2.549.587,4.625,1.762,6.226,1.188,1.588,2.876,2.382,5.065,2.382ZM2381.977,339.48c-1.828,0-3.43-.48-4.805-1.441-1.375-.974-2.449-2.329-3.223-4.064-.761-1.748-1.141-3.784-1.141-6.106,0-2.309.387-4.324,1.161-6.046.774-1.735,1.848-3.083,3.223-4.044,1.388-.974,2.99-1.461,4.805-1.461,1.361,0,2.496.247,3.403.741.908.48,1.635,1.074,2.182,1.782.561.707.988,1.401,1.281,2.082h.22v-11.751h2.703v29.829h-2.623v-4.184h-.3c-.294.694-.721,1.401-1.281,2.122s-1.301,1.328-2.222,1.822c-.908.48-2.035.721-3.383.721ZM2382.337,337.018c1.441,0,2.663-.394,3.664-1.181,1.014-.787,1.782-1.868,2.302-3.243.534-1.388.801-2.97.801-4.745s-.267-3.343-.801-4.705c-.521-1.361-1.288-2.429-2.302-3.203-1.001-.774-2.222-1.161-3.664-1.161-1.468,0-2.709.4-3.724,1.201-1.001.801-1.762,1.889-2.282,3.263-.521,1.361-.781,2.896-.781,4.604,0,1.722.26,3.277.781,4.665.534,1.375,1.301,2.469,2.302,3.283,1.014.814,2.249,1.221,3.704,1.221ZM2407.382,339.48c-1.949,0-3.664-.487-5.145-1.461-1.481-.988-2.643-2.349-3.483-4.084-.841-1.735-1.261-3.737-1.261-6.006,0-2.296.42-4.311,1.261-6.046.841-1.748,2.002-3.11,3.483-4.084,1.481-.988,3.196-1.481,5.145-1.481,1.935,0,3.644.494,5.125,1.481,1.495.974,2.663,2.336,3.503,4.084.841,1.735,1.261,3.75,1.261,6.046,0,2.269-.42,4.271-1.261,6.006-.841,1.735-2.009,3.096-3.503,4.084-1.481.974-3.19,1.461-5.125,1.461ZM2407.382,337.018c1.535,0,2.829-.414,3.884-1.241,1.068-.827,1.882-1.929,2.442-3.303s.841-2.889.841-4.544c0-1.668-.28-3.19-.841-4.564-.561-1.388-1.375-2.496-2.442-3.323-1.068-.841-2.362-1.261-3.884-1.261s-2.816.42-3.884,1.261c-1.054.827-1.862,1.935-2.422,3.323-.561,1.375-.841,2.896-.841,4.564,0,1.655.274,3.17.821,4.544.561,1.375,1.375,2.476,2.442,3.303,1.068.827,2.362,1.241,3.884,1.241ZM2422.957,339v-22.382h2.643l.02,4.144c.561-1.535,1.435-2.669,2.623-3.403,1.188-.747,2.442-1.121,3.764-1.121,1.495,0,2.749.427,3.764,1.281,1.028.854,1.735,2.009,2.122,3.463.534-1.481,1.428-2.643,2.683-3.483,1.268-.841,2.716-1.261,4.344-1.261,1.989,0,3.644.654,4.965,1.962,1.335,1.308,2.002,3.216,2.002,5.726v15.075h-2.723v-14.995c0-1.802-.48-3.13-1.441-3.984-.948-.854-2.122-1.281-3.523-1.281-1.615,0-2.923.507-3.924,1.521-1.001,1.001-1.501,2.329-1.501,3.984v14.754h-2.703v-15.235c0-1.548-.454-2.769-1.361-3.664-.894-.908-2.055-1.361-3.483-1.361-1.495,0-2.796.514-3.904,1.542-1.094,1.028-1.642,2.469-1.642,4.324v14.394h-2.723Z"/>
      </g>
      <g id="g25">
        <path id="rect24" class="cls-4" d="M2117,392h23v22h-23v-22Z"/>
      </g>
      <g id="g26">
        <path id="text25" class="cls-5" d="M2156.037,386.171v29.829h-2.843v-29.829h2.843ZM2163.424,416v-22.382h2.643v3.483h.2c.44-1.148,1.215-2.062,2.322-2.743,1.121-.694,2.376-1.041,3.764-1.041.214,0,.454.007.721.02.267,0,.487.007.661.02v2.723c-.093-.013-.294-.04-.601-.08-.307-.04-.641-.06-1.001-.06-1.735,0-3.17.541-4.304,1.622-1.121,1.068-1.682,2.429-1.682,4.084v14.354h-2.723ZM2186.546,416.48c-2.095,0-3.91-.487-5.445-1.461-1.521-.988-2.703-2.349-3.543-4.084-.827-1.735-1.241-3.73-1.241-5.986s.407-4.257,1.221-6.006c.827-1.748,1.975-3.123,3.443-4.124,1.481-1.001,3.196-1.501,5.145-1.501,1.628,0,3.17.4,4.625,1.201s2.636,2.022,3.543,3.664,1.361,3.73,1.361,6.266v1.181h-16.596c.053,2.549.754,4.591,2.102,6.126,1.348,1.521,3.15,2.282,5.405,2.282,1.562,0,2.843-.36,3.844-1.081s1.708-1.575,2.122-2.562l2.583.821c-.507,1.401-1.501,2.629-2.983,3.684-1.468,1.054-3.33,1.582-5.585,1.582ZM2179.059,403.288h13.854c-.147-2.175-.814-3.971-2.002-5.385-1.188-1.428-2.783-2.142-4.785-2.142-1.348,0-2.536.34-3.563,1.021s-1.848,1.595-2.462,2.743c-.614,1.134-.961,2.389-1.041,3.764ZM2203.963,386.171v29.829h-2.723v-29.829h2.723ZM2216.696,416.5c-1.361,0-2.603-.26-3.724-.781-1.108-.534-1.995-1.301-2.663-2.302-.654-1.001-.981-2.229-.981-3.684,0-1.468.367-2.636,1.101-3.503.734-.881,1.748-1.542,3.043-1.982,1.295-.454,2.783-.781,4.464-.981,1.855-.227,3.29-.434,4.304-.621,1.028-.187,1.542-.707,1.542-1.562v-.521c0-1.495-.454-2.669-1.361-3.523-.908-.868-2.202-1.301-3.884-1.301-1.602,0-2.903.354-3.904,1.061-.988.694-1.675,1.508-2.062,2.442l-2.603-.881c.494-1.215,1.188-2.189,2.082-2.923s1.895-1.268,3.003-1.602c1.121-.347,2.262-.521,3.423-.521.881,0,1.788.12,2.723.36.934.227,1.802.621,2.603,1.181.801.547,1.448,1.308,1.942,2.282.494.961.741,2.182.741,3.664v15.195h-2.663v-3.543h-.2c-.494,1.028-1.321,1.962-2.482,2.803-1.148.827-2.629,1.241-4.444,1.241ZM2217.096,414.078c1.361,0,2.542-.3,3.543-.901,1.001-.614,1.775-1.421,2.322-2.422.547-1.014.821-2.129.821-3.343v-3.183c-.254.24-.734.454-1.441.641-.707.174-1.468.32-2.282.44-.814.107-1.515.2-2.102.28-1.882.227-3.337.667-4.364,1.321-1.028.641-1.542,1.622-1.542,2.943,0,1.335.48,2.376,1.441,3.123.961.734,2.162,1.101,3.604,1.101ZM2236.055,402.046v13.954h-2.723v-22.382h2.623l.02,4.124c.681-1.548,1.635-2.669,2.863-3.363,1.228-.707,2.603-1.061,4.124-1.061,2.269,0,4.111.707,5.525,2.122,1.415,1.401,2.122,3.43,2.122,6.086v14.474h-2.703v-14.274c0-1.828-.514-3.27-1.542-4.324-1.028-1.068-2.402-1.602-4.124-1.602-1.762,0-3.236.561-4.424,1.682-1.174,1.121-1.762,2.643-1.762,4.564ZM2265.463,416.48c-1.828,0-3.43-.48-4.805-1.441-1.375-.974-2.449-2.329-3.223-4.064-.761-1.748-1.141-3.784-1.141-6.106,0-2.309.387-4.324,1.161-6.046.774-1.735,1.848-3.083,3.223-4.044,1.388-.974,2.99-1.461,4.805-1.461,1.361,0,2.496.247,3.403.741.908.48,1.635,1.074,2.182,1.782.561.707.988,1.401,1.281,2.082h.22v-11.751h2.703v29.829h-2.623v-4.184h-.3c-.294.694-.721,1.401-1.281,2.122s-1.301,1.328-2.222,1.822c-.908.48-2.035.721-3.383.721ZM2265.824,414.018c1.441,0,2.663-.394,3.664-1.181,1.014-.787,1.782-1.868,2.302-3.243.534-1.388.801-2.97.801-4.745s-.267-3.343-.801-4.705c-.521-1.361-1.288-2.429-2.302-3.203-1.001-.774-2.222-1.161-3.664-1.161-1.468,0-2.709.4-3.724,1.201-1.001.801-1.762,1.889-2.282,3.263-.521,1.361-.781,2.896-.781,4.604,0,1.722.26,3.277.781,4.665.534,1.375,1.301,2.469,2.302,3.283,1.014.814,2.249,1.221,3.704,1.221h0Z"/>
      </g>
      <g id="g27">
        <path id="rect26" class="cls-6" d="M2117,469h23v22h-23v-22Z"/>
      </g>
      <g id="g28">
        <path id="text27" class="cls-5" d="M2164.345,493.46c-2.242,0-4.217-.454-5.926-1.361-1.708-.921-3.043-2.175-4.004-3.764-.948-1.602-1.421-3.423-1.421-5.465v-19.699h2.843v19.499c0,1.562.354,2.956,1.061,4.184.707,1.228,1.695,2.195,2.963,2.903,1.281.707,2.776,1.061,4.484,1.061s3.196-.354,4.464-1.061c1.281-.707,2.269-1.675,2.963-2.903.707-1.228,1.061-2.623,1.061-4.184v-19.499h2.843v19.699c0,2.042-.48,3.864-1.441,5.465-.948,1.588-2.276,2.843-3.984,3.764-1.695.908-3.664,1.361-5.906,1.361ZM2185.565,479.046v13.954h-2.723v-22.382h2.623l.02,4.124c.681-1.548,1.635-2.669,2.863-3.363,1.228-.707,2.603-1.061,4.124-1.061,2.269,0,4.111.707,5.525,2.122,1.415,1.401,2.122,3.43,2.122,6.086v14.474h-2.703v-14.274c0-1.828-.514-3.27-1.542-4.324-1.028-1.068-2.402-1.602-4.124-1.602-1.762,0-3.236.561-4.424,1.682-1.174,1.121-1.762,2.643-1.762,4.564ZM2206.966,493v-22.382h2.723v22.382h-2.723ZM2208.348,466.474c-.547,0-1.014-.187-1.401-.561s-.581-.821-.581-1.341.194-.968.581-1.341.854-.561,1.401-.561,1.014.187,1.401.561.581.821.581,1.341-.194.968-.581,1.341-.854.561-1.401.561ZM2224.103,470.618v2.362h-4.604v14.734c0,2.242,1.001,3.263,3.003,3.063.187,0,.414-.02.681-.06.28-.053.541-.107.781-.16l.561,2.342c-.574.187-1.255.294-2.042.32-1.775.12-3.17-.3-4.184-1.261-1.014-.974-1.521-2.329-1.521-4.064v-14.915h-3.323v-2.362h3.323v-5.325h2.723v5.325h4.604ZM2237.496,493.48c-2.095,0-3.91-.487-5.445-1.461-1.521-.988-2.703-2.349-3.543-4.084-.827-1.735-1.241-3.73-1.241-5.986s.407-4.257,1.221-6.006c.827-1.748,1.975-3.123,3.443-4.124,1.481-1.001,3.196-1.501,5.145-1.501,1.628,0,3.17.4,4.625,1.201s2.636,2.022,3.543,3.664,1.361,3.73,1.361,6.266v1.181h-16.596c.053,2.549.754,4.591,2.102,6.126,1.348,1.521,3.15,2.282,5.405,2.282,1.562,0,2.843-.36,3.844-1.081s1.708-1.575,2.122-2.562l2.583.821c-.507,1.401-1.501,2.629-2.983,3.684-1.468,1.054-3.33,1.582-5.585,1.582ZM2230.009,480.288h13.854c-.147-2.175-.814-3.971-2.002-5.385-1.188-1.428-2.783-2.142-4.785-2.142-1.348,0-2.536.34-3.563,1.021s-1.848,1.595-2.462,2.743c-.614,1.134-.961,2.389-1.041,3.764ZM2260.198,493.48c-1.828,0-3.43-.48-4.805-1.441-1.375-.974-2.449-2.329-3.223-4.064-.761-1.748-1.141-3.784-1.141-6.106,0-2.309.387-4.324,1.161-6.046.774-1.735,1.848-3.083,3.223-4.044,1.388-.974,2.99-1.461,4.805-1.461,1.361,0,2.496.247,3.403.741.908.48,1.635,1.074,2.182,1.782.561.707.988,1.401,1.281,2.082h.22v-11.751h2.703v29.829h-2.623v-4.184h-.3c-.294.694-.721,1.401-1.281,2.122s-1.301,1.328-2.222,1.822c-.908.48-2.035.721-3.383.721ZM2260.559,491.018c1.441,0,2.663-.394,3.664-1.181,1.014-.787,1.782-1.868,2.302-3.243.534-1.388.801-2.97.801-4.745s-.267-3.343-.801-4.705c-.521-1.361-1.288-2.429-2.302-3.203-1.001-.774-2.222-1.161-3.664-1.161-1.468,0-2.709.4-3.724,1.201-1.001.801-1.762,1.889-2.282,3.263-.521,1.361-.781,2.896-.781,4.604,0,1.722.26,3.277.781,4.665.534,1.375,1.301,2.469,2.302,3.283,1.014.814,2.249,1.221,3.704,1.221ZM2297.895,493.5c-3.056,0-5.499-.741-7.327-2.222s-2.823-3.423-2.983-5.826h2.903c.147,1.775.921,3.13,2.322,4.064,1.415.934,3.11,1.401,5.085,1.401,1.481,0,2.789-.247,3.924-.741,1.148-.494,2.049-1.181,2.703-2.062s.981-1.915.981-3.103c0-1.495-.567-2.636-1.702-3.423s-2.636-1.461-4.504-2.022l-3.523-1.021c-2.376-.694-4.204-1.662-5.485-2.903-1.281-1.255-1.922-2.829-1.922-4.725,0-1.615.427-3.036,1.281-4.264.868-1.228,2.042-2.182,3.523-2.863,1.481-.694,3.143-1.041,4.985-1.041,1.882,0,3.537.347,4.965,1.041,1.441.694,2.576,1.635,3.403,2.823.841,1.188,1.295,2.542,1.361,4.064h-2.783c-.174-1.655-.901-2.963-2.182-3.924s-2.896-1.441-4.845-1.441c-2.042,0-3.71.521-5.005,1.562-1.281,1.028-1.922,2.336-1.922,3.924,0,1.028.287,1.889.861,2.583.587.681,1.328,1.241,2.222,1.682.908.44,1.842.801,2.803,1.081l3.123.901c1.281.36,2.542.854,3.784,1.481,1.255.627,2.289,1.461,3.103,2.502.827,1.041,1.241,2.382,1.241,4.024,0,1.615-.414,3.056-1.241,4.324-.827,1.268-2.022,2.276-3.583,3.023-1.548.734-3.403,1.101-5.565,1.101ZM2321.878,470.618v2.362h-4.604v14.734c0,2.242,1.001,3.263,3.003,3.063.187,0,.414-.02.681-.06.28-.053.541-.107.781-.16l.561,2.342c-.574.187-1.255.294-2.042.32-1.775.12-3.17-.3-4.184-1.261-1.014-.974-1.521-2.329-1.521-4.064v-14.915h-3.323v-2.362h3.323v-5.325h2.723v5.325h4.605ZM2332.689,493.5c-1.361,0-2.603-.26-3.724-.781-1.108-.534-1.995-1.301-2.663-2.302-.654-1.001-.981-2.229-.981-3.684,0-1.468.367-2.636,1.101-3.503.734-.881,1.748-1.542,3.043-1.982,1.295-.454,2.783-.781,4.464-.981,1.855-.227,3.29-.434,4.304-.621,1.028-.187,1.542-.707,1.542-1.562v-.521c0-1.495-.454-2.669-1.361-3.523-.908-.868-2.202-1.301-3.884-1.301-1.602,0-2.903.354-3.904,1.061-.988.694-1.675,1.508-2.062,2.442l-2.603-.881c.494-1.215,1.188-2.189,2.082-2.923.894-.734,1.895-1.268,3.003-1.602,1.121-.347,2.262-.521,3.423-.521.881,0,1.788.12,2.723.36.934.227,1.802.621,2.603,1.181.801.547,1.448,1.308,1.942,2.282.494.961.741,2.182.741,3.664v15.195h-2.663v-3.543h-.2c-.494,1.028-1.321,1.962-2.482,2.803-1.148.827-2.629,1.241-4.444,1.241h0ZM2333.089,491.078c1.361,0,2.542-.3,3.543-.901,1.001-.614,1.775-1.421,2.322-2.422.547-1.014.821-2.129.821-3.343v-3.183c-.254.24-.734.454-1.441.641-.707.174-1.468.32-2.282.44-.814.107-1.515.2-2.102.28-1.882.227-3.337.667-4.364,1.321-1.028.641-1.542,1.622-1.542,2.943,0,1.335.48,2.376,1.441,3.123.961.734,2.162,1.101,3.604,1.101ZM2356.893,470.618v2.362h-4.604v14.734c0,2.242,1.001,3.263,3.003,3.063.187,0,.414-.02.681-.06.28-.053.541-.107.781-.16l.561,2.342c-.574.187-1.255.294-2.042.32-1.775.12-3.17-.3-4.184-1.261-1.014-.974-1.521-2.329-1.521-4.064v-14.915h-3.323v-2.362h3.323v-5.325h2.723v5.325h4.605ZM2370.286,493.48c-2.095,0-3.91-.487-5.445-1.461-1.521-.988-2.703-2.349-3.543-4.084-.827-1.735-1.241-3.73-1.241-5.986s.407-4.257,1.221-6.006c.827-1.748,1.975-3.123,3.443-4.124,1.481-1.001,3.196-1.501,5.145-1.501,1.628,0,3.17.4,4.625,1.201,1.455.801,2.636,2.022,3.543,3.664s1.361,3.73,1.361,6.266v1.181h-16.596c.053,2.549.754,4.591,2.102,6.126,1.348,1.521,3.15,2.282,5.405,2.282,1.562,0,2.843-.36,3.844-1.081,1.001-.721,1.708-1.575,2.122-2.562l2.583.821c-.507,1.401-1.501,2.629-2.983,3.684-1.468,1.054-3.33,1.582-5.585,1.582h0ZM2362.798,480.288h13.854c-.147-2.175-.814-3.971-2.002-5.385-1.188-1.428-2.783-2.142-4.785-2.142-1.348,0-2.536.34-3.563,1.021-1.028.681-1.848,1.595-2.462,2.743-.614,1.134-.961,2.389-1.041,3.764ZM2392.107,493.48c-2.202,0-4.024-.494-5.465-1.481-1.428-1.001-2.342-2.442-2.743-4.324l2.603-.621c.32,1.348.954,2.356,1.902,3.023.961.654,2.182.981,3.664.981,1.695,0,3.05-.38,4.064-1.141,1.028-.761,1.542-1.708,1.542-2.843,0-1.815-1.215-3.016-3.644-3.604l-3.644-.881c-3.83-.921-5.746-2.903-5.746-5.946,0-1.255.334-2.356,1.001-3.303.681-.948,1.608-1.688,2.783-2.222,1.188-.534,2.536-.801,4.044-.801,2.109,0,3.777.48,5.005,1.441,1.241.948,2.122,2.229,2.643,3.844l-2.482.641c-.347-1.028-.928-1.875-1.742-2.542-.801-.681-1.935-1.021-3.403-1.021-1.481,0-2.703.36-3.664,1.081-.961.707-1.441,1.615-1.441,2.723,0,1.842,1.335,3.083,4.004,3.724l3.423.821c3.777.908,5.666,2.869,5.666,5.886,0,1.281-.354,2.416-1.061,3.403-.707.988-1.695,1.762-2.963,2.322-1.255.561-2.703.841-4.344.841h0Z"/>
      </g>
    </g>
  </g>
</svg>