<?xml version="1.0" encoding="UTF-8"?>
<svg id="svg44" xmlns="http://www.w3.org/2000/svg" xmlns:xlink="http://www.w3.org/1999/xlink" viewBox="0 0 2420 663">
  <defs>
    <style>
      .cls-1, .cls-2, .cls-3, .cls-4, .cls-5, .cls-6, .cls-7, .cls-8, .cls-9, .cls-10, .cls-11, .cls-12, .cls-13, .cls-14 {
        stroke-width: 0px;
      }

      .cls-1, .cls-2, .cls-5, .cls-7, .cls-12, .cls-13 {
        fill-rule: evenodd;
      }

      .cls-1, .cls-10 {
        fill: #e8a9a9;
      }

      .cls-2, .cls-4 {
        fill: #1f2544;
      }

      .cls-3, .cls-13 {
        fill: #f2f2f2;
      }

      .cls-5, .cls-11 {
        fill: #6eacda;
      }

      .cls-6 {
        fill: none;
      }

      .cls-7, .cls-8 {
        fill: #81689d;
      }

      .cls-9 {
        fill: #404040;
      }

      .cls-15 {
        clip-path: url(#clippath);
      }

      .cls-12, .cls-14 {
        fill: #474f7a;
      }
    </style>
    <clipPath id="clippath">
      <rect class="cls-6" width="2420" height="663"/>
    </clipPath>
  </defs>
  <g class="cls-15">
    <g id="g44">
      <path id="rect2" class="cls-3" d="M0,0h1170v663H0V0Z"/>
      <g id="g2">
        <path id="path2" class="cls-2" d="M272.052,384.505c0-98.791,80.087-178.878,178.878-178.878,4.026,0,8.05.136,12.067.408l-12.067,178.47h-178.878Z"/>
      </g>
      <g id="g3">
        <path id="path3" class="cls-12" d="M476.241,207.18c98.567,6.664,173.069,91.97,166.405,190.537-.573,8.475-1.749,16.898-3.519,25.205l-174.952-37.271,12.066-178.471Z"/>
      </g>
      <g id="g4">
        <path id="path4" class="cls-7" d="M636.448,436.065c-20.585,96.625-115.601,158.265-212.224,137.675-6.257-1.33-12.438-3-18.516-4.99l55.788-169.958,174.952,37.273Z"/>
      </g>
      <g id="g5">
        <path id="path5" class="cls-1" d="M394.006,566.24c-73.441-24.11-123.09-92.658-123.09-169.955h178.878l-55.788,169.955Z"/>
      </g>
      <g id="g6">
        <path id="rect5" class="cls-4" d="M116,155h23v23h-23v-23Z"/>
      </g>
      <g id="g7">
        <path id="text6" class="cls-9" d="M172.09,186.364v-3.884c-2.883-.2-5.172-1.041-6.867-2.522-1.682-1.495-2.603-3.417-2.763-5.766h3.904c.133,1.495.747,2.643,1.842,3.443,1.094.787,2.389,1.261,3.884,1.421v-10.771l-1.181-.34c-2.402-.681-4.271-1.655-5.605-2.923-1.335-1.268-2.002-2.889-2.002-4.865,0-1.535.38-2.896,1.141-4.084.774-1.188,1.822-2.142,3.143-2.863,1.321-.734,2.823-1.188,4.504-1.361v-4.044h2.402v3.984c1.788.12,3.363.541,4.725,1.261,1.375.707,2.456,1.642,3.243,2.803.787,1.148,1.208,2.429,1.261,3.844h-3.724c-.147-1.308-.727-2.349-1.742-3.123-1.001-.774-2.256-1.235-3.764-1.381v10.11l1.181.32c.801.214,1.682.507,2.643.881.974.374,1.902.874,2.783,1.501.881.614,1.602,1.401,2.162,2.362.574.948.861,2.115.861,3.503,0,1.535-.38,2.93-1.141,4.184-.747,1.241-1.842,2.256-3.283,3.043-1.428.787-3.163,1.248-5.205,1.381v3.884h-2.402ZM174.492,179.057c1.722-.187,3.136-.747,4.244-1.682,1.121-.948,1.682-2.135,1.682-3.563,0-.961-.274-1.742-.821-2.342-.534-.601-1.248-1.094-2.142-1.481s-1.875-.727-2.943-1.021h-.02v10.09ZM172.09,164.623v-9.409c-1.548.214-2.783.754-3.704,1.622s-1.381,1.915-1.381,3.143c0,.948.274,1.728.821,2.342.547.601,1.215,1.088,2.002,1.461.787.36,1.542.641,2.262.841ZM199.516,152.171v29.829h-3.744v-26.306h-.2l-7.207,5.345v-4.084l6.486-4.785h4.665ZM216.193,152.171v29.829h-3.744v-26.306h-.2l-7.207,5.345v-4.084l6.486-4.785h4.665ZM222.359,189.187l1.762-11.351h4.124l-3.123,11.351h-2.763ZM235.031,182l13.253-26.246v-.24h-15.295v-3.343h19.279v3.543l-13.233,26.286h-4.004ZM266.522,182.4c-1.241,0-2.482-.227-3.724-.681-1.241-.454-2.376-1.215-3.403-2.282-1.014-1.068-1.828-2.516-2.442-4.344-.614-1.828-.921-4.117-.921-6.867,0-5.245.981-9.296,2.943-12.152,1.962-2.869,4.631-4.304,8.008-4.304,1.668,0,3.163.334,4.484,1.001,1.321.667,2.402,1.595,3.243,2.783s1.381,2.562,1.622,4.124h-3.724c-.334-1.295-.968-2.376-1.902-3.243s-2.175-1.301-3.724-1.301c-2.296,0-4.097.994-5.405,2.983-1.295,1.975-1.942,4.758-1.942,8.348h.24c.801-1.241,1.835-2.209,3.103-2.903,1.281-.707,2.696-1.061,4.244-1.061,1.708,0,3.27.42,4.685,1.261,1.415.841,2.542,2.009,3.383,3.503.854,1.481,1.281,3.183,1.281,5.105,0,1.855-.414,3.543-1.241,5.065-.827,1.508-1.995,2.716-3.503,3.624-1.508.894-3.277,1.341-5.305,1.341ZM266.522,179.057c1.201,0,2.282-.3,3.243-.901.961-.601,1.722-1.401,2.282-2.402.561-1.014.841-2.142.841-3.383,0-1.215-.274-2.316-.821-3.303-.534-1.001-1.275-1.795-2.222-2.382-.948-.587-2.022-.881-3.223-.881s-2.289.307-3.263.921c-.974.614-1.748,1.428-2.322,2.442-.574,1.001-.861,2.082-.861,3.243,0,1.174.274,2.269.821,3.283.547,1.001,1.301,1.815,2.262,2.442.961.614,2.049.921,3.263.921ZM291.686,182.4c-2.015,0-3.797-.354-5.345-1.061-1.535-.721-2.736-1.708-3.604-2.963-.854-1.255-1.281-2.689-1.281-4.304,0-1.255.254-2.416.761-3.483.507-1.081,1.201-1.982,2.082-2.703s1.875-1.181,2.983-1.381v-.16c-1.455-.374-2.609-1.181-3.463-2.422s-1.281-2.649-1.281-4.224c0-1.521.394-2.876,1.181-4.064.787-1.201,1.868-2.142,3.243-2.823,1.375-.694,2.95-1.041,4.725-1.041,1.748,0,3.31.347,4.685,1.041,1.375.681,2.456,1.622,3.243,2.823.801,1.188,1.201,2.542,1.201,4.064,0,1.575-.434,2.983-1.301,4.224-.854,1.241-1.989,2.049-3.403,2.422v.16c1.081.2,2.062.661,2.943,1.381s1.582,1.622,2.102,2.703c.521,1.068.781,2.229.781,3.483,0,1.615-.44,3.05-1.321,4.304-.868,1.255-2.075,2.242-3.624,2.963-1.535.707-3.303,1.061-5.305,1.061h0ZM291.686,179.097c1.975,0,3.543-.474,4.705-1.421,1.161-.961,1.742-2.229,1.742-3.804,0-1.108-.28-2.082-.841-2.923-.561-.854-1.328-1.521-2.302-2.002-.974-.494-2.075-.741-3.303-.741-1.882,0-3.437.534-4.665,1.602-1.215,1.054-1.822,2.409-1.822,4.064,0,1.575.574,2.843,1.722,3.804,1.161.948,2.749,1.421,4.765,1.421ZM291.686,165.023c1.575,0,2.876-.46,3.904-1.381,1.028-.934,1.542-2.155,1.542-3.664,0-1.495-.5-2.689-1.501-3.583s-2.316-1.341-3.944-1.341c-1.655,0-2.983.447-3.984,1.341-.988.894-1.481,2.089-1.481,3.583,0,1.508.507,2.729,1.521,3.664,1.014.921,2.329,1.381,3.944,1.381Z"/>
      </g>
      <g id="g8">
        <path id="text7" class="cls-9" d="M190.79,232v-2.743l9.91-10.75c1.108-1.201,2.029-2.256,2.763-3.163.734-.908,1.288-1.768,1.662-2.583.374-.827.561-1.702.561-2.623,0-1.562-.541-2.796-1.622-3.704-1.068-.908-2.396-1.361-3.984-1.361-1.695,0-3.05.507-4.064,1.521-1.001,1.014-1.501,2.362-1.501,4.044h-3.644c0-1.762.407-3.31,1.221-4.645.814-1.335,1.922-2.369,3.323-3.103,1.401-.747,2.99-1.121,4.765-1.121s3.343.374,4.705,1.121c1.375.734,2.449,1.728,3.223,2.983.787,1.255,1.181,2.663,1.181,4.224,0,1.081-.194,2.135-.581,3.163-.387,1.014-1.068,2.169-2.042,3.463-.974,1.295-2.342,2.876-4.104,4.745l-6.526,6.947v.24h13.753v3.343h-18.999ZM225.644,232.4c-1.241,0-2.482-.227-3.724-.681-1.241-.454-2.376-1.215-3.403-2.282-1.014-1.068-1.828-2.516-2.442-4.344-.614-1.828-.921-4.117-.921-6.867,0-5.245.981-9.296,2.943-12.152,1.962-2.869,4.631-4.304,8.008-4.304,1.668,0,3.163.334,4.484,1.001s2.402,1.595,3.243,2.783,1.381,2.562,1.622,4.124h-3.724c-.334-1.295-.968-2.376-1.902-3.243s-2.175-1.301-3.724-1.301c-2.296,0-4.097.994-5.405,2.983-1.295,1.975-1.942,4.758-1.942,8.348h.24c.801-1.241,1.835-2.209,3.103-2.903,1.281-.707,2.696-1.061,4.244-1.061,1.708,0,3.27.42,4.685,1.261s2.542,2.009,3.383,3.503c.854,1.481,1.281,3.183,1.281,5.105,0,1.855-.414,3.543-1.241,5.065-.827,1.508-1.995,2.716-3.503,3.624-1.508.894-3.277,1.341-5.305,1.341ZM225.644,229.057c1.201,0,2.282-.3,3.243-.901s1.722-1.401,2.282-2.402c.561-1.014.841-2.142.841-3.383,0-1.215-.274-2.316-.821-3.303-.534-1.001-1.275-1.795-2.222-2.382s-2.022-.881-3.223-.881-2.289.307-3.263.921c-.974.614-1.748,1.428-2.322,2.442-.574,1.001-.861,2.082-.861,3.243,0,1.174.274,2.269.821,3.283.547,1.001,1.301,1.815,2.262,2.442.961.614,2.049.921,3.263.921ZM267.965,232.581c-1.268,0-2.342-.274-3.223-.821-.868-.561-1.528-1.301-1.982-2.222-.44-.921-.661-1.929-.661-3.023v-1.562c0-1.094.227-2.095.681-3.003.454-.921,1.114-1.655,1.982-2.202.881-.561,1.949-.841,3.203-.841,1.281,0,2.356.28,3.223.841.868.547,1.515,1.281,1.942,2.202.44.908.661,1.909.661,3.003v1.562c0,1.094-.227,2.102-.681,3.023-.44.921-1.094,1.662-1.962,2.222-.854.547-1.915.821-3.183.821ZM248.606,215.364c-1.268,0-2.342-.274-3.223-.821-.868-.561-1.528-1.301-1.982-2.222-.44-.921-.661-1.929-.661-3.023v-1.562c0-1.094.227-2.095.681-3.003.454-.921,1.114-1.655,1.982-2.202.881-.561,1.949-.841,3.203-.841,1.281,0,2.349.28,3.203.841.868.547,1.521,1.281,1.962,2.202.44.908.661,1.909.661,3.003v1.562c0,1.094-.227,2.102-.681,3.023-.44.921-1.094,1.662-1.962,2.222-.854.547-1.915.821-3.183.821ZM246.224,232l20.5-29.829h3.383l-20.5,29.829h-3.383ZM267.965,229.958c1.014,0,1.728-.347,2.142-1.041.414-.707.621-1.508.621-2.402v-1.562c0-.881-.2-1.675-.601-2.382s-1.121-1.061-2.162-1.061c-1.001,0-1.722.354-2.162,1.061-.427.707-.641,1.501-.641,2.382v1.562c0,.894.207,1.695.621,2.402.427.694,1.154,1.041,2.182,1.041ZM248.606,212.741c1.014,0,1.728-.347,2.142-1.041.414-.707.621-1.508.621-2.402v-1.562c0-.881-.2-1.675-.601-2.382s-1.121-1.061-2.162-1.061c-1.001,0-1.722.354-2.162,1.061-.427.707-.641,1.501-.641,2.382v1.562c0,.894.207,1.695.621,2.402.427.694,1.154,1.041,2.182,1.041Z"/>
      </g>
      <g id="g9">
        <path id="rect8" class="cls-14" d="M645,194h23v23h-23v-23Z"/>
      </g>
      <g id="g10">
        <path id="text9" class="cls-9" d="M700.997,225.364v-3.884c-2.883-.2-5.172-1.041-6.867-2.522-1.682-1.495-2.603-3.417-2.763-5.766h3.904c.133,1.495.747,2.643,1.842,3.443,1.094.787,2.389,1.261,3.884,1.421v-10.771l-1.181-.34c-2.402-.681-4.271-1.655-5.605-2.923-1.335-1.268-2.002-2.889-2.002-4.865,0-1.535.38-2.896,1.141-4.084.774-1.188,1.822-2.142,3.143-2.863,1.321-.734,2.823-1.188,4.504-1.361v-4.044h2.402v3.984c1.788.12,3.363.541,4.725,1.261,1.375.707,2.456,1.642,3.243,2.803.787,1.148,1.208,2.429,1.261,3.844h-3.724c-.147-1.308-.727-2.349-1.742-3.123-1.001-.774-2.256-1.235-3.764-1.381v10.11l1.181.32c.801.214,1.682.507,2.643.881.974.374,1.902.874,2.783,1.501.881.614,1.602,1.401,2.162,2.362.574.948.861,2.115.861,3.503,0,1.535-.38,2.93-1.141,4.184-.747,1.241-1.842,2.256-3.283,3.043-1.428.787-3.163,1.248-5.205,1.381v3.884h-2.402ZM703.399,218.057c1.722-.187,3.136-.747,4.244-1.682,1.121-.948,1.682-2.135,1.682-3.563,0-.961-.274-1.742-.821-2.342-.534-.601-1.248-1.094-2.142-1.481s-1.875-.727-2.943-1.021h-.02v10.09ZM700.997,203.623v-9.409c-1.548.214-2.783.754-3.704,1.622s-1.381,1.915-1.381,3.143c0,.948.274,1.728.821,2.342.547.601,1.215,1.088,2.002,1.461.787.36,1.542.641,2.262.841ZM728.423,191.171v29.829h-3.744v-26.306h-.2l-7.207,5.345v-4.084l6.486-4.785h4.665ZM735.11,221v-2.743l9.91-10.75c1.108-1.201,2.029-2.256,2.763-3.163.734-.908,1.288-1.768,1.662-2.583.374-.827.561-1.702.561-2.623,0-1.562-.541-2.796-1.622-3.704-1.068-.908-2.396-1.361-3.984-1.361-1.695,0-3.05.507-4.064,1.521-1.001,1.014-1.501,2.362-1.501,4.044h-3.644c0-1.762.407-3.31,1.221-4.645s1.922-2.369,3.323-3.103c1.401-.747,2.99-1.121,4.765-1.121s3.343.374,4.705,1.121c1.375.734,2.449,1.728,3.223,2.983.787,1.255,1.181,2.663,1.181,4.224,0,1.081-.194,2.135-.581,3.163-.387,1.014-1.068,2.169-2.042,3.463-.974,1.295-2.342,2.876-4.104,4.745l-6.526,6.947v.24h13.753v3.343h-18.999ZM759.594,228.187l1.762-11.351h4.124l-3.123,11.351h-2.763ZM780.454,221.4c-1.949,0-3.677-.334-5.185-1.001-1.508-.667-2.709-1.595-3.604-2.783-.881-1.188-1.355-2.569-1.421-4.144h3.844c.107,1.415.761,2.536,1.962,3.363,1.201.814,2.649,1.221,4.344,1.221,1.868,0,3.41-.48,4.625-1.441,1.228-.961,1.842-2.215,1.842-3.764,0-1.615-.601-2.93-1.802-3.944-1.201-1.028-2.91-1.542-5.125-1.542h-2.422v-3.303h2.422c1.748,0,3.163-.46,4.244-1.381,1.094-.934,1.642-2.169,1.642-3.704,0-1.481-.48-2.669-1.441-3.563s-2.256-1.341-3.884-1.341c-1.014,0-1.969.187-2.863.561-.881.36-1.608.881-2.182,1.562-.561.681-.861,1.508-.901,2.482h-3.664c.053-1.562.521-2.936,1.401-4.124s2.042-2.115,3.483-2.783c1.455-.667,3.056-1.001,4.805-1.001,1.855,0,3.45.374,4.785,1.121,1.348.747,2.382,1.728,3.103,2.943s1.081,2.529,1.081,3.944c0,1.682-.447,3.11-1.341,4.284-.881,1.174-2.082,1.989-3.604,2.442v.24c1.909.307,3.39,1.108,4.444,2.402,1.054,1.281,1.582,2.863,1.582,4.745,0,1.628-.44,3.083-1.321,4.364s-2.089,2.296-3.624,3.043c-1.535.734-3.277,1.101-5.225,1.101ZM805.999,221.4c-3.323,0-5.906-1.335-7.748-4.004-1.828-2.669-2.743-6.433-2.743-11.291,0-4.831.921-8.595,2.763-11.291,1.855-2.696,4.431-4.044,7.728-4.044s5.886,1.348,7.728,4.044,2.763,6.46,2.763,11.291c0,4.858-.914,8.622-2.743,11.291-1.828,2.669-4.411,4.004-7.748,4.004ZM805.999,218.077c2.189,0,3.87-1.048,5.045-3.143,1.188-2.109,1.782-5.052,1.782-8.829,0-3.804-.594-6.76-1.782-8.869-1.174-2.109-2.856-3.163-5.045-3.163-2.175,0-3.857,1.061-5.045,3.183-1.188,2.109-1.782,5.058-1.782,8.849s.594,6.72,1.782,8.829c1.188,2.095,2.869,3.143,5.045,3.143ZM831.864,221.4c-1.241,0-2.482-.227-3.724-.681-1.241-.454-2.376-1.215-3.403-2.282-1.014-1.068-1.828-2.516-2.442-4.344-.614-1.828-.921-4.117-.921-6.867,0-5.245.981-9.296,2.943-12.152,1.962-2.869,4.631-4.304,8.008-4.304,1.668,0,3.163.334,4.484,1.001s2.402,1.595,3.243,2.783,1.381,2.562,1.622,4.124h-3.724c-.334-1.295-.968-2.376-1.902-3.243-.934-.868-2.175-1.301-3.724-1.301-2.296,0-4.097.994-5.405,2.983-1.295,1.975-1.942,4.758-1.942,8.348h.24c.801-1.241,1.835-2.209,3.103-2.903,1.281-.707,2.696-1.061,4.244-1.061,1.708,0,3.27.42,4.685,1.261,1.415.841,2.542,2.009,3.383,3.503.854,1.481,1.281,3.183,1.281,5.105,0,1.855-.414,3.543-1.241,5.065-.827,1.508-1.995,2.716-3.503,3.624-1.508.894-3.277,1.341-5.305,1.341h0ZM831.864,218.057c1.201,0,2.282-.3,3.243-.901.961-.601,1.722-1.401,2.282-2.402.561-1.014.841-2.142.841-3.383,0-1.215-.274-2.316-.821-3.303-.534-1.001-1.275-1.795-2.222-2.382s-2.022-.881-3.223-.881-2.289.307-3.263.921c-.974.614-1.748,1.428-2.322,2.442-.574,1.001-.861,2.082-.861,3.243,0,1.174.274,2.269.821,3.283.547,1.001,1.301,1.815,2.262,2.442.961.614,2.049.921,3.263.921h0Z"/>
      </g>
      <g id="g11">
        <path id="text10" class="cls-9" d="M726.319,271v-2.743l9.91-10.75c1.108-1.201,2.029-2.256,2.763-3.163.734-.908,1.288-1.768,1.662-2.583.374-.827.561-1.702.561-2.623,0-1.562-.541-2.796-1.622-3.704-1.068-.908-2.396-1.361-3.984-1.361-1.695,0-3.05.507-4.064,1.521-1.001,1.014-1.501,2.362-1.501,4.044h-3.644c0-1.762.407-3.31,1.221-4.645.814-1.335,1.922-2.369,3.323-3.103,1.401-.747,2.99-1.121,4.765-1.121s3.343.374,4.705,1.121c1.375.734,2.449,1.728,3.223,2.983.787,1.255,1.181,2.663,1.181,4.224,0,1.081-.194,2.135-.581,3.163-.387,1.014-1.068,2.169-2.042,3.463-.974,1.295-2.342,2.876-4.104,4.745l-6.526,6.947v.24h13.753v3.343h-18.999ZM752.244,271l13.253-26.246v-.24h-15.295v-3.343h19.279v3.543l-13.233,26.286h-4.004ZM801.272,271.581c-1.268,0-2.342-.274-3.223-.821-.868-.561-1.528-1.301-1.982-2.222-.44-.921-.661-1.929-.661-3.023v-1.562c0-1.094.227-2.095.681-3.003.454-.921,1.114-1.655,1.982-2.202.881-.561,1.949-.841,3.203-.841,1.281,0,2.356.28,3.223.841.868.547,1.515,1.281,1.942,2.202.44.908.661,1.909.661,3.003v1.562c0,1.094-.227,2.102-.681,3.023-.44.921-1.094,1.662-1.962,2.222-.854.547-1.915.821-3.183.821ZM781.913,254.364c-1.268,0-2.342-.274-3.223-.821-.868-.561-1.528-1.301-1.982-2.222-.44-.921-.661-1.929-.661-3.023v-1.562c0-1.094.227-2.095.681-3.003.454-.921,1.114-1.655,1.982-2.202.881-.561,1.949-.841,3.203-.841,1.281,0,2.349.28,3.203.841.868.547,1.521,1.281,1.962,2.202.44.908.661,1.909.661,3.003v1.562c0,1.094-.227,2.102-.681,3.023-.44.921-1.094,1.662-1.962,2.222-.854.547-1.915.821-3.183.821ZM779.531,271l20.5-29.829h3.383l-20.5,29.829h-3.383ZM801.272,268.958c1.014,0,1.728-.347,2.142-1.041.414-.707.621-1.508.621-2.402v-1.562c0-.881-.2-1.675-.601-2.382s-1.121-1.061-2.162-1.061c-1.001,0-1.722.354-2.162,1.061-.427.707-.641,1.501-.641,2.382v1.562c0,.894.207,1.695.621,2.402.427.694,1.154,1.041,2.182,1.041ZM781.913,251.741c1.014,0,1.728-.347,2.142-1.041.414-.707.621-1.508.621-2.402v-1.562c0-.881-.2-1.675-.601-2.382s-1.121-1.061-2.162-1.061c-1.001,0-1.722.354-2.162,1.061-.427.707-.641,1.501-.641,2.382v1.562c0,.894.207,1.695.621,2.402.427.694,1.154,1.041,2.182,1.041Z"/>
      </g>
      <g id="g12">
        <path id="rect11" class="cls-8" d="M586,570h23v23h-23v-23Z"/>
      </g>
      <g id="g13">
        <path id="text12" class="cls-9" d="M642.012,601.364v-3.884c-2.883-.2-5.172-1.041-6.867-2.522-1.682-1.495-2.603-3.417-2.763-5.766h3.904c.133,1.495.747,2.643,1.842,3.443,1.094.787,2.389,1.261,3.884,1.421v-10.771l-1.181-.34c-2.402-.681-4.271-1.655-5.605-2.923-1.335-1.268-2.002-2.889-2.002-4.865,0-1.535.38-2.896,1.141-4.084.774-1.188,1.822-2.142,3.143-2.863,1.321-.734,2.823-1.188,4.504-1.361v-4.044h2.402v3.984c1.788.12,3.363.541,4.725,1.261,1.375.707,2.456,1.642,3.243,2.803.787,1.148,1.208,2.429,1.261,3.844h-3.724c-.147-1.308-.727-2.349-1.742-3.123-1.001-.774-2.256-1.235-3.764-1.381v10.11l1.181.32c.801.214,1.682.507,2.643.881.974.374,1.902.874,2.783,1.501.881.614,1.602,1.401,2.162,2.362.574.948.861,2.115.861,3.503,0,1.535-.38,2.93-1.141,4.184-.747,1.241-1.842,2.256-3.283,3.043-1.428.787-3.163,1.248-5.205,1.381v3.884h-2.402ZM644.414,594.057c1.722-.187,3.136-.747,4.244-1.682,1.121-.948,1.682-2.135,1.682-3.563,0-.961-.274-1.742-.821-2.342-.534-.601-1.248-1.094-2.142-1.481s-1.875-.727-2.943-1.021h-.02v10.09ZM642.012,579.623v-9.409c-1.548.214-2.783.754-3.704,1.622s-1.381,1.915-1.381,3.143c0,.948.274,1.728.821,2.342.547.601,1.215,1.088,2.002,1.461.787.36,1.542.641,2.262.841ZM669.438,567.171v29.829h-3.744v-26.306h-.2l-7.207,5.345v-4.084l6.486-4.785h4.665ZM676.125,597v-2.743l9.91-10.75c1.108-1.201,2.029-2.256,2.763-3.163.734-.908,1.288-1.768,1.662-2.583.374-.827.561-1.702.561-2.623,0-1.562-.541-2.796-1.622-3.704-1.068-.908-2.396-1.361-3.984-1.361-1.695,0-3.05.507-4.064,1.521-1.001,1.014-1.501,2.362-1.501,4.044h-3.644c0-1.762.407-3.31,1.221-4.645s1.922-2.369,3.323-3.103c1.401-.747,2.99-1.121,4.765-1.121s3.343.374,4.705,1.121c1.375.734,2.449,1.728,3.223,2.983.787,1.255,1.181,2.663,1.181,4.224,0,1.081-.194,2.135-.581,3.163-.387,1.014-1.068,2.169-2.042,3.463-.974,1.295-2.342,2.876-4.104,4.745l-6.526,6.947v.24h13.753v3.343h-18.999ZM700.609,604.187l1.762-11.351h4.124l-3.123,11.351h-2.763ZM721.749,597.4c-3.323,0-5.906-1.335-7.748-4.004-1.828-2.669-2.743-6.433-2.743-11.291,0-4.831.921-8.595,2.763-11.291,1.855-2.696,4.431-4.044,7.728-4.044s5.886,1.348,7.728,4.044,2.763,6.46,2.763,11.291c0,4.858-.914,8.622-2.743,11.291-1.828,2.669-4.411,4.004-7.748,4.004ZM721.749,594.077c2.189,0,3.87-1.048,5.045-3.143,1.188-2.109,1.782-5.052,1.782-8.829,0-3.804-.594-6.76-1.782-8.869-1.174-2.109-2.856-3.163-5.045-3.163-2.175,0-3.857,1.061-5.045,3.183-1.188,2.109-1.782,5.058-1.782,8.849s.594,6.72,1.782,8.829c1.188,2.095,2.869,3.143,5.045,3.143ZM747.214,597.4c-1.748,0-3.317-.34-4.705-1.021-1.388-.694-2.496-1.635-3.323-2.823-.827-1.201-1.275-2.562-1.341-4.084h3.684c.12,1.335.721,2.436,1.802,3.303,1.094.854,2.389,1.281,3.884,1.281,1.201,0,2.269-.28,3.203-.841.948-.561,1.688-1.335,2.222-2.322.534-.988.801-2.109.801-3.363,0-1.281-.28-2.429-.841-3.443s-1.328-1.808-2.302-2.382c-.961-.587-2.069-.881-3.323-.881-.921,0-1.855.147-2.803.44-.948.294-1.715.667-2.302,1.121l-3.563-.44,1.762-14.774h15.695v3.343h-12.492l-1.021,8.708h.16c.614-.507,1.388-.921,2.322-1.241.934-.334,1.915-.5,2.943-.5,1.828,0,3.457.434,4.885,1.301,1.428.854,2.549,2.035,3.363,3.543.827,1.508,1.241,3.223,1.241,5.145,0,1.909-.434,3.61-1.301,5.105-.854,1.495-2.029,2.676-3.523,3.543-1.495.854-3.203,1.281-5.125,1.281ZM762.009,590.934v-3.103l13.053-20.66h4.625v20.42h4.044v3.343h-4.044v6.066h-3.644v-6.066h-14.034ZM776.062,587.591v-15.655h-.24l-9.75,15.415v.24h9.99Z"/>
      </g>
      <g id="g14">
        <path id="text13" class="cls-9" d="M667.679,647v-2.743l9.91-10.75c1.108-1.201,2.029-2.256,2.763-3.163.734-.908,1.288-1.768,1.662-2.583.374-.827.561-1.702.561-2.623,0-1.562-.541-2.796-1.622-3.704-1.068-.908-2.396-1.361-3.984-1.361-1.695,0-3.05.507-4.064,1.521-1.001,1.014-1.501,2.362-1.501,4.044h-3.644c0-1.762.407-3.31,1.221-4.645.814-1.335,1.922-2.369,3.323-3.103,1.401-.747,2.99-1.121,4.765-1.121s3.343.374,4.705,1.121c1.375.734,2.449,1.728,3.223,2.983.787,1.255,1.181,2.663,1.181,4.224,0,1.081-.194,2.135-.581,3.163-.387,1.014-1.068,2.169-2.042,3.463-.974,1.295-2.342,2.876-4.104,4.745l-6.526,6.947v.24h13.753v3.343h-18.999ZM693.604,647l13.253-26.246v-.24h-15.295v-3.343h19.279v3.543l-13.233,26.286h-4.004ZM742.632,647.581c-1.268,0-2.342-.274-3.223-.821-.868-.561-1.528-1.301-1.982-2.222-.44-.921-.661-1.929-.661-3.023v-1.562c0-1.094.227-2.095.681-3.003.454-.921,1.114-1.655,1.982-2.202.881-.561,1.949-.841,3.203-.841,1.281,0,2.356.28,3.223.841.868.547,1.515,1.281,1.942,2.202.44.908.661,1.909.661,3.003v1.562c0,1.094-.227,2.102-.681,3.023-.44.921-1.094,1.662-1.962,2.222-.854.547-1.915.821-3.183.821ZM723.273,630.364c-1.268,0-2.342-.274-3.223-.821-.868-.561-1.528-1.301-1.982-2.222-.44-.921-.661-1.929-.661-3.023v-1.562c0-1.094.227-2.095.681-3.003.454-.921,1.114-1.655,1.982-2.202.881-.561,1.949-.841,3.203-.841,1.281,0,2.349.28,3.203.841.868.547,1.521,1.281,1.962,2.202.44.908.661,1.909.661,3.003v1.562c0,1.094-.227,2.102-.681,3.023-.44.921-1.094,1.662-1.962,2.222-.854.547-1.915.821-3.183.821ZM720.891,647l20.5-29.829h3.383l-20.5,29.829h-3.383ZM742.632,644.958c1.014,0,1.728-.347,2.142-1.041.414-.707.621-1.508.621-2.402v-1.562c0-.881-.2-1.675-.601-2.382s-1.121-1.061-2.162-1.061c-1.001,0-1.722.354-2.162,1.061-.427.707-.641,1.501-.641,2.382v1.562c0,.894.207,1.695.621,2.402.427.694,1.154,1.041,2.182,1.041ZM723.273,627.741c1.014,0,1.728-.347,2.142-1.041.414-.707.621-1.508.621-2.402v-1.562c0-.881-.2-1.675-.601-2.382s-1.121-1.061-2.162-1.061c-1.001,0-1.722.354-2.162,1.061-.427.707-.641,1.501-.641,2.382v1.562c0,.894.207,1.695.621,2.402.427.694,1.154,1.041,2.182,1.041Z"/>
      </g>
      <g id="g15">
        <path id="rect14" class="cls-10" d="M96,510h23v23h-23v-23Z"/>
      </g>
      <g id="g16">
        <path id="text15" class="cls-9" d="M152.417,541.364v-3.884c-2.883-.2-5.172-1.041-6.867-2.522-1.682-1.495-2.603-3.417-2.763-5.766h3.904c.133,1.495.747,2.643,1.842,3.443,1.094.787,2.389,1.261,3.884,1.421v-10.771l-1.181-.34c-2.402-.681-4.271-1.655-5.605-2.923-1.335-1.268-2.002-2.889-2.002-4.865,0-1.535.38-2.896,1.141-4.084.774-1.188,1.822-2.142,3.143-2.863,1.321-.734,2.823-1.188,4.504-1.361v-4.044h2.402v3.984c1.788.12,3.363.541,4.725,1.261,1.375.707,2.456,1.642,3.243,2.803.787,1.148,1.208,2.429,1.261,3.844h-3.724c-.147-1.308-.727-2.349-1.742-3.123-1.001-.774-2.256-1.235-3.764-1.381v10.11l1.181.32c.801.214,1.682.507,2.643.881.974.374,1.902.874,2.783,1.501.881.614,1.602,1.401,2.162,2.362.574.948.861,2.115.861,3.503,0,1.535-.38,2.93-1.141,4.184-.747,1.241-1.842,2.256-3.283,3.043-1.428.787-3.163,1.248-5.205,1.381v3.884h-2.402ZM154.819,534.057c1.722-.187,3.136-.747,4.244-1.682,1.121-.948,1.682-2.135,1.682-3.563,0-.961-.274-1.742-.821-2.342-.534-.601-1.248-1.094-2.142-1.481s-1.875-.727-2.943-1.021h-.02v10.09ZM152.417,519.623v-9.409c-1.548.214-2.783.754-3.704,1.622s-1.381,1.915-1.381,3.143c0,.948.274,1.728.821,2.342.547.601,1.215,1.088,2.002,1.461.787.36,1.542.641,2.262.841ZM178.842,537.4c-1.695,0-3.203-.334-4.524-1.001-1.321-.667-2.402-1.602-3.243-2.803s-1.381-2.596-1.622-4.184h3.764c.307,1.321.928,2.422,1.862,3.303s2.189,1.321,3.764,1.321c2.269,0,4.057-.988,5.365-2.963,1.321-1.989,1.982-4.791,1.982-8.408h-.24c-.801,1.215-1.835,2.182-3.103,2.903s-2.683,1.081-4.244,1.081c-1.708,0-3.277-.42-4.705-1.261-1.428-.854-2.569-2.022-3.423-3.503-.841-1.495-1.261-3.196-1.261-5.105,0-1.855.42-3.543,1.261-5.065.841-1.535,2.015-2.749,3.523-3.644,1.521-.908,3.303-1.341,5.345-1.301,1.228.013,2.456.254,3.684.721,1.228.454,2.349,1.208,3.363,2.262s1.828,2.489,2.442,4.304.921,4.097.921,6.847c0,5.272-.974,9.342-2.923,12.212-1.949,2.856-4.611,4.284-7.988,4.284ZM179.163,523.327c1.215,0,2.309-.307,3.283-.921.974-.627,1.748-1.448,2.322-2.462.587-1.014.881-2.102.881-3.263,0-1.148-.28-2.215-.841-3.203-.547-1.001-1.301-1.808-2.262-2.422-.948-.627-2.035-.941-3.263-.941-1.201,0-2.282.3-3.243.901-.948.587-1.702,1.388-2.262,2.402-.561,1.001-.841,2.115-.841,3.343,0,1.215.267,2.322.801,3.323.547.988,1.288,1.775,2.222,2.362s2.002.881,3.203.881ZM193.717,544.187l1.762-11.351h4.124l-3.123,11.351h-2.763ZM214.858,537.4c-3.323,0-5.906-1.335-7.748-4.004-1.828-2.669-2.743-6.433-2.743-11.291,0-4.831.921-8.595,2.763-11.291,1.855-2.696,4.431-4.044,7.728-4.044s5.886,1.348,7.728,4.044,2.763,6.46,2.763,11.291c0,4.858-.914,8.622-2.743,11.291-1.828,2.669-4.411,4.004-7.748,4.004ZM214.858,534.077c2.189,0,3.87-1.048,5.045-3.143,1.188-2.109,1.782-5.052,1.782-8.829,0-3.804-.594-6.76-1.782-8.869-1.174-2.109-2.856-3.163-5.045-3.163-2.175,0-3.857,1.061-5.045,3.183-1.188,2.109-1.782,5.058-1.782,8.849s.594,6.72,1.782,8.829c1.188,2.095,2.869,3.143,5.045,3.143ZM240.723,537.4c-3.323,0-5.906-1.335-7.748-4.004-1.828-2.669-2.743-6.433-2.743-11.291,0-4.831.921-8.595,2.763-11.291,1.855-2.696,4.431-4.044,7.728-4.044s5.886,1.348,7.728,4.044,2.763,6.46,2.763,11.291c0,4.858-.914,8.622-2.743,11.291-1.828,2.669-4.411,4.004-7.748,4.004ZM240.723,534.077c2.189,0,3.87-1.048,5.045-3.143,1.188-2.109,1.782-5.052,1.782-8.829,0-3.804-.594-6.76-1.782-8.869-1.174-2.109-2.856-3.163-5.045-3.163-2.175,0-3.857,1.061-5.045,3.183-1.188,2.109-1.782,5.058-1.782,8.849s.594,6.72,1.782,8.829c1.188,2.095,2.869,3.143,5.045,3.143ZM266.188,537.4c-1.748,0-3.317-.34-4.705-1.021-1.388-.694-2.496-1.635-3.323-2.823-.827-1.201-1.275-2.562-1.341-4.084h3.684c.12,1.335.721,2.436,1.802,3.303,1.094.854,2.389,1.281,3.884,1.281,1.201,0,2.269-.28,3.203-.841.948-.561,1.688-1.335,2.222-2.322s.801-2.109.801-3.363c0-1.281-.28-2.429-.841-3.443s-1.328-1.808-2.302-2.382c-.961-.587-2.069-.881-3.323-.881-.921,0-1.855.147-2.803.44-.948.294-1.715.667-2.302,1.121l-3.563-.44,1.762-14.774h15.695v3.343h-12.492l-1.021,8.708h.16c.614-.507,1.388-.921,2.322-1.241.934-.334,1.915-.5,2.943-.5,1.828,0,3.457.434,4.885,1.301,1.428.854,2.549,2.035,3.363,3.543.827,1.508,1.241,3.223,1.241,5.145,0,1.909-.434,3.61-1.301,5.105-.854,1.495-2.029,2.676-3.523,3.543-1.495.854-3.203,1.281-5.125,1.281h0Z"/>
      </g>
      <g id="g17">
        <path id="text16" class="cls-9" d="M168.229,587v-2.743l9.91-10.75c1.108-1.201,2.029-2.256,2.763-3.163.734-.908,1.288-1.768,1.662-2.583.374-.827.561-1.702.561-2.623,0-1.562-.541-2.796-1.622-3.704-1.068-.908-2.396-1.361-3.984-1.361-1.695,0-3.05.507-4.064,1.521-1.001,1.014-1.501,2.362-1.501,4.044h-3.644c0-1.762.407-3.31,1.221-4.645.814-1.335,1.922-2.369,3.323-3.103,1.401-.747,2.99-1.121,4.765-1.121s3.343.374,4.705,1.121c1.375.734,2.449,1.728,3.223,2.983.787,1.255,1.181,2.663,1.181,4.224,0,1.081-.194,2.135-.581,3.163-.387,1.014-1.068,2.169-2.042,3.463-.974,1.295-2.342,2.876-4.104,4.745l-6.526,6.947v.24h13.753v3.343h-18.999ZM203.083,587.4c-3.323,0-5.906-1.335-7.748-4.004-1.828-2.669-2.743-6.433-2.743-11.291,0-4.831.921-8.595,2.763-11.291,1.855-2.696,4.431-4.044,7.728-4.044s5.886,1.348,7.728,4.044,2.763,6.46,2.763,11.291c0,4.858-.914,8.622-2.743,11.291-1.828,2.669-4.411,4.004-7.748,4.004ZM203.083,584.077c2.189,0,3.87-1.048,5.045-3.143,1.188-2.109,1.782-5.052,1.782-8.829,0-3.804-.594-6.76-1.782-8.869-1.174-2.109-2.856-3.163-5.045-3.163-2.175,0-3.857,1.061-5.045,3.183-1.188,2.109-1.782,5.058-1.782,8.849s.594,6.72,1.782,8.829c1.188,2.095,2.869,3.143,5.045,3.143ZM245.845,587.581c-1.268,0-2.342-.274-3.223-.821-.868-.561-1.528-1.301-1.982-2.222-.44-.921-.661-1.929-.661-3.023v-1.562c0-1.094.227-2.095.681-3.003.454-.921,1.114-1.655,1.982-2.202.881-.561,1.949-.841,3.203-.841,1.281,0,2.356.28,3.223.841.868.547,1.515,1.281,1.942,2.202.44.908.661,1.909.661,3.003v1.562c0,1.094-.227,2.102-.681,3.023-.44.921-1.094,1.662-1.962,2.222-.854.547-1.915.821-3.183.821ZM226.486,570.364c-1.268,0-2.342-.274-3.223-.821-.868-.561-1.528-1.301-1.982-2.222-.44-.921-.661-1.929-.661-3.023v-1.562c0-1.094.227-2.095.681-3.003.454-.921,1.114-1.655,1.982-2.202.881-.561,1.949-.841,3.203-.841,1.281,0,2.349.28,3.203.841.868.547,1.521,1.281,1.962,2.202.44.908.661,1.909.661,3.003v1.562c0,1.094-.227,2.102-.681,3.023-.44.921-1.094,1.662-1.962,2.222-.854.547-1.915.821-3.183.821ZM224.104,587l20.5-29.829h3.383l-20.5,29.829h-3.383ZM245.845,584.958c1.014,0,1.728-.347,2.142-1.041.414-.707.621-1.508.621-2.402v-1.562c0-.881-.2-1.675-.601-2.382s-1.121-1.061-2.162-1.061c-1.001,0-1.722.354-2.162,1.061-.427.707-.641,1.501-.641,2.382v1.562c0,.894.207,1.695.621,2.402.427.694,1.154,1.041,2.182,1.041ZM226.486,567.741c1.014,0,1.728-.347,2.142-1.041.414-.707.621-1.508.621-2.402v-1.562c0-.881-.2-1.675-.601-2.382s-1.121-1.061-2.162-1.061c-1.001,0-1.722.354-2.162,1.061-.427.707-.641,1.501-.641,2.382v1.562c0,.894.207,1.695.621,2.402.427.694,1.154,1.041,2.182,1.041Z"/>
      </g>
      <g id="g18">
        <path id="text17" class="cls-9" d="M188.171,96v-46.562h17.406c3.562,0,6.562.667,9,2s4.281,3.167,5.531,5.5c1.25,2.312,1.875,4.948,1.875,7.906,0,2.979-.635,5.635-1.906,7.969-1.25,2.312-3.104,4.135-5.562,5.469-2.458,1.312-5.479,1.969-9.062,1.969h-8.938v15.75h-8.344ZM196.515,73.375h7.844c3.146,0,5.448-.802,6.906-2.406s2.188-3.646,2.188-6.125-.729-4.5-2.188-6.062-3.781-2.344-6.969-2.344h-7.781v16.938ZM243.765,96.719c-3.396,0-6.344-.75-8.844-2.25-2.5-1.521-4.438-3.625-5.812-6.312-1.354-2.708-2.031-5.854-2.031-9.438,0-3.625.677-6.792,2.031-9.5,1.375-2.729,3.312-4.844,5.812-6.344s5.448-2.25,8.844-2.25c3.896,0,7.188.979,9.875,2.938,2.708,1.938,4.438,4.615,5.188,8.031l-7.594,1.594c-.438-1.812-1.292-3.26-2.562-4.344-1.271-1.083-2.885-1.625-4.844-1.625-2.833,0-4.958,1.094-6.375,3.281-1.396,2.188-2.094,4.917-2.094,8.188,0,2.146.312,4.083.938,5.812s1.562,3.104,2.812,4.125c1.25,1,2.823,1.5,4.719,1.5,2,0,3.635-.562,4.906-1.688,1.292-1.146,2.156-2.656,2.594-4.531l7.594,1.594c-.75,3.479-2.479,6.219-5.188,8.219s-6.031,3-9.969,3ZM282.046,61.062v6.375h-6.75v18.719c0,1.271.26,2.208.781,2.812.542.583,1.438.875,2.688.875.375,0,.865-.042,1.469-.125.604-.104,1.104-.198,1.5-.281l1.281,6.281c-.896.271-1.812.458-2.75.562-.938.125-1.833.188-2.688.188-3.354,0-5.927-.833-7.719-2.5-1.792-1.667-2.688-4.042-2.688-7.125v-19.406h-4.969v-6.375h4.969v-8.312h8.125v8.312h6.75ZM294.359,96.531c-1.396,0-2.583-.479-3.562-1.438-.958-.958-1.438-2.146-1.438-3.562,0-1.396.479-2.573,1.438-3.531.979-.958,2.167-1.438,3.562-1.438,1.417,0,2.604.479,3.562,1.438.979.958,1.469,2.135,1.469,3.531,0,1.417-.49,2.604-1.469,3.562-.958.958-2.146,1.438-3.562,1.438ZM340.421,96.719c-5.417,0-9.74-1.25-12.969-3.75-3.208-2.5-4.906-6.052-5.094-10.656h8.219c.188,2.458,1.208,4.292,3.062,5.5,1.854,1.188,4.094,1.781,6.719,1.781,2.75,0,4.99-.615,6.719-1.844,1.75-1.25,2.625-2.875,2.625-4.875,0-1.812-.771-3.177-2.312-4.094-1.542-.938-3.573-1.729-6.094-2.375l-5.281-1.375c-3.896-1-6.938-2.51-9.125-4.531-2.167-2.021-3.25-4.677-3.25-7.969,0-2.75.74-5.146,2.219-7.188,1.479-2.062,3.5-3.667,6.062-4.812s5.469-1.719,8.719-1.719c3.312,0,6.208.573,8.688,1.719,2.5,1.146,4.458,2.729,5.875,4.75s2.156,4.323,2.219,6.906h-8.094c-.208-1.979-1.104-3.521-2.688-4.625-1.562-1.104-3.604-1.656-6.125-1.656-2.625,0-4.688.583-6.188,1.75-1.5,1.146-2.25,2.604-2.25,4.375,0,1.312.396,2.385,1.188,3.219.812.812,1.823,1.469,3.031,1.969,1.229.5,2.469.906,3.719,1.219l4.344,1.125c2.292.562,4.479,1.375,6.562,2.438,2.104,1.042,3.812,2.448,5.125,4.219,1.333,1.771,2,4.01,2,6.719,0,2.729-.698,5.135-2.094,7.219-1.396,2.062-3.406,3.677-6.031,4.844-2.625,1.146-5.792,1.719-9.5,1.719ZM375.078,96.719c-2.208,0-4.198-.396-5.969-1.188-1.771-.812-3.167-2-4.188-3.562s-1.531-3.49-1.531-5.781c0-2.625.635-4.656,1.906-6.094,1.292-1.458,2.948-2.51,4.969-3.156,2.042-.667,4.188-1.115,6.438-1.344,3.042-.333,5.24-.635,6.594-.906,1.354-.292,2.031-1.042,2.031-2.25v-.156c0-1.708-.521-3.031-1.562-3.969-1.042-.958-2.552-1.438-4.531-1.438-2.042,0-3.667.448-4.875,1.344s-2.021,1.917-2.438,3.062l-7.531-1.531c1.021-3.083,2.865-5.375,5.531-6.875,2.688-1.5,5.781-2.25,9.281-2.25,1.646,0,3.302.198,4.969.594,1.688.375,3.229,1.021,4.625,1.938,1.396.896,2.521,2.125,3.375,3.688.854,1.542,1.281,3.479,1.281,5.812v23.344h-7.781v-4.812h-.312c-.771,1.5-2,2.802-3.688,3.906-1.688,1.083-3.885,1.625-6.594,1.625ZM377.171,90.688c2.5,0,4.49-.719,5.969-2.156,1.5-1.438,2.25-3.125,2.25-5.062v-4.125c-.375.292-1.042.552-2,.781-.958.208-1.979.396-3.062.562-1.062.146-1.948.271-2.656.375-1.833.25-3.365.75-4.594,1.5-1.208.75-1.812,1.927-1.812,3.531,0,1.5.552,2.646,1.656,3.438,1.104.771,2.521,1.156,4.25,1.156ZM410.203,49.438v46.562h-8.125v-46.562h8.125ZM434.265,96.719c-3.521,0-6.552-.74-9.094-2.219-2.521-1.479-4.469-3.562-5.844-6.25-1.354-2.688-2.031-5.854-2.031-9.5,0-3.583.667-6.729,2-9.438,1.354-2.729,3.26-4.854,5.719-6.375,2.479-1.542,5.385-2.312,8.719-2.312,2.833,0,5.458.625,7.875,1.875,2.438,1.229,4.396,3.146,5.875,5.75,1.479,2.583,2.219,5.917,2.219,10v2.562h-24.312c.104,3.104.969,5.469,2.594,7.094,1.646,1.625,3.771,2.438,6.375,2.438,1.792,0,3.323-.385,4.594-1.156,1.292-.771,2.208-1.896,2.75-3.375l7.469,1.531c-.833,2.812-2.562,5.083-5.188,6.812-2.604,1.708-5.844,2.562-9.719,2.562ZM425.421,75.281h16.375c-.25-2.5-1.052-4.5-2.406-6-1.333-1.521-3.208-2.281-5.625-2.281-2.479,0-4.448.802-5.906,2.406-1.438,1.583-2.25,3.542-2.438,5.875ZM469.89,96.719c-4.021,0-7.344-.854-9.969-2.562-2.604-1.729-4.208-4.177-4.812-7.344l7.594-1.438c.917,3.417,3.365,5.125,7.344,5.125,2,0,3.583-.396,4.75-1.188,1.188-.812,1.781-1.812,1.781-3,0-1.979-1.573-3.312-4.719-4l-5.969-1.281c-6.542-1.417-9.812-4.677-9.812-9.781,0-2.167.594-4.042,1.781-5.625s2.833-2.812,4.938-3.688c2.125-.875,4.583-1.312,7.375-1.312,3.958,0,7.083.823,9.375,2.469,2.312,1.646,3.823,3.823,4.531,6.531l-7.25,1.438c-.417-1.208-1.146-2.24-2.188-3.094s-2.5-1.281-4.375-1.281c-1.708,0-3.146.385-4.312,1.156-1.167.75-1.75,1.719-1.75,2.906,0,1.021.375,1.865,1.125,2.531.771.646,2.052,1.167,3.844,1.562l5.938,1.25c6.521,1.396,9.781,4.542,9.781,9.438,0,2.208-.635,4.156-1.906,5.844-1.271,1.667-3.042,2.979-5.312,3.938-2.25.938-4.844,1.406-7.781,1.406ZM526.39,96.625c-2,0-3.667-.333-5-1-1.312-.688-2.365-1.51-3.156-2.469-.792-.958-1.396-1.854-1.812-2.688h-.531v5.531h-7.938v-46.562h8.125v17.406h.344c.396-.812.979-1.698,1.75-2.656.771-.979,1.823-1.812,3.156-2.5,1.333-.708,3.031-1.062,5.094-1.062,2.688,0,5.115.688,7.281,2.062,2.188,1.375,3.917,3.406,5.188,6.094,1.292,2.667,1.938,5.938,1.938,9.812,0,3.833-.635,7.094-1.906,9.781-1.25,2.688-2.958,4.74-5.125,6.156-2.167,1.396-4.635,2.094-7.406,2.094ZM524.203,89.938c2.708,0,4.76-1.073,6.156-3.219,1.417-2.167,2.125-4.885,2.125-8.156,0-3.25-.698-5.938-2.094-8.062-1.375-2.125-3.438-3.188-6.188-3.188-2.688,0-4.74,1.031-6.156,3.094-1.417,2.042-2.125,4.76-2.125,8.156s.719,6.146,2.156,8.25c1.438,2.083,3.479,3.125,6.125,3.125ZM546.359,108.469l1.906-6.344.969.25c1.833.5,3.365.448,4.594-.156,1.229-.583,2.052-1.875,2.469-3.875l.5-2.219-13.188-35.062h8.688l6.375,19c.5,1.521.938,3.042,1.312,4.562.375,1.5.729,3.01,1.062,4.531.396-1.542.792-3.062,1.188-4.562.417-1.521.885-3.031,1.406-4.531l6.594-19h8.594l-15,39.438c-1.062,2.792-2.542,4.958-4.438,6.5s-4.427,2.312-7.594,2.312c-1.146,0-2.208-.083-3.188-.25-.958-.167-1.708-.365-2.25-.594ZM620.703,96.625c-4.083,0-7.729-.948-10.938-2.844-3.208-1.896-5.74-4.625-7.594-8.188s-2.781-7.844-2.781-12.844.927-9.312,2.781-12.875c1.875-3.583,4.417-6.323,7.625-8.219s6.844-2.844,10.906-2.844c3.396,0,6.479.635,9.25,1.906,2.792,1.271,5.094,3.115,6.906,5.531,1.812,2.396,2.969,5.292,3.469,8.688h-8.406c-.521-2.75-1.802-4.875-3.844-6.375-2.042-1.521-4.458-2.281-7.25-2.281-3.812,0-6.948,1.427-9.406,4.281-2.438,2.833-3.656,6.896-3.656,12.188,0,5.354,1.229,9.427,3.688,12.219s5.573,4.188,9.344,4.188c2.792,0,5.208-.75,7.25-2.25,2.062-1.521,3.354-3.656,3.875-6.406h8.438c-.438,2.979-1.51,5.688-3.219,8.125s-3.958,4.385-6.75,5.844c-2.792,1.438-6.021,2.156-9.688,2.156ZM662.796,96.719c-3.396,0-6.344-.75-8.844-2.25-2.5-1.521-4.438-3.625-5.812-6.312-1.354-2.708-2.031-5.854-2.031-9.438,0-3.625.677-6.792,2.031-9.5,1.375-2.729,3.312-4.844,5.812-6.344s5.448-2.25,8.844-2.25,6.344.75,8.844,2.25,4.438,3.615,5.812,6.344c1.375,2.708,2.062,5.875,2.062,9.5,0,3.583-.688,6.729-2.062,9.438-1.375,2.688-3.312,4.792-5.812,6.312-2.5,1.5-5.448,2.25-8.844,2.25ZM662.796,90.125c1.896,0,3.469-.51,4.719-1.531,1.25-1.021,2.188-2.396,2.812-4.125s.938-3.656.938-5.781c0-2.146-.312-4.083-.938-5.812s-1.562-3.104-2.812-4.125-2.823-1.531-4.719-1.531c-1.875,0-3.438.51-4.688,1.531s-2.188,2.396-2.812,4.125c-.604,1.729-.906,3.667-.906,5.812,0,2.125.302,4.052.906,5.781.625,1.729,1.562,3.104,2.812,4.125,1.25,1.021,2.812,1.531,4.688,1.531ZM704.984,61.062v6.375h-7.562v28.562h-8.094v-28.562h-6.406v-6.375h6.406v-3.344c0-2.312.49-4.24,1.469-5.781.979-1.562,2.281-2.729,3.906-3.5,1.646-.792,3.469-1.188,5.469-1.188,1.438,0,2.708.115,3.812.344s1.917.438,2.438.625l-1.656,6.312c-.354-.104-.792-.208-1.312-.312-.5-.125-1.094-.188-1.781-.188-1.521,0-2.615.375-3.281,1.125-.646.75-.969,1.812-.969,3.188v2.719h7.562ZM727.234,61.062v6.375h-7.562v28.562h-8.094v-28.562h-6.406v-6.375h6.406v-3.344c0-2.312.49-4.24,1.469-5.781.979-1.562,2.281-2.729,3.906-3.5,1.646-.792,3.469-1.188,5.469-1.188,1.438,0,2.708.115,3.812.344s1.917.438,2.438.625l-1.656,6.312c-.354-.104-.792-.208-1.312-.312-.5-.125-1.094-.188-1.781-.188-1.521,0-2.615.375-3.281,1.125-.646.75-.969,1.812-.969,3.188v2.719h7.562ZM747.64,96.719c-3.521,0-6.552-.74-9.094-2.219-2.521-1.479-4.469-3.562-5.844-6.25-1.354-2.688-2.031-5.854-2.031-9.5,0-3.583.667-6.729,2-9.438,1.354-2.729,3.26-4.854,5.719-6.375,2.479-1.542,5.385-2.312,8.719-2.312,2.833,0,5.458.625,7.875,1.875,2.438,1.229,4.396,3.146,5.875,5.75,1.479,2.583,2.219,5.917,2.219,10v2.562h-24.312c.104,3.104.969,5.469,2.594,7.094,1.646,1.625,3.771,2.438,6.375,2.438,1.792,0,3.323-.385,4.594-1.156,1.292-.771,2.208-1.896,2.75-3.375l7.469,1.531c-.833,2.812-2.562,5.083-5.188,6.812-2.604,1.708-5.844,2.562-9.719,2.562ZM738.796,75.281h16.375c-.25-2.5-1.052-4.5-2.406-6-1.333-1.521-3.208-2.281-5.625-2.281-2.479,0-4.448.802-5.906,2.406-1.438,1.583-2.25,3.542-2.438,5.875ZM785.484,96.719c-3.521,0-6.552-.74-9.094-2.219-2.521-1.479-4.469-3.562-5.844-6.25-1.354-2.688-2.031-5.854-2.031-9.5,0-3.583.667-6.729,2-9.438,1.354-2.729,3.26-4.854,5.719-6.375,2.479-1.542,5.385-2.312,8.719-2.312,2.833,0,5.458.625,7.875,1.875,2.438,1.229,4.396,3.146,5.875,5.75,1.479,2.583,2.219,5.917,2.219,10v2.562h-24.312c.104,3.104.969,5.469,2.594,7.094,1.646,1.625,3.771,2.438,6.375,2.438,1.792,0,3.323-.385,4.594-1.156,1.292-.771,2.208-1.896,2.75-3.375l7.469,1.531c-.833,2.812-2.562,5.083-5.188,6.812-2.604,1.708-5.844,2.562-9.719,2.562ZM776.64,75.281h16.375c-.25-2.5-1.052-4.5-2.406-6-1.333-1.521-3.208-2.281-5.625-2.281-2.479,0-4.448.802-5.906,2.406-1.438,1.583-2.25,3.542-2.438,5.875ZM822.296,56.469v-7.031h37.062v7.031h-14.344v39.531h-8.344v-39.531h-14.375ZM861.921,108.469l1.906-6.344.969.25c1.833.5,3.365.448,4.594-.156,1.229-.583,2.052-1.875,2.469-3.875l.5-2.219-13.188-35.062h8.688l6.375,19c.5,1.521.938,3.042,1.312,4.562.375,1.5.729,3.01,1.062,4.531.396-1.542.792-3.062,1.188-4.562.417-1.521.885-3.031,1.406-4.531l6.594-19h8.594l-15,39.438c-1.062,2.792-2.542,4.958-4.438,6.5s-4.427,2.312-7.594,2.312c-1.146,0-2.208-.083-3.188-.25-.958-.167-1.708-.365-2.25-.594ZM899.921,109.062v-48h7.938v5.781h.531c.396-.812.979-1.698,1.75-2.656.771-.979,1.823-1.812,3.156-2.5,1.333-.708,3.031-1.062,5.094-1.062,2.688,0,5.115.688,7.281,2.062,2.188,1.375,3.917,3.406,5.188,6.094,1.292,2.667,1.938,5.938,1.938,9.812,0,3.833-.635,7.094-1.906,9.781-1.25,2.688-2.958,4.74-5.125,6.156-2.167,1.396-4.635,2.094-7.406,2.094-2,0-3.667-.333-5-1-1.312-.688-2.365-1.51-3.156-2.469-.792-.958-1.396-1.854-1.812-2.688h-.344v18.594h-8.125ZM916.171,89.938c2.708,0,4.76-1.073,6.156-3.219,1.417-2.167,2.125-4.885,2.125-8.156,0-3.25-.698-5.938-2.094-8.062-1.375-2.125-3.438-3.188-6.188-3.188-2.688,0-4.74,1.031-6.156,3.094-1.417,2.042-2.125,4.76-2.125,8.156s.719,6.146,2.156,8.25c1.438,2.083,3.479,3.125,6.125,3.125ZM955.296,96.719c-3.521,0-6.552-.74-9.094-2.219-2.521-1.479-4.469-3.562-5.844-6.25-1.354-2.688-2.031-5.854-2.031-9.5,0-3.583.667-6.729,2-9.438,1.354-2.729,3.26-4.854,5.719-6.375,2.479-1.542,5.385-2.312,8.719-2.312,2.833,0,5.458.625,7.875,1.875,2.438,1.229,4.396,3.146,5.875,5.75,1.479,2.583,2.219,5.917,2.219,10v2.562h-24.312c.104,3.104.969,5.469,2.594,7.094,1.646,1.625,3.771,2.438,6.375,2.438,1.792,0,3.323-.385,4.594-1.156,1.292-.771,2.208-1.896,2.75-3.375l7.469,1.531c-.833,2.812-2.562,5.083-5.188,6.812-2.604,1.708-5.844,2.562-9.719,2.562ZM946.453,75.281h16.375c-.25-2.5-1.052-4.5-2.406-6-1.333-1.521-3.208-2.281-5.625-2.281-2.479,0-4.448.802-5.906,2.406-1.438,1.583-2.25,3.542-2.438,5.875Z"/>
      </g>
      <g id="g19">
        <path id="rect18" class="cls-4" d="M935,264h23v23h-23v-23Z"/>
      </g>
      <g id="g20">
        <path id="text19" class="cls-9" d="M968.421,289l10.931-29.829h3.363l11.031,29.829h-3.003l-3.223-8.869h-12.913l-3.163,8.869h-3.023ZM975.508,277.609h11.091l-2.943-8.108c-.36-.988-.754-2.129-1.181-3.423-.427-1.295-.914-2.829-1.461-4.604-.534,1.788-1.021,3.337-1.461,4.645-.427,1.308-.807,2.436-1.141,3.383l-2.903,8.108ZM998.31,289v-22.382h2.643v3.483h.2c.44-1.148,1.215-2.062,2.322-2.743,1.121-.694,2.376-1.041,3.764-1.041.214,0,.454.007.721.02.267,0,.487.007.661.02v2.723c-.093-.013-.294-.04-.601-.08-.307-.04-.641-.06-1.001-.06-1.735,0-3.17.541-4.304,1.622-1.121,1.068-1.682,2.429-1.682,4.084v14.354h-2.723ZM1018.93,289.5c-1.361,0-2.603-.26-3.724-.781-1.108-.534-1.995-1.301-2.663-2.302-.654-1.001-.981-2.229-.981-3.684,0-1.468.367-2.636,1.101-3.503.734-.881,1.748-1.542,3.043-1.982,1.295-.454,2.783-.781,4.464-.981,1.855-.227,3.29-.434,4.304-.621,1.028-.187,1.542-.707,1.542-1.562v-.521c0-1.495-.454-2.669-1.361-3.523-.908-.868-2.202-1.301-3.884-1.301-1.602,0-2.903.354-3.904,1.061-.988.694-1.675,1.508-2.062,2.442l-2.603-.881c.494-1.215,1.188-2.189,2.082-2.923s1.895-1.268,3.003-1.602c1.121-.347,2.262-.521,3.423-.521.881,0,1.788.12,2.723.36.934.227,1.802.621,2.603,1.181.801.547,1.448,1.308,1.942,2.282.494.961.741,2.182.741,3.664v15.195h-2.663v-3.543h-.2c-.494,1.028-1.321,1.962-2.482,2.803-1.148.827-2.629,1.241-4.444,1.241ZM1019.331,287.078c1.361,0,2.542-.3,3.543-.901,1.001-.614,1.775-1.421,2.322-2.422.547-1.014.821-2.129.821-3.343v-3.183c-.254.24-.734.454-1.441.641-.707.174-1.468.32-2.282.44-.814.107-1.515.2-2.102.28-1.882.227-3.337.667-4.364,1.321-1.028.641-1.542,1.622-1.542,2.943,0,1.335.48,2.376,1.441,3.123.961.734,2.162,1.101,3.604,1.101ZM1045.376,289.48c-1.348,0-2.476-.24-3.383-.721-.908-.494-1.642-1.101-2.202-1.822s-.988-1.428-1.281-2.122h-.3v4.184h-2.643v-29.829h2.723v11.751h.22c.294-.681.714-1.375,1.261-2.082s1.275-1.301,2.182-1.782c.908-.494,2.049-.741,3.423-.741,1.815,0,3.41.487,4.785,1.461,1.388.961,2.469,2.309,3.243,4.044.774,1.722,1.161,3.737,1.161,6.046,0,2.322-.387,4.358-1.161,6.106-.761,1.735-1.835,3.09-3.223,4.064-1.375.961-2.976,1.441-4.805,1.441ZM1045.016,287.018c1.455,0,2.689-.407,3.704-1.221,1.014-.814,1.782-1.909,2.302-3.283.534-1.388.801-2.943.801-4.665,0-1.708-.26-3.243-.781-4.604-.521-1.375-1.288-2.462-2.302-3.263s-2.256-1.201-3.724-1.201c-1.441,0-2.669.387-3.684,1.161-1.001.774-1.768,1.842-2.302,3.203-.521,1.361-.781,2.93-.781,4.705s.267,3.357.801,4.745c.534,1.375,1.301,2.456,2.302,3.243,1.014.787,2.236,1.181,3.664,1.181ZM1060.251,289v-22.382h2.723v22.382h-2.723ZM1061.632,262.474c-.547,0-1.014-.187-1.401-.561s-.581-.821-.581-1.341.194-.968.581-1.341.854-.561,1.401-.561,1.014.187,1.401.561.581.821.581,1.341-.194.968-.581,1.341-.854.561-1.401.561ZM1078.549,289.42c-1.949,0-3.664-.487-5.145-1.461-1.481-.974-2.643-2.322-3.483-4.044-.841-1.735-1.261-3.737-1.261-6.006,0-2.296.42-4.311,1.261-6.046.841-1.735,2.002-3.09,3.483-4.064,1.481-.988,3.196-1.481,5.145-1.481,1.508,0,2.849.287,4.024.861s2.149,1.295,2.923,2.162,1.308,1.762,1.602,2.683l-2.583.801c-.174-.561-.514-1.154-1.021-1.782-.494-.627-1.161-1.161-2.002-1.602-.827-.44-1.808-.661-2.943-.661-1.521,0-2.816.414-3.884,1.241-1.054.814-1.862,1.915-2.422,3.303-.561,1.375-.841,2.903-.841,4.584,0,1.655.28,3.17.841,4.544.561,1.375,1.368,2.476,2.422,3.303,1.068.814,2.362,1.221,3.884,1.221,1.161,0,2.162-.227,3.003-.681s1.521-1.001,2.042-1.642c.521-.654.861-1.268,1.021-1.842l2.562.801c-.28.921-.814,1.828-1.602,2.723-.774.894-1.762,1.635-2.963,2.222-1.188.574-2.542.861-4.064.861ZM1099.029,289.5c-1.361,0-2.603-.26-3.724-.781-1.108-.534-1.995-1.301-2.663-2.302-.654-1.001-.981-2.229-.981-3.684,0-1.468.367-2.636,1.101-3.503.734-.881,1.748-1.542,3.043-1.982,1.295-.454,2.783-.781,4.464-.981,1.855-.227,3.29-.434,4.304-.621,1.028-.187,1.542-.707,1.542-1.562v-.521c0-1.495-.454-2.669-1.361-3.523-.908-.868-2.202-1.301-3.884-1.301-1.602,0-2.903.354-3.904,1.061-.988.694-1.675,1.508-2.062,2.442l-2.603-.881c.494-1.215,1.188-2.189,2.082-2.923s1.895-1.268,3.003-1.602c1.121-.347,2.262-.521,3.423-.521.881,0,1.788.12,2.723.36.934.227,1.802.621,2.603,1.181.801.547,1.448,1.308,1.942,2.282.494.961.741,2.182.741,3.664v15.195h-2.663v-3.543h-.2c-.494,1.028-1.321,1.962-2.482,2.803-1.148.827-2.629,1.241-4.444,1.241ZM1099.429,287.078c1.361,0,2.542-.3,3.543-.901,1.001-.614,1.775-1.421,2.322-2.422.547-1.014.821-2.129.821-3.343v-3.183c-.254.24-.734.454-1.441.641-.707.174-1.468.32-2.282.44-.814.107-1.515.2-2.102.28-1.882.227-3.337.667-4.364,1.321-1.028.641-1.542,1.622-1.542,2.943,0,1.335.48,2.376,1.441,3.123.961.734,2.162,1.101,3.604,1.101Z"/>
      </g>
      <g id="g21">
        <path id="rect20" class="cls-14" d="M935,341h23v23h-23v-23Z"/>
      </g>
      <g id="g22">
        <path id="text21" class="cls-9" d="M971.224,365v-29.829h17.417v2.542h-14.574v11.011h13.653v2.542h-13.653v11.191h14.854v2.542h-17.697ZM992.945,365l8.068-11.471-7.627-10.911h3.183l3.423,5.025c.507.761.968,1.495,1.381,2.202.427.707.847,1.388,1.261,2.042.4-.654.801-1.335,1.201-2.042s.861-1.441,1.381-2.202l3.463-5.025h3.123l-7.667,11.031,8.028,11.351h-3.163l-4.004-5.806c-.48-.721-.921-1.401-1.321-2.042-.387-.654-.767-1.295-1.141-1.922-.374.627-.747,1.268-1.121,1.922-.374.641-.801,1.321-1.281,2.042l-4.024,5.806h-3.163ZM1024.676,365.42c-1.949,0-3.664-.487-5.145-1.461-1.481-.974-2.643-2.322-3.483-4.044-.841-1.735-1.261-3.737-1.261-6.006,0-2.296.42-4.311,1.261-6.046.841-1.735,2.002-3.09,3.483-4.064,1.481-.988,3.196-1.481,5.145-1.481,1.508,0,2.849.287,4.024.861s2.149,1.295,2.923,2.162c.774.868,1.308,1.762,1.602,2.683l-2.583.801c-.174-.561-.514-1.154-1.021-1.782-.494-.627-1.161-1.161-2.002-1.602-.827-.44-1.808-.661-2.943-.661-1.521,0-2.816.414-3.884,1.241-1.054.814-1.862,1.915-2.422,3.303-.561,1.375-.841,2.903-.841,4.584,0,1.655.28,3.17.841,4.544.561,1.375,1.368,2.476,2.422,3.303,1.068.814,2.362,1.221,3.884,1.221,1.161,0,2.162-.227,3.003-.681s1.521-1.001,2.042-1.642c.521-.654.861-1.268,1.021-1.842l2.562.801c-.28.921-.814,1.828-1.602,2.723-.774.894-1.762,1.635-2.963,2.222-1.188.574-2.542.861-4.064.861ZM1047.939,365.48c-2.095,0-3.91-.487-5.445-1.461-1.521-.988-2.703-2.349-3.543-4.084-.827-1.735-1.241-3.73-1.241-5.986s.407-4.257,1.221-6.006c.827-1.748,1.975-3.123,3.443-4.124,1.481-1.001,3.196-1.501,5.145-1.501,1.628,0,3.17.4,4.625,1.201s2.636,2.022,3.543,3.664,1.361,3.73,1.361,6.266v1.181h-16.596c.053,2.549.754,4.591,2.102,6.126,1.348,1.521,3.15,2.282,5.405,2.282,1.562,0,2.843-.36,3.844-1.081s1.708-1.575,2.122-2.562l2.583.821c-.507,1.401-1.501,2.629-2.983,3.684-1.468,1.054-3.33,1.582-5.585,1.582ZM1040.451,352.288h13.854c-.147-2.175-.814-3.971-2.002-5.385-1.188-1.428-2.783-2.142-4.785-2.142-1.348,0-2.536.34-3.563,1.021s-1.848,1.595-2.462,2.743c-.614,1.134-.961,2.389-1.041,3.764ZM1065.356,335.171v29.829h-2.723v-29.829h2.723ZM1079.329,365.48c-2.202,0-4.024-.494-5.465-1.481-1.428-1.001-2.342-2.442-2.743-4.324l2.603-.621c.32,1.348.954,2.356,1.902,3.023.961.654,2.182.981,3.664.981,1.695,0,3.05-.38,4.064-1.141,1.028-.761,1.542-1.708,1.542-2.843,0-1.815-1.215-3.016-3.644-3.604l-3.644-.881c-3.83-.921-5.746-2.903-5.746-5.946,0-1.255.334-2.356,1.001-3.303.681-.948,1.608-1.688,2.783-2.222,1.188-.534,2.536-.801,4.044-.801,2.109,0,3.777.48,5.005,1.441,1.241.948,2.122,2.229,2.643,3.844l-2.482.641c-.347-1.028-.928-1.875-1.742-2.542-.801-.681-1.935-1.021-3.403-1.021-1.481,0-2.703.36-3.664,1.081-.961.707-1.441,1.615-1.441,2.723,0,1.842,1.335,3.083,4.004,3.724l3.423.821c3.777.908,5.666,2.869,5.666,5.886,0,1.281-.354,2.416-1.061,3.403-.707.988-1.695,1.762-2.963,2.322-1.255.561-2.703.841-4.344.841ZM1099.249,365.5c-1.361,0-2.603-.26-3.724-.781-1.108-.534-1.995-1.301-2.663-2.302-.654-1.001-.981-2.229-.981-3.684,0-1.468.367-2.636,1.101-3.503.734-.881,1.748-1.542,3.043-1.982,1.295-.454,2.783-.781,4.464-.981,1.855-.227,3.29-.434,4.304-.621,1.028-.187,1.542-.707,1.542-1.562v-.521c0-1.495-.454-2.669-1.361-3.523-.908-.868-2.202-1.301-3.884-1.301-1.602,0-2.903.354-3.904,1.061-.988.694-1.675,1.508-2.062,2.442l-2.603-.881c.494-1.215,1.188-2.189,2.082-2.923.894-.734,1.895-1.268,3.003-1.602,1.121-.347,2.262-.521,3.423-.521.881,0,1.788.12,2.723.36.934.227,1.802.621,2.603,1.181.801.547,1.448,1.308,1.942,2.282.494.961.741,2.182.741,3.664v15.195h-2.663v-3.543h-.2c-.494,1.028-1.321,1.962-2.482,2.803-1.148.827-2.629,1.241-4.444,1.241h0ZM1099.649,363.078c1.361,0,2.542-.3,3.543-.901,1.001-.614,1.775-1.421,2.322-2.422.547-1.014.821-2.129.821-3.343v-3.183c-.254.24-.734.454-1.441.641-.707.174-1.468.32-2.282.44-.814.107-1.515.2-2.102.28-1.882.227-3.337.667-4.364,1.321-1.028.641-1.541,1.622-1.541,2.943,0,1.335.48,2.376,1.441,3.123.961.734,2.162,1.101,3.604,1.101Z"/>
      </g>
      <g id="g23">
        <path id="rect22" class="cls-8" d="M935,418h23v23h-23v-23Z"/>
      </g>
      <g id="g24">
        <path id="text23" class="cls-9" d="M971.224,442v-29.829h2.863v27.287h14.174v2.542h-17.037ZM993.846,442v-22.382h2.723v22.382h-2.723ZM995.227,415.474c-.547,0-1.014-.187-1.401-.561s-.581-.821-.581-1.341.194-.968.581-1.341.854-.561,1.401-.561,1.014.187,1.401.561.581.821.581,1.341-.194.968-.581,1.341-.854.561-1.401.561ZM1013.225,442.48c-1.348,0-2.476-.24-3.383-.721-.908-.494-1.642-1.101-2.202-1.822s-.988-1.428-1.281-2.122h-.3v4.184h-2.643v-29.829h2.723v11.751h.22c.294-.681.714-1.375,1.261-2.082s1.275-1.301,2.182-1.782c.908-.494,2.049-.741,3.423-.741,1.815,0,3.41.487,4.785,1.461,1.388.961,2.469,2.309,3.243,4.044.774,1.722,1.161,3.737,1.161,6.046,0,2.322-.387,4.358-1.161,6.106-.761,1.735-1.835,3.09-3.223,4.064-1.375.961-2.976,1.441-4.805,1.441ZM1012.865,440.018c1.455,0,2.689-.407,3.704-1.221,1.014-.814,1.782-1.909,2.302-3.283.534-1.388.801-2.943.801-4.665,0-1.708-.26-3.243-.781-4.604-.521-1.375-1.288-2.462-2.302-3.263s-2.256-1.201-3.724-1.201c-1.441,0-2.669.387-3.684,1.161-1.001.774-1.768,1.842-2.302,3.203-.521,1.361-.781,2.93-.781,4.705s.267,3.357.801,4.745c.534,1.375,1.301,2.456,2.302,3.243,1.014.787,2.236,1.181,3.664,1.181ZM1037.168,442.48c-2.095,0-3.91-.487-5.445-1.461-1.521-.988-2.703-2.349-3.543-4.084-.827-1.735-1.241-3.73-1.241-5.986s.407-4.257,1.221-6.006c.827-1.748,1.975-3.123,3.443-4.124,1.481-1.001,3.196-1.501,5.145-1.501,1.628,0,3.17.4,4.625,1.201s2.636,2.022,3.543,3.664,1.361,3.73,1.361,6.266v1.181h-16.596c.053,2.549.754,4.591,2.102,6.126,1.348,1.521,3.15,2.282,5.405,2.282,1.562,0,2.843-.36,3.844-1.081s1.708-1.575,2.122-2.562l2.583.821c-.507,1.401-1.501,2.629-2.983,3.684-1.468,1.054-3.33,1.582-5.585,1.582ZM1029.681,429.288h13.854c-.147-2.175-.814-3.971-2.002-5.385-1.188-1.428-2.783-2.142-4.785-2.142-1.348,0-2.536.34-3.563,1.021s-1.848,1.595-2.462,2.743c-.614,1.134-.961,2.389-1.041,3.764ZM1051.863,442v-22.382h2.643v3.483h.2c.44-1.148,1.215-2.062,2.322-2.743,1.121-.694,2.376-1.041,3.764-1.041.214,0,.454.007.721.02.267,0,.487.007.661.02v2.723c-.093-.013-.294-.04-.601-.08-.307-.04-.641-.06-1.001-.06-1.735,0-3.17.541-4.304,1.622-1.121,1.068-1.682,2.429-1.682,4.084v14.354h-2.723ZM1067.017,442v-22.382h2.723v22.382h-2.723ZM1068.399,415.474c-.547,0-1.014-.187-1.401-.561s-.581-.821-.581-1.341.194-.968.581-1.341.854-.561,1.401-.561,1.014.187,1.401.561.581.821.581,1.341-.194.968-.581,1.341-.854.561-1.401.561ZM1085.315,442.42c-1.949,0-3.664-.487-5.145-1.461-1.481-.974-2.643-2.322-3.483-4.044-.841-1.735-1.261-3.737-1.261-6.006,0-2.296.42-4.311,1.261-6.046.841-1.735,2.002-3.09,3.483-4.064,1.481-.988,3.196-1.481,5.145-1.481,1.508,0,2.849.287,4.024.861s2.149,1.295,2.923,2.162,1.308,1.762,1.602,2.683l-2.583.801c-.174-.561-.514-1.154-1.021-1.782-.494-.627-1.161-1.161-2.002-1.602-.827-.44-1.808-.661-2.943-.661-1.521,0-2.816.414-3.884,1.241-1.054.814-1.862,1.915-2.422,3.303-.561,1.375-.841,2.903-.841,4.584,0,1.655.28,3.17.841,4.544.561,1.375,1.368,2.476,2.422,3.303,1.068.814,2.362,1.221,3.884,1.221,1.161,0,2.162-.227,3.003-.681s1.521-1.001,2.042-1.642c.521-.654.861-1.268,1.021-1.842l2.562.801c-.28.921-.814,1.828-1.602,2.723-.774.894-1.762,1.635-2.963,2.222-1.188.574-2.542.861-4.064.861ZM1105.795,442.5c-1.361,0-2.603-.26-3.724-.781-1.108-.534-1.995-1.301-2.663-2.302-.654-1.001-.981-2.229-.981-3.684,0-1.468.367-2.636,1.101-3.503.734-.881,1.748-1.542,3.043-1.982,1.295-.454,2.783-.781,4.464-.981,1.855-.227,3.29-.434,4.304-.621,1.028-.187,1.542-.707,1.542-1.562v-.521c0-1.495-.454-2.669-1.361-3.523-.908-.868-2.202-1.301-3.884-1.301-1.602,0-2.903.354-3.904,1.061-.988.694-1.675,1.508-2.062,2.442l-2.603-.881c.494-1.215,1.188-2.189,2.082-2.923.894-.734,1.895-1.268,3.003-1.602,1.121-.347,2.262-.521,3.423-.521.881,0,1.788.12,2.723.36.934.227,1.802.621,2.603,1.181.801.547,1.448,1.308,1.942,2.282.494.961.741,2.182.741,3.664v15.195h-2.663v-3.543h-.2c-.494,1.028-1.321,1.962-2.482,2.803-1.148.827-2.629,1.241-4.444,1.241ZM1106.196,440.078c1.361,0,2.542-.3,3.543-.901,1.001-.614,1.775-1.421,2.322-2.422.547-1.014.821-2.129.821-3.343v-3.183c-.254.24-.734.454-1.441.641-.707.174-1.468.32-2.282.44-.814.107-1.515.2-2.102.28-1.882.227-3.337.667-4.364,1.321-1.028.641-1.542,1.622-1.542,2.943,0,1.335.48,2.376,1.441,3.123.961.734,2.162,1.101,3.604,1.101Z"/>
      </g>
      <g id="g25">
        <path id="rect24" class="cls-10" d="M935,495h23v23h-23v-23Z"/>
      </g>
      <g id="g26">
        <path id="text25" class="cls-9" d="M971.224,519v-29.829h9.729c3.163,0,5.559.841,7.187,2.522s2.442,3.837,2.442,6.466c0,1.989-.474,3.71-1.421,5.165-.948,1.441-2.342,2.469-4.184,3.083l6.847,12.592h-3.283l-6.466-12.032c-.36.027-.727.04-1.101.04h-6.907v11.992h-2.843ZM974.067,504.446h6.787c2.309,0,4.037-.567,5.185-1.702,1.148-1.134,1.722-2.663,1.722-4.584,0-1.949-.574-3.51-1.722-4.685s-2.883-1.762-5.205-1.762h-6.767v12.732ZM1004.897,519.48c-1.949,0-3.664-.487-5.145-1.461-1.481-.988-2.643-2.349-3.483-4.084-.841-1.735-1.261-3.737-1.261-6.006,0-2.296.42-4.311,1.261-6.046.841-1.748,2.002-3.11,3.483-4.084,1.481-.988,3.196-1.481,5.145-1.481,1.935,0,3.644.494,5.125,1.481,1.495.974,2.663,2.336,3.503,4.084.841,1.735,1.261,3.75,1.261,6.046,0,2.269-.42,4.271-1.261,6.006-.841,1.735-2.009,3.096-3.503,4.084-1.481.974-3.19,1.461-5.125,1.461ZM1004.897,517.018c1.535,0,2.829-.414,3.884-1.241,1.068-.827,1.882-1.929,2.442-3.303s.841-2.889.841-4.544c0-1.668-.28-3.19-.841-4.564-.561-1.388-1.375-2.496-2.442-3.323-1.068-.841-2.362-1.261-3.884-1.261s-2.816.42-3.884,1.261c-1.054.827-1.862,1.935-2.422,3.323-.561,1.375-.841,2.896-.841,4.564,0,1.655.274,3.17.821,4.544.561,1.375,1.375,2.476,2.442,3.303,1.068.827,2.362,1.241,3.884,1.241ZM1030.281,519.48c-1.348,0-2.476-.24-3.383-.721-.908-.494-1.642-1.101-2.202-1.822s-.988-1.428-1.281-2.122h-.3v4.184h-2.643v-29.829h2.723v11.751h.22c.294-.681.714-1.375,1.261-2.082s1.275-1.301,2.182-1.782c.908-.494,2.049-.741,3.423-.741,1.815,0,3.41.487,4.785,1.461,1.388.961,2.469,2.309,3.243,4.044.774,1.722,1.161,3.737,1.161,6.046,0,2.322-.387,4.358-1.161,6.106-.761,1.735-1.835,3.09-3.223,4.064-1.375.961-2.976,1.441-4.805,1.441ZM1029.921,517.018c1.455,0,2.689-.407,3.704-1.221,1.014-.814,1.782-1.909,2.302-3.283.534-1.388.801-2.943.801-4.665,0-1.708-.26-3.243-.781-4.604-.521-1.375-1.288-2.462-2.302-3.263s-2.256-1.201-3.724-1.201c-1.441,0-2.669.387-3.684,1.161-1.001.774-1.768,1.842-2.302,3.203-.521,1.361-.781,2.93-.781,4.705s.267,3.357.801,4.745c.534,1.375,1.301,2.456,2.302,3.243,1.014.787,2.236,1.181,3.664,1.181ZM1052.823,519.3c-2.269,0-4.117-.701-5.545-2.102-1.415-1.415-2.122-3.45-2.122-6.106v-14.474h2.723v14.274c0,1.828.514,3.277,1.542,4.344,1.028,1.054,2.402,1.582,4.124,1.582,1.762,0,3.23-.561,4.404-1.682,1.188-1.121,1.782-2.643,1.782-4.564v-13.954h2.723v22.382h-2.643v-4.144c-.694,1.575-1.655,2.709-2.883,3.403-1.228.694-2.596,1.041-4.104,1.041ZM1076.427,519.48c-2.202,0-4.024-.494-5.465-1.481-1.428-1.001-2.342-2.442-2.743-4.324l2.603-.621c.32,1.348.954,2.356,1.902,3.023.961.654,2.182.981,3.664.981,1.695,0,3.05-.38,4.064-1.141,1.028-.761,1.541-1.708,1.541-2.843,0-1.815-1.215-3.016-3.644-3.604l-3.644-.881c-3.83-.921-5.746-2.903-5.746-5.946,0-1.255.334-2.356,1.001-3.303.681-.948,1.608-1.688,2.783-2.222,1.188-.534,2.536-.801,4.044-.801,2.109,0,3.777.48,5.005,1.441,1.241.948,2.122,2.229,2.643,3.844l-2.482.641c-.347-1.028-.928-1.875-1.742-2.542-.801-.681-1.935-1.021-3.403-1.021-1.481,0-2.703.36-3.664,1.081-.961.707-1.441,1.615-1.441,2.723,0,1.842,1.335,3.083,4.004,3.724l3.423.821c3.777.908,5.666,2.869,5.666,5.886,0,1.281-.354,2.416-1.061,3.403-.707.988-1.695,1.762-2.963,2.322-1.255.561-2.703.841-4.344.841h0ZM1098.028,496.618v2.362h-4.604v14.734c0,2.242,1.001,3.263,3.003,3.063.187,0,.414-.02.681-.06.28-.053.541-.107.781-.16l.561,2.342c-.574.187-1.255.294-2.042.32-1.775.12-3.17-.3-4.184-1.261-1.014-.974-1.521-2.329-1.521-4.064v-14.915h-3.323v-2.362h3.323v-5.325h2.723v5.325h4.604ZM1108.838,519.5c-1.361,0-2.603-.26-3.724-.781-1.108-.534-1.995-1.301-2.663-2.302-.654-1.001-.981-2.229-.981-3.684,0-1.468.367-2.636,1.101-3.503.734-.881,1.748-1.542,3.043-1.982,1.295-.454,2.783-.781,4.464-.981,1.855-.227,3.29-.434,4.304-.621,1.028-.187,1.542-.707,1.542-1.562v-.521c0-1.495-.454-2.669-1.361-3.523-.908-.868-2.202-1.301-3.884-1.301-1.602,0-2.903.354-3.904,1.061-.988.694-1.675,1.508-2.062,2.442l-2.603-.881c.494-1.215,1.188-2.189,2.082-2.923s1.895-1.268,3.003-1.602c1.121-.347,2.262-.521,3.423-.521.881,0,1.788.12,2.723.36.934.227,1.802.621,2.603,1.181.801.547,1.448,1.308,1.942,2.282.494.961.741,2.182.741,3.664v15.195h-2.663v-3.543h-.2c-.494,1.028-1.321,1.962-2.482,2.803-1.148.827-2.629,1.241-4.444,1.241ZM1109.239,517.078c1.361,0,2.542-.3,3.543-.901,1.001-.614,1.775-1.421,2.322-2.422.547-1.014.821-2.129.821-3.343v-3.183c-.254.24-.734.454-1.441.641-.707.174-1.468.32-2.282.44-.814.107-1.515.2-2.102.28-1.882.227-3.337.667-4.364,1.321-1.028.641-1.542,1.622-1.542,2.943,0,1.335.48,2.376,1.441,3.123.961.734,2.162,1.101,3.604,1.101Z"/>
      </g>
      <g id="g27">
        <path id="path26" class="cls-13" d="M358,388.5c0-53.295,42.981-96.5,96-96.5s96,43.205,96,96.5-42.981,96.5-96,96.5-96-43.205-96-96.5Z"/>
      </g>
      <path id="rect27" class="cls-3" d="M1252,0h1168v663h-1168V0Z"/>
      <g id="g28">
        <path id="path27" class="cls-2" d="M1819.51,395.781c0,21.277-4.16,42.348-12.24,62.031l-151.09-62.031h163.33Z"/>
      </g>
      <g id="g29">
        <path id="path28" class="cls-7" d="M1799.3,471.567c-19.64,47.823-60.75,83.523-110.85,96.263l-40.24-158.293,151.09,62.03Z"/>
      </g>
      <g id="g30">
        <path id="path29" class="cls-5" d="M1653.05,534.29c-87.42,22.22-176.31-30.63-198.53-118.05-22.22-87.421,30.63-176.305,118.05-198.528,87.42-22.223,176.3,30.63,198.53,118.051,3.34,13.151,5.03,26.668,5.03,40.238h-163.32l40.24,158.289Z"/>
      </g>
      <g id="g31">
        <path id="rect30" class="cls-4" d="M1854,423h23v23h-23v-23Z"/>
      </g>
      <g id="g32">
        <path id="text31" class="cls-9" d="M1911.433,450.4c-1.241,0-2.482-.227-3.724-.681-1.241-.454-2.376-1.215-3.403-2.282-1.014-1.068-1.828-2.516-2.442-4.344-.614-1.828-.921-4.117-.921-6.867,0-5.245.981-9.296,2.943-12.152,1.962-2.869,4.631-4.304,8.008-4.304,1.668,0,3.163.334,4.484,1.001s2.402,1.595,3.243,2.783,1.381,2.562,1.622,4.124h-3.724c-.334-1.295-.968-2.376-1.902-3.243s-2.175-1.301-3.724-1.301c-2.296,0-4.097.994-5.405,2.983-1.295,1.975-1.942,4.758-1.942,8.348h.24c.801-1.241,1.835-2.209,3.103-2.903,1.281-.707,2.696-1.061,4.244-1.061,1.708,0,3.27.42,4.685,1.261s2.542,2.009,3.383,3.503c.854,1.481,1.281,3.183,1.281,5.105,0,1.855-.414,3.543-1.241,5.065-.827,1.508-1.995,2.716-3.503,3.624-1.508.894-3.277,1.341-5.305,1.341ZM1911.433,447.057c1.201,0,2.282-.3,3.243-.901s1.722-1.401,2.282-2.402c.561-1.014.841-2.142.841-3.383,0-1.215-.274-2.316-.821-3.303-.534-1.001-1.275-1.795-2.222-2.382-.948-.587-2.022-.881-3.223-.881s-2.289.307-3.263.921c-.974.614-1.748,1.428-2.322,2.442-.574,1.001-.861,2.082-.861,3.243,0,1.174.274,2.269.821,3.283.547,1.001,1.301,1.815,2.262,2.442.961.614,2.049.921,3.263.921ZM1953.754,450.581c-1.268,0-2.342-.274-3.223-.821-.868-.561-1.528-1.301-1.982-2.222-.44-.921-.661-1.929-.661-3.023v-1.562c0-1.094.227-2.095.681-3.003.454-.921,1.114-1.655,1.982-2.202.881-.561,1.949-.841,3.203-.841,1.281,0,2.356.28,3.223.841.868.547,1.515,1.281,1.942,2.202.44.908.661,1.909.661,3.003v1.562c0,1.094-.227,2.102-.681,3.023-.44.921-1.094,1.662-1.962,2.222-.854.547-1.915.821-3.183.821ZM1934.395,433.364c-1.268,0-2.342-.274-3.223-.821-.868-.561-1.528-1.301-1.982-2.222-.44-.921-.661-1.929-.661-3.023v-1.562c0-1.094.227-2.095.681-3.003.454-.921,1.114-1.655,1.982-2.202.881-.561,1.949-.841,3.203-.841,1.281,0,2.349.28,3.203.841.868.547,1.521,1.281,1.962,2.202.44.908.661,1.909.661,3.003v1.562c0,1.094-.227,2.102-.681,3.023-.44.921-1.094,1.662-1.962,2.222-.854.547-1.915.821-3.183.821ZM1932.013,450l20.5-29.829h3.383l-20.5,29.829h-3.383ZM1953.754,447.958c1.014,0,1.728-.347,2.142-1.041.414-.707.621-1.508.621-2.402v-1.562c0-.881-.2-1.675-.601-2.382s-1.121-1.061-2.162-1.061c-1.001,0-1.722.354-2.162,1.061-.427.707-.641,1.501-.641,2.382v1.562c0,.894.207,1.695.621,2.402.427.694,1.154,1.041,2.182,1.041ZM1934.395,430.741c1.014,0,1.728-.347,2.142-1.041.414-.707.621-1.508.621-2.402v-1.562c0-.881-.2-1.675-.601-2.382s-1.121-1.061-2.162-1.061c-1.001,0-1.722.354-2.162,1.061-.427.707-.641,1.501-.641,2.382v1.562c0,.894.207,1.695.621,2.402.427.694,1.154,1.041,2.182,1.041Z"/>
      </g>
      <g id="g33">
        <path id="rect32" class="cls-8" d="M1791,558h22v23h-22v-23Z"/>
      </g>
      <g id="g34">
        <path id="text33" class="cls-9" d="M1847.923,555.171v29.829h-3.744v-26.306h-.2l-7.207,5.345v-4.084l6.486-4.785h4.665ZM1864.058,585.4c-1.748,0-3.317-.34-4.705-1.021-1.388-.694-2.496-1.635-3.323-2.823-.827-1.201-1.275-2.562-1.341-4.084h3.684c.12,1.335.721,2.436,1.802,3.303,1.094.854,2.389,1.281,3.884,1.281,1.201,0,2.269-.28,3.203-.841.948-.561,1.688-1.335,2.222-2.322s.801-2.109.801-3.363c0-1.281-.28-2.429-.841-3.443s-1.328-1.808-2.302-2.382c-.961-.587-2.069-.881-3.323-.881-.921,0-1.855.147-2.803.44-.948.294-1.715.667-2.302,1.121l-3.563-.44,1.762-14.774h15.695v3.343h-12.492l-1.021,8.708h.16c.614-.507,1.388-.921,2.322-1.241.934-.334,1.915-.5,2.943-.5,1.828,0,3.457.434,4.885,1.301,1.428.854,2.549,2.035,3.363,3.543.827,1.508,1.241,3.223,1.241,5.145,0,1.909-.434,3.61-1.301,5.105-.854,1.495-2.029,2.676-3.523,3.543-1.495.854-3.203,1.281-5.125,1.281ZM1906.28,585.581c-1.268,0-2.342-.274-3.223-.821-.868-.561-1.528-1.301-1.982-2.222-.44-.921-.661-1.929-.661-3.023v-1.562c0-1.094.227-2.095.681-3.003.454-.921,1.114-1.655,1.982-2.202.881-.561,1.949-.841,3.203-.841,1.281,0,2.356.28,3.223.841.868.547,1.515,1.281,1.942,2.202.44.908.661,1.909.661,3.003v1.562c0,1.094-.227,2.102-.681,3.023-.44.921-1.094,1.662-1.962,2.222-.854.547-1.915.821-3.183.821ZM1886.921,568.364c-1.268,0-2.342-.274-3.223-.821-.868-.561-1.528-1.301-1.982-2.222-.44-.921-.661-1.929-.661-3.023v-1.562c0-1.094.227-2.095.681-3.003.454-.921,1.114-1.655,1.982-2.202.881-.561,1.949-.841,3.203-.841,1.281,0,2.349.28,3.203.841.868.547,1.521,1.281,1.962,2.202.44.908.661,1.909.661,3.003v1.562c0,1.094-.227,2.102-.681,3.023-.44.921-1.094,1.662-1.962,2.222-.854.547-1.915.821-3.183.821ZM1884.538,585l20.5-29.829h3.383l-20.5,29.829h-3.383ZM1906.28,582.958c1.014,0,1.728-.347,2.142-1.041.414-.707.621-1.508.621-2.402v-1.562c0-.881-.2-1.675-.601-2.382s-1.121-1.061-2.162-1.061c-1.001,0-1.722.354-2.162,1.061-.427.707-.641,1.501-.641,2.382v1.562c0,.894.207,1.695.621,2.402.427.694,1.154,1.041,2.182,1.041ZM1886.921,565.741c1.014,0,1.728-.347,2.142-1.041.414-.707.621-1.508.621-2.402v-1.562c0-.881-.2-1.675-.601-2.382s-1.121-1.061-2.162-1.061c-1.001,0-1.722.354-2.162,1.061-.427.707-.641,1.501-.641,2.382v1.562c0,.894.207,1.695.621,2.402.427.694,1.154,1.041,2.182,1.041Z"/>
      </g>
      <g id="g35">
        <path id="rect34" class="cls-11" d="M1328,236h23v22h-23v-22Z"/>
      </g>
      <g id="g36">
        <path id="text35" class="cls-9" d="M1376.404,262l13.253-26.246v-.24h-15.295v-3.343h19.279v3.543l-13.233,26.286h-4.004ZM1407.274,262.4c-1.695,0-3.203-.334-4.524-1.001-1.321-.667-2.402-1.602-3.243-2.803s-1.381-2.596-1.622-4.184h3.764c.307,1.321.928,2.422,1.862,3.303.934.881,2.189,1.321,3.764,1.321,2.269,0,4.057-.988,5.365-2.963,1.321-1.989,1.982-4.791,1.982-8.408h-.24c-.801,1.215-1.835,2.182-3.103,2.903s-2.683,1.081-4.244,1.081c-1.708,0-3.277-.42-4.705-1.261-1.428-.854-2.569-2.022-3.423-3.503-.841-1.495-1.261-3.196-1.261-5.105,0-1.855.42-3.543,1.261-5.065.841-1.535,2.015-2.749,3.523-3.644,1.521-.908,3.303-1.341,5.345-1.301,1.228.013,2.456.254,3.684.721,1.228.454,2.349,1.208,3.363,2.262s1.828,2.489,2.442,4.304.921,4.097.921,6.847c0,5.272-.974,9.342-2.923,12.212-1.949,2.856-4.611,4.284-7.988,4.284ZM1407.594,248.327c1.215,0,2.309-.307,3.283-.921.974-.627,1.748-1.448,2.322-2.462.587-1.014.881-2.102.881-3.263,0-1.148-.28-2.215-.841-3.203-.547-1.001-1.301-1.808-2.262-2.422-.948-.627-2.035-.941-3.263-.941-1.201,0-2.282.3-3.243.901-.948.587-1.702,1.388-2.262,2.402-.561,1.001-.841,2.115-.841,3.343,0,1.215.267,2.322.801,3.323.547.988,1.288,1.775,2.222,2.362.934.587,2.002.881,3.203.881ZM1450.456,262.581c-1.268,0-2.342-.274-3.223-.821-.868-.561-1.528-1.301-1.982-2.222-.44-.921-.661-1.929-.661-3.023v-1.562c0-1.094.227-2.095.681-3.003.454-.921,1.114-1.655,1.982-2.202.881-.561,1.949-.841,3.203-.841,1.281,0,2.356.28,3.223.841.868.547,1.515,1.281,1.942,2.202.44.908.661,1.909.661,3.003v1.562c0,1.094-.227,2.102-.681,3.023-.44.921-1.094,1.662-1.962,2.222-.854.547-1.915.821-3.183.821ZM1431.097,245.364c-1.268,0-2.342-.274-3.223-.821-.868-.561-1.528-1.301-1.982-2.222-.44-.921-.661-1.929-.661-3.023v-1.562c0-1.094.227-2.095.681-3.003.454-.921,1.114-1.655,1.982-2.202.881-.561,1.949-.841,3.203-.841,1.281,0,2.349.28,3.203.841.868.547,1.521,1.281,1.962,2.202.44.908.661,1.909.661,3.003v1.562c0,1.094-.227,2.102-.681,3.023-.44.921-1.094,1.662-1.962,2.222-.854.547-1.915.821-3.183.821ZM1428.715,262l20.5-29.829h3.383l-20.5,29.829h-3.383ZM1450.456,259.958c1.014,0,1.728-.347,2.142-1.041.414-.707.621-1.508.621-2.402v-1.562c0-.881-.2-1.675-.601-2.382s-1.121-1.061-2.162-1.061c-1.001,0-1.722.354-2.162,1.061-.427.707-.641,1.501-.641,2.382v1.562c0,.894.207,1.695.621,2.402.427.694,1.154,1.041,2.182,1.041ZM1431.097,242.741c1.014,0,1.728-.347,2.142-1.041.414-.707.621-1.508.621-2.402v-1.562c0-.881-.2-1.675-.601-2.382s-1.121-1.061-2.162-1.061c-1.001,0-1.722.354-2.162,1.061-.427.707-.641,1.501-.641,2.382v1.562c0,.894.207,1.695.621,2.402.427.694,1.154,1.041,2.182,1.041Z"/>
      </g>
      <g id="g37">
        <path id="text36" class="cls-9" d="M1528.035,96v-46.562h17.781c3.417,0,6.365.604,8.844,1.812,2.5,1.208,4.417,2.927,5.75,5.156,1.354,2.229,2.031,4.865,2.031,7.906,0,3.062-.688,5.708-2.062,7.938s-3.323,3.958-5.844,5.188c-2.5,1.208-5.458,1.812-8.875,1.812h-9.375v16.75h-8.25ZM1536.285,72.188h9.062c2.771,0,4.958-.698,6.562-2.094,1.604-1.417,2.406-3.344,2.406-5.781,0-2.417-.802-4.323-2.406-5.719s-3.792-2.094-6.562-2.094h-9.062v15.688ZM1580.504,96.75c-3.208,0-6.031-.729-8.469-2.188-2.417-1.458-4.302-3.479-5.656-6.062-1.333-2.583-2-5.573-2-8.969s.667-6.385,2-8.969c1.354-2.604,3.24-4.635,5.656-6.094,2.438-1.479,5.26-2.219,8.469-2.219,2.771,0,5.24.542,7.406,1.625,2.167,1.062,3.906,2.542,5.219,4.438,1.333,1.875,2.115,4.042,2.344,6.5h-7.719c-.292-1.771-1.052-3.208-2.281-4.312-1.208-1.125-2.833-1.688-4.875-1.688-2.583,0-4.604.969-6.062,2.906s-2.188,4.542-2.188,7.812c0,3.25.729,5.844,2.188,7.781,1.458,1.917,3.479,2.875,6.062,2.875,2.062,0,3.667-.542,4.812-1.625,1.146-1.104,1.906-2.573,2.281-4.406h7.781c-.188,2.417-.948,4.573-2.281,6.469-1.312,1.896-3.062,3.396-5.25,4.5-2.167,1.083-4.646,1.625-7.438,1.625ZM1618.16,63v6.344h-6.719v17.188c0,1.188.24,2.01.719,2.469.479.438,1.354.656,2.625.656h3.375v6.344h-4.75c-3.354,0-5.844-.677-7.469-2.031-1.604-1.354-2.406-3.448-2.406-6.281v-18.344h-5.75v-6.344h5.75v-9h7.906v9h6.719ZM1627.191,96.562c-1.354,0-2.5-.469-3.438-1.406-.938-.958-1.406-2.104-1.406-3.438,0-1.354.469-2.5,1.406-3.438s2.083-1.406,3.438-1.406,2.5.469,3.438,1.406,1.406,2.083,1.406,3.438c0,1.333-.469,2.479-1.406,3.438-.938.938-2.083,1.406-3.438,1.406ZM1668.629,96.75c-5.771,0-10.292-1.406-13.562-4.219-3.25-2.833-4.875-6.74-4.875-11.719h8.094c.042,2.812.969,5.01,2.781,6.594,1.833,1.583,4.375,2.375,7.625,2.375,2.896,0,5.229-.604,7-1.812,1.771-1.229,2.656-2.865,2.656-4.906,0-1.646-.667-2.979-2-4-1.333-1.042-3.552-1.917-6.656-2.625l-5-1.125c-4.646-1.062-8.073-2.635-10.281-4.719s-3.312-4.76-3.312-8.031c0-2.771.708-5.198,2.125-7.281,1.438-2.083,3.438-3.698,6-4.844,2.583-1.167,5.583-1.75,9-1.75,5.208,0,9.333,1.323,12.375,3.969,3.062,2.646,4.656,6.281,4.781,10.906h-7.844c-.167-2.458-1.083-4.385-2.75-5.781s-3.865-2.094-6.594-2.094c-2.583,0-4.698.604-6.344,1.812s-2.469,2.76-2.469,4.656c0,1.562.646,2.833,1.938,3.812,1.312.958,3.49,1.781,6.531,2.469l4.719,1.094c4.833,1.062,8.375,2.646,10.625,4.75s3.375,4.865,3.375,8.281c0,2.896-.729,5.406-2.188,7.531s-3.531,3.771-6.219,4.938c-2.688,1.146-5.865,1.719-9.531,1.719ZM1702.41,96.531c-3.292,0-6.021-.823-8.188-2.469-2.146-1.667-3.219-4.146-3.219-7.438,0-2.5.604-4.427,1.812-5.781,1.229-1.375,2.823-2.375,4.781-3,1.979-.625,4.104-1.052,6.375-1.281,3.062-.354,5.198-.667,6.406-.938s1.812-.969,1.812-2.094v-.25c0-1.417-.542-2.573-1.625-3.469-1.062-.896-2.531-1.344-4.406-1.344-1.917,0-3.479.448-4.688,1.344-1.188.896-1.833,2.042-1.938,3.438h-7.594c.188-3.271,1.552-5.906,4.094-7.906s5.969-3,10.281-3,7.646,1,10.062,3,3.625,4.719,3.625,8.156v22.5h-7.75v-4.656h-.125c-.792,1.458-1.938,2.688-3.438,3.688s-3.594,1.5-6.281,1.5ZM1704.348,90.688c2.583,0,4.542-.667,5.875-2,1.333-1.354,2-2.99,2-4.906v-3.562c-.479.312-1.406.604-2.781.875-1.375.25-2.875.5-4.5.75-1.688.25-3.156.729-4.406,1.438-1.229.688-1.844,1.781-1.844,3.281,0,1.292.51,2.302,1.531,3.031s2.396,1.094,4.125,1.094ZM1734.848,49.438v46.562h-7.875v-46.562h7.875ZM1756.41,96.75c-3.292,0-6.146-.74-8.562-2.219-2.417-1.479-4.281-3.51-5.594-6.094-1.292-2.604-1.938-5.573-1.938-8.906,0-3.354.667-6.323,2-8.906,1.354-2.604,3.219-4.646,5.594-6.125,2.375-1.5,5.104-2.25,8.188-2.25,3.167,0,5.938.729,8.312,2.188,2.375,1.458,4.219,3.479,5.531,6.062,1.312,2.562,1.969,5.531,1.969,8.906v2.156h-23.875c.104,2.688.896,4.854,2.375,6.5,1.479,1.646,3.542,2.469,6.188,2.469,1.979,0,3.615-.427,4.906-1.281,1.292-.875,2.167-2.021,2.625-3.438h7.375c-.417,2.146-1.333,4.042-2.75,5.688-1.396,1.646-3.156,2.938-5.281,3.875-2.125.917-4.479,1.375-7.062,1.375ZM1748.098,76.125h16.25c-.25-2.354-1.104-4.208-2.562-5.562-1.438-1.375-3.292-2.062-5.562-2.062-2.292,0-4.156.688-5.594,2.062-1.417,1.354-2.26,3.208-2.531,5.562ZM1790.191,96.781c-4.021,0-7.385-.938-10.094-2.812-2.688-1.896-4.156-4.615-4.406-8.156h7.781c.167,1.604.812,2.854,1.938,3.75,1.125.875,2.677,1.312,4.656,1.312,1.896,0,3.385-.375,4.469-1.125,1.104-.75,1.656-1.708,1.656-2.875,0-1-.406-1.802-1.219-2.406s-1.906-1.052-3.281-1.344l-5.625-1.156c-6.417-1.333-9.625-4.51-9.625-9.531,0-3.042,1.208-5.49,3.625-7.344,2.417-1.875,5.635-2.812,9.656-2.812,4,0,7.25.99,9.75,2.969,2.521,1.958,3.823,4.635,3.906,8.031h-7.406c-.042-1.479-.615-2.698-1.719-3.656s-2.552-1.438-4.344-1.438c-1.729,0-3.094.385-4.094,1.156s-1.5,1.719-1.5,2.844c0,.979.385,1.781,1.156,2.406.771.604,1.844,1.062,3.219,1.375l5.938,1.219c3.271.688,5.677,1.771,7.219,3.25,1.562,1.479,2.344,3.427,2.344,5.844,0,2.146-.604,4.01-1.812,5.594-1.188,1.562-2.833,2.771-4.938,3.625-2.104.854-4.521,1.281-7.25,1.281ZM1841.848,96.656c-2.167,0-4.125-.469-5.875-1.406-1.729-.938-3.104-2.365-4.125-4.281h-.062v5.031h-7.75v-46.562h7.875v18.25h.062c1.062-1.812,2.448-3.156,4.156-4.031s3.625-1.312,5.75-1.312c2.833,0,5.312.729,7.438,2.188,2.146,1.438,3.812,3.448,5,6.031,1.208,2.562,1.812,5.531,1.812,8.906,0,3.438-.594,6.448-1.781,9.031-1.167,2.562-2.823,4.562-4.969,6s-4.656,2.156-7.531,2.156ZM1840.004,90.062c2.438,0,4.406-.906,5.906-2.719,1.5-1.833,2.25-4.458,2.25-7.875,0-3.396-.75-6.01-2.25-7.844s-3.469-2.75-5.906-2.75c-2.583,0-4.656.969-6.219,2.906-1.542,1.917-2.312,4.479-2.312,7.688s.771,5.781,2.312,7.719c1.562,1.917,3.635,2.875,6.219,2.875ZM1861.004,109.062v-6.406h3.906c1.062,0,1.885-.292,2.469-.875.604-.562,1.135-1.49,1.594-2.781l1.219-3.188-12.719-32.812h8.344l6.062,17.188c.417,1.229.823,2.458,1.219,3.688.396,1.208.781,2.417,1.156,3.625.75-2.417,1.542-4.854,2.375-7.312l6.031-17.188h8.25l-14.75,38.438c-1.958,5.083-5.292,7.625-10,7.625h-5.156ZM1930.129,96.75c-4.292,0-8.083-.99-11.375-2.969-3.292-1.979-5.875-4.771-7.75-8.375-1.875-3.604-2.812-7.823-2.812-12.656,0-4.875.938-9.115,2.812-12.719s4.458-6.396,7.75-8.375,7.083-2.969,11.375-2.969c3.5,0,6.667.688,9.5,2.062s5.167,3.312,7,5.812c1.854,2.5,3.042,5.448,3.562,8.844h-8.406c-.625-2.958-1.969-5.25-4.031-6.875s-4.583-2.438-7.562-2.438c-2.833,0-5.281.688-7.344,2.062-2.042,1.375-3.615,3.312-4.719,5.812-1.083,2.5-1.625,5.427-1.625,8.781,0,3.333.542,6.25,1.625,8.75,1.104,2.479,2.677,4.406,4.719,5.781s4.49,2.062,7.344,2.062c2.958,0,5.469-.802,7.531-2.406,2.062-1.604,3.427-3.885,4.094-6.844h8.375c-.521,3.396-1.708,6.344-3.562,8.844-1.833,2.479-4.167,4.406-7,5.781-2.833,1.354-6,2.031-9.5,2.031ZM1970.566,96.75c-3.25,0-6.094-.719-8.531-2.156-2.438-1.458-4.344-3.479-5.719-6.062-1.354-2.583-2.031-5.583-2.031-9s.677-6.417,2.031-9c1.375-2.604,3.281-4.635,5.719-6.094,2.438-1.458,5.281-2.188,8.531-2.188,3.229,0,6.062.729,8.5,2.188,2.458,1.458,4.365,3.49,5.719,6.094,1.375,2.583,2.062,5.583,2.062,9s-.688,6.417-2.062,9c-1.354,2.583-3.26,4.604-5.719,6.062-2.438,1.438-5.271,2.156-8.5,2.156ZM1970.566,90.156c2.521,0,4.531-.948,6.031-2.844,1.5-1.896,2.25-4.49,2.25-7.781s-.75-5.896-2.25-7.812-3.51-2.875-6.031-2.875c-2.542,0-4.562.958-6.062,2.875-1.5,1.896-2.25,4.5-2.25,7.812,0,3.292.75,5.885,2.25,7.781,1.5,1.896,3.521,2.844,6.062,2.844ZM2004.035,96.656c-3.458,0-6.281-1.115-8.469-3.344-2.188-2.229-3.281-5.458-3.281-9.688v-20.625h7.875v19.375c0,2.417.583,4.25,1.75,5.5s2.802,1.875,4.906,1.875c2.083,0,3.802-.646,5.156-1.938,1.375-1.292,2.062-3.344,2.062-6.156v-18.656h7.906v33h-7.75v-5.062c-2.312,3.812-5.698,5.719-10.156,5.719ZM2036.816,77.344v18.656h-7.875v-33h7.75v5.062c2.292-3.812,5.667-5.719,10.125-5.719,3.458,0,6.281,1.115,8.469,3.344,2.208,2.229,3.312,5.458,3.312,9.688v20.625h-7.906v-19.375c0-2.417-.583-4.25-1.75-5.5s-2.802-1.875-4.906-1.875c-2.062,0-3.781.646-5.156,1.938s-2.062,3.344-2.062,6.156ZM2083.004,63v6.344h-6.719v17.188c0,1.188.24,2.01.719,2.469.479.438,1.354.656,2.625.656h3.375v6.344h-4.75c-3.354,0-5.844-.677-7.469-2.031-1.604-1.354-2.406-3.448-2.406-6.281v-18.344h-5.75v-6.344h5.75v-9h7.906v9h6.719ZM2087.973,96v-33h7.594v5.469h.094c.604-1.875,1.552-3.302,2.844-4.281,1.312-1,3.031-1.5,5.156-1.5.542,0,1.021.021,1.438.062.438.021.812.042,1.125.062v7c-.292-.042-.792-.094-1.5-.156s-1.448-.094-2.219-.094c-1.875,0-3.458.646-4.75,1.938-1.271,1.292-1.906,3.229-1.906,5.812v18.688h-7.875ZM2112.129,109.062v-6.406h3.906c1.062,0,1.885-.292,2.469-.875.604-.562,1.135-1.49,1.594-2.781l1.219-3.188-12.719-32.812h8.344l6.062,17.188c.417,1.229.823,2.458,1.219,3.688.396,1.208.781,2.417,1.156,3.625.75-2.417,1.542-4.854,2.375-7.312l6.031-17.188h8.25l-14.75,38.438c-1.958,5.083-5.292,7.625-10,7.625h-5.156Z"/>
      </g>
      <g id="g38">
        <path id="rect37" class="cls-4" d="M2034,303h23v22h-23v-22Z"/>
      </g>
      <g id="g39">
        <path id="text38" class="cls-9" d="M2081.345,327.46c-2.242,0-4.217-.454-5.926-1.361-1.708-.921-3.043-2.175-4.004-3.764-.948-1.602-1.421-3.423-1.421-5.465v-19.699h2.843v19.499c0,1.562.354,2.956,1.061,4.184.707,1.228,1.695,2.195,2.963,2.903,1.281.707,2.776,1.061,4.484,1.061s3.196-.354,4.464-1.061c1.281-.707,2.269-1.675,2.963-2.903.707-1.228,1.061-2.623,1.061-4.184v-19.499h2.843v19.699c0,2.042-.48,3.864-1.441,5.465-.948,1.588-2.276,2.843-3.984,3.764-1.695.908-3.664,1.361-5.906,1.361ZM2102.565,313.046v13.954h-2.723v-22.382h2.623l.02,4.124c.681-1.548,1.635-2.669,2.863-3.363,1.228-.707,2.603-1.061,4.124-1.061,2.269,0,4.111.707,5.525,2.122,1.415,1.401,2.122,3.43,2.122,6.086v14.474h-2.703v-14.274c0-1.828-.514-3.27-1.542-4.324-1.028-1.068-2.402-1.602-4.124-1.602-1.762,0-3.236.561-4.424,1.682-1.174,1.121-1.762,2.643-1.762,4.564ZM2123.966,327v-22.382h2.723v22.382h-2.723ZM2125.348,300.474c-.547,0-1.014-.187-1.401-.561s-.581-.821-.581-1.341.194-.968.581-1.341.854-.561,1.401-.561,1.014.187,1.401.561.581.821.581,1.341-.194.968-.581,1.341-.854.561-1.401.561ZM2141.103,304.618v2.362h-4.604v14.734c0,2.242,1.001,3.263,3.003,3.063.187,0,.414-.02.681-.06.28-.053.541-.107.781-.16l.561,2.342c-.574.187-1.255.294-2.042.32-1.775.12-3.17-.3-4.184-1.261-1.014-.974-1.521-2.329-1.521-4.064v-14.915h-3.323v-2.362h3.323v-5.325h2.723v5.325h4.604ZM2154.496,327.48c-2.095,0-3.91-.487-5.445-1.461-1.521-.988-2.703-2.349-3.543-4.084-.827-1.735-1.241-3.73-1.241-5.986s.407-4.257,1.221-6.006c.827-1.748,1.975-3.123,3.443-4.124,1.481-1.001,3.196-1.501,5.145-1.501,1.628,0,3.17.4,4.625,1.201s2.636,2.022,3.543,3.664,1.361,3.73,1.361,6.266v1.181h-16.596c.053,2.549.754,4.591,2.102,6.126,1.348,1.521,3.15,2.282,5.405,2.282,1.562,0,2.843-.36,3.844-1.081s1.708-1.575,2.122-2.562l2.583.821c-.507,1.401-1.501,2.629-2.983,3.684-1.468,1.054-3.33,1.582-5.585,1.582ZM2147.009,314.288h13.854c-.147-2.175-.814-3.971-2.002-5.385-1.188-1.428-2.783-2.142-4.785-2.142-1.348,0-2.536.34-3.563,1.021s-1.848,1.595-2.462,2.743c-.614,1.134-.961,2.389-1.041,3.764ZM2177.198,327.48c-1.828,0-3.43-.48-4.805-1.441-1.375-.974-2.449-2.329-3.223-4.064-.761-1.748-1.141-3.784-1.141-6.106,0-2.309.387-4.324,1.161-6.046.774-1.735,1.848-3.083,3.223-4.044,1.388-.974,2.99-1.461,4.805-1.461,1.361,0,2.496.247,3.403.741.908.48,1.635,1.074,2.182,1.782.561.707.988,1.401,1.281,2.082h.22v-11.751h2.703v29.829h-2.623v-4.184h-.3c-.294.694-.721,1.401-1.281,2.122s-1.301,1.328-2.222,1.822c-.908.48-2.035.721-3.383.721ZM2177.559,325.018c1.441,0,2.663-.394,3.664-1.181,1.014-.787,1.782-1.868,2.302-3.243.534-1.388.801-2.97.801-4.745s-.267-3.343-.801-4.705c-.521-1.361-1.288-2.429-2.302-3.203-1.001-.774-2.222-1.161-3.664-1.161-1.468,0-2.709.4-3.724,1.201-1.001.801-1.762,1.889-2.282,3.263-.521,1.361-.781,2.896-.781,4.604,0,1.722.26,3.277.781,4.665.534,1.375,1.301,2.469,2.302,3.283,1.014.814,2.249,1.221,3.704,1.221ZM2205.926,327v-29.829h2.843v10.35l-.02,6.066c.908-1.121,1.808-2.202,2.703-3.243.908-1.041,1.855-2.095,2.843-3.163l9.269-10.01h3.744l-12.052,12.933,12.052,16.896h-3.383l-10.63-14.955-4.524,4.805v10.15h-2.843ZM2232.572,327v-22.382h2.723v22.382h-2.723ZM2233.954,300.474c-.547,0-1.014-.187-1.401-.561s-.581-.821-.581-1.341.194-.968.581-1.341.854-.561,1.401-.561,1.014.187,1.401.561.581.821.581,1.341-.194.968-.581,1.341-.854.561-1.401.561ZM2244.864,313.046v13.954h-2.723v-22.382h2.623l.02,4.124c.681-1.548,1.635-2.669,2.863-3.363,1.228-.707,2.603-1.061,4.124-1.061,2.269,0,4.111.707,5.525,2.122,1.415,1.401,2.122,3.43,2.122,6.086v14.474h-2.703v-14.274c0-1.828-.514-3.27-1.542-4.324-1.028-1.068-2.402-1.602-4.124-1.602-1.762,0-3.236.561-4.424,1.682-1.174,1.121-1.762,2.643-1.762,4.564h0ZM2274.833,335.849c-2.282,0-4.157-.427-5.625-1.281-1.455-.854-2.502-1.942-3.143-3.263l2.242-1.361c.48.868,1.221,1.668,2.222,2.402s2.436,1.101,4.304,1.101c1.975,0,3.563-.494,4.765-1.481,1.201-.974,1.802-2.489,1.802-4.544v-5.025h-.26c-.294.694-.727,1.381-1.301,2.062-.561.667-1.295,1.221-2.202,1.662-.908.427-2.029.641-3.363.641-1.775,0-3.357-.434-4.745-1.301-1.375-.881-2.456-2.142-3.243-3.784-.787-1.642-1.181-3.61-1.181-5.906,0-2.282.387-4.278,1.161-5.986.774-1.722,1.855-3.063,3.243-4.024,1.388-.961,2.996-1.441,4.825-1.441,1.361,0,2.496.247,3.403.741.908.48,1.635,1.074,2.182,1.782.561.707.988,1.401,1.281,2.082h.28v-4.304h2.643v22.922c0,1.895-.407,3.457-1.221,4.685-.801,1.228-1.902,2.135-3.303,2.723-1.388.601-2.976.901-4.765.901h0ZM2274.673,324.317c2.135,0,3.797-.761,4.985-2.282,1.188-1.535,1.782-3.644,1.782-6.326,0-1.722-.267-3.257-.801-4.604-.521-1.348-1.281-2.402-2.282-3.163-1.001-.774-2.229-1.161-3.684-1.161-1.468,0-2.716.4-3.744,1.201-1.014.787-1.782,1.855-2.302,3.203-.521,1.348-.781,2.856-.781,4.524,0,2.549.587,4.625,1.762,6.226,1.188,1.588,2.876,2.382,5.065,2.382ZM2298.977,327.48c-1.828,0-3.43-.48-4.805-1.441-1.375-.974-2.449-2.329-3.223-4.064-.761-1.748-1.141-3.784-1.141-6.106,0-2.309.387-4.324,1.161-6.046.774-1.735,1.848-3.083,3.223-4.044,1.388-.974,2.99-1.461,4.805-1.461,1.361,0,2.496.247,3.403.741.908.48,1.635,1.074,2.182,1.782.561.707.988,1.401,1.281,2.082h.22v-11.751h2.703v29.829h-2.623v-4.184h-.3c-.294.694-.721,1.401-1.281,2.122s-1.301,1.328-2.222,1.822c-.908.48-2.035.721-3.383.721ZM2299.337,325.018c1.441,0,2.663-.394,3.664-1.181,1.014-.787,1.782-1.868,2.302-3.243.534-1.388.801-2.97.801-4.745s-.267-3.343-.801-4.705c-.521-1.361-1.288-2.429-2.302-3.203-1.001-.774-2.222-1.161-3.664-1.161-1.468,0-2.709.4-3.724,1.201-1.001.801-1.762,1.889-2.282,3.263-.521,1.361-.781,2.896-.781,4.604,0,1.722.26,3.277.781,4.665.534,1.375,1.301,2.469,2.302,3.283,1.014.814,2.249,1.221,3.704,1.221ZM2324.382,327.48c-1.949,0-3.664-.487-5.145-1.461-1.481-.988-2.643-2.349-3.483-4.084-.841-1.735-1.261-3.737-1.261-6.006,0-2.296.42-4.311,1.261-6.046.841-1.748,2.002-3.11,3.483-4.084,1.481-.988,3.196-1.481,5.145-1.481,1.935,0,3.644.494,5.125,1.481,1.495.974,2.663,2.336,3.503,4.084.841,1.735,1.261,3.75,1.261,6.046,0,2.269-.42,4.271-1.261,6.006-.841,1.735-2.009,3.096-3.503,4.084-1.481.974-3.19,1.461-5.125,1.461ZM2324.382,325.018c1.535,0,2.829-.414,3.884-1.241,1.068-.827,1.882-1.929,2.442-3.303s.841-2.889.841-4.544c0-1.668-.28-3.19-.841-4.564-.561-1.388-1.375-2.496-2.442-3.323-1.068-.841-2.362-1.261-3.884-1.261s-2.816.42-3.884,1.261c-1.054.827-1.862,1.935-2.422,3.323-.561,1.375-.841,2.896-.841,4.564,0,1.655.274,3.17.821,4.544.561,1.375,1.375,2.476,2.442,3.303,1.068.827,2.362,1.241,3.884,1.241ZM2339.957,327v-22.382h2.643l.02,4.144c.561-1.535,1.435-2.669,2.623-3.403,1.188-.747,2.442-1.121,3.764-1.121,1.495,0,2.749.427,3.764,1.281,1.028.854,1.735,2.009,2.122,3.463.534-1.481,1.428-2.643,2.683-3.483,1.268-.841,2.716-1.261,4.344-1.261,1.989,0,3.644.654,4.965,1.962,1.335,1.308,2.002,3.216,2.002,5.726v15.075h-2.723v-14.995c0-1.802-.48-3.13-1.441-3.984-.948-.854-2.122-1.281-3.523-1.281-1.615,0-2.923.507-3.924,1.521-1.001,1.001-1.501,2.329-1.501,3.984v14.754h-2.703v-15.235c0-1.548-.454-2.769-1.361-3.664-.894-.908-2.055-1.361-3.483-1.361-1.495,0-2.796.514-3.904,1.542-1.094,1.028-1.642,2.469-1.642,4.324v14.394h-2.723Z"/>
      </g>
      <g id="g40">
        <path id="rect39" class="cls-8" d="M2034,380h23v22h-23v-22Z"/>
      </g>
      <g id="g41">
        <path id="text40" class="cls-9" d="M2073.037,374.171v29.829h-2.843v-29.829h2.843ZM2080.424,404v-22.382h2.643v3.483h.2c.44-1.148,1.215-2.062,2.322-2.743,1.121-.694,2.376-1.041,3.764-1.041.214,0,.454.007.721.02.267,0,.487.007.661.02v2.723c-.093-.013-.294-.04-.601-.08-.307-.04-.641-.06-1.001-.06-1.735,0-3.17.541-4.304,1.622-1.121,1.068-1.682,2.429-1.682,4.084v14.354h-2.723ZM2103.546,404.48c-2.095,0-3.91-.487-5.445-1.461-1.521-.988-2.703-2.349-3.543-4.084-.827-1.735-1.241-3.73-1.241-5.986s.407-4.257,1.221-6.006c.827-1.748,1.975-3.123,3.443-4.124,1.481-1.001,3.196-1.501,5.145-1.501,1.628,0,3.17.4,4.625,1.201s2.636,2.022,3.543,3.664,1.361,3.73,1.361,6.266v1.181h-16.596c.053,2.549.754,4.591,2.102,6.126,1.348,1.521,3.15,2.282,5.405,2.282,1.562,0,2.843-.36,3.844-1.081s1.708-1.575,2.122-2.562l2.583.821c-.507,1.401-1.501,2.629-2.983,3.684-1.468,1.054-3.33,1.582-5.585,1.582ZM2096.059,391.288h13.854c-.147-2.175-.814-3.971-2.002-5.385-1.188-1.428-2.783-2.142-4.785-2.142-1.348,0-2.536.34-3.563,1.021s-1.848,1.595-2.462,2.743c-.614,1.134-.961,2.389-1.041,3.764ZM2120.963,374.171v29.829h-2.723v-29.829h2.723ZM2133.696,404.5c-1.361,0-2.603-.26-3.724-.781-1.108-.534-1.995-1.301-2.663-2.302-.654-1.001-.981-2.229-.981-3.684,0-1.468.367-2.636,1.101-3.503.734-.881,1.748-1.542,3.043-1.982,1.295-.454,2.783-.781,4.464-.981,1.855-.227,3.29-.434,4.304-.621,1.028-.187,1.542-.707,1.542-1.562v-.521c0-1.495-.454-2.669-1.361-3.523-.908-.868-2.202-1.301-3.884-1.301-1.602,0-2.903.354-3.904,1.061-.988.694-1.675,1.508-2.062,2.442l-2.603-.881c.494-1.215,1.188-2.189,2.082-2.923s1.895-1.268,3.003-1.602c1.121-.347,2.262-.521,3.423-.521.881,0,1.788.12,2.723.36.934.227,1.802.621,2.603,1.181.801.547,1.448,1.308,1.942,2.282.494.961.741,2.182.741,3.664v15.195h-2.663v-3.543h-.2c-.494,1.028-1.321,1.962-2.482,2.803-1.148.827-2.629,1.241-4.444,1.241ZM2134.096,402.078c1.361,0,2.542-.3,3.543-.901,1.001-.614,1.775-1.421,2.322-2.422.547-1.014.821-2.129.821-3.343v-3.183c-.254.24-.734.454-1.441.641-.707.174-1.468.32-2.282.44-.814.107-1.515.2-2.102.28-1.882.227-3.337.667-4.364,1.321-1.028.641-1.542,1.622-1.542,2.943,0,1.335.48,2.376,1.441,3.123.961.734,2.162,1.101,3.604,1.101ZM2153.055,390.046v13.954h-2.723v-22.382h2.623l.02,4.124c.681-1.548,1.635-2.669,2.863-3.363,1.228-.707,2.603-1.061,4.124-1.061,2.269,0,4.111.707,5.525,2.122,1.415,1.401,2.122,3.43,2.122,6.086v14.474h-2.703v-14.274c0-1.828-.514-3.27-1.542-4.324-1.028-1.068-2.402-1.602-4.124-1.602-1.762,0-3.236.561-4.424,1.682-1.174,1.121-1.762,2.643-1.762,4.564ZM2182.463,404.48c-1.828,0-3.43-.48-4.805-1.441-1.375-.974-2.449-2.329-3.223-4.064-.761-1.748-1.141-3.784-1.141-6.106,0-2.309.387-4.324,1.161-6.046.774-1.735,1.848-3.083,3.223-4.044,1.388-.974,2.99-1.461,4.805-1.461,1.361,0,2.496.247,3.403.741.908.48,1.635,1.074,2.182,1.782.561.707.988,1.401,1.281,2.082h.22v-11.751h2.703v29.829h-2.623v-4.184h-.3c-.294.694-.721,1.401-1.281,2.122s-1.301,1.328-2.222,1.822c-.908.48-2.035.721-3.383.721ZM2182.824,402.018c1.441,0,2.663-.394,3.664-1.181,1.014-.787,1.782-1.868,2.302-3.243.534-1.388.801-2.97.801-4.745s-.267-3.343-.801-4.705c-.521-1.361-1.288-2.429-2.302-3.203-1.001-.774-2.222-1.161-3.664-1.161-1.468,0-2.709.4-3.724,1.201-1.001.801-1.762,1.889-2.282,3.263-.521,1.361-.781,2.896-.781,4.604,0,1.722.26,3.277.781,4.665.534,1.375,1.301,2.469,2.302,3.283,1.014.814,2.249,1.221,3.704,1.221h0Z"/>
      </g>
      <g id="g42">
        <path id="rect41" class="cls-11" d="M2034,457h23v22h-23v-22Z"/>
      </g>
      <g id="g43">
        <path id="text42" class="cls-9" d="M2081.345,481.46c-2.242,0-4.217-.454-5.926-1.361-1.708-.921-3.043-2.175-4.004-3.764-.948-1.602-1.421-3.423-1.421-5.465v-19.699h2.843v19.499c0,1.562.354,2.956,1.061,4.184.707,1.228,1.695,2.195,2.963,2.903,1.281.707,2.776,1.061,4.484,1.061s3.196-.354,4.464-1.061c1.281-.707,2.269-1.675,2.963-2.903.707-1.228,1.061-2.623,1.061-4.184v-19.499h2.843v19.699c0,2.042-.48,3.864-1.441,5.465-.948,1.588-2.276,2.843-3.984,3.764-1.695.908-3.664,1.361-5.906,1.361ZM2102.565,467.046v13.954h-2.723v-22.382h2.623l.02,4.124c.681-1.548,1.635-2.669,2.863-3.363,1.228-.707,2.603-1.061,4.124-1.061,2.269,0,4.111.707,5.525,2.122,1.415,1.401,2.122,3.43,2.122,6.086v14.474h-2.703v-14.274c0-1.828-.514-3.27-1.542-4.324-1.028-1.068-2.402-1.602-4.124-1.602-1.762,0-3.236.561-4.424,1.682-1.174,1.121-1.762,2.643-1.762,4.564ZM2123.966,481v-22.382h2.723v22.382h-2.723ZM2125.348,454.474c-.547,0-1.014-.187-1.401-.561s-.581-.821-.581-1.341.194-.968.581-1.341.854-.561,1.401-.561,1.014.187,1.401.561.581.821.581,1.341-.194.968-.581,1.341-.854.561-1.401.561ZM2141.103,458.618v2.362h-4.604v14.734c0,2.242,1.001,3.263,3.003,3.063.187,0,.414-.02.681-.06.28-.053.541-.107.781-.16l.561,2.342c-.574.187-1.255.294-2.042.32-1.775.12-3.17-.3-4.184-1.261-1.014-.974-1.521-2.329-1.521-4.064v-14.915h-3.323v-2.362h3.323v-5.325h2.723v5.325h4.604ZM2154.496,481.48c-2.095,0-3.91-.487-5.445-1.461-1.521-.988-2.703-2.349-3.543-4.084-.827-1.735-1.241-3.73-1.241-5.986s.407-4.257,1.221-6.006c.827-1.748,1.975-3.123,3.443-4.124,1.481-1.001,3.196-1.501,5.145-1.501,1.628,0,3.17.4,4.625,1.201s2.636,2.022,3.543,3.664,1.361,3.73,1.361,6.266v1.181h-16.596c.053,2.549.754,4.591,2.102,6.126,1.348,1.521,3.15,2.282,5.405,2.282,1.562,0,2.843-.36,3.844-1.081s1.708-1.575,2.122-2.562l2.583.821c-.507,1.401-1.501,2.629-2.983,3.684-1.468,1.054-3.33,1.582-5.585,1.582ZM2147.009,468.288h13.854c-.147-2.175-.814-3.971-2.002-5.385-1.188-1.428-2.783-2.142-4.785-2.142-1.348,0-2.536.34-3.563,1.021s-1.848,1.595-2.462,2.743c-.614,1.134-.961,2.389-1.041,3.764ZM2177.198,481.48c-1.828,0-3.43-.48-4.805-1.441-1.375-.974-2.449-2.329-3.223-4.064-.761-1.748-1.141-3.784-1.141-6.106,0-2.309.387-4.324,1.161-6.046.774-1.735,1.848-3.083,3.223-4.044,1.388-.974,2.99-1.461,4.805-1.461,1.361,0,2.496.247,3.403.741.908.48,1.635,1.074,2.182,1.782.561.707.988,1.401,1.281,2.082h.22v-11.751h2.703v29.829h-2.623v-4.184h-.3c-.294.694-.721,1.401-1.281,2.122s-1.301,1.328-2.222,1.822c-.908.48-2.035.721-3.383.721ZM2177.559,479.018c1.441,0,2.663-.394,3.664-1.181,1.014-.787,1.782-1.868,2.302-3.243.534-1.388.801-2.97.801-4.745s-.267-3.343-.801-4.705c-.521-1.361-1.288-2.429-2.302-3.203-1.001-.774-2.222-1.161-3.664-1.161-1.468,0-2.709.4-3.724,1.201-1.001.801-1.762,1.889-2.282,3.263-.521,1.361-.781,2.896-.781,4.604,0,1.722.26,3.277.781,4.665.534,1.375,1.301,2.469,2.302,3.283,1.014.814,2.249,1.221,3.704,1.221ZM2214.895,481.5c-3.056,0-5.499-.741-7.327-2.222s-2.823-3.423-2.983-5.826h2.903c.147,1.775.921,3.13,2.322,4.064,1.415.934,3.11,1.401,5.085,1.401,1.481,0,2.789-.247,3.924-.741,1.148-.494,2.049-1.181,2.703-2.062s.981-1.915.981-3.103c0-1.495-.567-2.636-1.702-3.423s-2.636-1.461-4.504-2.022l-3.523-1.021c-2.376-.694-4.204-1.662-5.485-2.903-1.281-1.255-1.922-2.829-1.922-4.725,0-1.615.427-3.036,1.281-4.264.868-1.228,2.042-2.182,3.523-2.863,1.481-.694,3.143-1.041,4.985-1.041,1.882,0,3.537.347,4.965,1.041,1.441.694,2.576,1.635,3.403,2.823.841,1.188,1.295,2.542,1.361,4.064h-2.783c-.174-1.655-.901-2.963-2.182-3.924s-2.896-1.441-4.845-1.441c-2.042,0-3.71.521-5.005,1.562-1.281,1.028-1.922,2.336-1.922,3.924,0,1.028.287,1.889.861,2.583.587.681,1.328,1.241,2.222,1.682.908.44,1.842.801,2.803,1.081l3.123.901c1.281.36,2.542.854,3.784,1.481,1.255.627,2.289,1.461,3.103,2.502.827,1.041,1.241,2.382,1.241,4.024,0,1.615-.414,3.056-1.241,4.324-.827,1.268-2.022,2.276-3.583,3.023-1.548.734-3.403,1.101-5.565,1.101ZM2238.878,458.618v2.362h-4.604v14.734c0,2.242,1.001,3.263,3.003,3.063.187,0,.414-.02.681-.06.28-.053.541-.107.781-.16l.561,2.342c-.574.187-1.255.294-2.042.32-1.775.12-3.17-.3-4.184-1.261-1.014-.974-1.521-2.329-1.521-4.064v-14.915h-3.323v-2.362h3.323v-5.325h2.723v5.325h4.605ZM2249.689,481.5c-1.361,0-2.603-.26-3.724-.781-1.108-.534-1.995-1.301-2.663-2.302-.654-1.001-.981-2.229-.981-3.684,0-1.468.367-2.636,1.101-3.503.734-.881,1.748-1.542,3.043-1.982,1.295-.454,2.783-.781,4.464-.981,1.855-.227,3.29-.434,4.304-.621,1.028-.187,1.542-.707,1.542-1.562v-.521c0-1.495-.454-2.669-1.361-3.523-.908-.868-2.202-1.301-3.884-1.301-1.602,0-2.903.354-3.904,1.061-.988.694-1.675,1.508-2.062,2.442l-2.603-.881c.494-1.215,1.188-2.189,2.082-2.923.894-.734,1.895-1.268,3.003-1.602,1.121-.347,2.262-.521,3.423-.521.881,0,1.788.12,2.723.36.934.227,1.802.621,2.603,1.181.801.547,1.448,1.308,1.942,2.282.494.961.741,2.182.741,3.664v15.195h-2.663v-3.543h-.2c-.494,1.028-1.321,1.962-2.482,2.803-1.148.827-2.629,1.241-4.444,1.241h0ZM2250.089,479.078c1.361,0,2.542-.3,3.543-.901,1.001-.614,1.775-1.421,2.322-2.422.547-1.014.821-2.129.821-3.343v-3.183c-.254.24-.734.454-1.441.641-.707.174-1.468.32-2.282.44-.814.107-1.515.2-2.102.28-1.882.227-3.337.667-4.364,1.321-1.028.641-1.542,1.622-1.542,2.943,0,1.335.48,2.376,1.441,3.123.961.734,2.162,1.101,3.604,1.101ZM2273.893,458.618v2.362h-4.604v14.734c0,2.242,1.001,3.263,3.003,3.063.187,0,.414-.02.681-.06.28-.053.541-.107.781-.16l.561,2.342c-.574.187-1.255.294-2.042.32-1.775.12-3.17-.3-4.184-1.261-1.014-.974-1.521-2.329-1.521-4.064v-14.915h-3.323v-2.362h3.323v-5.325h2.723v5.325h4.605ZM2287.286,481.48c-2.095,0-3.91-.487-5.445-1.461-1.521-.988-2.703-2.349-3.543-4.084-.827-1.735-1.241-3.73-1.241-5.986s.407-4.257,1.221-6.006c.827-1.748,1.975-3.123,3.443-4.124,1.481-1.001,3.196-1.501,5.145-1.501,1.628,0,3.17.4,4.625,1.201,1.455.801,2.636,2.022,3.543,3.664s1.361,3.73,1.361,6.266v1.181h-16.596c.053,2.549.754,4.591,2.102,6.126,1.348,1.521,3.15,2.282,5.405,2.282,1.562,0,2.843-.36,3.844-1.081,1.001-.721,1.708-1.575,2.122-2.562l2.583.821c-.507,1.401-1.501,2.629-2.983,3.684-1.468,1.054-3.33,1.582-5.585,1.582h0ZM2279.798,468.288h13.854c-.147-2.175-.814-3.971-2.002-5.385-1.188-1.428-2.783-2.142-4.785-2.142-1.348,0-2.536.34-3.563,1.021-1.028.681-1.848,1.595-2.462,2.743-.614,1.134-.961,2.389-1.041,3.764ZM2309.107,481.48c-2.202,0-4.024-.494-5.465-1.481-1.428-1.001-2.342-2.442-2.743-4.324l2.603-.621c.32,1.348.954,2.356,1.902,3.023.961.654,2.182.981,3.664.981,1.695,0,3.05-.38,4.064-1.141,1.028-.761,1.542-1.708,1.542-2.843,0-1.815-1.215-3.016-3.644-3.604l-3.644-.881c-3.83-.921-5.746-2.903-5.746-5.946,0-1.255.334-2.356,1.001-3.303.681-.948,1.608-1.688,2.783-2.222,1.188-.534,2.536-.801,4.044-.801,2.109,0,3.777.48,5.005,1.441,1.241.948,2.122,2.229,2.643,3.844l-2.482.641c-.347-1.028-.928-1.875-1.742-2.542-.801-.681-1.935-1.021-3.403-1.021-1.481,0-2.703.36-3.664,1.081-.961.707-1.441,1.615-1.441,2.723,0,1.842,1.335,3.083,4.004,3.724l3.423.821c3.777.908,5.666,2.869,5.666,5.886,0,1.281-.354,2.416-1.061,3.403-.707.988-1.695,1.762-2.963,2.322-1.255.561-2.703.841-4.344.841h0Z"/>
      </g>
    </g>
  </g>
</svg>